<svg xmlns="http://www.w3.org/2000/svg" width="24.066" height="18.086" viewBox="0 0 24.066 18.086"><path d="M1818.163,959.923h8.86a3.291,3.291,0,0,1,3.291,3.291V967.7a3.291,3.291,0,0,1-3.291,3.291h-5.465l-2.964,2.781a.517.517,0,0,1-.87-.377v-2.435a3.291,3.291,0,0,1-2.851-3.261v-4.484A3.291,3.291,0,0,1,1818.163,959.923Z" transform="translate(-1814.872 -959.923)" fill="#929bf1"/><path d="M1955.37,1010.729h-9.6a3.567,3.567,0,0,0-3.567,3.567v4.861a3.567,3.567,0,0,0,3.567,3.567h5.924l3.213,3.015a.56.56,0,0,0,.944-.408v-2.639a3.567,3.567,0,0,0,3.09-3.534V1014.3A3.567,3.567,0,0,0,1955.37,1010.729Z" transform="translate(-1934.871 -1007.805)" fill="#5c6cfc"/></svg>