<svg xmlns="http://www.w3.org/2000/svg" width="111.429" height="107.503" viewBox="0 0 111.429 107.503"><g transform="translate(-1468.932 -227.276)"><rect width="111.429" height="107.503" rx="11" transform="translate(1468.932 227.276)" fill="#1453a3"/><rect width="107.429" height="103.132" rx="9" transform="translate(1468.932 227.276)" fill="#2b70c9"/><rect width="92.983" height="27.931" rx="4" transform="translate(1476.154 235.87)" fill="#fff"/><path d="M6-.24a1.418,1.418,0,0,1-.517.248,2.731,2.731,0,0,1-.8.113A2.391,2.391,0,0,1,3.8-.03a.916.916,0,0,1-.518-.42q-.21-.435-.51-1.155T2.13-3.233q-.345-.908-.683-1.86t-.63-1.89Q.525-7.92.33-8.685a1.532,1.532,0,0,1,.488-.33,1.633,1.633,0,0,1,.7-.15,1.2,1.2,0,0,1,.743.21,1.27,1.27,0,0,1,.412.7q.495,1.635.983,3.142T4.68-2h.075q.33-1,.675-2.16t.682-2.37Q6.45-7.74,6.735-8.91A2.27,2.27,0,0,1,7.207-9.1a2.079,2.079,0,0,1,.548-.067,1.348,1.348,0,0,1,.765.21.752.752,0,0,1,.315.675,4.494,4.494,0,0,1-.15.915q-.15.63-.413,1.44T7.7-4.238Q7.38-3.36,7.058-2.55t-.6,1.425A6.7,6.7,0,0,1,6-.24ZM9.9-9.255a1.1,1.1,0,0,1,.33-.81,1.157,1.157,0,0,1,.855-.33,1.157,1.157,0,0,1,.855.33,1.1,1.1,0,0,1,.33.81,1.126,1.126,0,0,1-.33.818,1.143,1.143,0,0,1-.855.337,1.143,1.143,0,0,1-.855-.337A1.126,1.126,0,0,1,9.9-9.255Zm.135,5.3h2.1V-.015q-.135.03-.39.075a3.2,3.2,0,0,1-.555.045,1.462,1.462,0,0,1-.877-.21.906.906,0,0,1-.278-.765Zm2.1,1.08h-2.1V-7.1q.135-.03.39-.075a3.2,3.2,0,0,1,.555-.045,1.462,1.462,0,0,1,.878.21.927.927,0,0,1,.278.78Zm7.155-8.34,1.065-1.335a1.208,1.208,0,0,1,.78.24.668.668,0,0,1,.255.51.776.776,0,0,1-.112.42,2.146,2.146,0,0,1-.353.405l-.945.99a1.054,1.054,0,0,1-.675-.2.581.581,0,0,1-.255-.457.683.683,0,0,1,.053-.262A1.488,1.488,0,0,1,19.29-11.22ZM14.955-2.565l-.09-1.44L18.7-4.59a1.416,1.416,0,0,0-.4-.855A1.343,1.343,0,0,0,17.28-5.82a1.579,1.579,0,0,0-1.185.48A2.005,2.005,0,0,0,15.6-3.96l.06.945a1.746,1.746,0,0,0,.72,1.26,2.511,2.511,0,0,0,1.425.39,3.748,3.748,0,0,0,1.177-.18,3.96,3.96,0,0,0,.878-.39,1.155,1.155,0,0,1,.352.36.882.882,0,0,1,.142.48A.915.915,0,0,1,20-.375a2.316,2.316,0,0,1-.952.45,5.717,5.717,0,0,1-1.38.15A4.75,4.75,0,0,1,15.592-.21a3.269,3.269,0,0,1-1.425-1.305,4.162,4.162,0,0,1-.517-2.16,4.148,4.148,0,0,1,.3-1.635,3.282,3.282,0,0,1,.8-1.163,3.289,3.289,0,0,1,1.155-.682,4.135,4.135,0,0,1,1.358-.225,3.716,3.716,0,0,1,1.778.4,3.075,3.075,0,0,1,1.193,1.11,3.022,3.022,0,0,1,.435,1.62.908.908,0,0,1-.24.683,1.154,1.154,0,0,1-.66.293Zm3.06-5.91-.735-.87q-.375.42-.653.727t-.592.682a1.268,1.268,0,0,1-.765-.24.7.7,0,0,1-.285-.57.737.737,0,0,1,.135-.443,3.292,3.292,0,0,1,.405-.443l.645-.675a2.2,2.2,0,0,1,.525-.4,1.3,1.3,0,0,1,.615-.143,1.474,1.474,0,0,1,.622.128,1.822,1.822,0,0,1,.608.547l1.125,1.365a.906.906,0,0,1-.2.592.757.757,0,0,1-.622.248A.747.747,0,0,1,18.4-8.1,1.935,1.935,0,0,1,18.015-8.475ZM22.14-3.96h2.085V-2.3a.733.733,0,0,0,.278.645,1.327,1.327,0,0,0,.772.2,2.563,2.563,0,0,0,.5-.053,2.828,2.828,0,0,0,.458-.128,1.108,1.108,0,0,1,.21.308,1.013,1.013,0,0,1,.09.442.949.949,0,0,1-.412.78A2.27,2.27,0,0,1,24.765.21a3.018,3.018,0,0,1-1.928-.555,2.164,2.164,0,0,1-.7-1.8Zm1.3-1.425v-1.62h2.91a1.5,1.5,0,0,1,.142.33,1.514,1.514,0,0,1,.068.465.868.868,0,0,1-.195.622.7.7,0,0,1-.525.2Zm.78,1.815H22.14v-5.4a2.885,2.885,0,0,1,.4-.09,3.236,3.236,0,0,1,.548-.045,1.431,1.431,0,0,1,.862.21.906.906,0,0,1,.278.765Z" transform="translate(1507.646 255.775)" fill="#2b70c9"/><g transform="translate(1495.645 272.36)"><path d="M21.186,92.074a4.215,4.215,0,0,0-5.048-1.629l-5.6,2.663a4.534,4.534,0,0,0-1.969,1.843L.464,108.934a5.066,5.066,0,0,0,1.974,6.487,4.323,4.323,0,0,0,3.947.05,4.528,4.528,0,0,0,2.421-2.949L20.893,94.331A1.717,1.717,0,0,0,21.186,92.074Zm0,0" transform="translate(0.001 -81.74)" fill="#ffbfab"/><path d="M95.882,330H90v5.885a2.943,2.943,0,1,0,5.886,0,2.943,2.943,0,1,0,5.886,0V330Zm0,0" transform="translate(-80.128 -295.813)" fill="#ffbfab"/><path d="M132.034,109.655h-2.688L113.563,102,100.5,119.337l34.48,5.032,2.943-11.771-2.943-2.943Zm0,0" transform="translate(-86.11 -91.228)" fill="#ffcebf"/><path d="M36.412,334.943a1.333,1.333,0,0,1-.343.335l-3.737,2.772a1.456,1.456,0,0,1-2.266-1.587L31.393,332a1.332,1.332,0,0,1,.2-.436l4.1-.723Zm0,0" transform="translate(-27.055 -296.57)" fill="#afafaf"/><path d="M41.458,330.848l.723,4.1a1.339,1.339,0,0,1-.343.335L38.1,338.053a1.431,1.431,0,0,1-1.707.026Zm0,0" transform="translate(-32.824 -296.574)" fill="#777"/><path d="M260.08,4.009l-2.532,3.616-4.1.723-.723-4.1L255.259.634a1.457,1.457,0,0,1,2.049-.361l2.411,1.688a1.457,1.457,0,0,1,.361,2.049Zm0,0" transform="translate(-228.241 -0.001)" fill="#54469d"/><path d="M266.725,14.268l-2.532,3.616-4.1.723,5.064-7.232,1.205.844a1.457,1.457,0,0,1,.362,2.049Zm0,0" transform="translate(-234.854 -10.259)" fill="#392e6e"/><path d="M46.246,74.24,66.5,43.3l4.821,3.61L51.068,77.85Zm0,0" transform="translate(-41.71 -39.477)" fill="#ea2b2b"/><path d="M70.824,91.558,91.08,60.512l2.411,1.811L73.235,93.369Zm0,0" transform="translate(-63.877 -54.996)" fill="#fc4848"/><path d="M64.911,270a4.44,4.44,0,1,0,0,8.828H77.629l1.812.813a24.694,24.694,0,0,0,10.044,2.13,25.723,25.723,0,0,0,10.262-2.13l4.7-2.111V270Zm0,0" transform="translate(-54.111 -241.698)" fill="#ffcebf"/><path d="M454.129,203.385l3.161-2.345a1.471,1.471,0,0,0,.6-1.182V181.471A1.472,1.472,0,0,0,456.414,180H452v22.069a1.472,1.472,0,0,0,2.129,1.316Zm0,0" transform="translate(-403.133 -163.467)" fill="#463b85"/></g></g></svg>