<svg xmlns="http://www.w3.org/2000/svg" xmlns:xlink="http://www.w3.org/1999/xlink" width="111.429" height="107.503" viewBox="0 0 111.429 107.503"><defs><clipPath id="a"><rect width="67.033" height="56.347" fill="none" stroke="#707070" stroke-width="1"/></clipPath></defs><g transform="translate(-1337.359 -227.276)"><rect width="111.429" height="107.503" rx="11" transform="translate(1337.359 227.276)" fill="#9864e8"/><rect width="107.429" height="103.132" rx="9" transform="translate(1337.359 227.276)" fill="#ce82ff"/><rect width="92.983" height="27.931" rx="4" transform="translate(1344.582 235.87)" fill="#fff"/><path d="M5.895-5.43v1.545H2.445V-5.43ZM4.7-3.885l.21-1.185a5.819,5.819,0,0,1,2.017.3,2.619,2.619,0,0,1,1.215.848,2.1,2.1,0,0,1,.413,1.3A2.373,2.373,0,0,1,7.478-.488,5.562,5.562,0,0,1,4.44.21q-.36,0-.817-.023a8.116,8.116,0,0,1-.915-.1A5.123,5.123,0,0,1,1.86-.12.981.981,0,0,1,1.1-1.08V-8.31a.608.608,0,0,1,.165-.45A1.091,1.091,0,0,1,1.7-9.015a6.069,6.069,0,0,1,1.215-.24A13.752,13.752,0,0,1,4.365-9.33a5.333,5.333,0,0,1,2.842.638A2.138,2.138,0,0,1,8.22-6.75a1.894,1.894,0,0,1-.413,1.23,2.566,2.566,0,0,1-1.192.78,5.975,5.975,0,0,1-1.935.27l-.105-.96a1.772,1.772,0,0,0,1.133-.3,1.041,1.041,0,0,0,.367-.855.917.917,0,0,0-.428-.81A2.3,2.3,0,0,0,4.38-7.68q-.315,0-.645.023a3.939,3.939,0,0,0-.54.067v6.015a4.327,4.327,0,0,0,.638.09q.382.03.728.03a2.4,2.4,0,0,0,1.305-.308,1.051,1.051,0,0,0,.48-.953,1,1,0,0,0-.42-.878A2.148,2.148,0,0,0,4.7-3.885Zm8.28,2.55A3.35,3.35,0,0,0,13.7-1.41a1.626,1.626,0,0,0,.5-.18V-3.12L12.855-3a1.821,1.821,0,0,0-.84.24.637.637,0,0,0-.3.57.747.747,0,0,0,.3.623A1.576,1.576,0,0,0,12.975-1.335ZM12.9-7.38a4.137,4.137,0,0,1,2.423.637,2.277,2.277,0,0,1,.907,2v3.42a.877.877,0,0,1-.187.593,2.092,2.092,0,0,1-.472.4,3.861,3.861,0,0,1-1.1.405,6.8,6.8,0,0,1-1.5.15A4.343,4.343,0,0,1,10.567-.36a1.959,1.959,0,0,1-.892-1.755,1.942,1.942,0,0,1,.63-1.56,3.327,3.327,0,0,1,1.875-.66l2.01-.21V-4.77a.837.837,0,0,0-.4-.78,2.249,2.249,0,0,0-1.14-.24,4.506,4.506,0,0,0-1.125.142,6.185,6.185,0,0,0-.99.338.981.981,0,0,1-.285-.353,1.049,1.049,0,0,1-.12-.488.908.908,0,0,1,.645-.87,4.444,4.444,0,0,1,1.005-.27A7.205,7.205,0,0,1,12.9-7.38Zm-.54-.855L10.9-9.63a.962.962,0,0,1-.023-.15q-.008-.09-.008-.15a.917.917,0,0,1,.263-.69.9.9,0,0,1,.652-.255,1.194,1.194,0,0,1,.48.1,1.2,1.2,0,0,1,.435.352l1.335,1.68a.929.929,0,0,1-.3.637.856.856,0,0,1-.57.218,1,1,0,0,1-.45-.09A1.594,1.594,0,0,1,12.36-8.235Zm5.58-1.02a1.1,1.1,0,0,1,.33-.81,1.157,1.157,0,0,1,.855-.33,1.157,1.157,0,0,1,.855.33,1.1,1.1,0,0,1,.33.81,1.126,1.126,0,0,1-.33.818,1.143,1.143,0,0,1-.855.337,1.143,1.143,0,0,1-.855-.337A1.126,1.126,0,0,1,17.94-9.255Zm.135,5.3h2.1V-.015q-.135.03-.39.075a3.2,3.2,0,0,1-.555.045,1.462,1.462,0,0,1-.878-.21.906.906,0,0,1-.277-.765Zm2.1,1.08h-2.1V-7.1q.135-.03.39-.075a3.2,3.2,0,0,1,.555-.045,1.462,1.462,0,0,1,.877.21.927.927,0,0,1,.278.78ZM32.34-3.045H30.255v-1.35a1.262,1.262,0,0,0-.375-1.02,1.419,1.419,0,0,0-.945-.315,2.067,2.067,0,0,0-.893.188,3.525,3.525,0,0,0-.682.412l-.075-1.68a4.538,4.538,0,0,1,.863-.39,3.524,3.524,0,0,1,1.163-.18,3.229,3.229,0,0,1,2.212.72A2.727,2.727,0,0,1,32.34-4.5ZM25.575-3.96H27.66V-.015q-.135.03-.39.075a3.2,3.2,0,0,1-.555.045,1.431,1.431,0,0,1-.862-.21.906.906,0,0,1-.278-.765Zm4.68,0,2.085.015v3.93q-.135.03-.39.075A3.2,3.2,0,0,1,31.4.105a1.426,1.426,0,0,1-.87-.21.92.92,0,0,1-.27-.765Zm-2.6,1.08H25.575V-9.765q.135-.03.39-.075a3.2,3.2,0,0,1,.555-.045,1.426,1.426,0,0,1,.87.21.92.92,0,0,1,.27.765Zm9.375,1.545a3.35,3.35,0,0,0,.727-.075,1.626,1.626,0,0,0,.5-.18V-3.12L36.915-3a1.821,1.821,0,0,0-.84.24.637.637,0,0,0-.3.57.747.747,0,0,0,.3.623A1.576,1.576,0,0,0,37.035-1.335ZM36.96-7.38a4.137,4.137,0,0,1,2.423.637,2.277,2.277,0,0,1,.907,2v3.42a.877.877,0,0,1-.187.593,2.092,2.092,0,0,1-.472.4,3.861,3.861,0,0,1-1.095.405,6.8,6.8,0,0,1-1.5.15A4.343,4.343,0,0,1,34.628-.36a1.959,1.959,0,0,1-.893-1.755,1.942,1.942,0,0,1,.63-1.56,3.327,3.327,0,0,1,1.875-.66l2.01-.21V-4.77a.837.837,0,0,0-.4-.78,2.249,2.249,0,0,0-1.14-.24,4.506,4.506,0,0,0-1.125.142,6.185,6.185,0,0,0-.99.338.981.981,0,0,1-.285-.353,1.049,1.049,0,0,1-.12-.488.908.908,0,0,1,.645-.87,4.444,4.444,0,0,1,1.005-.27A7.205,7.205,0,0,1,36.96-7.38Zm-.435-1.935L38.01-10.95a1.456,1.456,0,0,1,.96.278.818.818,0,0,1,.33.637.859.859,0,0,1-.135.488,2.365,2.365,0,0,1-.435.457L37.32-7.86a1.181,1.181,0,0,1-.818-.262.756.756,0,0,1-.292-.562.65.65,0,0,1,.075-.307A1.611,1.611,0,0,1,36.525-9.315ZM42.09-3.96h2.085V-2.3a.733.733,0,0,0,.278.645,1.327,1.327,0,0,0,.772.2,2.563,2.563,0,0,0,.5-.053,2.828,2.828,0,0,0,.458-.128,1.108,1.108,0,0,1,.21.308,1.013,1.013,0,0,1,.09.442.949.949,0,0,1-.413.78A2.27,2.27,0,0,1,44.715.21a3.018,3.018,0,0,1-1.928-.555,2.164,2.164,0,0,1-.7-1.8ZM43.4-5.385v-1.62h2.91a1.5,1.5,0,0,1,.142.33,1.514,1.514,0,0,1,.068.465.868.868,0,0,1-.195.622.7.7,0,0,1-.525.2Zm.78,1.815H42.09v-5.4a2.885,2.885,0,0,1,.4-.09,3.236,3.236,0,0,1,.548-.045,1.431,1.431,0,0,1,.862.21.906.906,0,0,1,.278.765Z" transform="translate(1367.573 255.775)" fill="#ce82ff"/><g transform="translate(-23 -21.515)"><g transform="translate(1425.621 299.614)"><path d="M323.123,135.586a.864.864,0,0,0-.821-.065l-4.606,2.047a.864.864,0,0,0-.513.789v10.829a3.454,3.454,0,1,0,1.727,2.99v-9.8L323,140.554a.864.864,0,0,0,.513-.789V136.31A.864.864,0,0,0,323.123,135.586Z" transform="translate(-294.035 -129.144)" fill="#f4dcff"/><path d="M18.426,26.863a.864.864,0,0,0-1.184-.8L5.725,30.667a.864.864,0,0,0-.543.8V44.026a3.454,3.454,0,1,0,1.727,2.99V35.509L16.7,31.594V39.42a3.454,3.454,0,1,0,1.727,2.99Z" transform="translate(0 -25.999)" fill="#f4dcff"/></g><g transform="translate(1373.355 291.653)" clip-path="url(#a)"><g transform="translate(-11.92 -5.509)"><rect width="0.976" height="2.574" rx="0.488" transform="translate(71.105 58.337) rotate(-8)" fill="#777"/><rect width="1.75" height="2.701" rx="0.875" transform="matrix(-0.139, -0.99, 0.99, -0.139, 70.297, 59.002)" fill="#303030"/><g transform="translate(0 29.823) rotate(-38)"><path d="M6.257,21.615,5,20.9c.015-.026,1.516-2.653,2.054-3.58.581-1,.559-1.552-.09-2.183-.328-.319-.607-.276-1.468.049a4.52,4.52,0,0,1-1.6.382H3.867A3.982,3.982,0,0,1,.842,14.228,4.228,4.228,0,0,1,.028,11.2l0-.031L2.13,0,3.549.267,1.455,11.41a2.764,2.764,0,0,0,.507,1.907,2.611,2.611,0,0,0,1.957.8,3.441,3.441,0,0,0,1.071-.288,2.546,2.546,0,0,1,2.984.267,2.977,2.977,0,0,1,.332,3.943C7.771,18.966,6.272,21.588,6.257,21.615Z" transform="translate(33.845 44.262)" fill="#303030"/><rect width="14.395" height="22.994" rx="7.197" transform="matrix(0.982, 0.19, -0.19, 0.982, 7.653, 14.897)" fill="#4b4b4b"/><path d="M36.667,32.032,32.4,29.951a20.079,20.079,0,0,0,1.662-4.994c1.829-9.447-3.28-18.41-11.389-19.979S6.485,9.818,4.656,19.265L0,18.364C2.326,6.349,12.9-1.744,23.579.322S41.048,13.844,38.723,25.859A24.824,24.824,0,0,1,36.667,32.032Z" transform="translate(8.049 0)" fill="#303030"/><rect width="14.653" height="17.979" rx="7.326" transform="translate(36.117 24.62) rotate(32.749)" fill="#303030"/><rect width="14.993" height="22.994" rx="7.497" transform="translate(34.691 20.468) rotate(32.749)" fill="#4b4b4b"/><rect width="14.653" height="17.979" rx="7.326" transform="translate(3.417 16.351) rotate(10.955)" fill="#303030"/><rect width="7.548" height="15.669" rx="3.774" transform="translate(34.952 25.245) rotate(32.749)" fill="#303030"/></g></g></g></g></g></svg>