<svg xmlns="http://www.w3.org/2000/svg" xmlns:xlink="http://www.w3.org/1999/xlink" width="355.837" height="243.577" viewBox="0 0 355.837 243.577"><defs><clipPath id="a"><rect width="355.837" height="243.577" fill="none"/></clipPath></defs><g transform="translate(-1988.287 -3206.943)"><g transform="translate(1988.287 3206.943)" clip-path="url(#a)"><g transform="translate(66.013 27.319)"><rect width="154.676" height="234.394" transform="translate(210.593 242.567) rotate(180)" fill="#cfe2e7"/><path d="M2133.611,3320.419h24.82l9.684,38.379h-34.5Z" transform="translate(-2038.998 -3222.314)" fill="#3d93cf"/><path d="M2095.067,3231.66h-37.874a9.209,9.209,0,0,0-9.182,9.2v233.367h47.056Z" transform="translate(-2048.011 -3231.66)" fill="#cfe2e7"/><path d="M2264.254,3236.26v237.967h-12.84v-93.146H2103.359v93.146h-12.84V3231.66h169.144A4.628,4.628,0,0,1,2264.254,3236.26Zm-160.895,63.678h148.054v-55.413H2103.359Zm148.054,68.35V3312.8H2103.359v55.485Z" transform="translate(-2043.535 -3231.66)" fill="#ebf2f4"/><path d="M2142.5,3252.923h25.967l11.261,44.777H2142.5Z" transform="translate(-2038.061 -3229.421)" fill="#f9ba15"/><path d="M2179.969,3297.7h-4.59l-11.979-44.777h4.375a1.852,1.852,0,0,1,1.794,1.366l11.334,42.26A.932.932,0,0,1,2179.969,3297.7Z" transform="translate(-2035.861 -3229.421)" fill="#fdd204"/><path d="M2122.254,3249.087h37.788v49.089h-37.788Z" transform="translate(-2040.193 -3229.825)" fill="#f34849"/><path d="M2158.323,3298.1h-8.033v-49.017h8.033a2.729,2.729,0,0,1,2.727,2.731v43.554A2.728,2.728,0,0,1,2158.323,3298.1Z" transform="translate(-2037.241 -3229.825)" fill="#ff6464"/><path d="M2155.246,3288.9a.95.95,0,0,1-.932-.934v-30.4a.932.932,0,1,1,1.865,0v30.4A.951.951,0,0,1,2155.246,3288.9Z" transform="translate(-2036.818 -3229.031)" fill="#ff4b4b"/><path d="M2102.2,3249.087h38.224v49.089H2102.2Z" transform="translate(-2042.305 -3229.825)" fill="#3d93cf"/><path d="M2138.2,3298.1h-7.961v-49.017l7.889.072a2.728,2.728,0,0,1,2.726,2.731l.073,43.482A2.641,2.641,0,0,1,2138.2,3298.1Z" transform="translate(-2039.353 -3229.825)" fill="#43ade1"/><path d="M2135.193,3288.9a.95.95,0,0,1-.932-.934v-30.4a.932.932,0,1,1,1.865,0v30.4A.95.95,0,0,1,2135.193,3288.9Z" transform="translate(-2038.929 -3229.031)" fill="#3d93cf"/><path d="M2115.051,3314.762h25.967l11.262,44.632h-37.229Z" transform="translate(-2040.952 -3222.909)" fill="#4c4c4c"/><path d="M2156.1,3359.394h-8.249l-11.907-44.632h8.034a1.849,1.849,0,0,1,1.792,1.366l11.263,42.116A.932.932,0,0,1,2156.1,3359.394Z" transform="translate(-2038.751 -3222.909)" fill="#656161"/><path d="M2102.2,3310.73h33.425v49.089H2102.2Z" transform="translate(-2042.305 -3223.334)" fill="#38b000"/><path d="M2124.267,3310.731v49.088h12.983a1.854,1.854,0,0,0,1.865-1.868V3312.6a1.853,1.853,0,0,0-1.865-1.868Z" transform="translate(-2039.981 -3223.334)" fill="#50c800"/><path d="M2131.108,3351.4a1.625,1.625,0,0,1-1.65-1.653V3328.9a1.65,1.65,0,1,1,3.3,0v20.843A1.625,1.625,0,0,1,2131.108,3351.4Z" transform="translate(-2039.435 -3221.595)" fill="#38b000"/><path d="M2131.32,3324.54a3.881,3.881,0,1,1,3.873-3.882A3.877,3.877,0,0,1,2131.32,3324.54Z" transform="translate(-2039.646 -3222.697)" fill="#38b000"/></g><g transform="translate(0 0)"><g transform="translate(33.066 115.245)"><path d="M2048.259,3370.415h22.1a1.723,1.723,0,0,1,1.722,1.722v101.6a1.723,1.723,0,0,1-1.722,1.722h-22.1a1.722,1.722,0,0,1-1.722-1.722v-101.6A1.722,1.722,0,0,1,2048.259,3370.415Z" transform="translate(-2015.218 -3304.975)" fill="#a570ff" fill-rule="evenodd"/><path d="M2053.674,3479.862a6.745,6.745,0,0,1,6.745-6.746h20.1a6.745,6.745,0,0,1,0,13.49h-20.1A6.744,6.744,0,0,1,2053.674,3479.862Z" transform="translate(-2014.467 -3294.16)" fill="#593f86" fill-rule="evenodd"/><path d="M2033.684,3479.862a6.745,6.745,0,0,1,6.745-6.746h20.1a6.745,6.745,0,0,1,0,13.49h-20.1A6.745,6.745,0,0,1,2033.684,3479.862Z" transform="translate(-2016.572 -3294.16)" fill="#593f86" fill-rule="evenodd"/><path d="M2048.259,3311.209h22.1a1.723,1.723,0,0,1,1.722,1.722v83.231a1.721,1.721,0,0,1-1.722,1.722h-22.1a1.72,1.72,0,0,1-1.722-1.722v-83.231A1.722,1.722,0,0,1,2048.259,3311.209Z" transform="translate(-2015.218 -3311.209)" fill="#593f86" fill-rule="evenodd"/><path d="M2061.367,3321.088h1.211a13.39,13.39,0,0,1,11.032,5.8l25.817,37.551a10.2,10.2,0,0,1-8.4,15.974h-58.1a10.2,10.2,0,0,1-8.4-15.974l25.816-37.551A13.391,13.391,0,0,1,2061.367,3321.088Z" transform="translate(-2017.726 -3310.168)" fill="#593f86" fill-rule="evenodd"/><path d="M2023.838,3485.47h74.314a5.637,5.637,0,0,1,5.636,5.637h0a5.636,5.636,0,0,1-5.636,5.636h-74.314a5.636,5.636,0,0,1-5.636-5.636h0A5.637,5.637,0,0,1,2023.838,3485.47Z" transform="translate(-2018.202 -3292.86)" fill="#afafaf" opacity="0.3" style="isolation:isolate"/><rect width="34.628" height="45.813" rx="2.655" transform="translate(15.661 31.384)" fill="#ce82ff"/><rect width="10.315" height="41.8" transform="translate(17.85 33.359)" fill="#fff"/><path d="M2070.114,3355.158s5.872,5,7.372,7.5,9.246.75,6.872-5.747S2071.238,3352.285,2070.114,3355.158Z" transform="translate(-2012.736 -3306.859)" fill="#ffc6b7"/><path d="M2046.364,3354.907s6.413,8.167,8.53,12.1-8.53,4.233-8.53,4.233l-7.346-6.35,1.114-3.99,1-3.018Z" transform="translate(-2016.01 -3306.607)" fill="#593f86" fill-rule="evenodd"/><path d="M2047.064,3355.158s-5.873,5-7.371,7.5-9.247.75-6.873-5.747S2045.94,3352.285,2047.064,3355.158Z" transform="translate(-2016.71 -3306.859)" fill="#ffc6b7"/><rect width="61.039" height="16.888" rx="7.64" transform="translate(6.225 53.357)" fill="#593f86"/></g><path d="M2028.925,3212.857l38.545-5.446a47.265,47.265,0,1,1,13.223,93.6l-38.545,5.446a47.265,47.265,0,1,1-13.223-93.6Z" transform="translate(-1988.286 -3206.943)" fill="#ffb100" fill-rule="evenodd"/><path d="M2088.649,3270.95a10.31,10.31,0,1,1-8.767,11.651A10.335,10.335,0,0,1,2088.649,3270.95Z" transform="translate(-1978.653 -3200.213)" fill="#ffc6b7" fill-rule="evenodd"/><path d="M2018.045,3281.375a10.31,10.31,0,1,1-8.77,11.65A10.189,10.189,0,0,1,2018.045,3281.375Z" transform="translate(-1986.088 -3199.116)" fill="#ffc6b7" fill-rule="evenodd"/><path d="M2021.844,3297.394l7.486,10.759a1.849,1.849,0,0,1-1.249,2.75l-11.587,1.637a1.781,1.781,0,0,1-1.963-1.478,2.135,2.135,0,0,1,.115-.835l4.216-12.412a1.886,1.886,0,0,1,2.18-1.127A4.355,4.355,0,0,1,2021.844,3297.394Z" transform="translate(-1985.524 -3197.499)" fill="#ce82ff" fill-rule="evenodd"/><path d="M2021.746,3247.243l57.244-8.087a10.335,10.335,0,0,1,11.653,8.767l8.15,57.7a10.334,10.334,0,0,1-8.77,11.651l-52.885,7.471a10.349,10.349,0,0,1-11.538-7.964L2013.09,3259.7a10.192,10.192,0,0,1,7.867-12.227A1.73,1.73,0,0,1,2021.746,3247.243Z" transform="translate(-1985.701 -3203.562)" fill="#ffc6b7" fill-rule="evenodd"/><path d="M2043.746,3228.325a15.523,15.523,0,1,1-13.2,17.542A15.524,15.524,0,0,1,2043.746,3228.325Z" transform="translate(-1983.856 -3204.708)" fill="#ffb100" fill-rule="evenodd"/><path d="M2055.158,3260.761a13.646,13.646,0,0,0,.174,2.565l1.519,9.3a6.6,6.6,0,0,0,7.579,5.45l6.841-1.116a13.532,13.532,0,0,0,11.174-15.537s-.542-3.322-.813-4.984C2080.6,3253.54,2056.371,3254.85,2055.158,3260.761Z" transform="translate(-1981.246 -3201.886)" fill="#a570ff" fill-rule="evenodd"/><path d="M2054.238,3261.077a13.7,13.7,0,0,1,.61,2.374l1.472,9.016a6.889,6.889,0,0,1-5.688,7.91l-6.558,1.07a13.533,13.533,0,0,1-15.537-11.175l-1.056-6.468C2027.066,3261.254,2050.1,3256.223,2054.238,3261.077Z" transform="translate(-1984.16 -3201.457)" fill="#a570ff" fill-rule="evenodd"/><path d="M2057.755,3286.538a5.439,5.439,0,0,0,4.508-6.23c-.483-2.956-7.006-9.067-7.006-9.067l-.5.974c-1.108,2.2-3.632,7.534-3.254,9.849A5.44,5.44,0,0,0,2057.755,3286.538Z" transform="translate(-1981.634 -3200.172)" fill="#ee9583" fill-rule="evenodd"/><path d="M2081.677,3280.429c-3.034,1.375-7.609,1.8-10.025.129a18.119,18.119,0,0,1-5.23-6.3l21.084-3.25C2087.16,3274,2085.919,3278.5,2081.677,3280.429Zm-35.864,5.792a10.442,10.442,0,0,1-9.3.493,11.127,11.127,0,0,1-6.153-6.9l20.9-3.222C2051.038,3278.821,2050.064,3283.76,2045.813,3286.221Zm47.543-18.43-28.061,4.326a1.059,1.059,0,0,0-.133.034,7.912,7.912,0,0,0-13.488,2.08,1.184,1.184,0,0,0-.144.007l-28.087,4.329a1.142,1.142,0,0,0,.348,2.258l4.3-.662a13.418,13.418,0,0,0,7.531,8.65,12.9,12.9,0,0,0,7.031.894,12.385,12.385,0,0,0,4.308-1.51c6.267-3.625,6.64-11.318,6.658-12.609a5.652,5.652,0,0,1,10.067-1.643c1.935,3.914,4.179,6.77,6.67,8.491,3.613,2.5,9.315,1.41,12.266.072,4.174-1.893,6.724-6.1,7.214-11.863l3.871-.6a1.142,1.142,0,0,0-.348-2.258Z" transform="translate(-1984.686 -3200.537)" fill="#4b4b4b"/><path d="M2027.777,3254.841l11.656-1.9a13.538,13.538,0,0,1,14.927,8.8l-26.495,4.327-1.51-9.247A1.722,1.722,0,0,1,2027.777,3254.841Z" transform="translate(-1984.28 -3202.119)" fill="#a570ff" fill-rule="evenodd"/><path d="M2055.157,3261.629a13.538,13.538,0,0,1,11.154-12.94l.2-.033,11.655-1.9a1.722,1.722,0,0,1,1.967,1.359l.011.062,1.491,9.132Z" transform="translate(-1981.245 -3202.753)" fill="#a570ff" fill-rule="evenodd"/><path d="M2070.628,3218.056a22.822,22.822,0,1,1-19.409,25.79A22.793,22.793,0,0,1,2070.628,3218.056Z" transform="translate(-1981.684 -3205.797)" fill="#ffb100" fill-rule="evenodd"/><path d="M2054.548,3289.815a7.743,7.743,0,0,0,5.217.882,7.957,7.957,0,0,0,4.792-2.57,1.339,1.339,0,0,1,2.318.68l1.887,11.629a7.254,7.254,0,1,1-14.32,2.323l-1.877-11.566a1.339,1.339,0,0,1,1.984-1.378Z" transform="translate(-1981.52 -3198.441)" fill="#881b1b" fill-rule="evenodd"/><path d="M2061.109,3299.185a7.035,7.035,0,0,1,7.145,3.3,7.257,7.257,0,0,1-12.879,2.09A7.033,7.033,0,0,1,2061.109,3299.185Z" transform="translate(-1981.222 -3197.24)" fill="#b12e2e" fill-rule="evenodd"/></g><g transform="translate(87.946 147.54)"><g transform="translate(40.219 125.293)"><rect width="22.746" height="9.462" rx="3.91" transform="matrix(1, -0.002, 0.002, 1, 0.019, 8.35)" fill="#006bd6"/><rect width="19.743" height="13.339" transform="translate(19.774 13.339) rotate(179.868)" fill="#006bd6"/></g><g transform="translate(15.884 125.293)"><rect width="9.462" height="22.746" rx="3.91" transform="matrix(0.002, -1, 1, 0.002, 0, 17.76)" fill="#006bd6"/><rect width="19.743" height="13.339" transform="translate(3.043) rotate(0.132)" fill="#006bd6"/></g><path d="M12.44,0H28.6a12.44,12.44,0,0,1,12.44,12.44V33.168a5.311,5.311,0,0,1-5.311,5.311H5.311A5.311,5.311,0,0,1,0,33.168V12.44A12.44,12.44,0,0,1,12.44,0Z" transform="translate(18.926 92.563)" fill="#006bd6"/><g transform="translate(0 30.078)"><path d="M2110.78,3431.13a34.1,34.1,0,0,0,16.478-4.3,28.812,28.812,0,0,1-16.929,5.759l-9.2.032a28.817,28.817,0,0,1-16.969-5.641,34.1,34.1,0,0,0,16.508,4.184Z" transform="translate(-2066.138 -3361.408)" fill="#005ad6" opacity="0.88"/><path d="M2068.023,3398.679a34.525,34.525,0,0,1,34.118-31l10.115-.035a34.4,34.4,0,0,1,34.524,34.286l0,.912a34.489,34.489,0,0,1-17.808,30.225,34.1,34.1,0,0,1-16.478,4.3l-10.115.035a34.1,34.1,0,0,1-16.508-4.184,34.492,34.492,0,0,1-18.016-30.1l0-.912A34.425,34.425,0,0,1,2068.023,3398.679Z" transform="translate(-2067.854 -3367.641)" fill="#0075d6"/></g><path d="M2106.525,3378.569c-12.387.043-22.717,7.881-25.292,18.333l-6.607.023c2.659-13.7,15.9-24.134,31.879-24.189s29.292,10.291,32.046,23.967l-6.607.023C2129.3,3386.292,2118.913,3378.526,2106.525,3378.569Z" transform="translate(-2067.142 -3337.026)" fill="#fff"/><path d="M2107.96,3422.1c12.387-.043,22.717-7.882,25.292-18.333l6.607-.022c-2.659,13.695-15.9,24.134-31.879,24.189s-29.291-10.292-32.046-23.969l6.607-.023C2085.188,3414.378,2095.572,3422.146,2107.96,3422.1Z" transform="translate(-2067.004 -3333.76)" fill="#fff"/><path d="M2093.941,3363.888l20.917-.072a3.949,3.949,0,1,1,.028,7.9l-20.917.073a3.95,3.95,0,0,1-.028-7.9Z" transform="translate(-2065.522 -3337.965)" fill="#01357a"/><circle cx="5.013" cy="5.013" r="5.013" transform="matrix(0.545, -0.838, 0.838, 0.545, 41.937, 8.406)" fill="#01357a"/><path d="M2112.983,3346.7s-10.955,8.4-9.426,22.9" transform="translate(-2064.111 -3339.767)" fill="none" stroke="#01357a" stroke-miterlimit="10" stroke-width="1.276"/></g><path d="M2219.888,3371.11l1.73-1.733a1.373,1.373,0,0,1,1.942,0l.005,0,1.73,1.733a1.378,1.378,0,0,1,0,1.949l-1.73,1.733a1.375,1.375,0,0,1-1.942.005l-.005-.005-1.73-1.733A1.379,1.379,0,0,1,2219.888,3371.11Z" transform="translate(-1963.942 -3189.882)" fill="#67dfff"/><path d="M2091.466,3288.23l7.487,10.758a1.848,1.848,0,0,1-1.25,2.75l-11.586,1.637a1.782,1.782,0,0,1-1.964-1.477,2.141,2.141,0,0,1,.116-.835l4.213-12.411a1.89,1.89,0,0,1,2.182-1.128A4.256,4.256,0,0,1,2091.466,3288.23Z" transform="translate(-1978.193 -3198.464)" fill="#ce82ff" fill-rule="evenodd"/><g transform="translate(108.039 205.232)"><ellipse cx="5.842" cy="8.019" rx="5.842" ry="8.019" fill="#fff"/><ellipse cx="3.257" cy="4.471" rx="3.257" ry="4.471" transform="translate(2.98 2.654)"/><path d="M2088.729,3397.193a2.169,2.169,0,1,0,2.169-2.168A2.168,2.168,0,0,0,2088.729,3397.193Z" transform="translate(-2085.749 -3392.37)" fill="#fff"/><path d="M2092.375,3400.606a1.527,1.527,0,1,0,1.528-1.527A1.528,1.528,0,0,0,2092.375,3400.606Z" transform="translate(-2085.365 -3391.944)" fill="#fff"/></g><g transform="translate(137.487 205.232)"><ellipse cx="5.842" cy="8.019" rx="5.842" ry="8.019" fill="#fff"/><ellipse cx="3.257" cy="4.471" rx="3.257" ry="4.471" transform="translate(2.19 2.654)"/><path d="M2120.964,3397.193a2.168,2.168,0,1,1-2.167-2.168A2.167,2.167,0,0,1,2120.964,3397.193Z" transform="translate(-2112.26 -3392.37)" fill="#fff"/><path d="M2117.2,3400.606a1.528,1.528,0,1,1-1.528-1.527A1.528,1.528,0,0,1,2117.2,3400.606Z" transform="translate(-2112.522 -3391.944)" fill="#fff"/></g><g transform="translate(138.043 175.244)"><path d="M2192.578,3365.782h-75.412a3.7,3.7,0,0,0-3.694,3.7,3.658,3.658,0,0,0,.079.753l11.218,53.708a3.693,3.693,0,0,0,3.615,2.941H2203.8a3.7,3.7,0,0,0,3.615-4.456l-11.218-53.707A3.7,3.7,0,0,0,2192.578,3365.782Z" transform="translate(-2113.148 -3365.461)" fill="#fff"/><path d="M2199.483,3405.79h-76.051c-.71,0-1.284.407-1.284.907a.662.662,0,0,0,.036.218l4.377,12.5a1.281,1.281,0,0,0,1.248.69h76.051c.708,0,1.284-.406,1.284-.908a.655.655,0,0,0-.038-.217l-4.377-12.5A1.281,1.281,0,0,0,2199.483,3405.79Z" transform="translate(-2112.235 -3361.249)" fill="#bdfd6c" stroke="#58cc02" stroke-width="0.222"/><path d="M2117.166,3365.782h75.6a3.7,3.7,0,0,1,3.432,2.937l11.225,53.741.022.118,0,.035a3.643,3.643,0,0,1,.044.569,3.7,3.7,0,0,1-3.692,3.7h-75.448l-.117,0h-.034a3.7,3.7,0,0,1-3.432-2.937l-11.226-53.74-.021-.118-.006-.035a3.7,3.7,0,0,1,3.081-4.223,3.755,3.755,0,0,1,.569-.044Zm2.174,5.467,10.479,50.172h71.8l-10.479-50.168Z" transform="translate(-2113.148 -3365.462)" fill="#4c4c4c"/><path d="M2151.42,3407.724h-18.239a1.285,1.285,0,0,0-1.288,1.284v0a1.323,1.323,0,0,0,.034.294l.681,2.891a1.285,1.285,0,0,0,1.25.992H2152.1a1.287,1.287,0,0,0,1.285-1.288h0a1.32,1.32,0,0,0-.034-.294l-.68-2.891A1.283,1.283,0,0,0,2151.42,3407.724Z" transform="translate(-2111.208 -3361.045)" fill="#89e219"/><path d="M2116.872,3365.492h76.054a3.7,3.7,0,0,1,3.531,2.941l11.311,54.353.021.109a3.9,3.9,0,0,1,.056.645,3.7,3.7,0,0,1-3.694,3.7H2128.1a3.7,3.7,0,0,1-3.533-2.941l-11.308-54.353-.021-.108a3.7,3.7,0,0,1,3.636-4.345Zm75.958,1.928h-75.958a1.768,1.768,0,0,0-1.764,1.768,1.825,1.825,0,0,0,.025.3l.015.076,11.3,54.335a1.766,1.766,0,0,0,1.683,1.407h76.017a1.767,1.767,0,0,0,1.764-1.77,1.84,1.84,0,0,0-.025-.3l-.016-.074-11.3-54.334a1.768,1.768,0,0,0-1.683-1.407Z" transform="translate(-2113.179 -3365.492)" fill="#afafaf"/><path d="M2231.481,3414.664H2124.035v3.7a3.7,3.7,0,0,0,3.694,3.7h103.752a3.7,3.7,0,0,0,0-7.4Z" transform="translate(-2112.036 -3360.314)" fill="#afafaf"/><path d="M2161.773,3408.015a.8.8,0,0,0-.037,1.607h12.376a.8.8,0,0,0,.038-1.608h-12.376Z" transform="translate(-2108.146 -3361.014)" fill="#89e219"/><path d="M2167.124,3410.924a.8.8,0,0,0-.039,1.607h6.463a.8.8,0,0,0,.038-1.606h-6.462Z" transform="translate(-2107.585 -3360.708)" fill="#89e219"/><path d="M2126.147,3373.256a.8.8,0,0,0-.038,1.607h55.929a.8.8,0,0,0,.038-1.607h-55.929Z" transform="translate(-2111.899 -3364.674)" fill="#d8d8d8"/><path d="M2161.02,3373.256a.8.8,0,0,0-.038,1.607h17.384a.8.8,0,0,0,.038-1.607H2161.02Z" transform="translate(-2108.228 -3364.674)" fill="#58cc02"/><path d="M2141.228,3391.139h31.8a1.337,1.337,0,0,0,1.307-1.618l-1.933-9.025a1.344,1.344,0,0,0-1.307-1.057H2139.3a1.335,1.335,0,0,0-1.307,1.615l1.926,9.026A1.341,1.341,0,0,0,2141.228,3391.139Zm29.867-11.1a.738.738,0,0,1,.717.58l1.933,9.026a.735.735,0,0,1-.566.872.757.757,0,0,1-.15.015h-31.8a.736.736,0,0,1-.717-.581l-1.924-9.026a.733.733,0,0,1,.567-.871.668.668,0,0,1,.149-.017Z" transform="translate(-2110.569 -3364.023)" fill="#d8d8d8"/><path d="M2159.36,3395.009h12.466a1.3,1.3,0,0,0,1.3-1.3,1.284,1.284,0,0,0-.029-.271l-.263-1.222a1.3,1.3,0,0,0-1.268-1.026H2159.1a1.3,1.3,0,0,0-1.3,1.3,1.333,1.333,0,0,0,.029.273l.261,1.222A1.3,1.3,0,0,0,2159.36,3395.009Zm12.2-3.214a.7.7,0,0,1,.68.549l.262,1.226a.694.694,0,0,1-.532.824.743.743,0,0,1-.146.015H2159.36a.7.7,0,0,1-.68-.55l-.261-1.221a.7.7,0,0,1,.679-.841Z" transform="translate(-2108.48 -3362.786)" fill="#d8d8d8"/><path d="M2141.873,3395.009h12.465a1.3,1.3,0,0,0,1.268-1.568l-.262-1.222a1.3,1.3,0,0,0-1.268-1.026h-12.465a1.3,1.3,0,0,0-1.3,1.3,1.333,1.333,0,0,0,.029.273l.261,1.222A1.3,1.3,0,0,0,2141.873,3395.009Zm12.2-3.214a.7.7,0,0,1,.679.549l.262,1.226a.694.694,0,0,1-.533.824.718.718,0,0,1-.145.015h-12.467a.7.7,0,0,1-.679-.55l-.262-1.221a.7.7,0,0,1,.68-.841Z" transform="translate(-2110.322 -3362.786)" fill="#d8d8d8"/><path d="M2159.972,3398.982h12.466a1.3,1.3,0,0,0,1.268-1.568l-.262-1.226a1.3,1.3,0,0,0-1.269-1.024h-12.463a1.3,1.3,0,0,0-1.3,1.3,1.259,1.259,0,0,0,.03.272l.261,1.222A1.3,1.3,0,0,0,2159.972,3398.982Zm12.2-3.214a.7.7,0,0,1,.679.549l.262,1.226a.694.694,0,0,1-.533.825.739.739,0,0,1-.146.015h-12.466a.7.7,0,0,1-.68-.549l-.261-1.226a.7.7,0,0,1,.537-.824.726.726,0,0,1,.143-.015Z" transform="translate(-2108.416 -3362.367)" fill="#d8d8d8"/><path d="M2142.484,3398.982h12.466a1.3,1.3,0,0,0,1.3-1.3,1.313,1.313,0,0,0-.029-.271l-.262-1.226a1.3,1.3,0,0,0-1.268-1.024h-12.464a1.3,1.3,0,0,0-1.3,1.3,1.34,1.34,0,0,0,.029.272l.261,1.222A1.3,1.3,0,0,0,2142.484,3398.982Zm12.2-3.214a.7.7,0,0,1,.679.549l.262,1.226a.694.694,0,0,1-.533.825.735.735,0,0,1-.146.015h-12.466a.7.7,0,0,1-.68-.549l-.261-1.226a.7.7,0,0,1,.537-.824.729.729,0,0,1,.143-.015Z" transform="translate(-2110.257 -3362.367)" fill="#d8d8d8"/><circle cx="3.186" cy="3.186" r="3.186" transform="translate(70.099 46.235)" fill="#fff"/></g><g transform="translate(170.184 45.618)"><path d="M2.64,0H103.707a2.64,2.64,0,0,1,2.64,2.64V76A44.444,44.444,0,0,1,61.9,120.444H44.444A44.444,44.444,0,0,1,0,76V2.64A2.64,2.64,0,0,1,2.64,0Z" transform="translate(150.26 114.193) rotate(161.461)" fill="#3d3d3d"/><path d="M2212.9,3353.612l-32.209,24.749a10.155,10.155,0,0,0,12.375,16.105l32.21-24.75a10.155,10.155,0,0,0-12.376-16.1Z" transform="translate(-2138.629 -3237.338)" fill="#ffb7e3" fill-rule="evenodd"/><path d="M2194.522,3376.695l-25.026-14.681a10.155,10.155,0,1,0-10.276,17.519l25.026,14.681a10.155,10.155,0,1,0,10.276-17.519Z" transform="translate(-2141 -3236.379)" fill="#ffb7e3" fill-rule="evenodd"/><circle cx="46.85" cy="46.85" r="46.85" transform="translate(33.766 23.687)" fill="#e18e70"/><rect width="16.864" height="25.933" rx="7.629" transform="translate(103.61 126.226) rotate(159.602)" fill="#e18e70"/><path d="M2256.5,3310.883a7.119,7.119,0,1,1-4.895,8.8A7.12,7.12,0,0,1,2256.5,3310.883Z" transform="translate(-2130.773 -3241.645)" fill="#e18e70"/><path d="M2172.175,3313.709a7.119,7.119,0,1,1-4.895,8.8A7.119,7.119,0,0,1,2172.175,3313.709Z" transform="translate(-2139.652 -3241.347)" fill="#e18e70"/><path d="M1.284,0H75.637a1.284,1.284,0,0,1,1.284,1.284V5.039A34.369,34.369,0,0,1,42.553,39.407H34.369A34.369,34.369,0,0,1,0,5.039V1.284A1.284,1.284,0,0,1,1.284,0Z" transform="translate(110.834 40.795) rotate(159.602)" fill="#3d3d3d"/><path d="M2293.03,3496.568a5.619,5.619,0,0,0-5.661-5.575l-21.707.166a5.618,5.618,0,1,0,.086,11.236l21.707-.166A5.619,5.619,0,0,0,2293.03,3496.568Z" transform="translate(-2129.851 -3222.651)" fill="#6f4ea1" fill-rule="evenodd"/><path d="M2310.713,3386.149a5.619,5.619,0,0,0-4.266-6.7l-21.191-4.707a5.618,5.618,0,0,0-2.436,10.97l21.19,4.707A5.618,5.618,0,0,0,2310.713,3386.149Z" transform="translate(-2127.92 -3234.906)" fill="#6f4ea1" fill-rule="evenodd"/><path d="M2233.9,3348.436l-19.859,13.778a7.558,7.558,0,0,0-3.392,7.021l1.678,13.908c.481,3.992,4.427,6.663,8.811,5.963a8.951,8.951,0,0,0,2.742-.911l27.536-14.434c3.933-2.062,5.5-6.563,3.507-10.054a6.75,6.75,0,0,0-.378-.586l-9.488-13.16c-2.363-3.277-7.3-4-11.023-1.615l-.135.09Z" transform="translate(-2135.061 -3237.819)" fill="#ffb7e3" fill-rule="evenodd"/><path d="M2243.276,3375.8a34.447,34.447,0,0,0-19.6,48.776l-.012-.039a7.214,7.214,0,0,0,.639,1.4l41.795,70.407a6.932,6.932,0,0,0,8.167,3.034l17.114-5.739a6.937,6.937,0,0,0,3.758-10.115l-19.983-33.662a17.41,17.41,0,0,0,21.563-10.513l8.621-23.106a17.412,17.412,0,0,0-20.125-23.073A34.511,34.511,0,0,0,2243.276,3375.8Z" transform="translate(-2134.106 -3234.971)" fill="#ce82ff" fill-rule="evenodd"/><path d="M2251.2,3408.375l-.148.083-8.247,5.273a1.451,1.451,0,0,0,1.416,2.528l.147-.083,1.754-1.122.227,1.169q.113.567.228,1.122l.155.736c2.457,11.579,5.637,19.632,9.614,24.2,3.779,4.34,8.651,6.606,14.064,7.97l.407.1.409.1.411.094h0l.412.091h0l.414.088h0l.417.085.209.042.419.081c.07.014.14.027.21.04l.421.079h0l.423.074h0l.04.006-1.816-3.058c-.229-.044-.455-.09-.682-.137l-.341-.075c-.622-.138-1.241-.294-1.853-.47l-.334-.1a22.964,22.964,0,0,1-11.044-6.917c-3.6-4.134-6.62-11.816-8.986-23l-.156-.744-.076-.375-.153-.757c-.025-.128-.05-.255-.075-.385l-.149-.771c-.025-.13-.05-.261-.074-.391a1.44,1.44,0,0,0-.2-.515l3.956-2.531a1.45,1.45,0,0,0-1.415-2.527Zm31.791-16.709c3.087,8.8,3.858,16.11,2.365,21.934a1.451,1.451,0,0,0,2.811.72c1.638-6.389.839-14.169-2.344-23.346a17.311,17.311,0,0,0-2.9.389A1.392,1.392,0,0,0,2282.991,3391.666Z" transform="translate(-2131.741 -3233.183)" fill="#9069cd" fill-rule="evenodd"/><path d="M2253.453,3368.955,2221.11,3386.5l2.97,5.461,32.19-17.372Z" transform="translate(-2133.955 -3235.501)" fill="#9069cd" fill-rule="evenodd"/><path d="M2241.643,3373.917l-4.412,2.394,4.031,6.709,4.41-2.4Z" transform="translate(-2132.257 -3234.979)" fill="#ce82ff" fill-rule="evenodd"/><path d="M2227.771,3381.442l-4.411,2.4,3.976,6.607,4.41-2.4Z" transform="translate(-2133.718 -3234.186)" fill="#ce82ff" fill-rule="evenodd"/><g transform="translate(92.561 93.548)"><path d="M9.826,0h2.581a9.826,9.826,0,0,1,9.826,9.826v84.6a2.5,2.5,0,0,1-2.5,2.5H6.318A6.318,6.318,0,0,1,0,90.61V9.826A9.826,9.826,0,0,1,9.826,0Z" transform="translate(0 7.749) rotate(-20.398)" fill="#ffb7e3"/><path d="M2246.373,3419.837s17.738-12.8,28.892,4.571" transform="translate(-2223.855 -3324.17)" fill="none" stroke="#d6866e" stroke-linecap="round" stroke-miterlimit="10" stroke-width="10.551" fill-rule="evenodd"/><path d="M2283.989,3419.377s-13.075-8.595-23.406-4.846" transform="translate(-2222.359 -3324.35)" fill="none" stroke="#d6866e" stroke-linecap="round" stroke-miterlimit="10" stroke-width="9.044"/><path d="M2280.188,3414.134s-10.129-2.724-14.016.186" transform="translate(-2221.77 -3324.414)" fill="none" stroke="#d6866e" stroke-linecap="round" stroke-miterlimit="10" stroke-width="7.537"/></g><g transform="translate(0 113.387)"><path d="M2152.565,3351.531a14.029,14.029,0,1,0,17.762,8.841A14.029,14.029,0,0,0,2152.565,3351.531Z" transform="translate(-2142.18 -3350.8)" fill="#d6866e" fill-rule="evenodd"/><path d="M2142.428,3377.963s-2.02-14.08,7.841-18.6" transform="translate(-2142.258 -3349.897)" fill="none" stroke="#d6866e" stroke-linecap="round" stroke-miterlimit="10" stroke-width="9.718" fill-rule="evenodd"/></g><path d="M2215.525,3331.823a3.647,3.647,0,0,0,3.273-3.985c-.189-2.013-4.251-6.434-4.251-6.434l-.275.457c-.766,1.3-2.858,5.009-2.7,6.656A3.647,3.647,0,0,0,2215.525,3331.823Z" transform="translate(-2134.96 -3240.508)" fill="#9e4d31" fill-rule="evenodd"/><g transform="translate(50.848 50.542)"><path d="M2222.044,3294.617a11.338,11.338,0,0,1,14.5,6.792l3.1,8.581a11.321,11.321,0,0,1-21.29,7.7l-3.106-8.579A11.194,11.194,0,0,1,2222.044,3294.617Z" transform="translate(-2185.497 -3293.942)" fill="#fff" fill-rule="evenodd"/><path d="M2224.088,3306.247a4.758,4.758,0,0,0-2.843,6.065l2.083,5.756a4.736,4.736,0,1,0,8.908-3.223l-2.083-5.756A4.614,4.614,0,0,0,2224.088,3306.247Z" transform="translate(-2184.818 -3292.677)" fill="#4b4b4b" fill-rule="evenodd"/><g transform="translate(0 11.193)"><path d="M2195.73,3304.744a11.339,11.339,0,0,0-6.793,14.5l3.1,8.581a11.322,11.322,0,0,0,21.292-7.706l-3.1-8.579A11.34,11.34,0,0,0,2195.73,3304.744Z" transform="translate(-2188.262 -3304.069)" fill="#fff" fill-rule="evenodd"/><path d="M2198.938,3316.425a4.757,4.757,0,0,0-2.843,6.065l2.083,5.757a4.736,4.736,0,1,0,8.907-3.223l-2.083-5.756A4.684,4.684,0,0,0,2198.938,3316.425Z" transform="translate(-2187.466 -3302.799)" fill="#4b4b4b" fill-rule="evenodd"/><circle cx="3.008" cy="3.008" r="3.008" transform="translate(5.85 13.118)" fill="#fff"/></g><circle cx="3.008" cy="3.008" r="3.008" transform="translate(40.34 10.64)" fill="#fff"/></g><g transform="translate(77.77 82.906)"><path d="M2230.461,3332.726a41.2,41.2,0,0,0-5.166-9.5c-3.01,9.155-12.676,10.256-12.676,10.256,3.328,4.813,8.125,10.426,12.583,10.836a7.685,7.685,0,0,1-1.043-4.544A8.069,8.069,0,0,1,2230.461,3332.726Z" transform="translate(-2212.619 -3323.223)" fill="#881b1b"/><path d="M2227.3,3342.695c3.838-2.3,3.534-6.729,2.068-10.874a8.069,8.069,0,0,0-6.3,7.045,7.685,7.685,0,0,0,1.043,4.544A5.132,5.132,0,0,0,2227.3,3342.695Z" transform="translate(-2211.522 -3322.317)" fill="#b12e2e"/></g></g><rect width="335.877" height="7.464" rx="3.376" transform="translate(19.96 236.113)" fill="#fff"/><rect width="21.405" height="9.794" rx="4" transform="translate(84.561 228.686)" fill="#01357a"/></g></g></svg>