<svg xmlns="http://www.w3.org/2000/svg" width="317.701" height="274" viewBox="0 0 317.701 274"><g transform="translate(-1997.111 -2667.363)"><g transform="translate(1997.111 2667.362)"><g transform="translate(9.492 58.821)"><g transform="translate(9.756)"><path d="M2032.728,2754.583l8.712.007-.024,31.942-8.711-.007Z" transform="translate(-2010.915 -2712.843)" fill="#47d7ff" fill-rule="evenodd"/><rect width="21.779" height="9.075" rx="1.259" transform="translate(14.503 105.63)" fill="#23bee9"/><path d="M2037.071,2718.38h.653a6.354,6.354,0,0,1,6.348,6.357h0a6.353,6.353,0,0,1-6.358,6.348h-.652a6.353,6.353,0,0,1-6.348-6.356h0A6.353,6.353,0,0,1,2037.071,2718.38Z" transform="translate(-2011.22 -2718.38)" fill="#47d7ff" fill-rule="evenodd"/><rect width="52.27" height="40.655" rx="13.852" transform="translate(0 67.153)" fill="#47d7ff"/><path d="M2041.649,2785.888h0a4.538,4.538,0,0,1-4.541,4.534l-10.888-.008a4.537,4.537,0,0,1-4.535-4.54h0a4.538,4.538,0,0,1,4.542-4.534l10.887.008A4.539,4.539,0,0,1,2041.649,2785.888Z" transform="translate(-2012.601 -2708.75)" fill="#8afcfe" fill-rule="evenodd"/></g><g transform="translate(0 8.773)"><path d="M2021.35,2725.99l39.92.062a2.9,2.9,0,0,1,2.784,2.1l12.957,45.03a2.9,2.9,0,0,1-1.985,3.595,2.866,2.866,0,0,1-.808.113l-65.974-.1a2.9,2.9,0,0,1-2.9-2.907,2.871,2.871,0,0,1,.116-.808l13.1-44.99a2.9,2.9,0,0,1,2.792-2.093Z" transform="translate(-2005.344 -2725.989)" fill="#fff" fill-rule="evenodd"/><path d="M2053.222,2731.618a1.815,1.815,0,0,1,2.169,1.079l.064.187,9.023,32.683a1.815,1.815,0,0,1-3.436,1.155l-.063-.189-9.023-32.683A1.815,1.815,0,0,1,2053.222,2731.618Zm-28.49,1.218a1.815,1.815,0,0,1,3.54.784l-.043.193-9.126,32.655a1.815,1.815,0,0,1-3.539-.784l.042-.193Zm15.361-.4a1.815,1.815,0,0,1,1.8,1.621l.01.2-.049,30.855a1.815,1.815,0,0,1-3.62.191l-.011-.2.05-30.855A1.814,1.814,0,0,1,2040.093,2732.438Z" transform="translate(-2003.785 -2725.146)" fill="#e5e5e5"/></g></g><g transform="translate(0 173.532)"><rect width="132.16" height="8.391" rx="2.27" fill="#e5a259"/><path d="M4.065,0H16.87a4.065,4.065,0,0,1,4.065,4.065v84.2a0,0,0,0,1,0,0H0a0,0,0,0,1,0,0V4.065A4.065,4.065,0,0,1,4.065,0Z" transform="translate(21.325 4.447)" fill="#e5a259"/><rect width="20.934" height="88.268" rx="4.065" transform="translate(85.436 4.447)" fill="#e5a259"/></g><g transform="translate(189.243 50.331)"><path d="M2170.987,2729.61l21.824,23.09a6.8,6.8,0,0,0,9.588.27h0a6.8,6.8,0,0,0,.27-9.587l-21.824-23.09a6.8,6.8,0,0,0-9.588-.27h0A6.8,6.8,0,0,0,2170.987,2729.61Z" transform="translate(-2160.042 -2709.922)" fill="#006bd6"/><path d="M2171.091,2729.879l10.347-9.458a1.6,1.6,0,0,0,.1-2.256h0a1.6,1.6,0,0,0-2.256-.1l-10.348,9.458a1.6,1.6,0,0,0-.1,2.256h0A1.6,1.6,0,0,0,2171.091,2729.879Z" transform="translate(-2160.153 -2710.002)" fill="#01357a"/><rect width="13.624" height="13.28" rx="3.547" transform="translate(19.016 9.802) rotate(137.572)" fill="#01357a"/><path d="M2177.574,2720.874h0a1.708,1.708,0,0,0,1.335-2.005l-.844-4.208a1.707,1.707,0,0,0-2-1.335h0a1.707,1.707,0,0,0-1.334,2l.844,4.209A1.707,1.707,0,0,0,2177.574,2720.874Z" transform="translate(-2159.193 -2710.669)" fill="#01357a"/></g><rect width="40.589" height="43.64" rx="16.538" transform="matrix(0.968, 0.252, -0.252, 0.968, 217.412, 73.706)" fill="#006bd6"/><g transform="translate(207.201 88.486)"><rect width="22.156" height="9.217" rx="3.791" transform="translate(8.974) rotate(76.804)" fill="#006bd6"/><rect width="19.231" height="8.114" transform="translate(12.767 2.114) rotate(76.805)" fill="#006bd6"/></g><g transform="translate(210.629 15.89)"><path d="M2238.282,2687.241l8.376,5.454a37.974,37.974,0,0,1,11.074,52.388h0a37.972,37.972,0,0,1-52.387,11.074l-8.377-5.452a37.973,37.973,0,0,1-11.074-52.388h0A37.975,37.975,0,0,1,2238.282,2687.241Z" transform="translate(-2179.798 -2681.145)" fill="#0075d6"/></g><g transform="translate(215.99 22.61)"><path d="M2230.7,2697.692c-11.625-6.772-25.61-5.112-33.769,3.26l-6.2-3.612c10.023-11.364,28.163-13.86,43.161-5.123s21.772,25.748,16.831,40.071l-6.2-3.612C2247.775,2717.449,2242.321,2704.465,2230.7,2697.692Z" transform="translate(-2183.489 -2686.973)" fill="#fff"/><path d="M2206.067,2738.958c11.625,6.772,25.611,5.112,33.77-3.26l6.2,3.612c-10.022,11.364-28.163,13.86-43.159,5.124s-21.774-25.748-16.832-40.072l6.2,3.612C2188.988,2719.2,2194.442,2732.185,2206.067,2738.958Z" transform="translate(-2184.448 -2684.313)" fill="#fff"/></g><g transform="translate(225.05 35.051)"><path d="M4.96,0h6.7a4.96,4.96,0,0,1,4.96,4.96V6.969a4.961,4.961,0,0,1-4.961,4.961H4.96A4.96,4.96,0,0,1,0,6.97V4.96A4.96,4.96,0,0,1,4.96,0Z" transform="matrix(0.572, -0.82, 0.82, 0.572, 0, 13.634)" fill="#fff"/><rect width="9.549" height="5.792" rx="2.353" transform="matrix(0.572, -0.82, 0.82, 0.572, 3.558, 14.444)"/><path d="M2202.115,2705.846a1.448,1.448,0,1,1-.36-2.015A1.448,1.448,0,0,1,2202.115,2705.846Z" transform="translate(-2191.21 -2696.875)" fill="#fff"/></g><g transform="translate(253.473 52.78)"><rect width="17.813" height="12.785" rx="5.316" transform="matrix(0.572, -0.82, 0.82, 0.572, 0, 14.611)" fill="#fff"/><rect width="9.803" height="5.946" rx="2.416" transform="translate(2.925 14.663) rotate(-55.115)"/><path d="M2226.4,2721.294a1.486,1.486,0,1,1-.369-2.07A1.486,1.486,0,0,1,2226.4,2721.294Z" transform="translate(-2215.929 -2712.251)" fill="#fff"/></g><ellipse cx="10.291" cy="8.087" rx="10.291" ry="8.087" transform="translate(233.109 110.139) rotate(-39.541)" fill="#0056d6"/><path d="M2245.538,2691.219l-20-13.175a4.522,4.522,0,1,0-4.975,7.553l20,13.176a4.523,4.523,0,0,0,4.975-7.554Z" transform="translate(-1963.246 -2665.842)" fill="#01357a"/><path d="M2254.326,2672.838s-13.533,1.671-20.939,13.234" transform="translate(-1960.973 -2666.525)" fill="none" stroke="#01357a" stroke-miterlimit="10" stroke-width="1.401"/><circle cx="5.652" cy="5.652" r="5.652" transform="matrix(0.992, -0.125, 0.125, 0.992, 287.04, 1.411)" fill="#01357a"/><g transform="translate(68.543 72.518)"><rect width="165.271" height="137.073" rx="17.437" transform="translate(21.671)" fill="#9069cd"/><rect width="165.271" height="62.662" rx="11.79" transform="translate(21.671 131.068)" fill="#c09bfa"/><path d="M22.419,0h6.858A22.419,22.419,0,0,1,51.7,22.419V91.382a0,0,0,0,1,0,0H5.435A5.435,5.435,0,0,1,0,85.947V22.419A22.419,22.419,0,0,1,22.419,0Z" transform="translate(0 102.348)" fill="#ad85ec"/><path d="M22.419,0h6.858A22.419,22.419,0,0,1,51.7,22.419V85.951a5.432,5.432,0,0,1-5.432,5.432H0a0,0,0,0,1,0,0V22.419A22.419,22.419,0,0,1,22.419,0Z" transform="translate(157.177 102.348)" fill="#ad85ec"/></g><rect width="72.368" height="5.925" rx="2.569" transform="translate(136.987 251.041)" fill="#afafaf" opacity="0.3" style="isolation:isolate"/><rect width="26.941" height="76.57" rx="11.683" transform="translate(132.048 15.928)" fill="#3d3d3d"/><rect width="26.941" height="76.57" rx="11.483" transform="translate(158.939 15.928)" fill="#3d3d3d"/><rect width="26.941" height="76.57" rx="11.483" transform="translate(185.88 15.928)" fill="#3d3d3d"/><path d="M2181.759,2713.077a10.478,10.478,0,0,1,10.656,10.292v47.091a12.312,12.312,0,0,1-12.52,12.094h-55.731a12.312,12.312,0,0,1-12.521-12.094v-47.091a10.479,10.479,0,0,1,10.655-10.292Z" transform="translate(-1979.594 -2660.37)" fill="#a46648"/><ellipse cx="9.174" cy="8.861" rx="9.174" ry="8.861" transform="translate(122.698 64.576)" fill="#a46648"/><ellipse cx="9.174" cy="8.861" rx="9.174" ry="8.861" transform="translate(203.202 64.214)" fill="#a46648"/><path d="M2121.9,2780.709h63.685c9.478,0,17.162,7.421,17.162,16.576a16.077,16.077,0,0,1-.422,3.656l-9.329,39.861a17.045,17.045,0,0,1-16.74,12.921h-45.027a17.045,17.045,0,0,1-16.74-12.921l-9.328-39.861a16.576,16.576,0,0,1,12.955-19.825A17.675,17.675,0,0,1,2121.9,2780.709Z" transform="translate(-1980.651 -2650.026)" fill="#ffc800" fill-rule="evenodd"/><path d="M2194.557,2823.47l-2.526,10.792a17.044,17.044,0,0,1-16.739,12.921h-45.028a17.044,17.044,0,0,1-16.739-12.921L2111,2823.47Z" transform="translate(-1979.692 -2643.486)" fill="#ffb100" fill-rule="evenodd"/><path d="M2114.823,2772.954h73.467a2.085,2.085,0,0,1,2.12,2.049v7.078a2.086,2.086,0,0,1-2.12,2.049h-73.467a2.086,2.086,0,0,1-2.122-2.049V2775A2.086,2.086,0,0,1,2114.823,2772.954Z" transform="translate(-1979.432 -2651.212)" fill="#ffc800" fill-rule="evenodd"/><path d="M2144.811,2772.631h5.207v58.687h-5.207Z" transform="translate(-1974.521 -2651.261)" fill="#fff" fill-rule="evenodd"/><path d="M2112.159,2713h79.706a2.37,2.37,0,0,1,2.411,2.328v4.835a2.371,2.371,0,0,1-2.411,2.328h-79.706a2.37,2.37,0,0,1-2.41-2.328v-4.835A2.37,2.37,0,0,1,2112.159,2713Z" transform="translate(-1979.883 -2660.383)" fill="#ff4b4b" fill-rule="evenodd"/><rect width="18.577" height="41.162" rx="7.297" transform="translate(137.175 225.708) rotate(-140.43)" fill="#ffb100"/><rect width="18.577" height="42.754" rx="7.728" transform="matrix(-0.918, 0.396, -0.396, -0.918, 157.379, 239.951)" fill="#ffb100"/><path d="M2144.393,2744.141a3.365,3.365,0,0,0,6.725,0c0-1.794-3.223-5.955-3.363-5.955S2144.393,2742.347,2144.393,2744.141Z" transform="translate(-1974.584 -2656.53)" fill="#86401f"/><path d="M2146.442,2740.573h3.078a3.4,3.4,0,0,1,3.461,3.345h0a3.4,3.4,0,0,1-3.461,3.343h-3.078a3.4,3.4,0,0,1-3.461-3.343h0A3.4,3.4,0,0,1,2146.442,2740.573Z" transform="translate(-1974.801 -2656.165)" fill="#86401f"/><path d="M2137.229,2720.542h0a10.154,10.154,0,0,1,10.284,10.019v6.241a10.153,10.153,0,0,1-10.284,10.019h0a10.154,10.154,0,0,1-10.284-10.019v-6.241A10.155,10.155,0,0,1,2137.229,2720.542Z" transform="translate(-1977.253 -2659.229)" fill="#fff"/><path d="M2160.117,2720.542h0a10.154,10.154,0,0,1,10.284,10.019v6.241a10.153,10.153,0,0,1-10.284,10.019h0a10.153,10.153,0,0,1-10.283-10.019v-6.241A10.154,10.154,0,0,1,2160.117,2720.542Z" transform="translate(-1973.752 -2659.229)" fill="#fff"/><path d="M2135.608,2734.857a3.663,3.663,0,0,0,3.709-3.613,3.532,3.532,0,0,0-.783-2.221,4.719,4.719,0,0,1,.861-.079,4.494,4.494,0,0,1,4.552,4.434v5.585a4.553,4.553,0,0,1-9.1,0v-4.183A3.79,3.79,0,0,0,2135.608,2734.857Z" transform="translate(-1976.045 -2657.943)" fill="#3d3d3d" fill-rule="evenodd"/><path d="M2151.881,2734.856a3.662,3.662,0,0,0,3.709-3.613,3.537,3.537,0,0,0-.656-2.053,4.671,4.671,0,0,1,1.5-.245,4.5,4.5,0,0,1,4.552,4.434v5.584a4.554,4.554,0,0,1-9.1,0v-4.106Z" transform="translate(-1973.439 -2657.943)" fill="#3d3d3d" fill-rule="evenodd"/><path d="M2144.3,2743.461a3.364,3.364,0,0,0,6.725,0c0-1.809-3.222-6.006-3.362-6.006S2144.3,2741.652,2144.3,2743.461Z" transform="translate(-1974.598 -2656.642)" fill="#86401f"/><path d="M2146.352,2740.524h3.077a3.418,3.418,0,0,1,3.462,3.373h0a3.419,3.419,0,0,1-3.462,3.372h-3.077a3.418,3.418,0,0,1-3.461-3.372h0A3.417,3.417,0,0,1,2146.352,2740.524Z" transform="translate(-1974.814 -2656.172)" fill="#86401f"/><path d="M2145.647,2772.631h4.7a1.532,1.532,0,0,1,1.5,1.14l3.113,12.479a1.488,1.488,0,0,1-1.138,1.8,1.518,1.518,0,0,1-.362.042h-10.93a1.517,1.517,0,0,1-1.543-1.49,1.431,1.431,0,0,1,.043-.349l3.113-12.479A1.532,1.532,0,0,1,2145.647,2772.631Z" transform="translate(-1975.105 -2651.261)" fill="#fff" fill-rule="evenodd"/><rect width="50.98" height="31.64" rx="13.087" transform="matrix(0.349, -0.937, 0.937, 0.349, 99.321, 170.584)" fill="#ffc800"/><rect width="50.98" height="31.64" rx="13.087" transform="matrix(-0.349, -0.937, 0.937, -0.349, 216.689, 181.638)" fill="#ffc800"/><path d="M2114.142,2885.381l19.612-5.034a5.206,5.206,0,1,1,2.588,10.086l-19.61,5.034a5.207,5.207,0,0,1-2.589-10.086Z" transform="translate(-1979.81 -2634.812)" fill="#d52323" fill-rule="evenodd"/><rect width="18.577" height="41.162" rx="7.297" transform="translate(182.854 193.978) rotate(-39.57)" fill="#ffb100"/><rect width="18.577" height="42.754" rx="7.728" transform="matrix(0.918, 0.396, -0.396, 0.918, 205.818, 200.7)" fill="#ffb100"/><path d="M2184.379,2885.381l-19.611-5.034a5.207,5.207,0,0,0-2.589,10.086l19.611,5.034a5.207,5.207,0,0,0,2.589-10.086Z" transform="translate(-1972.463 -2634.812)" fill="#d52323" fill-rule="evenodd"/><g transform="translate(125.794 89.899)"><path d="M2109.71,2747.038l4.2-1.479a3.943,3.943,0,0,1,2.033-.156l29.149,5.474a13.994,13.994,0,0,1,8.378,5.054l1.232,1.553-12.077,3.365-23.067-3.365-10.213-8.428A1.177,1.177,0,0,1,2109.71,2747.038Z" transform="translate(-2105.803 -2745.335)" fill="#fff"/><path d="M2191.106,2747.038l-4.2-1.479a3.942,3.942,0,0,0-2.032-.156l-29.148,5.474a14,14,0,0,0-8.38,5.054l-1.233,1.553,12.077,3.365,23.067-3.365,10.213-8.428A1.177,1.177,0,0,0,2191.106,2747.038Z" transform="translate(-2100.116 -2745.335)" fill="#fff"/><path d="M2106.217,2750.921v50.311a4.15,4.15,0,0,0,3.09,4.012l38.094,10.073V2758.3l-37.225-10.38A3.12,3.12,0,0,0,2106.217,2750.921Z" transform="translate(-2106.217 -2744.959)" fill="#ff6464"/><path d="M2193.881,2750.922v50.311a4.15,4.15,0,0,1-3.089,4.011l-38.095,10.073V2758.3l37.224-10.38A3.121,3.121,0,0,1,2193.881,2750.922Z" transform="translate(-2099.108 -2744.959)" fill="#ff6464"/><rect width="13.2" height="59.662" rx="1.603" transform="translate(40.787 12.148)" fill="#f34849"/></g><g transform="translate(112.511 107.599)"><rect width="17.825" height="9.697" rx="4.205" transform="translate(8.989)" fill="#a46648"/><rect width="17.825" height="9.697" rx="4.205" transform="translate(8.228 9.697)" fill="#a46648"/><rect width="17.825" height="9.697" rx="4.205" transform="translate(8.228 19.394)" fill="#a46648"/><path d="M2107.579,2760.77s-12.022,2.947-12.783,17.018,2.758,18.633,13.215,19.489v-3.636a3.9,3.9,0,0,1,2.519-3.874C2113.24,2788.863,2107.579,2760.77,2107.579,2760.77Z" transform="translate(-2094.697 -2760.675)" fill="#a46648"/></g><g transform="translate(207.033 107.727)"><rect width="17.825" height="9.697" rx="4.205" transform="translate(17.825 9.697) rotate(-180)" fill="#a46648"/><rect width="17.825" height="9.697" rx="4.205" transform="translate(18.586 19.394) rotate(180)" fill="#a46648"/><rect width="17.825" height="9.697" rx="4.205" transform="translate(18.586 29.091) rotate(-180)" fill="#a46648"/><path d="M2189.251,2760.881s12.022,2.947,12.783,17.016-2.757,18.633-13.214,19.488v-3.635a3.9,3.9,0,0,0-2.519-3.875C2183.591,2788.973,2189.251,2760.881,2189.251,2760.881Z" transform="translate(-2175.32 -2760.785)" fill="#a46648"/></g><g transform="translate(61.381 144.684)"><rect width="34.223" height="30.182" rx="7.714" transform="translate(41.383)" fill="#51af12"/><rect width="54.182" height="24.437" transform="translate(1.576 2.654)" fill="#fff"/><path d="M2100.806,2823.033H2052.5a2.151,2.151,0,1,1,0-4.3h48.305a5.257,5.257,0,0,0,5.251-5.252v-11.068a5.257,5.257,0,0,0-5.251-5.252H2052.5a2.151,2.151,0,0,1,0-4.3h48.305a9.565,9.565,0,0,1,9.553,9.555v11.068A9.564,9.564,0,0,1,2100.806,2823.033Z" transform="translate(-2050.349 -2792.852)" fill="#78c900"/><line x2="17.747" transform="translate(7.934 8.984)" fill="none" stroke="#dfd5d9" stroke-linecap="round" stroke-miterlimit="10" stroke-width="2.621"/><line x2="19.627" transform="translate(7.934 15.011)" fill="none" stroke="#dfd5d9" stroke-linecap="round" stroke-miterlimit="10" stroke-width="2.757"/><line x2="11.997" transform="translate(7.934 20.761)" fill="none" stroke="#dfd5d9" stroke-linecap="round" stroke-miterlimit="10" stroke-width="2.155"/></g><g transform="translate(25.639 235.95)"><rect width="34.223" height="30.182" rx="7.714" transform="translate(41.383)" fill="#51af12"/><rect width="54.182" height="24.437" transform="translate(1.576 2.654)" fill="#fff"/><path d="M2100.806,2823.033H2052.5a2.151,2.151,0,1,1,0-4.3h48.305a5.257,5.257,0,0,0,5.251-5.252v-11.068a5.257,5.257,0,0,0-5.251-5.252H2052.5a2.151,2.151,0,0,1,0-4.3h48.305a9.565,9.565,0,0,1,9.553,9.555v11.068A9.564,9.564,0,0,1,2100.806,2823.033Z" transform="translate(-2050.349 -2792.852)" fill="#78c900"/><line x2="17.747" transform="translate(7.934 8.984)" fill="none" stroke="#dfd5d9" stroke-linecap="round" stroke-miterlimit="10" stroke-width="2.621"/><line x2="19.627" transform="translate(7.934 15.011)" fill="none" stroke="#dfd5d9" stroke-linecap="round" stroke-miterlimit="10" stroke-width="2.757"/><line x2="11.997" transform="translate(7.934 20.761)" fill="none" stroke="#dfd5d9" stroke-linecap="round" stroke-miterlimit="10" stroke-width="2.155"/></g><g transform="translate(210.113 144.684)"><rect width="34.223" height="30.182" rx="7.714" transform="translate(41.383)" fill="#1b99f5"/><rect width="54.182" height="24.437" transform="translate(1.576 2.654)" fill="#fff"/><path d="M2229.808,2823.033H2181.5a2.151,2.151,0,0,1,0-4.3h48.306a5.257,5.257,0,0,0,5.251-5.252v-11.068a5.257,5.257,0,0,0-5.251-5.252H2181.5a2.151,2.151,0,0,1,0-4.3h48.306a9.565,9.565,0,0,1,9.553,9.555v11.068A9.564,9.564,0,0,1,2229.808,2823.033Z" transform="translate(-2179.351 -2792.852)" fill="#00adff"/><line x2="17.747" transform="translate(7.934 8.984)" fill="none" stroke="#dfd5d9" stroke-linecap="round" stroke-miterlimit="10" stroke-width="2.621"/><line x2="19.627" transform="translate(7.934 15.011)" fill="none" stroke="#dfd5d9" stroke-linecap="round" stroke-miterlimit="10" stroke-width="2.757"/><line x2="11.997" transform="translate(7.934 20.761)" fill="none" stroke="#dfd5d9" stroke-linecap="round" stroke-miterlimit="10" stroke-width="2.155"/></g><g transform="translate(242.094 235.95)"><rect width="34.223" height="30.182" rx="7.714" transform="translate(41.384)" fill="#f34849"/><rect width="54.182" height="24.437" transform="translate(1.576 2.654)" fill="#fff"/><path d="M2257.546,2902.192H2209.24a2.151,2.151,0,1,1,0-4.3h48.305a5.259,5.259,0,0,0,5.253-5.253v-11.068a5.259,5.259,0,0,0-5.253-5.252H2209.24a2.151,2.151,0,1,1,0-4.3h48.305a9.565,9.565,0,0,1,9.554,9.553v11.068A9.566,9.566,0,0,1,2257.546,2902.192Z" transform="translate(-2207.089 -2872.01)" fill="#ff6464"/><line x2="17.747" transform="translate(7.934 8.984)" fill="none" stroke="#dfd5d9" stroke-linecap="round" stroke-miterlimit="10" stroke-width="2.621"/><line x2="19.627" transform="translate(7.934 15.011)" fill="none" stroke="#dfd5d9" stroke-linecap="round" stroke-miterlimit="10" stroke-width="2.757"/><line x2="11.997" transform="translate(7.934 20.761)" fill="none" stroke="#dfd5d9" stroke-linecap="round" stroke-miterlimit="10" stroke-width="2.155"/></g><g transform="translate(61.381 121.111)"><rect width="26.776" height="23.614" rx="6.036" transform="translate(26.776 23.614) rotate(-180)" fill="#e67b00"/><rect width="26.776" height="23.614" rx="6.036" transform="translate(31.475 23.614) rotate(-180)" fill="#f39000"/><rect width="26.776" height="23.614" rx="6.036" transform="translate(33.89 23.614) rotate(180)" fill="#e67b00"/><rect width="42.392" height="19.12" transform="translate(57.921 21.196) rotate(180)" fill="#fff"/><path d="M2068.408,2796.02H2106.2a1.683,1.683,0,1,0,0-3.365h-37.794a4.114,4.114,0,0,1-4.109-4.11v-8.66a4.113,4.113,0,0,1,4.109-4.108H2106.2a1.683,1.683,0,0,0,0-3.367h-37.794a7.485,7.485,0,0,0-7.476,7.475v8.66A7.485,7.485,0,0,0,2068.408,2796.02Z" transform="translate(-2048.731 -2772.406)" fill="#f39000"/><line x1="13.885" transform="translate(39.061 7.029)" fill="none" stroke="#dfd5d9" stroke-linecap="round" stroke-miterlimit="10" stroke-width="2.051"/><line x1="15.356" transform="translate(37.59 11.744)" fill="none" stroke="#dfd5d9" stroke-linecap="round" stroke-miterlimit="10" stroke-width="2.157"/><line x1="9.387" transform="translate(43.56 16.243)" fill="none" stroke="#dfd5d9" stroke-linecap="round" stroke-miterlimit="10" stroke-width="1.686"/></g><rect width="17.913" height="14.049" rx="4.231" transform="translate(245.943 112.333) rotate(-92.04)" fill="#01357a"/></g><rect width="317.701" height="7.868" rx="3.412" transform="translate(1997.111 2933.494)" fill="#fff"/></g></svg>