<svg xmlns="http://www.w3.org/2000/svg" width="419.989" height="329.056" viewBox="0 0 419.989 329.056"><g transform="translate(-1542.495 -3385.624)"><g transform="translate(1542.495 3385.624)"><g transform="translate(0)"><g transform="translate(90.165)"><path d="M1622.275,3469.6l28.192,12.713a6.619,6.619,0,0,0,8.73-3.3h0a6.62,6.62,0,0,0-3.3-8.732l-28.191-12.714a6.622,6.622,0,0,0-8.732,3.3h0A6.623,6.623,0,0,0,1622.275,3469.6Z" transform="translate(-1608.539 -3362.942)" fill="#006bd6"/><g transform="translate(0 88.861)"><path d="M1622.1,3470.2l5.817-12.343a1.558,1.558,0,0,0-.743-2.069h0a1.558,1.558,0,0,0-2.069.743l-5.817,12.343a1.56,1.56,0,0,0,.743,2.07h0A1.56,1.56,0,0,0,1622.1,3470.2Z" transform="translate(-1608.301 -3452.23)" fill="#01357a"/><rect width="13.261" height="12.926" rx="3.02" transform="translate(17.346 5.915) rotate(115.233)" fill="#01357a"/><path d="M1624.937,3459.566h0a1.664,1.664,0,0,0,.46-2.3l-2.318-3.478a1.662,1.662,0,0,0-2.3-.46h0a1.663,1.663,0,0,0-.461,2.3l2.318,3.478A1.662,1.662,0,0,0,1624.937,3459.566Z" transform="translate(-1608.013 -3453.054)" fill="#01357a"/></g><path d="M1678.9,3484.7c1.431-10.884-7.7-21.059-20.384-22.727s-24.135,5.8-25.564,16.686c-.01.079-.016.157-.025.235-.007.045-.019.088-.024.134l-.451,3.425-1.551,11.8a5.782,5.782,0,0,0,4.964,6.465l34.52,4.537a5.781,5.781,0,0,0,6.465-4.963l1.55-11.794.451-3.425c.007-.046.007-.091.01-.137C1678.877,3484.853,1678.893,3484.776,1678.9,3484.7Z" transform="translate(-1604.577 -3361.433)" fill="#006bd6"/><g transform="translate(51.666 99.426)"><path d="M1688.239,3477.583l-29.626,8.868a6.62,6.62,0,0,1-8.217-4.431h0a6.621,6.621,0,0,1,4.431-8.216l29.627-8.869a6.621,6.621,0,0,1,8.217,4.431h0A6.622,6.622,0,0,1,1688.239,3477.583Z" transform="translate(-1650.12 -3459.931)" fill="#006bd6"/><g transform="translate(33.83)"><path d="M1680,3478.214l-4.131-13.006a1.558,1.558,0,0,1,1.011-1.951h0a1.559,1.559,0,0,1,1.953,1.01l4.131,13a1.559,1.559,0,0,1-1.012,1.953h0A1.559,1.559,0,0,1,1680,3478.214Z" transform="translate(-1675.792 -3460.399)" fill="#01357a"/><rect width="13.261" height="12.926" rx="3.02" transform="matrix(0.303, 0.953, -0.953, 0.303, 14.605, 1.479)" fill="#01357a"/><path d="M1677.92,3467.111h0a1.662,1.662,0,0,1-.152-2.339l2.757-3.139a1.661,1.661,0,0,1,2.339-.152h0a1.661,1.661,0,0,1,.151,2.338l-2.757,3.14A1.662,1.662,0,0,1,1677.92,3467.111Z" transform="translate(-1675.294 -3461.071)" fill="#01357a"/></g></g><g transform="translate(13.832 118.513)"><rect width="25.352" height="10.547" rx="3.655" transform="translate(9.556 0) rotate(64.974)" fill="#006bd6"/><rect width="22.006" height="9.285" transform="translate(14.301 1.478) rotate(64.974)" fill="#006bd6"/></g><g transform="translate(57.296 128.062)"><rect width="25.352" height="10.547" rx="3.655" transform="translate(28.357 8.33) rotate(138.009)" fill="#006bd6"/><rect width="22.006" height="9.285" transform="translate(22.568 6.901) rotate(138.01)" fill="#006bd6"/></g><g transform="translate(10.936)"><rect width="86.623" height="76.523" rx="38" transform="matrix(0.992, 0.127, -0.127, 0.992, 9.741, 27.742)" fill="#0075d6"/><g transform="translate(37.509)"><path d="M1675.333,3409.251l-22.77-2.923a4.335,4.335,0,0,0-1.1,8.6l22.771,2.923a4.334,4.334,0,1,0,1.1-8.6Z" transform="translate(-1647.676 -3379.054)" fill="#01357a"/><rect width="22.882" height="1.625" rx="0.25" transform="translate(15.28 30.078) rotate(-82.688)" fill="#01357a"/><path d="M1669.07,3391.826a5.5,5.5,0,1,1-4.756-6.157A5.5,5.5,0,0,1,1669.07,3391.826Z" transform="translate(-1644.36 -3385.624)" fill="#01357a"/></g><path d="M1667,3421.924c13.485,1.731,23.671,11.672,25.053,23.4l7.193.924c-1.034-15.277-14.033-28.446-31.43-30.678s-33.3,7.227-38.159,21.747l7.193.924C1641.146,3427.24,1653.511,3420.194,1667,3421.924Z" transform="translate(-1615.895 -3376.208)" fill="#fff"/><path d="M1660.8,3464.845c-13.485-1.73-23.669-11.672-25.053-23.4l-7.193-.924c1.036,15.276,14.035,28.445,31.43,30.679s33.3-7.227,38.16-21.747l-7.194-.924C1686.655,3459.529,1674.29,3466.577,1660.8,3464.845Z" transform="translate(-1616.243 -3368.177)" fill="#fff"/></g><g transform="translate(32.7 61.24)"><path d="M1644.3,3432.226l-.545-.074a6.412,6.412,0,0,0-7.193,5.476l-.779,5.74a6.339,6.339,0,0,0,.548,3.549,26.9,26.9,0,0,1,8.993,3.183,6.4,6.4,0,0,0,3.673-4.939l.779-5.741A6.413,6.413,0,0,0,1644.3,3432.226Z" transform="translate(-1635.729 -3432.094)" fill="#fff"/><rect width="9.139" height="5.543" rx="1.971" transform="translate(5.079 13.643) rotate(-82.277)"/><path d="M1643.18,3436.854a1.386,1.386,0,1,1-1.187-1.561A1.387,1.387,0,0,1,1643.18,3436.854Z" transform="translate(-1634.237 -3431.082)" fill="#fff"/></g><g transform="translate(69.958 66.435)"><path d="M1671.943,3436.089l.544.07a6.409,6.409,0,0,1,5.527,7.153l-.737,5.746a6.35,6.35,0,0,1-1.45,3.285,26.913,26.913,0,0,0-9.511.742,6.4,6.4,0,0,1-2.265-5.723l.736-5.747A6.411,6.411,0,0,1,1671.943,3436.089Z" transform="translate(-1664.001 -3436.036)" fill="#fff"/><rect width="9.139" height="5.543" rx="1.971" transform="translate(2.315 13.301) rotate(-82.686)"/><path d="M1668.65,3440.428a1.386,1.386,0,1,0,1.551-1.2A1.386,1.386,0,0,0,1668.65,3440.428Z" transform="translate(-1662.527 -3435.025)" fill="#fff"/></g></g><rect width="17.64" height="77.953" transform="matrix(-0.536, 0.844, -0.844, -0.536, 328.333, 187.964)" fill="#1cb0f6"/><g transform="translate(0 105.845)"><g transform="translate(15.121 40.362)"><path d="M1571.559,3524.711a8.19,8.19,0,0,0,4.471-10.921l-5.507-12.091a8.93,8.93,0,0,0-11.374-4.5,8.191,8.191,0,0,0-4.471,10.922l5.507,12.091A8.81,8.81,0,0,0,1571.559,3524.711Z" transform="translate(-1553.969 -3496.57)" fill="#ffb5a1" fill-rule="evenodd"/><path d="M1575.59,3549.254l12.759-5.2a3.441,3.441,0,0,0,1.857-4.624l-14.464-32.132a3.756,3.756,0,0,0-4.817-1.867l-12.759,5.2a3.44,3.44,0,0,0-1.857,4.623l14.464,32.132A3.756,3.756,0,0,0,1575.59,3549.254Z" transform="translate(-1553.326 -3493.845)" fill="#ede1cf" fill-rule="evenodd"/></g><g transform="translate(68.677 64.699)"><path d="M1615.136,3536.948a8.188,8.188,0,0,1,.972-11.76l10.4-8.275a8.929,8.929,0,0,1,12.175,1.159,8.189,8.189,0,0,1-.974,11.76l-10.395,8.275A8.81,8.81,0,0,1,1615.136,3536.948Z" transform="translate(-1588.734 -3515.037)" fill="#ffb5a1" fill-rule="evenodd"/><path d="M1604.469,3557.714l-9.007-10.429a3.442,3.442,0,0,1,.445-4.963l27.474-22.065a3.753,3.753,0,0,1,5.138.521l9.007,10.429a3.441,3.441,0,0,1-.444,4.963l-27.474,22.065A3.755,3.755,0,0,1,1604.469,3557.714Z" transform="translate(-1594.609 -3513.627)" fill="#ede1cf" fill-rule="evenodd"/></g><g transform="translate(34.474)"><path d="M1631.24,3498.62a7.845,7.845,0,0,1,5.507,9.632l-9.437,34.631a9.218,9.218,0,0,1-11.318,6.47l-39.59-10.787a9.217,9.217,0,0,1-6.47-11.318l9.435-34.631a7.846,7.846,0,0,1,9.632-5.507Z" transform="translate(-1568.353 -3459.302)" fill="#ffb5a1"/><circle cx="6.754" cy="6.754" r="6.754" transform="translate(0 41.704)" fill="#ffb5a1"/><circle cx="6.754" cy="6.754" r="6.754" transform="translate(57.261 57.02)" fill="#ffb5a1"/><path d="M1614.871,3469.992a29.253,29.253,0,0,1,20.565,35.963,4.6,4.6,0,0,1-5.657,3.234l-47.558-12.958a4.6,4.6,0,0,1-3.235-5.656A29.236,29.236,0,0,1,1614.871,3469.992Z" transform="translate(-1565.424 -3464.982)" fill="#78c800" fill-rule="evenodd"/><path d="M1581.32,3482.692l56.927,15.51a3.684,3.684,0,0,1,2.679,3.629l-.273,6.322a3.537,3.537,0,0,1-3.745,3.415,2.821,2.821,0,0,1-.816-.137l-59.705-16.269a3.653,3.653,0,0,1-2.542-4.445,2.78,2.78,0,0,1,.3-.772l2.972-5.586A3.879,3.879,0,0,1,1581.32,3482.692Z" transform="translate(-1567.046 -3460.658)" fill="#58a700" fill-rule="evenodd"/><path d="M1594.086,3466.106l20.325,5.538a4.608,4.608,0,1,1-2.422,8.891L1591.663,3475a4.608,4.608,0,0,1,2.424-8.891Z" transform="translate(-1562.423 -3465.941)" fill="#78c800" fill-rule="evenodd"/></g><rect width="58.935" height="32.648" rx="6.79" transform="translate(22.294 120.476) rotate(15.241)" fill="#5e7a01"/><path d="M1570.627,3531.3l50.589,13.783-6.763,24.823-50.588-13.785Z" transform="translate(-1535.704 -3445.17)" fill="#ede1cf" fill-rule="evenodd"/><path d="M1570.15,3529.079l3.581.055a1.78,1.78,0,0,1,1.762,1.819l-.165,39.575a1.779,1.779,0,0,1-1.819,1.762l-3.579-.056a1.778,1.778,0,0,1-1.762-1.817l.165-39.576A1.778,1.778,0,0,1,1570.15,3529.079Z" transform="translate(-1534.336 -3445.875)" fill="#58a700" fill-rule="evenodd"/><path d="M1615.323,3540.311l-3.114-1.767a1.779,1.779,0,0,0-2.441.672l-19.912,34.112a1.778,1.778,0,0,0,.674,2.44l3.113,1.767a1.778,1.778,0,0,0,2.441-.671l19.935-34.19A1.734,1.734,0,0,0,1615.323,3540.311Z" transform="translate(-1527.518 -3442.942)" fill="#58a700" fill-rule="evenodd"/><path d="M1573.726,3518.707l51.6,14.06a3.237,3.237,0,0,1,2.265,3.961l-2.99,10.971a3.236,3.236,0,0,1-3.962,2.264l-51.6-14.058a3.238,3.238,0,0,1-2.265-3.961l2.99-10.971A3.236,3.236,0,0,1,1573.726,3518.707Z" transform="translate(-1534.815 -3449.207)" fill="#ede1cf" fill-rule="evenodd"/><rect width="24.62" height="8.874" rx="3.367" transform="translate(3.994 154.565) rotate(26.747)" fill="#5e7a01"/><rect width="24.62" height="8.874" rx="3.367" transform="matrix(0.996, 0.085, -0.085, 0.996, 56.818, 172.217)" fill="#5e7a01"/><rect width="64.267" height="27.097" rx="5.082" transform="translate(23.073 107.478) rotate(15.241)" fill="#58a700"/><path d="M1571.449,3562.955a3.952,3.952,0,1,0-2.775-4.853A3.951,3.951,0,0,0,1571.449,3562.955Z" transform="translate(-1534.219 -3437.577)" fill="#5e7a00" opacity="0.585" style="isolation:isolate"/><path d="M1592.887,3568.8a3.952,3.952,0,1,0-2.774-4.854A3.953,3.953,0,0,0,1592.887,3568.8Z" transform="translate(-1527.406 -3435.72)" fill="#5e7a00" opacity="0.585" style="isolation:isolate"/><circle cx="3.206" cy="3.206" r="3.206" transform="translate(56.645 56.227)" fill="#b33030"/><rect width="21.546" height="16.429" rx="6.233" transform="translate(52.861 60.628) rotate(-74.636)" fill="#fff"/><rect width="21.546" height="16.429" rx="6.233" transform="translate(73.186 66.213) rotate(-74.636)" fill="#fff"/><path d="M1592.3,3504.8a2.963,2.963,0,0,0,3.521-3.993,3.761,3.761,0,0,1,.68.12,3.636,3.636,0,0,1,2.542,4.47l-1.213,4.415a3.636,3.636,0,0,1-7.012-1.927l.908-3.308A2.926,2.926,0,0,0,1592.3,3504.8Z" transform="translate(-1527.18 -3454.861)" fill="#3d3d3d" fill-rule="evenodd"/><path d="M1601.729,3507.322a2.962,2.962,0,0,0,3.582-3.835,3.638,3.638,0,0,1,3.752,4.592l-1.214,4.415a3.636,3.636,0,0,1-7.012-1.927l.892-3.246Z" transform="translate(-1523.994 -3454.011)" fill="#3d3d3d" fill-rule="evenodd"/><path d="M1594.33,3516.125a2.685,2.685,0,1,0,5.179,1.423c.394-1.431-1.177-5.429-1.285-5.46S1594.723,3514.695,1594.33,3516.125Z" transform="translate(-1526.052 -3451.275)" fill="#e18e70"/><path d="M1596.629,3513.989l2.371.651a2.765,2.765,0,0,1,1.933,3.4h0a2.764,2.764,0,0,1-3.4,1.933l-2.371-.651a2.765,2.765,0,0,1-1.933-3.4h0A2.765,2.765,0,0,1,1596.629,3513.989Z" transform="translate(-1526.402 -3450.703)" fill="#e18e70"/><path d="M1582.837,3507.82c.21.072,19.65,3.646,19.65,3.646l-6.837,7.191-7.9.4-7.024-3.752Z" transform="translate(-1530.345 -3452.632)" fill="#ffb5a1"/><path d="M1598.909,3510.892l17.5,5.976-7.641,6.076-9.094-2.4-.5-6.147Z" transform="translate(-1524.565 -3451.656)" fill="#ffb5a1"/><circle cx="4.405" cy="4.405" r="4.405" transform="translate(56.119 59.076)" fill="#b33030"/></g><g transform="translate(160.027 33.003)"><rect width="30.275" height="89.078" rx="11.487" transform="translate(31.742)" fill="#3d3d3d"/><rect width="30.275" height="89.078" rx="11.487" transform="translate(61.96)" fill="#3d3d3d"/><rect width="30.275" height="89.078" rx="11.487" transform="translate(92.235)" fill="#3d3d3d"/><path d="M1766.809,3443.135a11.973,11.973,0,0,1,11.974,11.974v54.783a14.07,14.07,0,0,1-14.07,14.071h-62.627a14.07,14.07,0,0,1-14.07-14.071v-54.783a11.974,11.974,0,0,1,11.974-11.974Z" transform="translate(-1656.273 -3400.348)" fill="#a46648"/><rect width="23.113" height="30.313" rx="8.77" transform="translate(50.941 60.002)" fill="#fff"/><rect width="23.113" height="30.313" rx="8.77" transform="translate(80.595 60.002)" fill="#fff"/><path d="M1708.451,3468.481a4.169,4.169,0,0,0,3.289-6.73,5.21,5.21,0,0,1,.967-.091,5.116,5.116,0,0,1,5.114,5.116v6.441a5.115,5.115,0,0,1-10.23,0v-4.826A4.1,4.1,0,0,0,1708.451,3468.481Z" transform="translate(-1650.051 -3394.461)" fill="#3d3d3d" fill-rule="evenodd"/><path d="M1725.119,3468.481a4.169,4.169,0,0,0,3.43-6.538,5.119,5.119,0,0,1,6.8,4.832v6.441a5.115,5.115,0,0,1-10.23,0v-4.735Z" transform="translate(-1644.48 -3394.461)" fill="#3d3d3d" fill-rule="evenodd"/><path d="M1719.649,3480.855a3.778,3.778,0,1,0,7.557,0c0-2.086-3.621-6.927-3.778-6.927S1719.649,3478.768,1719.649,3480.855Z" transform="translate(-1646.219 -3390.562)" fill="#86401f"/><path d="M1722.15,3477.025h3.458a3.89,3.89,0,0,1,3.89,3.889h0a3.89,3.89,0,0,1-3.89,3.89h-3.458a3.889,3.889,0,0,1-3.89-3.89h0A3.889,3.889,0,0,1,1722.15,3477.025Z" transform="translate(-1646.66 -3389.577)" fill="#86401f"/><path d="M1724.047,3483.8c-3.985-6.636-13.7-9.093-22.914-6.636l1.992,6.636C1711.926,3485.6,1727.22,3489.083,1724.047,3483.8Z" transform="translate(-1652.103 -3389.831)" fill="#a46648"/><path d="M1711.942,3483.838c1.6,2.946,5.167,6.717,12.53,6.717" transform="translate(-1648.668 -3387.412)" fill="none" stroke="#884727" stroke-linecap="round" stroke-width="1.968"/><circle cx="10.309" cy="10.309" r="10.309" transform="translate(21.235 68.46)" fill="#a46648"/><path d="M1699.843,3466.93a11.656,11.656,0,0,1,11.656-11.657h35.594a11.656,11.656,0,0,1,11.656,11.657v8.12h-58.906Z" transform="translate(-1652.513 -3396.491)" fill="#a46648"/><path d="M1726.85,3461.659H1742a2.1,2.1,0,0,1,2.1,2.1h0a2.1,2.1,0,0,1-2.1,2.1H1726.85a2.1,2.1,0,0,1-2.1-2.1h0A2.1,2.1,0,0,1,1726.85,3461.659Z" transform="translate(-1644.599 -3394.461)" fill="#884727"/><path d="M1723.97,3460.229a17.819,17.819,0,0,0-17.159-1.777" transform="translate(-1650.299 -3395.936)" fill="none" stroke="#884727" stroke-linecap="round" stroke-linejoin="round" stroke-width="1.99"/><circle cx="10.309" cy="10.309" r="10.309" transform="translate(111.701 68.039)" fill="#a46648"/><path d="M1703.545,3619.486H1726.3a5.85,5.85,0,0,1,0,11.7h-22.752a5.85,5.85,0,1,1,0-11.7Z" transform="translate(-1653.197 -3344.301)" fill="#d52323" fill-rule="evenodd"/><path d="M1729.689,3619.486h22.752a5.85,5.85,0,1,1,0,11.7h-22.752a5.85,5.85,0,1,1,0-11.7Z" transform="translate(-1644.887 -3344.301)" fill="#d52323" fill-rule="evenodd"/><path d="M1688.514,3509.25h106.455a16.855,16.855,0,0,1,15.827,11.058l7.458,20.36a21.334,21.334,0,0,1-20.035,28.675H1685.264a21.335,21.335,0,0,1-20.033-28.675l7.458-20.36A16.857,16.857,0,0,1,1688.514,3509.25Z" transform="translate(-1663.928 -3379.335)" fill="#ffc800" fill-rule="evenodd"/><path d="M1700.509,3511.3h71.564a19.282,19.282,0,0,1,18.811,23.538l-10.482,46.372a19.287,19.287,0,0,1-18.811,15.032h-50.6a19.286,19.286,0,0,1-18.811-15.032l-10.482-46.372a19.289,19.289,0,0,1,18.811-23.538Z" transform="translate(-1658.432 -3378.683)" fill="#ffc800" fill-rule="evenodd"/><path d="M1781.279,3554.826l-2.837,12.554a19.286,19.286,0,0,1-18.81,15.032h-50.6a19.286,19.286,0,0,1-18.811-15.032l-2.839-12.554Z" transform="translate(-1656.474 -3364.851)" fill="#ffb100" fill-rule="evenodd"/><path d="M1691.44,3503.411H1774a2.382,2.382,0,0,1,2.384,2.383v8.234a2.383,2.383,0,0,1-2.384,2.384H1691.44a2.384,2.384,0,0,1-2.384-2.384v-8.234A2.383,2.383,0,0,1,1691.44,3503.411Z" transform="translate(-1655.942 -3381.192)" fill="#ffc800" fill-rule="evenodd"/><path d="M1720.625,3503.082h5.851v68.273h-5.851Z" transform="translate(-1645.909 -3381.296)" fill="#fff" fill-rule="evenodd"/><path d="M1722.1,3503.082h5.287a1.734,1.734,0,0,1,1.686,1.327l3.5,14.517a1.732,1.732,0,0,1-1.278,2.091,1.68,1.68,0,0,1-.406.049H1718.6a1.734,1.734,0,0,1-1.734-1.733,1.7,1.7,0,0,1,.049-.407l3.5-14.517A1.735,1.735,0,0,1,1722.1,3503.082Z" transform="translate(-1647.102 -3381.296)" fill="#fff" fill-rule="evenodd"/><path d="M1688.862,3443.052h89.568a2.709,2.709,0,0,1,2.709,2.709v5.625a2.708,2.708,0,0,1-2.709,2.708h-89.568a2.708,2.708,0,0,1-2.708-2.708v-5.625A2.708,2.708,0,0,1,1688.862,3443.052Z" transform="translate(-1656.864 -3400.375)" fill="#ff4b4b" fill-rule="evenodd"/><rect width="20.875" height="63.869" rx="7.92" transform="translate(58.076 206.934)" fill="#ffb100"/><rect width="20.875" height="63.869" rx="7.92" transform="translate(77.926 206.934)" fill="#ffb100"/><path d="M1714.355,3526.492s-11.432,5.344-8.574,15.284h-16.651c-.6,0,.685-7.838.893-8.542C1693.151,3522.615,1706.158,3520.152,1714.355,3526.492Z" transform="translate(-1655.969 -3374.954)" fill="#a46648" fill-rule="evenodd"/><rect width="125.625" height="31.192" rx="11.835" transform="translate(16.138 158.867)" fill="#ffc800"/><path d="M1738.972,3529.483s13.048-16.775,23.858-2.982-9.305,20.711-13.979,10.251C1744.936,3527.991,1738.972,3529.483,1738.972,3529.483Z" transform="translate(-1640.078 -3375.583)" fill="#a46648" fill-rule="evenodd"/></g><g transform="translate(39.537 86.321)"><path d="M1.875,0H85.8a1.875,1.875,0,0,1,1.875,1.875V73.2a31.567,31.567,0,0,1-31.567,31.567H31.567A31.567,31.567,0,0,1,0,73.2V1.875A1.875,1.875,0,0,1,1.875,0Z" transform="translate(174.308 104.772) rotate(-180)" fill="#3d3d3d"/><rect width="17.548" height="23.824" rx="6.561" transform="matrix(0.914, 0.406, -0.406, 0.914, 108.033, 70.634)" fill="#e18e70"/><path d="M1595.616,3480.32l77.965,56.646a2.593,2.593,0,0,1,.573,3.623l-4.572,6.292a2.594,2.594,0,0,1-3.623.573L1588,3490.809a2.592,2.592,0,0,1-.575-3.621l4.573-6.292A2.593,2.593,0,0,1,1595.616,3480.32Z" transform="translate(-1567.911 -3442.005)" fill="#ffb7e3"/><path d="M1652.242,3626.285a5.026,5.026,0,0,1,4.85-5.186h20.334a5.2,5.2,0,0,1,0,10.372h-20.334A5.026,5.026,0,0,1,1652.242,3626.285Z" transform="translate(-1547.152 -3397.106)" fill="#6f4ea1"/><path d="M1572.832,3619.356a5.026,5.026,0,0,1,6.331-3.215l19.108,6.956a5.2,5.2,0,0,1-3.548,9.746l-19.108-6.954A5.026,5.026,0,0,1,1572.832,3619.356Z" transform="translate(-1572.497 -3398.769)" fill="#6f4ea1"/><path d="M1646.621,3532.4a31.674,31.674,0,0,1,15.314,59.449l-5.929-3.566a17.61,17.61,0,0,0-23.068,4.4,31.676,31.676,0,0,1,13.683-60.285Z" transform="translate(-1559.034 -3425.298)" fill="#ce82ff"/><path d="M1648.258,3491.115l.6-6.8.486.05.557.072.625.1.69.122.368.073.781.163.837.193.889.224a39.628,39.628,0,0,1,11.013,4.694,29.845,29.845,0,0,1,11.335,12.488l.275.592-6.22,2.808a22.992,22.992,0,0,0-9.017-10.107,32.838,32.838,0,0,0-9.118-3.873c-1.108-.291-2.139-.506-3.057-.655l-.734-.108Z" transform="translate(-1548.418 -3440.577)" fill="#e18e70"/><path d="M1669.833,3494.959a38.826,38.826,0,0,1,25.928.022,4.538,4.538,0,0,1-2.94,8.586,29.775,29.775,0,0,0-20.011-.036,4.537,4.537,0,1,1-2.977-8.572Z" transform="translate(-1542.531 -3437.9)" fill="#e18e70"/><path d="M1646.959,3562.487l-16.044-1.216a5.4,5.4,0,0,0-4.872,2.346l-40.773,59.825a5.4,5.4,0,0,0,1.422,7.5,5.321,5.321,0,0,0,.932.509l12.78,5.426a5.4,5.4,0,0,0,6.563-1.912L1651,3570.933a5.4,5.4,0,0,0-4.043-8.446Z" transform="translate(-1568.736 -3416.125)" fill="#ce82ff"/><path d="M1669.2,3585.519h9.557a7.911,7.911,0,0,1,7.248,11.084l-12.633,28.853a5.832,5.832,0,0,1-5.344,3.495h-14.438a3.888,3.888,0,0,1-3.562-5.449l15.609-35.652A3.888,3.888,0,0,1,1669.2,3585.519Z" transform="translate(-1547.959 -3408.414)" fill="#ce82ff"/><path d="M1648.255,3560.895a12.1,12.1,0,0,1,16.984,2.086l21.818,27.925a12.1,12.1,0,0,1-19.072,14.9l-21.816-27.923A12.1,12.1,0,0,1,1648.255,3560.895Z" transform="translate(-1549.898 -3417.055)" fill="#ce82ff"/><path d="M1597.026,3464.015l17.879,5.809a2.591,2.591,0,0,1,1.665,3.267l-10.484,32.263a2.591,2.591,0,0,1-3.267,1.666l-17.877-5.809a2.593,2.593,0,0,1-1.666-3.268l10.483-32.263A2.592,2.592,0,0,1,1597.026,3464.015Z" transform="translate(-1569.112 -3447.071)" fill="#3d3d3d"/><path d="M1594.831,3474.15l-1.683-1.281a1.08,1.08,0,0,1,.369-1.9l2.041-.558.7-2a1.079,1.079,0,0,1,1.923-.236l1.161,1.769,2.114.046a1.081,1.081,0,0,1,.82,1.756l-1.324,1.65.61,2.027a1.08,1.08,0,0,1-1.418,1.321l-1.978-.749-1.738,1.206a1.081,1.081,0,0,1-1.695-.94Z" transform="translate(-1566.069 -3445.863)" fill="#ff72c8"/><path d="M1599.49,3473.792l1.958-.913a1.3,1.3,0,0,1,1.723.627l.913,1.958a1.3,1.3,0,0,1-.627,1.724l-1.958.912a1.3,1.3,0,0,1-1.722-.626l-.913-1.958A1.3,1.3,0,0,1,1599.49,3473.792Z" transform="translate(-1564.156 -3444.251)" fill="#47d7ff"/><path d="M1592.248,3491.194a2.7,2.7,0,0,1,1.675-3.433l2.656-.915a2.7,2.7,0,0,1,1.759,5.108l-2.656.915A2.7,2.7,0,0,1,1592.248,3491.194Z" transform="translate(-1566.267 -3439.821)" fill="#9069cd"/><path d="M1595.8,3480.636l4.392-1.956a.961.961,0,0,1,1.34,1.019l-.183,1.24,2.963.755a.961.961,0,0,1,.693,1.169.944.944,0,0,1-.081.21l-2.462,4.689c-.013.024-.026.046-.04.067a4.976,4.976,0,0,1-2.408,2.277,5.184,5.184,0,0,1-4.215-9.47Z" transform="translate(-1566.04 -3442.396)" fill="#ff9600"/><path d="M1596.92,3482.36l.231.05,2.172.56a.412.412,0,0,1,.3.5.424.424,0,0,1-.034.088l-1.045,2-.009.014a2.1,2.1,0,0,1-1.024.975,2.212,2.212,0,0,1-1.8-4.041A2.1,2.1,0,0,1,1596.92,3482.36Z" transform="translate(-1565.521 -3441.21)" fill="#ffc800"/><path d="M1601.16,3478.229l.078.2a11.344,11.344,0,0,1-21.181,8.131l-.078-.2a11.344,11.344,0,0,1,21.181-8.131Z" transform="translate(-1570.359 -3444.827)" fill="#d88669"/><ellipse cx="38.625" cy="40.147" rx="38.625" ry="40.147" transform="translate(92.69 8.62)" fill="#e18e70"/><path d="M1644.734,3481.262a5.868,5.868,0,1,1-6.132,5.593A5.869,5.869,0,0,1,1644.734,3481.262Z" transform="translate(-1551.489 -3441.551)" fill="#e18e70"/><path d="M1653.114,3477.7l57.346,17.806a1.158,1.158,0,0,0,1.434-.825h0c4.93-17.156-4.268-35.3-20.442-40.322l-.733-.227c-16.174-5.022-33.44,4.9-38.37,22.06h0A1.216,1.216,0,0,0,1653.114,3477.7Z" transform="translate(-1547.134 -3450.584)" fill="#3d3d3d"/><path d="M1674.513,3487.056a8.959,8.959,0,0,0,6.648,15.939l-.022.037.262-.07a8.887,8.887,0,0,0,1.845-.485l1.621-.411.668-.165,1.29-.308,1.228-.281c.4-.088.785-.173,1.164-.252a8.913,8.913,0,0,0,1.949-.391,2.333,2.333,0,0,0,.577-.208,8.958,8.958,0,0,0-1.2-17.035A18.369,18.369,0,0,0,1674.513,3487.056Z" transform="translate(-1541.165 -3441.032)" fill="#fff"/><path d="M1676.106,3486.4a8.96,8.96,0,0,1-13.354,10.952l0,.042-.2-.184a8.811,8.811,0,0,1-1.4-1.294l-1.239-1.124q-.518-.467-1.015-.906l-.972-.85-.932-.8-.449-.377a8.873,8.873,0,0,1-1.538-1.261,2.392,2.392,0,0,1-.412-.455,8.958,8.958,0,0,1,9.055-14.479A18.368,18.368,0,0,1,1676.106,3486.4Z" transform="translate(-1547.082 -3443.417)" fill="#fff"/><path d="M1668.213,3482.412a5.941,5.941,0,0,1,4.39,6.93l-.062.273-.692,2.777a5.943,5.943,0,0,1-11.594-2.6l.062-.273.692-2.776a6.1,6.1,0,0,1,.272-.828,3.563,3.563,0,0,0,1.712.987,3.61,3.61,0,0,0,4.287-4.644A5.929,5.929,0,0,1,1668.213,3482.412Z" transform="translate(-1544.643 -3441.233)" fill="#3d3d3d"/><path d="M1680.51,3485.363a5.943,5.943,0,0,1,4.391,6.931l-.062.274-.693,2.777a5.943,5.943,0,0,1-11.594-2.6l.062-.274.693-2.775a5.9,5.9,0,0,1,.271-.829,3.553,3.553,0,0,0,1.711.989,3.61,3.61,0,0,0,4.287-4.646A6.19,6.19,0,0,1,1680.51,3485.363Z" transform="translate(-1540.735 -3440.295)" fill="#3d3d3d"/><path d="M1666.046,3499.59a3.72,3.72,0,0,0,5.11-1.243,6.464,6.464,0,0,0,.55-2.709l.018-.568,0-.286,0-.573-.013-.566-.036-.812-.047-.74-.067-.813-.075-.746-.685.28-.668.287-.531.237-.283.132-.592.281c-1.612.785-3.436,1.829-3.985,2.745A3.72,3.72,0,0,0,1666.046,3499.59Z" transform="translate(-1543.346 -3438.602)" fill="#9e4d31"/><path d="M1663.142,3495.461a4.514,4.514,0,0,0-6.343,6.147l.148.221.365.51-.477.407a4.515,4.515,0,0,0-1.4,4.707l.088.268a4.515,4.515,0,0,0,5.783,2.7,1.258,1.258,0,0,0-.705-2.41l-.151.045a2,2,0,0,1-2.119-3.268l.14-.132,1.355-1.156a1.256,1.256,0,0,0,.291-1.551l-.084-.136-1.034-1.451a2,2,0,0,1,2.579-2.918l.163.1a1.257,1.257,0,1,0,1.4-2.086Z" transform="translate(-1546.196 -3437.281)" fill="#b66447"/><path d="M3.69,0H27.2a3.69,3.69,0,0,1,3.69,3.69V27.97a1.282,1.282,0,0,1-1.282,1.282H1.282A1.282,1.282,0,0,1,0,27.97V3.69A3.69,3.69,0,0,1,3.69,0Z" transform="matrix(0.914, 0.406, -0.406, 0.914, 96.028, 81.355)" fill="#ffb7e3"/><path d="M1681.632,3559.222l-13.657-32.172a6.566,6.566,0,1,0-12.088,5.132l13.657,32.172a6.566,6.566,0,1,0,12.088-5.131Z" transform="translate(-1546.16 -3428.268)" fill="#ffb7e3"/><path d="M1685.091,3525.52l-18.307,32.761a6.521,6.521,0,0,0,2.562,8.907,6.63,6.63,0,0,0,8.97-2.563l16.407-29.362a6.522,6.522,0,0,0-2.562-8.9l-3.421-1.881A2.7,2.7,0,0,0,1685.091,3525.52Z" transform="translate(-1542.795 -3427.92)" fill="#ffb7e3"/><path d="M1698.852,3526.979l.078.2a11.344,11.344,0,1,1-21.18,8.131l-.078-.2a11.344,11.344,0,0,1,21.18-8.131Z" transform="translate(-1539.311 -3429.333)" fill="#d88669"/><path d="M1690.524,3525.041l2.472-11.47a3.673,3.673,0,0,0-2.849-4.37,3.726,3.726,0,0,0-4.406,2.85l-2.474,11.47a3.673,3.673,0,0,0,2.849,4.369A3.726,3.726,0,0,0,1690.524,3525.041Z" transform="translate(-1537.318 -3432.694)" fill="#d88669"/><path d="M1692.916,3528.437l8.028-8.558a3.675,3.675,0,0,0-.192-5.214,3.725,3.725,0,0,0-5.244.173l-8.028,8.559a3.676,3.676,0,0,0,.193,5.214A3.727,3.727,0,0,0,1692.916,3528.437Z" transform="translate(-1536.268 -3431.249)" fill="#d88669"/><path d="M1637.756,3529.913l29.971,16.214a.351.351,0,0,1,.166.423l-.5,1.489-33.715-13.929,2.314-3.728A1.333,1.333,0,0,1,1637.756,3529.913Z" transform="translate(-1553.053 -3426.138)" fill="#9069cd"/><path d="M1644.756,3533.722l-3.453,7.753-4.222-1.879,3.6-8.081Z" transform="translate(-1551.971 -3425.577)" fill="#ce82ff"/><path d="M1656.12,3539.936l-2.915,6.545-4.222-1.879,3.057-6.869Z" transform="translate(-1548.188 -3423.6)" fill="#ce82ff"/><path d="M1700.637,3496.66a6.1,6.1,0,1,1-6.132,5.814A6.013,6.013,0,0,1,1700.637,3496.66Z" transform="translate(-1533.722 -3436.657)" fill="#e18e70"/></g><g transform="translate(277.199 80.593)"><path d="M1791.148,3555.662l29.092-9.453,5.263,16.2a4.34,4.34,0,0,1-2.787,5.467l-20.837,6.771a4.338,4.338,0,0,1-5.466-2.786Z" transform="translate(-1740.667 -3415.179)" fill="#777"/><path d="M1810.413,3558.148a8.027,8.027,0,0,0-11.323.792l-25.333,29.144a8.025,8.025,0,1,0,12.113,10.531l25.334-29.144A8.025,8.025,0,0,0,1810.413,3558.148Z" transform="translate(-1746.82 -3412.01)" fill="#777"/><path d="M1776.93,3579.073a8.027,8.027,0,0,0-4.8,10.287l12.353,33.938a4.012,4.012,0,0,0,5.143,2.4l7.541-2.745a4.01,4.01,0,0,0,2.4-5.143l-12.352-33.938A8.026,8.026,0,0,0,1776.93,3579.073Z" transform="translate(-1746.865 -3404.889)" fill="#777"/><path d="M1809.422,3553.032a8.028,8.028,0,0,0-3.507,10.8l32.2,63.2a4.013,4.013,0,0,0,5.4,1.754l7.152-3.644a4.015,4.015,0,0,0,1.754-5.4l-32.2-63.2A8.026,8.026,0,0,0,1809.422,3553.032Z" transform="translate(-1736.252 -3413.289)" fill="#777"/><path d="M1779.552,3528.473l-1.14-3.746a5.147,5.147,0,0,1-.2-2.009,5.128,5.128,0,0,1,.2-1,5.256,5.256,0,0,1,.387-.938,5.168,5.168,0,0,1,1.28-1.563,5.2,5.2,0,0,1,1.782-.954l26.5-8.067a5.176,5.176,0,0,1,3.943.385,5.127,5.127,0,0,1,.845.564,5.008,5.008,0,0,1,.718.717,5.158,5.158,0,0,1,.954,1.78l1.14,3.744a5.047,5.047,0,0,1,.2,1,5.147,5.147,0,0,1,0,1.015,5.166,5.166,0,0,1-.584,1.933,5.127,5.127,0,0,1-.564.845,5.061,5.061,0,0,1-.717.718,5.157,5.157,0,0,1-1.78.954l-26.5,8.067a5.168,5.168,0,0,1-2.01.2,5.132,5.132,0,0,1-1-.2,5.074,5.074,0,0,1-.938-.387,5.213,5.213,0,0,1-1.563-1.28,5.144,5.144,0,0,1-.564-.844A5.266,5.266,0,0,1,1779.552,3528.473Z" transform="translate(-1744.786 -3426.695)" fill="#ea2b2b"/><path d="M1789.284,3523.524l16.684-5.079a16.252,16.252,0,0,1,20.28,10.816l5.511,18.1a9.218,9.218,0,0,1-6.133,11.5l-30.141,9.176a9.218,9.218,0,0,1-11.5-6.133l-5.511-18.1A16.253,16.253,0,0,1,1789.284,3523.524Z" transform="translate(-1744.922 -3424.229)" fill="#f0f0f0"/><path d="M1789.142,3522.194a2.939,2.939,0,0,1,3.667,1.957L1804.027,3561a2.939,2.939,0,0,1-1.956,3.667l-12.579,3.83a2.939,2.939,0,0,1-3.667-1.956l-7.388-24.268A16.088,16.088,0,0,1,1789.142,3522.194Z" transform="translate(-1744.93 -3422.853)" fill="#ff4b4b"/><path d="M1825.3,3557.047l-12.577,3.828a2.939,2.939,0,0,1-3.668-1.955l-11.216-36.845a2.94,2.94,0,0,1,1.956-3.669,16.089,16.089,0,0,1,20.076,10.706l7.387,24.268A2.94,2.94,0,0,1,1825.3,3557.047Z" transform="translate(-1738.582 -3424.239)" fill="#ff4b4b"/><path d="M1791.659,3513.285a4.324,4.324,0,0,1,5.4,2.878l1.8,5.921a4.325,4.325,0,1,1-8.276,2.52l-1.8-5.921A4.328,4.328,0,0,1,1791.659,3513.285Z" transform="translate(-1741.479 -3425.704)" fill="#eba792"/><path d="M1781.437,3518.312l11.4,2.927a2.563,2.563,0,0,1,1.039,4.421l-2.227,1.92-5.706,1.737a5.1,5.1,0,0,1-6.358-3.389l-1.311-4.311a2.623,2.623,0,0,1,3.163-3.305Z" transform="translate(-1744.795 -3424.072)" fill="#ff4b4b"/><path d="M1804.526,3511.858l-7.837,8.783a2.562,2.562,0,0,0,1.6,4.249l2.918.354,5.706-1.737a5.094,5.094,0,0,0,3.391-6.357h0l-1.312-4.312a2.623,2.623,0,0,0-4.468-.98Z" transform="translate(-1739.113 -3426.376)" fill="#ff4b4b"/><path d="M1785.342,3522.582a1.587,1.587,0,0,1,1.979,1.054l3.463,11.376a1.586,1.586,0,1,1-3.034.924l-3.463-11.376A1.586,1.586,0,0,1,1785.342,3522.582Z" transform="translate(-1742.869 -3422.71)" fill="#fff"/><path d="M1755.065,3500.088l-.78-5.855q-.119-.881-.149-1.771c-.02-.592-.012-1.185.026-1.777s.1-1.18.2-1.765.22-1.164.372-1.737.333-1.137.542-1.692a17.532,17.532,0,0,1,.7-1.631q.391-.8.861-1.555t1.008-1.462q.54-.708,1.146-1.357t1.276-1.238q.667-.587,1.389-1.106t1.492-.965q.769-.446,1.579-.814t1.651-.655q.842-.289,1.708-.491t1.748-.32l18.167-2.422c.588-.079,1.177-.128,1.77-.149s1.185-.012,1.776.026,1.179.1,1.764.2,1.165.22,1.738.372,1.136.333,1.692.542a17.447,17.447,0,0,1,1.63.7q.8.391,1.555.861t1.463,1.008q.706.54,1.356,1.147t1.238,1.275q.587.666,1.107,1.389a17.747,17.747,0,0,1,.965,1.492q.447.769.814,1.579c.247.54.464,1.09.656,1.651s.354,1.131.49,1.708.242,1.16.322,1.746l.78,5.856a17.732,17.732,0,0,1,.147,1.77q.031.89-.025,1.777t-.2,1.765q-.144.878-.373,1.737c-.152.572-.332,1.137-.541,1.692s-.443,1.1-.7,1.631-.548,1.05-.861,1.554-.648.991-1.008,1.463-.743.923-1.148,1.356-.829.846-1.274,1.238-.908.76-1.389,1.107-.979.668-1.492.965-1.04.57-1.579.814-1.09.465-1.651.656-1.131.354-1.708.49-1.16.242-1.747.322l-18.167,2.422q-.882.117-1.77.148t-1.776-.026c-.592-.037-1.181-.1-1.766-.2s-1.164-.22-1.737-.373-1.137-.332-1.692-.54-1.1-.443-1.631-.7-1.051-.548-1.554-.861a17.733,17.733,0,0,1-1.463-1.009q-.706-.54-1.356-1.147t-1.238-1.274a17.5,17.5,0,0,1-1.107-1.39q-.52-.721-.966-1.491t-.814-1.58q-.368-.809-.655-1.65t-.49-1.708Q1755.183,3500.97,1755.065,3500.088Z" transform="translate(-1752.434 -3438.982)" fill="#3d3d3d"/><path d="M1780.631,3498.832l-.832-5.849q-.125-.881-.163-1.77t.01-1.777q.05-.887.186-1.766t.357-1.74q.222-.862.526-1.7t.689-1.637q.386-.8.847-1.562c.308-.506.64-1,1-1.471s.734-.93,1.135-1.367.822-.853,1.264-1.249.9-.768,1.381-1.117.973-.677,1.483-.979,1.035-.577,1.572-.828,1.086-.473,1.645-.669,1.128-.365,1.7-.506,1.157-.252,1.744-.335l18.772-2.668q.88-.125,1.769-.163t1.776.01c.593.033,1.181.095,1.767.186s1.167.21,1.741.357,1.14.323,1.7.526,1.1.432,1.638.689,1.054.539,1.562.847,1,.64,1.471,1,.929.734,1.366,1.135.853.823,1.248,1.264.768.9,1.119,1.381.676.973.978,1.483.577,1.035.828,1.572.474,1.086.671,1.645.364,1.128.5,1.7.253,1.157.336,1.743l.832,5.849q.124.881.163,1.77t-.01,1.776q-.049.887-.186,1.767t-.357,1.74q-.222.862-.526,1.7t-.689,1.637q-.386.8-.848,1.562t-1,1.471q-.534.712-1.135,1.366t-1.264,1.25q-.664.593-1.381,1.119t-1.482.978q-.765.453-1.572.828t-1.645.67q-.84.294-1.7.506t-1.745.336l-18.771,2.667q-.879.125-1.769.163t-1.776-.01q-.889-.05-1.767-.186a17.754,17.754,0,0,1-1.741-.357c-.573-.148-1.14-.323-1.7-.526s-1.1-.432-1.638-.689-1.054-.539-1.562-.847-1-.639-1.471-1-.929-.734-1.367-1.135-.853-.822-1.248-1.264-.768-.9-1.119-1.38-.676-.974-.978-1.484a17.691,17.691,0,0,1-.827-1.572c-.25-.537-.475-1.086-.671-1.645s-.365-1.128-.5-1.7S1780.714,3499.418,1780.631,3498.832Z" transform="translate(-1744.331 -3439.507)" fill="#4c4c4c"/><path d="M1755.54,3484.258h0q-.144-1.024-.19-2.057t.013-2.066a20.62,20.62,0,0,1,.215-2.055q.158-1.024.415-2.024t.611-1.974q.356-.972.8-1.9t.986-1.817q.538-.884,1.158-1.71t1.321-1.589q.7-.763,1.469-1.452t1.606-1.3q.834-.613,1.725-1.139t1.828-.962q.937-.437,1.913-.78t1.982-.588q1-.245,2.028-.39l44.748-6.36q1.024-.146,2.057-.19t2.066.012c.689.038,1.373.111,2.056.216s1.356.243,2.024.415,1.326.375,1.973.611a20.649,20.649,0,0,1,1.9.8q.933.449,1.817.986a20.51,20.51,0,0,1,1.71,1.158q.826.62,1.589,1.32t1.452,1.469q.69.772,1.3,1.605t1.139,1.725q.525.891.962,1.829t.78,1.914q.342.977.588,1.981t.39,2.03h0q.146,1.024.19,2.057t-.012,2.066q-.057,1.034-.215,2.056t-.417,2.024q-.257,1-.612,1.974t-.8,1.9q-.446.931-.984,1.816t-1.158,1.71q-.623.828-1.321,1.59t-1.471,1.451q-.771.692-1.6,1.3t-1.725,1.137q-.892.526-1.829.963t-1.914.779q-.977.342-1.981.588t-2.03.391l-44.747,6.358q-1.024.146-2.058.191t-2.066-.013q-1.032-.057-2.054-.215t-2.024-.416q-1-.259-1.974-.613t-1.9-.8a20.654,20.654,0,0,1-1.816-.984q-.884-.538-1.712-1.158t-1.589-1.32q-.761-.7-1.452-1.47t-1.3-1.605q-.611-.835-1.137-1.725t-.963-1.828q-.437-.939-.779-1.915t-.588-1.981Q1755.687,3485.284,1755.54,3484.258Z" transform="translate(-1752.05 -3444.523)" fill="#3d3d3d"/><path d="M1845.424,3599.924l-16.974,10.606a2.173,2.173,0,0,0-.69,2.994l4.259,6.817a2.174,2.174,0,0,0,2.994.69l16.972-10.606a2.173,2.173,0,0,0,.692-2.994l-4.259-6.817A2.175,2.175,0,0,0,1845.424,3599.924Z" transform="translate(-1729.136 -3398.213)" fill="#606060"/><path d="M1797.341,3605.054l-19.578,4.162a2.172,2.172,0,0,0-1.672,2.576l1.672,7.863a2.17,2.17,0,0,0,2.576,1.674l19.575-4.162a2.173,2.173,0,0,0,1.675-2.576l-1.672-7.862A2.175,2.175,0,0,0,1797.341,3605.054Z" transform="translate(-1745.468 -3396.492)" fill="#606060"/><path d="M1774.218,3466.4l35.4-4.975a16.933,16.933,0,0,1,18.9,14.7l5.388,38.341a16.933,16.933,0,0,1-14.116,19.339l-35.4,4.975a16.933,16.933,0,0,1-18.9-14.7l-5.387-38.342A16.931,16.931,0,0,1,1774.218,3466.4Z" transform="translate(-1750.589 -3442.177)" fill="#eba792"/><path d="M1774.313,3481.2a4.382,4.382,0,0,1,4.95,3.731l.767,5.45a4.383,4.383,0,1,1-8.68,1.22l-.773-5.51a3.751,3.751,0,0,0,.412-.033,3.52,3.52,0,0,0,3-3.976,3.426,3.426,0,0,0-.2-.776A4.491,4.491,0,0,1,1774.313,3481.2Z" transform="translate(-1747.205 -3435.855)" fill="#3d3d3d"/><path d="M1791.267,3478.947a4.382,4.382,0,0,1,4.95,3.73l.766,5.452a4.383,4.383,0,0,1-8.68,1.22l-.775-5.51a3.639,3.639,0,0,0,.415-.034,3.518,3.518,0,0,0,2.994-3.975,3.572,3.572,0,0,0-.2-.776A4.491,4.491,0,0,1,1791.267,3478.947Z" transform="translate(-1741.818 -3436.571)" fill="#3d3d3d"/><path d="M1802.049,3497.537a5.492,5.492,0,0,0-6.917,3.1l-.092.241c-1.081,3.055-2.661,4.35-5.485,4.573l-.308.02a5.492,5.492,0,1,0,.556,10.969c7.535-.381,13.011-4.6,15.591-11.9A5.491,5.491,0,0,0,1802.049,3497.537Z" transform="translate(-1742.928 -3430.749)" fill="#fff"/><path d="M1784.061,3494.969l4.305-.6a3.727,3.727,0,1,1,1.037,7.381l-4.305.6a3.727,3.727,0,0,1-1.037-7.381Z" transform="translate(-1743.939 -3431.669)" fill="#df8e70"/><path d="M1787.459,3491.346l3.793,8.184-9.453-1.159Z" transform="translate(-1743.638 -3432.616)" fill="#df8e70"/><path d="M1838.01,3626.057a5.106,5.106,0,0,1,2.705-6.694l16.458-6.987a5.106,5.106,0,1,1,3.989,9.4l-16.458,6.986A5.106,5.106,0,0,1,1838.01,3626.057Z" transform="translate(-1725.903 -3394.28)" fill="#3d3d3d"/><path d="M1801.287,3626.285a5.106,5.106,0,0,0-5.105-5.106H1778.3a5.106,5.106,0,1,0,0,10.212h17.879A5.106,5.106,0,0,0,1801.287,3626.285Z" transform="translate(-1746.373 -3391.353)" fill="#3d3d3d"/><path d="M1798.749,3538.52l41.775-72.172a8.751,8.751,0,1,1,15.157,8.75l-41.775,72.173a2.591,2.591,0,0,1-3.541.948l-10.667-6.157A2.593,2.593,0,0,1,1798.749,3538.52Z" transform="translate(-1738.362 -3441.952)" fill="#ff4b4b"/><path d="M1832.125,3472.761a10.7,10.7,0,0,0,14.588-15.645,13.552,13.552,0,0,0-1.8-1.391l-.458-.29c-.232-.144-.472-.282-.715-.415l-.492-.261c-.331-.17-.668-.33-1.01-.476l-.511-.212c-3.073-1.212-6.214-1.359-6.871,1.19l-.5,1.987-.138.518c-.022.083-.046.167-.07.247l-.149.488-.168.5-.2.538q-.869,2.213-3.242-.326A10.7,10.7,0,0,0,1832.125,3472.761Z" transform="translate(-1728.725 -3444.731)" fill="#e18e70"/><path d="M1824.99,3455.845a3.7,3.7,0,0,0-.547,5.2l7.711,9.521a3.695,3.695,0,0,0,5.743-4.65l-7.711-9.521A3.694,3.694,0,0,0,1824.99,3455.845Z" transform="translate(-1730.347 -3444.161)" fill="#e18e70"/><path d="M1840.079,3446.891a3.7,3.7,0,0,0-4.479,2.691l-3.152,12.642a3.695,3.695,0,0,0,7.17,1.788l3.152-12.642A3.7,3.7,0,0,0,1840.079,3446.891Z" transform="translate(-1727.576 -3446.78)" fill="#e18e70"/><path d="M1848.677,3449.455a3.7,3.7,0,0,0-5.071,1.264l-6.71,11.168a3.7,3.7,0,1,0,6.335,3.806l6.71-11.167A3.7,3.7,0,0,0,1848.677,3449.455Z" transform="translate(-1726.295 -3446.098)" fill="#e18e70"/><path d="M1853.9,3455.228a3.7,3.7,0,0,0-5.219.274l-8.719,9.682a3.695,3.695,0,0,0,5.492,4.945l8.719-9.682A3.7,3.7,0,0,0,1853.9,3455.228Z" transform="translate(-1725.455 -3444.397)" fill="#e18e70"/><path d="M1753.05,3475.874h0q-.144-1.025-.19-2.059t.013-2.066a20.651,20.651,0,0,1,.215-2.054q.158-1.022.415-2.024t.612-1.974q.356-.972.8-1.9t.986-1.816q.538-.885,1.158-1.712t1.321-1.589q.7-.761,1.469-1.452t1.606-1.3q.834-.611,1.725-1.137t1.828-.963q.937-.437,1.913-.779t1.981-.588q1.006-.245,2.03-.391l11.354-1.613q1.024-.146,2.058-.191t2.066.013q1.032.057,2.054.215t2.024.415q1,.259,1.974.613t1.9.8q.931.447,1.816.985t1.712,1.159q.826.62,1.589,1.32t1.452,1.471q.69.771,1.3,1.6t1.137,1.725q.526.89.964,1.828t.779,1.915q.342.974.588,1.98t.391,2.03h0q.145,1.024.19,2.057t-.013,2.066q-.057,1.032-.215,2.054t-.415,2.024q-.257,1-.612,1.974t-.8,1.9q-.449.933-.986,1.817t-1.158,1.71q-.621.826-1.321,1.589t-1.469,1.452q-.771.69-1.606,1.3t-1.725,1.139q-.89.526-1.828.962t-1.913.779c-.651.229-1.311.424-1.982.589s-1.345.293-2.028.39l-11.354,1.614q-1.024.144-2.059.19t-2.066-.013q-1.032-.057-2.054-.215t-2.024-.415q-1-.257-1.974-.612t-1.9-.8q-.933-.449-1.816-.986t-1.712-1.158q-.826-.62-1.589-1.32t-1.452-1.471q-.69-.769-1.3-1.605t-1.137-1.725q-.528-.89-.963-1.828t-.779-1.914q-.342-.977-.588-1.982T1753.05,3475.874Z" transform="translate(-1752.842 -3445.68)" fill="#3d3d3d"/><g transform="translate(7.579 29.453)"><path d="M1761.528,3501.879l-2.893-21.075a4.665,4.665,0,0,1,.109-1.812,4.481,4.481,0,0,1,.316-.854,4.653,4.653,0,0,1,1.834-1.981,4.667,4.667,0,0,1,.828-.381,4.754,4.754,0,0,1,.887-.212l19.347-2.654a4.592,4.592,0,0,1,.912-.035,4.752,4.752,0,0,1,.9.143,4.648,4.648,0,0,1,2.3,1.413,4.657,4.657,0,0,1,1.128,2.454l2.891,21.074a4.675,4.675,0,0,1,.036.911,4.644,4.644,0,0,1-.937,2.531,4.656,4.656,0,0,1-3.073,1.8l-19.347,2.656a4.755,4.755,0,0,1-.911.034,4.673,4.673,0,0,1-1.755-.46,4.558,4.558,0,0,1-.776-.477,4.634,4.634,0,0,1-1.8-3.072Z" transform="translate(-1758.593 -3467.942)" fill="#fff"/><path d="M1788.765,3498.141l-2.891-21.075a4.584,4.584,0,0,1-.036-.911,4.645,4.645,0,0,1,.937-2.531,4.666,4.666,0,0,1,.619-.67,4.743,4.743,0,0,1,.738-.535,4.619,4.619,0,0,1,1.716-.592l19.347-2.655a4.65,4.65,0,0,1,.91-.034,4.582,4.582,0,0,1,.9.144,4.477,4.477,0,0,1,.855.316,4.666,4.666,0,0,1,1.446,1.1,4.707,4.707,0,0,1,.535.738,4.685,4.685,0,0,1,.592,1.715l2.892,21.074a4.658,4.658,0,0,1,.034.911,4.651,4.651,0,0,1-2.294,3.736,4.61,4.61,0,0,1-1.714.592L1794,3502.115a4.575,4.575,0,0,1-.912.035,4.647,4.647,0,0,1-1.754-.46,4.577,4.577,0,0,1-.777-.477,4.653,4.653,0,0,1-1.8-3.072Z" transform="translate(-1749.936 -3469.13)" fill="#fff"/><path d="M1766.374,3491.763l-.663-4.827a3.66,3.66,0,0,1-.028-.719,3.7,3.7,0,0,1,.114-.709,3.6,3.6,0,0,1,.249-.675,3.643,3.643,0,0,1,.377-.613,3.788,3.788,0,0,1,.488-.527,3.659,3.659,0,0,1,.583-.422,3.646,3.646,0,0,1,1.352-.467l1.459-.2a3.645,3.645,0,0,1,1.428.086,3.618,3.618,0,0,1,.674.249,3.579,3.579,0,0,1,.613.377,3.653,3.653,0,0,1,.949,1.07,3.756,3.756,0,0,1,.3.653,3.646,3.646,0,0,1,.167.7l.662,4.827a3.671,3.671,0,0,1-.085,1.429,3.662,3.662,0,0,1-.249.673,3.75,3.75,0,0,1-.375.613,3.705,3.705,0,0,1-.489.527,3.667,3.667,0,0,1-1.935.889l-1.459.2a3.75,3.75,0,0,1-.718.026,3.693,3.693,0,0,1-1.384-.363,3.714,3.714,0,0,1-.613-.376,3.754,3.754,0,0,1-.527-.489,3.691,3.691,0,0,1-.722-1.235A3.756,3.756,0,0,1,1766.374,3491.763Z" transform="translate(-1756.341 -3464.858)" fill="#303030"/><path d="M1789.562,3488.989l-.663-4.827a3.713,3.713,0,0,1-.026-.718,3.626,3.626,0,0,1,.362-1.384,3.643,3.643,0,0,1,.865-1.14,3.649,3.649,0,0,1,1.933-.888l1.46-.2a3.659,3.659,0,0,1,.718-.028,3.716,3.716,0,0,1,.709.113,3.664,3.664,0,0,1,.675.249,3.714,3.714,0,0,1,1.139.865,3.7,3.7,0,0,1,.423.583,3.692,3.692,0,0,1,.467,1.352l.663,4.827a3.642,3.642,0,0,1,.027.718,3.645,3.645,0,0,1-.364,1.384,3.67,3.67,0,0,1-1.446,1.562,3.735,3.735,0,0,1-.654.3,3.617,3.617,0,0,1-.7.167l-1.459.2a3.739,3.739,0,0,1-.718.026,3.683,3.683,0,0,1-1.384-.362,3.658,3.658,0,0,1-1.562-1.447,3.591,3.591,0,0,1-.3-.653A3.682,3.682,0,0,1,1789.562,3488.989Z" transform="translate(-1748.971 -3465.739)" fill="#303030"/></g><path d="M1800.881,3517.851a1.587,1.587,0,0,1,1.978,1.056l3.463,11.375a1.586,1.586,0,1,1-3.033.924l-3.463-11.376A1.587,1.587,0,0,1,1800.881,3517.851Z" transform="translate(-1737.931 -3424.214)" fill="#fff"/></g></g></g><rect width="418.681" height="8.541" rx="2.996" transform="translate(1543.803 3706.139)" fill="#fff"/></g></svg>