<svg xmlns="http://www.w3.org/2000/svg" width="316.628" height="313.831" viewBox="0 0 316.628 313.831"><g transform="translate(-2028.975 -3418.636)"><g transform="translate(2034.642 3418.636)"><g transform="translate(80.039 197.397)"><path d="M2212.562,3636.72l-51.785-12.226a40.545,40.545,0,0,0-46.751,23.889l-2.845,6.844a27.978,27.978,0,0,0,25.781,38.721l85.646.155a20.963,20.963,0,0,0,20.438-25.789l-.348-1.47A40.544,40.544,0,0,0,2212.562,3636.72Z" transform="translate(-2102.748 -3585.511)" fill="#58a700" fill-rule="evenodd"/><path d="M2209.307,3619.012l-46.853-15.045a27.722,27.722,0,0,0-31.4,10.809l-5.521,8.122a12.29,12.29,0,0,0,12.712,18.932l25.065-5.314a22.678,22.678,0,0,1,22.688,8.366l12.918,16.809a21.419,21.419,0,0,0,26.16,6.3l3.642-1.726a17.075,17.075,0,0,0,6.142-25.934l-6-7.677A40.553,40.553,0,0,0,2209.307,3619.012Z" transform="translate(-2100.605 -3588.606)" fill="#78c800" fill-rule="evenodd"/><path d="M2103.727,3671.069a19.306,19.306,0,1,0,17.175-5.615A19.591,19.591,0,0,0,2103.727,3671.069Z" transform="translate(-2103.538 -3579.284)" fill="#58a700" stroke="#58a700" stroke-linecap="round" stroke-linejoin="round" stroke-width="2.723" fill-rule="evenodd"/><path d="M2202.41,3640.906a23.709,23.709,0,1,0,17.575-12.391A23.83,23.83,0,0,0,2202.41,3640.906Z" transform="translate(-2088.829 -3584.785)" fill="#78c800" stroke="#78c800" stroke-linecap="round" stroke-linejoin="round" stroke-width="3.242" fill-rule="evenodd"/><path d="M2200.153,3630.292a17.727,17.727,0,1,0,8.771-14.137A18,18,0,0,0,2200.153,3630.292Z" transform="translate(-2089.165 -3586.944)" fill="#78c800" stroke="#78c800" stroke-linecap="round" stroke-linejoin="round" stroke-width="2.49" fill-rule="evenodd"/><path d="M2124.63,3657.174a3.773,3.773,0,0,0-4.192,3.3l-.152,1.277a3.773,3.773,0,0,0,7.493.89l.152-1.276A3.774,3.774,0,0,0,2124.63,3657.174Z" transform="translate(-2101.074 -3580.481)" fill="#fff" fill-rule="evenodd"/><path d="M2133.92,3643.906a3.771,3.771,0,0,0-4.191,3.3l-.152,1.277a3.773,3.773,0,1,0,7.493.889l.152-1.276A3.772,3.772,0,0,0,2133.92,3643.906Z" transform="translate(-2099.689 -3582.458)" fill="#fff" fill-rule="evenodd"/><path d="M2185.233,3663.211a3.773,3.773,0,0,0-4.192,3.3l-.151,1.275a3.773,3.773,0,1,0,7.493.891l.152-1.276A3.773,3.773,0,0,0,2185.233,3663.211Z" transform="translate(-2092.041 -3579.581)" fill="#fff" fill-rule="evenodd"/><path d="M2188.608,3673.617a3.773,3.773,0,0,0-4.192,3.3l-.152,1.276a3.773,3.773,0,1,0,7.493.89l.152-1.275A3.772,3.772,0,0,0,2188.608,3673.617Z" transform="translate(-2091.537 -3578.03)" fill="#fff" fill-rule="evenodd"/><path d="M2169.761,3666.958a3.772,3.772,0,0,0-4.192,3.3l-.152,1.277a3.773,3.773,0,1,0,7.493.889l.151-1.275A3.771,3.771,0,0,0,2169.761,3666.958Z" transform="translate(-2094.347 -3579.023)" fill="#fff" fill-rule="evenodd"/><path d="M2198.566,3647.158a3.773,3.773,0,0,0-4.192,3.3l-.152,1.275a3.773,3.773,0,1,0,7.493.891l.152-1.276A3.773,3.773,0,0,0,2198.566,3647.158Z" transform="translate(-2090.053 -3581.974)" fill="#fff" fill-rule="evenodd"/><path d="M2207.908,3642.74a3.773,3.773,0,0,0-4.192,3.3l-.151,1.277a3.773,3.773,0,0,0,7.493.889l.152-1.276A3.773,3.773,0,0,0,2207.908,3642.74Z" transform="translate(-2088.66 -3582.632)" fill="#fff" fill-rule="evenodd"/><path d="M2156.023,3615.571a3.772,3.772,0,0,0-4.192,3.3l-.151,1.276a3.773,3.773,0,0,0,7.494.891l.15-1.276A3.773,3.773,0,0,0,2156.023,3615.571Z" transform="translate(-2096.395 -3586.682)" fill="#fff" fill-rule="evenodd"/><path d="M2163.294,3628.6a3.772,3.772,0,0,0-4.192,3.3l-.152,1.276a3.773,3.773,0,1,0,7.493.891l.152-1.277A3.773,3.773,0,0,0,2163.294,3628.6Z" transform="translate(-2095.311 -3584.741)" fill="#fff" fill-rule="evenodd"/><path d="M2120.1,3648.9a3.773,3.773,0,0,0-4.192,3.3l-.152,1.276a3.773,3.773,0,0,0,7.494.891l.152-1.277A3.773,3.773,0,0,0,2120.1,3648.9Z" transform="translate(-2101.749 -3581.715)" fill="#fff" fill-rule="evenodd"/><path d="M2165.454,3590.626l2.761.512a17.3,17.3,0,0,1,14.137,18.8l-.533,4.717a14.389,14.389,0,0,1-16.21,12.566,16,16,0,0,1-14.093-16.291l.325-9.57a11.372,11.372,0,0,1,12.012-10.922A11.7,11.7,0,0,1,2165.454,3590.626Z" transform="translate(-2096.416 -3590.426)" fill="#d12b2b"/><path d="M2177.995,3599.219l12.811,3.468a8.825,8.825,0,0,1,6.314,10.7,8.527,8.527,0,0,1-.5,1.4l-4.761,10.316a20.26,20.26,0,0,1-26.974,9.649l-2.471-1.141a17.563,17.563,0,0,1-8.809-23.222A20.776,20.776,0,0,1,2177.995,3599.219Z" transform="translate(-2096.339 -3589.227)" fill="#f34848"/><g transform="translate(0 18.673)"><path d="M2109.349,3616.843l3.124-1.183a14.29,14.29,0,0,1,18.423,8.309l7.169,18.944a2.238,2.238,0,0,1-1.3,2.885l-7.785,2.946a12.92,12.92,0,0,1-15.506-5.2l-8.533-13.559a8.953,8.953,0,0,1,4.409-13.143Z" transform="translate(-2103.563 -3605.476)" fill="#ff7dcc" fill-rule="evenodd"/><path d="M2117.152,3608.364a2.61,2.61,0,1,0-4.881,1.848l.616,1.627a2.609,2.609,0,1,0,4.881-1.847Z" transform="translate(-2102.29 -3606.677)" fill="#ffd300"/><path d="M2124.776,3612.875a3.231,3.231,0,1,0-6.043,2.287l.879,2.325a3.231,3.231,0,0,0,6.044-2.287Z" transform="translate(-2101.333 -3606.064)" fill="#ffd300"/><path d="M2125.728,3615.562l7.445-2.816a5.844,5.844,0,0,1,7.788,4.265l2.718,12.957a14.175,14.175,0,0,1-8.857,16.168l-9.34,3.536-7.29-15.5a13.678,13.678,0,0,1,6.554-18.2C2125.068,3615.826,2125.4,3615.688,2125.728,3615.562Z" transform="translate(-2101.576 -3605.83)" fill="#ffaade" fill-rule="evenodd"/></g><path d="M2149.29,3654.887a8.055,8.055,0,0,1-1.338-1.846,7.986,7.986,0,0,1,14.326-7.058,6.787,6.787,0,0,1,.478,1.364,6.073,6.073,0,0,1,.64-.742,7.983,7.983,0,0,1,11.137,11.439,7.352,7.352,0,0,1-1.459,1.062,8.816,8.816,0,0,1,2.662.8,7.984,7.984,0,0,1-7.442,14.126,1.547,1.547,0,1,0-2.114,1.042,7.984,7.984,0,0,1-15.736-2.707,8.776,8.776,0,0,1,.971-2.559,8.349,8.349,0,0,1-2.354.789,7.983,7.983,0,0,1-2.283-15.8A8.447,8.447,0,0,1,2149.29,3654.887Z" transform="translate(-2098.126 -3582.796)" fill="#36c3ff"/><path d="M2162.414,3666.96a7.545,7.545,0,1,0-10.091-3.439A7.539,7.539,0,0,0,2162.414,3666.96Z" transform="translate(-2096.411 -3581.151)" fill="#369fff"/><path d="M2240.451,3647.629l-.028-.012a11.275,11.275,0,0,0-14.814,5.9l-.265.618a11.276,11.276,0,0,0,5.9,14.814l.029.012a11.275,11.275,0,0,0,14.814-5.9l.265-.619A11.277,11.277,0,0,0,2240.451,3647.629Z" transform="translate(-2085.548 -3582.039)" fill="#9f56cf"/><path d="M2227.736,3642.162l-.029-.012a11.275,11.275,0,0,0-14.814,5.9l-.265.619a11.276,11.276,0,0,0,5.9,14.813l.029.013a11.276,11.276,0,0,0,14.814-5.9l.267-.618A11.276,11.276,0,0,0,2227.736,3642.162Z" transform="translate(-2087.443 -3582.854)" fill="#b469e4"/><path d="M2232.357,3674.476a6.842,6.842,0,0,1-8.592,2.8l-5.257-2.261a6.842,6.842,0,0,1-3.875-8.164,8.436,8.436,0,0,1-2.659-10.058,8.1,8.1,0,0,1,12.933-2.746,7.441,7.441,0,0,1,2.64,7.193,8.166,8.166,0,0,1,13.939,8.247A8.438,8.438,0,0,1,2232.357,3674.476Z" transform="translate(-2087.506 -3581.263)" fill="#ffc200" fill-rule="evenodd"/><path d="M2220.034,3665.449l4.325-1.6,1.812,4.244" transform="translate(-2086.202 -3579.483)" fill="none" stroke="#f49000" stroke-linecap="round" stroke-linejoin="round" stroke-width="3.317"/></g><g transform="translate(0 58.942)"><rect width="65.151" height="66.414" rx="8.036" transform="translate(0 110.819)" fill="#ce82ff"/><path d="M2055.41,3589.606h66.373v32.567H2055.41Z" transform="translate(-2030.701 -3452.094)" fill="#ede1cf" fill-rule="evenodd"/><rect width="25.031" height="38.024" rx="5.228" transform="translate(19.961 127.158)" fill="#ede1cf"/><rect width="74.603" height="41.327" rx="9.857" transform="translate(20.594 186.221)" fill="#5e7a01"/><path d="M2111.141,3599.26a10.671,10.671,0,0,0,11.1,10.088l14.419-.779a10.607,10.607,0,0,0-1.01-21.189l-14.417.779A10.555,10.555,0,0,0,2111.141,3599.26Z" transform="translate(-2022.395 -3452.428)" fill="#ffb5a1" fill-rule="evenodd"/><path d="M2062.991,3584.171l4.391-1.124a2.252,2.252,0,0,1,2.756,1.634l12.968,48.389a2.25,2.25,0,0,1-1.634,2.757l-4.391,1.123a2.251,2.251,0,0,1-2.757-1.634l-12.969-48.389A2.25,2.25,0,0,1,2062.991,3584.171Z" transform="translate(-2029.825 -3453.082)" fill="#58a700" fill-rule="evenodd"/><path d="M2116.459,3584.171l-4.392-1.124a2.252,2.252,0,0,0-2.757,1.634l-12.968,48.288a2.251,2.251,0,0,0,1.634,2.757l4.391,1.123a2.251,2.251,0,0,0,2.757-1.634l12.969-48.389A2.195,2.195,0,0,0,2116.459,3584.171Z" transform="translate(-2024.61 -3453.082)" fill="#58a700" fill-rule="evenodd"/><path d="M2055.362,3570.777h67.7a4.1,4.1,0,0,1,4.085,4.085v14.394a4.1,4.1,0,0,1-4.085,4.084h-67.7a4.1,4.1,0,0,1-4.084-4.084v-14.394A4.1,4.1,0,0,1,2055.362,3570.777Z" transform="translate(-2031.317 -3454.901)" fill="#ede1cf" fill-rule="evenodd"/><rect width="31.165" height="11.233" rx="4.888" transform="translate(26.005 233.615) rotate(3.972)" fill="#5e7a01"/><rect width="31.165" height="11.233" rx="4.888" transform="matrix(0.934, -0.358, 0.358, 0.934, 69.353, 235.766)" fill="#5e7a01"/><rect width="78.611" height="34.301" rx="7.253" transform="translate(19.961 170.087)" fill="#58a700"/><path d="M2076.926,3634.18a5,5,0,1,0-5-5A5,5,0,0,0,2076.926,3634.18Z" transform="translate(-2028.24 -3446.942)" fill="#5e7a00" opacity="0.585" style="isolation:isolate"/><path d="M2100.892,3634.18a5,5,0,1,0-5-5A5,5,0,0,0,2100.892,3634.18Z" transform="translate(-2024.667 -3446.942)" fill="#5e7a00" opacity="0.585" style="isolation:isolate"/><path d="M2053.143,3575.365s13.284.8,17.887,16.231-9.47,25.775-17.887,26.093" transform="translate(-2032.55 -3455.054)" fill="none" stroke="#a86bc1" stroke-linecap="round" stroke-miterlimit="10" stroke-width="7.773"/><g transform="translate(5.853)"><path d="M2119.367,3505.413a11.117,11.117,0,0,1,11.562,10.66l2.064,50.832a13.066,13.066,0,0,1-12.526,13.585l-58.112,2.359a13.067,13.067,0,0,1-13.585-12.525l-2.063-50.832a11.121,11.121,0,0,1,10.66-11.563Z" transform="translate(-2037.853 -3464.645)" fill="#ffb5a1"/><circle cx="9.573" cy="9.573" r="9.573" transform="translate(0 67.557)" fill="#ffb5a1"/><circle cx="9.573" cy="9.573" r="9.573" transform="translate(83.928 63.76)" fill="#ffb5a1"/><path d="M2086.517,3470.074a41.461,41.461,0,0,1,43.171,39.8,6.52,6.52,0,0,1-6.261,6.79l-69.808,2.834a6.522,6.522,0,0,1-6.791-6.261A41.438,41.438,0,0,1,2086.517,3470.074Z" transform="translate(-2037.838 -3469.917)" fill="#78c800" fill-rule="evenodd"/><path d="M2047.205,3503.625l83.56-3.392a5.223,5.223,0,0,1,5.172,3.758l2.336,8.659a5.011,5.011,0,0,1-3.6,6.215,3.957,3.957,0,0,1-1.161.166l-87.638,3.556a5.178,5.178,0,0,1-5.336-4.919,3.982,3.982,0,0,1,.069-1.17l1.627-8.82A5.5,5.5,0,0,1,2047.205,3503.625Z" transform="translate(-2038.772 -3465.417)" fill="#58a700" fill-rule="evenodd"/><path d="M2059.458,3471.149l29.834-1.211a6.531,6.531,0,1,1,.53,13.051l-29.834,1.211a6.531,6.531,0,1,1-.53-13.051Z" transform="translate(-2036.884 -3469.932)" fill="#78c800" fill-rule="evenodd"/><rect width="23.286" height="30.539" rx="10.133" transform="matrix(0.999, -0.041, 0.041, 0.999, 32.182, 59.382)" fill="#fff"/><rect width="23.286" height="30.539" rx="10.133" transform="matrix(0.999, -0.041, 0.041, 0.999, 62.033, 58.17)" fill="#fff"/><path d="M2077.334,3531.861a4.2,4.2,0,0,0,3.036-6.908,5.154,5.154,0,0,1,6.328,4.809l.263,6.484a5.154,5.154,0,0,1-10.3.418l-.2-4.857A4.259,4.259,0,0,0,2077.334,3531.861Z" transform="translate(-2033.415 -3461.751)" fill="#3d3d3d" fill-rule="evenodd"/><path d="M2101.931,3531.212a4.2,4.2,0,0,0,3.185-6.719,5.156,5.156,0,0,1,7.043,4.586l.264,6.484a5.154,5.154,0,0,1-10.3.417l-.193-4.768Z" transform="translate(-2029.619 -3461.853)" fill="#3d3d3d" fill-rule="evenodd"/><path d="M2090.044,3549.229a3.806,3.806,0,1,0,7.541-1.042c-.287-2.082-4.568-6.413-4.725-6.392S2089.757,3547.147,2090.044,3549.229Z" transform="translate(-2031.394 -3459.221)" fill="#e18e70"/><path d="M2091.711,3544.9l3.827-.53a4.349,4.349,0,0,1,4.9,3.713h0a4.347,4.347,0,0,1-3.711,4.9l-3.829.529a4.348,4.348,0,0,1-4.9-3.713h0A4.347,4.347,0,0,1,2091.711,3544.9Z" transform="translate(-2031.703 -3458.842)" fill="#e18e70"/><path d="M2089.641,3551.526c-4.282-6.517-14.161-8.595-23.337-5.744l2.277,6.6C2077.513,3553.836,2093.052,3556.718,2089.641,3551.526Z" transform="translate(-2034.93 -3458.813)" fill="#ffb5a1"/></g><circle cx="7.44" cy="7.44" r="7.44" transform="translate(45.913 107.129)" fill="#ffb5a1"/><circle cx="4.435" cy="4.435" r="4.435" transform="translate(48.917 110.134)" fill="#ad3b3b"/><g transform="translate(44.991 93.352)"><path d="M2161.16,3558.053l-13.908,11.084v5.178l6.954,3.632,7.345-10.52Z" transform="translate(-2062.002 -3550.15)" fill="#cbe8f5"/><path d="M2163.687,3576.31s-17.417-23.95-43.427-25.131a3.722,3.722,0,0,0-2.453.807l-44.024,34.6a1.887,1.887,0,0,0-.39,2.552l6.8,9.906,85.942-15.029,19.453-28.908S2165.535,3553.736,2163.687,3576.31Z" transform="translate(-2073.061 -3551.175)" fill="#e9f6fd"/><path d="M2164.836,3582.644l-39.929-19.259a4.757,4.757,0,0,0-4.979.523l-41.967,32.48a4.886,4.886,0,0,0,1.131,8.381l40.592,16.714a5.154,5.154,0,0,0,5.039-.63l43.864-32.632a2.131,2.131,0,0,0,.446-.449l20.99-28.682a2.073,2.073,0,0,0-.425-2.879l-2.03-1.531a2.073,2.073,0,0,0-2.931.443Z" transform="translate(-2072.613 -3550.715)" fill="#ce82ff"/></g><path d="M2078.795,3600.021a10.668,10.668,0,0,1,11.294-9.864l16.634,1.233a10.606,10.606,0,0,1-1.432,21.164l-16.634-1.233A10.533,10.533,0,0,1,2078.795,3600.021Z" transform="translate(-2027.221 -3452.015)" fill="#ffb5a1" fill-rule="evenodd"/><path d="M2053.462,3601.672l-1.834-18.229a4.482,4.482,0,0,1,5.281-3.493l44.447,9.46a4.487,4.487,0,0,1,3.493,5.284l-3.336,16.768a4.486,4.486,0,0,1-5.282,3.493l-39.276-8A4.487,4.487,0,0,1,2053.462,3601.672Z" transform="translate(-2031.265 -3453.547)" fill="#ede1cf" fill-rule="evenodd"/></g><g transform="translate(110.091)"><g transform="translate(94.62 84.663)"><path d="M2220.56,3503.718l-2.648,10.765-.954,3.881-1.621,6.577-.023.1a2.758,2.758,0,0,0,1.646,3.233,2.709,2.709,0,0,0,2.4-.146l19.176-10.693a12.286,12.286,0,0,0,6.3-11.344,12.022,12.022,0,0,0-.978-4.234,11.857,11.857,0,0,0-3.444-4.507c-.1-.08-.2-.16-.3-.236-.063-.048-.128-.095-.191-.142l-.185-.144c-.1-.077-.2-.153-.306-.227A12.2,12.2,0,0,0,2220.56,3503.718Z" transform="translate(-2215.229 -3494.351)" fill="#d8d7da"/><path d="M2217.912,3513.718l-.955,3.881-1.62,6.577-.023.1a2.759,2.759,0,0,0,1.646,3.234,2.713,2.713,0,0,0,2.4-.147l19.176-10.692a12.289,12.289,0,0,0,6.3-11.345,12.023,12.023,0,0,0-.978-4.236,14.924,14.924,0,0,0-13.148,2.646Z" transform="translate(-2215.229 -3493.586)" fill="#c6c5ca"/><path d="M2216.768,3522.375l16.519-12.883a11.644,11.644,0,0,1,18.352,5.809c.033.115.066.232.1.35.018.073.036.145.053.218s.041.145.058.217c.031.118.059.236.085.354a11.643,11.643,0,0,1-13.266,13.947l-20.687-3.307A2.648,2.648,0,0,1,2216.768,3522.375Z" transform="translate(-2215.166 -3492.793)" fill="#e5e5e5"/></g><g transform="translate(0 0)"><path d="M2153.872,3531.5s4.074,6.089-.358,11.3" transform="translate(-2129.277 -3404.981)" fill="none" stroke="#3b5998" stroke-linecap="round" stroke-width="1"/><g transform="translate(2.892 135.696)"><path d="M2139.042,3552.014a4.654,4.654,0,1,0,6.578-.258h0A4.655,4.655,0,0,0,2139.042,3552.014Z" transform="translate(-2134.103 -3538.336)" fill="#ff9600"/><path d="M2136.637,3547.168a7.79,7.79,0,0,0,6.081-2.5l2.2-2.382a8.147,8.147,0,1,1,11.964,11.061l-2.2,2.382a7.8,7.8,0,0,0-2.014,6.273,2.036,2.036,0,0,1-3.405,1.731l-14.1-13.036a2.037,2.037,0,0,1,1.475-3.53Z" transform="translate(-2134.509 -3539.671)" fill="#ff9600"/><path d="M2151.45,3543.608s3.674,2.987-.091,7.458" transform="translate(-2132.434 -3539.186)" fill="none" stroke="#ffc801" stroke-linecap="round" stroke-miterlimit="10" stroke-width="1.994"/></g><path d="M2161.693,3525.6a2.939,2.939,0,0,0-.666-4.092.079.079,0,0,1-.068-.07v0l-7.819-6.289a3.224,3.224,0,0,0-4.348.013,2.938,2.938,0,0,0,.666,4.092.078.078,0,0,1,.067.07v0l7.819,6.289a3.105,3.105,0,0,0,4.3.037Z" transform="translate(-2128.86 -3407.229)" fill="#01357a" fill-rule="evenodd"/><path d="M2158.1,3525.375a2.73,2.73,0,0,0-1.7-3.468l-.033-.011-7.29-2.474a2.749,2.749,0,0,0-1.752,5.21l7.29,2.474a2.729,2.729,0,0,0,3.468-1.695Z" transform="translate(-2129.2 -3406.618)" fill="#01357a" fill-rule="evenodd"/><path d="M2161.969,3530.518a5.335,5.335,0,0,1-.344,1.649,6.4,6.4,0,0,1-3.341,3.727,2.638,2.638,0,0,1-3.5-1.238,1.784,1.784,0,0,1-.237-.969,2.472,2.472,0,0,1-.645.736,2.626,2.626,0,0,1-3.673-.413,6.382,6.382,0,0,1,2.236-9.824,6.5,6.5,0,0,1,4.971-.28,6.724,6.724,0,0,1,3.793,3.225A6.918,6.918,0,0,1,2161.969,3530.518Zm-7.089,1.7a2.462,2.462,0,0,1,1.141-1.06,1.011,1.011,0,0,0,.581-.68,1.116,1.116,0,0,0-.062-.9,1.487,1.487,0,0,0-.85-.71,1.335,1.335,0,0,0-1.08.049,1.006,1.006,0,0,0-.579.679,1.065,1.065,0,0,0,.23,1.088A2.676,2.676,0,0,1,2154.88,3532.215Z" transform="translate(-2128.791 -3406.093)" fill="#01357a"/><path d="M2135.087,3542.616a7.641,7.641,0,0,1,8.2-5.606c.074.008.157.013.244.018a3.421,3.421,0,0,1,.573.065.962.962,0,0,1,.814,1.07,1,1,0,0,1-.319.731,1.481,1.481,0,0,1-1.138.212c-.107-.009-.207-.018-.293-.018-3.459-.01-4.831.9-6.111,4.039-.031.078-.06.174-.09.276-.112.385-.345,1.185-1.218.987h0a1.436,1.436,0,0,1-.228-.07c-.785-.308-.592-1.043-.5-1.4a1.869,1.869,0,0,0,.059-.259A.353.353,0,0,1,2135.087,3542.616Z" transform="translate(-2131.565 -3404.308)" fill="#ddd" opacity="0.47"/><path d="M2154.1,3562.744a7.644,7.644,0,0,0,7.009-7.043c.005-.074.016-.157.027-.244a3.543,3.543,0,0,0,.037-.575.962.962,0,0,0-.9-1,1,1,0,0,0-.779.179,1.48,1.48,0,0,0-.416,1.082c-.01.107-.02.207-.036.291-.621,3.4-1.761,4.587-5.086,5.274-.081.016-.182.026-.289.037-.4.04-1.227.122-1.192,1.017h0a1.667,1.667,0,0,0,.029.237c.158.829.919.773,1.284.746a1.845,1.845,0,0,1,.265-.011A.434.434,0,0,0,2154.1,3562.744Z" transform="translate(-2129.405 -3402.227)" fill="#ddd" opacity="0.47"/><path d="M2144.952,3536.322c-.1-.015-.193-.029-.271-.035-5.6-.392-8.663,1.607-10.586,6.9a3.317,3.317,0,0,0-.09.325c-.1.424-.318,1.306-1.272,1.11l-.031-.007a.956.956,0,0,1-.645-.427,1.528,1.528,0,0,1,0-1.2c.025-.09.049-.175.064-.249a11.3,11.3,0,0,1,12.773-8.483.531.531,0,0,1,.067.019.408.408,0,0,0,.065.019c.055.012.126.024.2.035.089.013.19.03.291.052a1,1,0,0,1,.849,1.25C2146.218,3536.511,2145.364,3536.382,2144.952,3536.322Z" transform="translate(-2131.934 -3404.663)" fill="#ddd" opacity="0.47"/><path d="M2162.427,3554.669c0,.1-.006.2-.015.274-.635,5.573-3.159,8.226-8.716,9.152a3.359,3.359,0,0,1-.335.028c-.436.024-1.343.076-1.323,1.05v.03a.96.96,0,0,0,.3.712,1.525,1.525,0,0,0,1.178.219c.092-.008.18-.016.257-.017a11.3,11.3,0,0,0,10.669-11.016.361.361,0,0,0-.007-.068.572.572,0,0,1-.007-.067c0-.056,0-.128,0-.2,0-.089.007-.192,0-.3a1,1,0,0,0-.94-1.063.884.884,0,0,0-.135,0C2162.47,3553.391,2162.441,3554.254,2162.427,3554.669Z" transform="translate(-2129.459 -3402.284)" fill="#ddd" opacity="0.47"/><g transform="translate(73.499 138.756)"><path d="M4.845,0H23.793a4.845,4.845,0,0,1,4.845,4.845V7.069a4.844,4.844,0,0,1-4.844,4.844H4.845A4.845,4.845,0,0,1,0,7.069V4.845A4.845,4.845,0,0,1,4.845,0Z" transform="matrix(0.924, -0.383, 0.383, 0.924, 0, 16.172)" fill="#0056d6"/><rect width="24.857" height="11.981" transform="translate(1.333 9.513) rotate(-22.5)" fill="#0056d6"/></g><rect width="28.032" height="14.052" rx="6.256" transform="matrix(-0.979, 0.204, -0.204, -0.979, 66.653, 125.497)" fill="#0056d6"/><rect width="22.004" height="14.052" rx="5.642" transform="translate(49.47 130.842) rotate(-170.145)" fill="#0056d6"/><rect width="6.865" height="14.052" rx="1.251" transform="translate(34.402 128.224) rotate(-170.145)" fill="#01357a"/><rect width="28.638" height="11.913" rx="4.845" transform="translate(97.138 151.784) rotate(-68.494)" fill="#006bd6"/><rect width="24.857" height="15.067" transform="matrix(0.471, -0.882, 0.882, 0.471, 89.609, 143.415)" fill="#006bd6"/><g transform="translate(57.219 103.536)"><path d="M2227,3531.742l1.117,1.668c1.991,2.975,1.554,6.792-.97,8.482l-9.244,6.185A23.079,23.079,0,0,0,2227,3531.742Z" transform="translate(-2177.499 -3508.619)" fill="#006bd6"/><path d="M2217.384,3547.034l-2.862,1.907c-.31.207-.624.4-.941.593l4.855-3.248C2218.094,3546.543,2217.744,3546.794,2217.384,3547.034Z" transform="translate(-2178.031 -3506.829)" fill="#006bd6"/><path d="M2191.728,3514.874a22.329,22.329,0,0,1,30.942,6.31c.051.074.095.15.143.224.03.043.063.081.091.125l2.171,3.244,6.357,9.5a23.081,23.081,0,0,1-9.1,16.335l-4.855,3.248a23.153,23.153,0,0,1-31.067-7l-1.746-2.619a15.642,15.642,0,0,1-2.629-8.726A22.168,22.168,0,0,1,2191.728,3514.874Z" transform="translate(-2181.929 -3511.155)" fill="#006bd6"/></g><g transform="translate(75.998 98.176)"><rect width="32.886" height="14.052" rx="6.256" transform="translate(0 20.815) rotate(-39.267)" fill="#006bd6"/><rect width="28.032" height="14.052" rx="6.256" transform="translate(19.072 1.671) rotate(12.424)" fill="#006bd6"/><g transform="translate(32.756 3.845)"><path d="M2231.171,3511.184l-3.316,15.052a1.761,1.761,0,0,0,1.337,2.093h0a1.762,1.762,0,0,0,2.094-1.338l3.315-15.052a1.762,1.762,0,0,0-1.337-2.094h0A1.761,1.761,0,0,0,2231.171,3511.184Z" transform="translate(-2227.813 -3509.805)" fill="#01357a"/><rect width="14.98" height="14.601" rx="4.003" transform="matrix(0.215, -0.977, 0.977, 0.215, 2.471, 15.549)" fill="#01357a"/><path d="M2230.351,3523.034h0a1.878,1.878,0,0,0,.069,2.647l3.423,3.25a1.877,1.877,0,0,0,2.646-.069h0a1.877,1.877,0,0,0-.069-2.647l-3.423-3.25A1.877,1.877,0,0,0,2230.351,3523.034Z" transform="translate(-2227.564 -3508.248)" fill="#01357a"/></g></g><rect width="23.843" height="31.93" rx="10.614" transform="translate(84.721 135.887) rotate(159.361)" fill="#006bd6"/><g transform="translate(13.806 28.827)"><path d="M2178.675,3447.413l11.221-2.064a43.347,43.347,0,0,1,50.325,34.687h0a43.346,43.346,0,0,1-34.687,50.325l-11.221,2.064a43.346,43.346,0,0,1-50.325-34.686h0A43.348,43.348,0,0,1,2178.675,3447.413Z" transform="translate(-2143.275 -3444.636)" fill="#0075d6"/></g><g transform="translate(66.445 60.172)"><path d="M2196.29,3472.794l.637-.12a7.563,7.563,0,0,1,8.8,6.017l1.264,6.717a7.47,7.47,0,0,1-.43,4.213,31.743,31.743,0,0,0-10.4,4.294,7.546,7.546,0,0,1-4.625-5.6l-1.264-6.715A7.563,7.563,0,0,1,2196.29,3472.794Z" transform="translate(-2190.143 -3472.544)" fill="#fff"/><rect width="7.495" height="12.356" rx="3.126" transform="translate(2.267 7.339) rotate(-10.659)"/><path d="M2195.627,3479.674a1.874,1.874,0,1,0,1.5-2.188A1.874,1.874,0,0,0,2195.627,3479.674Z" transform="translate(-2189.472 -3471.94)" fill="#fff"/></g><g transform="translate(30.124 70.394)"><path d="M2163.384,3481.744l-.52.094a6.172,6.172,0,0,0-4.962,7.151l.992,5.487a6.1,6.1,0,0,0,1.554,3.088,25.887,25.887,0,0,1,9.181.245,6.159,6.159,0,0,0,1.9-5.616l-.992-5.488A6.172,6.172,0,0,0,2163.384,3481.744Z" transform="translate(-2157.804 -3481.646)" fill="#fff"/><path d="M2.56,0H3.578a2.56,2.56,0,0,1,2.56,2.56v5A2.561,2.561,0,0,1,3.578,10.12H2.56A2.56,2.56,0,0,1,0,7.56v-5A2.56,2.56,0,0,1,2.56,0Z" transform="matrix(0.984, -0.178, 0.178, 0.984, 2.127, 4.966)"/><path d="M2162.159,3488.311a1.534,1.534,0,1,1-1.783-1.238A1.534,1.534,0,0,1,2162.159,3488.311Z" transform="translate(-2157.642 -3480.98)" fill="#fff"/></g><g transform="translate(19.817 37.407)"><path d="M2182.027,3460.514c-14.948,3.523-25.226,15.884-25.405,29.227l-7.973,1.88c-.627-17.285,12.437-33.6,31.719-38.148s38.258,4.221,45.418,19.965l-7.974,1.879C2211.692,3463.459,2196.976,3456.99,2182.027,3460.514Z" transform="translate(-2148.626 -3452.275)" fill="#fff"/><path d="M2195.018,3513.308c14.948-3.524,25.225-15.886,25.4-29.228l7.973-1.88c.626,17.285-12.436,33.6-31.719,38.147s-38.258-4.22-45.418-19.963l7.974-1.88C2165.352,3510.362,2180.068,3516.832,2195.018,3513.308Z" transform="translate(-2148.302 -3448.591)" fill="#fff"/></g><path d="M2164.549,3445.879l25.5-4.691a4.9,4.9,0,0,1,1.772,9.631l-25.505,4.691a4.9,4.9,0,1,1-1.771-9.631Z" transform="translate(-2127.343 -3416.244)" fill="#01357a"/><g transform="translate(11.426 35.809)"><g transform="translate(0 0)"><rect width="91.089" height="11.793" rx="2.549" transform="translate(0 24.279) rotate(-15.458)" fill="#ffde00"/><rect width="91.247" height="3.213" transform="translate(1.13 28.366) rotate(-15.458)" fill="#fff"/></g></g><circle cx="6.215" cy="6.215" r="6.215" transform="translate(67.696 11.633) rotate(-69.387)" fill="#01357a"/><path d="M2201.224,3426.682s-23.914-3.679-25.466,19.248" transform="translate(-2125.469 -3418.047)" fill="none" stroke="#01357a" stroke-miterlimit="10" stroke-width="1.581"/><path d="M2162.921,3535.793l2.555-15.2a1.759,1.759,0,0,0-1.441-2.022h0a1.759,1.759,0,0,0-2.023,1.441l-2.555,15.2a1.76,1.76,0,0,0,1.441,2.023h0A1.76,1.76,0,0,0,2162.921,3535.793Z" transform="translate(-2127.479 -3406.708)" fill="#01357a"/></g></g><g transform="translate(183.236 201.254)"><path d="M2246.633,3621.048l3.612,64.46a9.222,9.222,0,0,1-8.692,9.724c-.173.011-.345.015-.517.015h-26.973a9.223,9.223,0,0,1-7.655-14.37Z" transform="translate(-2191.664 -3589.719)" fill="#fff" fill-rule="evenodd"/><path d="M2236.367,3640.165h0a6.662,6.662,0,0,1,9.056,2.6l22.357,40.333a6.661,6.661,0,0,1-2.6,9.056h0a6.661,6.661,0,0,1-9.054-2.6l-22.357-40.333A6.662,6.662,0,0,1,2236.367,3640.165Z" transform="translate(-2187.476 -3586.995)" fill="#fff" fill-rule="evenodd"/><path d="M2209.3,3648.455a1.361,1.361,0,0,1,1.46,1.254l2.083,23.8a1.364,1.364,0,0,1-1.22,1.49,13.326,13.326,0,0,1-2.324-26.543Z" transform="translate(-2192.764 -3585.635)" fill="#ff9600"/><path d="M2194.388,3660.068a1.358,1.358,0,0,1,1.792-.7l21.991,9.334a1.361,1.361,0,0,1,.742,1.775,13.326,13.326,0,0,1-24.527-10.411Z" transform="translate(-2193.373 -3584.024)" fill="#ff9600"/><circle cx="5.124" cy="5.124" r="5.124" transform="translate(38.975 60.437)" fill="#ffd900"/><rect width="9.223" height="32.793" rx="1.784" transform="translate(36.471 53.256) rotate(-60)" fill="#ffaade"/><path d="M2260.415,3605.916a1.538,1.538,0,0,1,.114,2.171l-17.829,19.8a1.536,1.536,0,0,1-2.171.114h0a14.859,14.859,0,0,1,19.885-22.085Z" transform="translate(-2187.076 -3592.544)" fill="#fff"/><path d="M2249.534,3617.014l26.53,19.276a13.322,13.322,0,1,1-15.66,21.555l-26.531-19.275a13.322,13.322,0,0,1,15.661-21.556Z" transform="translate(-2188.155 -3590.7)" fill="#fff" fill-rule="evenodd"/><path d="M2237.958,3593.784a1.639,1.639,0,0,1,1.689,1.586l.994,28.464a1.64,1.64,0,0,1-1.575,1.7h0a15.885,15.885,0,0,1-1.108-31.751Z" transform="translate(-2188.998 -3593.783)" fill="#1cb0f6"/><path d="M2244.919,3614.875l.01.048a8.16,8.16,0,0,1,.241,1.982v8.2a8.2,8.2,0,1,1-16.4,0v-.761a13.335,13.335,0,0,1,16.144-9.468Z" transform="translate(-2188.096 -3590.7)" fill="#ff9600" fill-rule="evenodd"/><path d="M2236.333,3622.563a3.679,3.679,0,0,1,.281.542,4.941,4.941,0,0,0,8.224,1.266m6.866,1.265a3.747,3.747,0,0,1,.282.543,4.939,4.939,0,0,0,8.223,1.265" transform="translate(-2186.969 -3589.493)" fill="none" stroke="#2b70c9" stroke-linecap="round" stroke-linejoin="round" stroke-width="4.673"/><path d="M2262.586,3631.668a1.638,1.638,0,0,0-1.633,1.643v28.483a1.638,1.638,0,0,0,1.633,1.643,15.885,15.885,0,0,0,0-31.769Z" transform="translate(-2183.299 -3588.136)" fill="#fff"/><path d="M2252.477,3637.677a1.236,1.236,0,0,0-.993,1.436l4.033,20.744a1.231,1.231,0,0,0,1.458.957,11.788,11.788,0,1,0-4.5-23.136Z" transform="translate(-2184.714 -3587.274)" fill="#fff"/><path d="M2272.791,3635.428l1.7.362a5.891,5.891,0,0,1,3.249,9.6l-.225.264a6.148,6.148,0,0,1-10.25-1.418l-.55-1.189a5.446,5.446,0,0,1,6.074-7.615Z" transform="translate(-2182.516 -3587.593)" fill="#2b70c9" fill-rule="evenodd"/><path d="M2258.206,3642.453a7.174,7.174,0,0,0,7.173,7.173" transform="translate(-2183.709 -3586.529)" fill="none" stroke="#d97200" stroke-linecap="round" stroke-linejoin="round" stroke-width="4.459"/><path d="M2223.466,3653.829v26.644a10.248,10.248,0,0,1-9.815,10.239,9.223,9.223,0,0,1-7.243-14.361l16.771-24.942A10.3,10.3,0,0,1,2223.466,3653.829Z" transform="translate(-2191.664 -3585.194)" fill="#ff9600" fill-rule="evenodd"/></g></g><rect width="316.629" height="7.842" rx="3.412" transform="translate(2028.975 3724.626)" fill="#fff"/></g></svg>