<svg xmlns="http://www.w3.org/2000/svg" xmlns:xlink="http://www.w3.org/1999/xlink" width="361.553" height="178.653" viewBox="0 0 361.553 178.653"><defs><clipPath id="a"><rect width="361.553" height="172.377" fill="none"/></clipPath></defs><g transform="translate(-427 -4503.114)"><g transform="translate(-779.549 557.764)"><g transform="translate(1206.548 3945.351)"><g clip-path="url(#a)"><g transform="translate(190.186 20.064)"><rect width="47.291" height="8.639" rx="4.319" transform="translate(17.288 230.754)" fill="#3d3d3d"/><path d="M1428.97,4135.24v-9.028a5.882,5.882,0,0,1,1.722-4.158,5.861,5.861,0,0,1,.891-.731,5.932,5.932,0,0,1,1.016-.543,5.88,5.88,0,0,1,2.25-.448h35.5a5.88,5.88,0,0,1,2.25.448,5.871,5.871,0,0,1,3.182,3.181,5.887,5.887,0,0,1,.447,2.25v9.028a5.892,5.892,0,0,1-.447,2.25,5.884,5.884,0,0,1-3.182,3.182,5.9,5.9,0,0,1-2.25.447h-35.5a5.885,5.885,0,0,1-5.432-3.629,5.892,5.892,0,0,1-.447-2.25Z" transform="translate(-1411.411 -3976.961)" fill="#777"/><path d="M1453.956,4053.568a5.671,5.671,0,0,1,5.67,5.67v8.115a5.671,5.671,0,0,1-11.342,0v-8.115A5.67,5.67,0,0,1,1453.956,4053.568Z" transform="translate(-1412.686 -3972.556)" fill="#eba792"/><rect width="17.113" height="72.793" rx="4.619" transform="translate(22.019 153.409)" fill="#777"/><rect width="17.113" height="72.793" rx="4.619" transform="translate(42.707 153.409)" fill="#777"/><path d="M1427.857,4065.488v-5.133a6.788,6.788,0,0,1,4.191-6.271,6.709,6.709,0,0,1,1.273-.387,6.8,6.8,0,0,1,1.324-.13h36.312a6.756,6.756,0,0,1,2.6.517,6.7,6.7,0,0,1,1.173.627,6.782,6.782,0,0,1,3.017,5.643v5.133a6.8,6.8,0,0,1-1.143,3.771,6.783,6.783,0,0,1-1.874,1.873,6.8,6.8,0,0,1-2.447,1.013,6.767,6.767,0,0,1-1.323.131h-36.312a6.789,6.789,0,0,1-6.788-6.788Z" transform="translate(-1411.338 -3972.556)" fill="#1899d6"/><path d="M1440.253,4066.92h22.864a21.308,21.308,0,0,1,21.307,21.309v24.809a12.085,12.085,0,0,1-12.085,12.085H1431.03a12.085,12.085,0,0,1-12.085-12.085v-24.809A21.308,21.308,0,0,1,1440.253,4066.92Z" transform="translate(-1410.75 -3973.437)" fill="#f0f0f0"/><path d="M1440.047,4066.92a3.853,3.853,0,0,1,3.853,3.854v50.5a3.853,3.853,0,0,1-3.853,3.854h-17.238a3.853,3.853,0,0,1-3.853-3.854v-33.257A21.092,21.092,0,0,1,1440.047,4066.92Z" transform="translate(-1410.751 -3973.437)" fill="#1cb0f6"/><path d="M1483.444,4125.123h-17.237a3.853,3.853,0,0,1-3.854-3.854v-50.5a3.854,3.854,0,0,1,3.854-3.854,21.092,21.092,0,0,1,21.091,21.092v33.257A3.853,3.853,0,0,1,1483.444,4125.123Z" transform="translate(-1413.615 -3973.437)" fill="#1cb0f6"/><rect width="57.952" height="7.591" rx="3.796" transform="translate(11.847 239.392)" fill="#afafaf" opacity="0.3" style="isolation:isolate"/><rect width="54.768" height="7.591" rx="3.796" transform="translate(13.439 239.392)" fill="none"/><path d="M1453.956,4053.568a5.671,5.671,0,0,1,5.67,5.67v8.115a5.671,5.671,0,0,1-11.342,0v-8.115A5.67,5.67,0,0,1,1453.956,4053.568Z" transform="translate(-1412.686 -3972.556)" fill="#eba792"/><path d="M1414.1,4004.335v-4.9q0-.737.072-1.471t.217-1.457q.143-.723.358-1.429t.5-1.387q.283-.681.63-1.332t.756-1.262q.411-.614.878-1.184t.989-1.092q.521-.521,1.092-.989t1.182-.877q.614-.411,1.264-.758t1.332-.63q.681-.282,1.387-.5t1.429-.357q.723-.144,1.457-.217t1.471-.072h15.2q.737,0,1.471.072t1.457.217q.723.144,1.429.357t1.387.5q.681.283,1.332.63t1.264.758q.612.409,1.182.877t1.092.989q.521.521.989,1.092t.878,1.184q.409.612.757,1.262t.63,1.332q.282.681.5,1.387t.358,1.429q.144.723.217,1.457t.072,1.471v4.9q0,.737-.072,1.471t-.217,1.457q-.143.723-.358,1.429t-.5,1.387q-.283.68-.63,1.332t-.757,1.263q-.411.613-.878,1.183t-.989,1.092q-.521.521-1.092.989t-1.182.878q-.614.409-1.264.757c-.433.233-.878.442-1.332.631s-.916.353-1.387.5-.947.262-1.429.358-.968.168-1.457.217-.98.072-1.471.072h-15.2q-.737,0-1.471-.072t-1.457-.217q-.723-.143-1.429-.358t-1.387-.5c-.454-.189-.9-.4-1.332-.631s-.855-.484-1.264-.757-.8-.566-1.182-.878-.744-.642-1.092-.989-.677-.712-.989-1.092-.6-.774-.878-1.183-.525-.829-.756-1.263-.442-.878-.63-1.332-.353-.917-.5-1.387-.262-.947-.358-1.429-.168-.968-.217-1.457S1414.1,4004.827,1414.1,4004.335Z" transform="translate(-1410.431 -3967.993)" fill="#3d3d3d"/><path d="M1443.033,4014.231v-4.9q0-.737.073-1.471a14.707,14.707,0,0,1,.216-1.457q.144-.724.358-1.429t.5-1.387q.283-.682.63-1.332t.757-1.264q.409-.612.877-1.184t.989-1.091q.521-.521,1.092-.989t1.183-.878q.612-.409,1.263-.757t1.332-.63q.682-.282,1.387-.5t1.429-.358q.723-.143,1.457-.216t1.471-.072h15.722c.491,0,.983.023,1.471.072s.975.121,1.457.216.959.216,1.429.358.933.308,1.387.5.9.4,1.332.63.855.485,1.264.757.8.566,1.183.878.743.642,1.091.989.678.711.989,1.091.605.775.878,1.184.526.83.757,1.264.442.877.63,1.332a14.645,14.645,0,0,1,.5,1.387q.214.7.359,1.429t.216,1.457q.073.733.072,1.471v4.9q0,.739-.072,1.472t-.216,1.457q-.144.723-.359,1.429t-.5,1.387q-.282.68-.63,1.331t-.757,1.264q-.409.613-.878,1.183t-.989,1.091q-.521.523-1.091.99t-1.183.877q-.614.411-1.264.758t-1.332.63q-.681.283-1.387.5t-1.429.358c-.482.1-.968.168-1.457.216s-.98.073-1.471.073h-15.722q-.737,0-1.471-.073c-.49-.048-.975-.121-1.457-.216s-.958-.216-1.429-.358-.932-.308-1.387-.5-.9-.4-1.332-.63-.855-.484-1.263-.758-.8-.565-1.183-.877-.744-.642-1.092-.99-.677-.711-.989-1.091-.6-.774-.877-1.183-.526-.83-.757-1.264-.442-.877-.63-1.331-.353-.917-.5-1.387-.262-.947-.358-1.429-.168-.969-.216-1.457S1443.033,4014.724,1443.033,4014.231Z" transform="translate(-1412.34 -3968.646)" fill="#4c4c4c"/><path d="M1416.642,3993.089h0c0-.573.028-1.142.084-1.712s.14-1.134.252-1.694.25-1.115.416-1.663.359-1.084.577-1.613.463-1.045.733-1.549.563-.995.881-1.47.657-.934,1.021-1.376.746-.866,1.151-1.271.828-.787,1.269-1.151.9-.7,1.376-1.021.966-.611,1.47-.881,1.021-.514,1.549-.732,1.067-.411,1.614-.577,1.1-.3,1.661-.417,1.126-.2,1.7-.251,1.14-.084,1.711-.084h37.477q.857,0,1.711.084t1.7.251q.841.168,1.662.417t1.614.577q.792.327,1.548.732t1.469.881q.714.478,1.377,1.021t1.269,1.151q.607.607,1.151,1.271t1.021,1.376q.476.713.881,1.47t.732,1.549a17.115,17.115,0,0,1,.577,1.613q.249.821.417,1.663t.251,1.694c.056.57.084,1.139.084,1.712h0q0,.858-.084,1.711t-.251,1.7q-.167.84-.417,1.662a17.018,17.018,0,0,1-.577,1.613q-.328.793-.732,1.55t-.881,1.469q-.477.713-1.021,1.377t-1.151,1.27q-.606.607-1.269,1.151t-1.377,1.021q-.713.476-1.469.881t-1.548.732q-.793.328-1.614.577t-1.662.417q-.842.167-1.7.251t-1.711.084H1434.1q-.857,0-1.711-.084t-1.7-.251q-.84-.168-1.661-.417t-1.614-.577q-.792-.328-1.549-.732t-1.47-.881q-.713-.476-1.376-1.021t-1.269-1.151q-.607-.607-1.151-1.27t-1.021-1.377q-.476-.713-.881-1.469t-.733-1.55q-.328-.792-.577-1.613t-.416-1.662q-.168-.842-.252-1.7T1416.642,3993.089Z" transform="translate(-1410.598 -3967.413)" fill="#3d3d3d"/><path d="M1486.417,4013.016a9.292,9.292,0,0,1,1.953.207,9.491,9.491,0,0,1,1.879.614,9.793,9.793,0,0,1,1.731,1,10.171,10.171,0,0,1,1.518,1.341,10.579,10.579,0,0,1,1.245,1.635,11,11,0,0,1,.926,1.864,11.385,11.385,0,0,1,.57,2.023,11.613,11.613,0,0,1,0,4.208,11.432,11.432,0,0,1-.57,2.023,11.076,11.076,0,0,1-.926,1.864,10.617,10.617,0,0,1-1.245,1.634,10.158,10.158,0,0,1-1.518,1.341,9.793,9.793,0,0,1-1.731,1,9.491,9.491,0,0,1-1.879.614,9.309,9.309,0,0,1-3.907,0,9.484,9.484,0,0,1-1.878-.614,9.836,9.836,0,0,1-1.732-1,10.224,10.224,0,0,1-1.517-1.341,10.685,10.685,0,0,1-1.246-1.634,11.071,11.071,0,0,1-.925-1.864,11.309,11.309,0,0,1-.57-2.023,11.6,11.6,0,0,1,0-4.208,11.263,11.263,0,0,1,.57-2.023,11,11,0,0,1,.925-1.864,10.646,10.646,0,0,1,1.246-1.635,10.237,10.237,0,0,1,1.517-1.341,9.836,9.836,0,0,1,1.732-1,9.484,9.484,0,0,1,1.878-.614A9.3,9.3,0,0,1,1486.417,4013.016Z" transform="translate(-1414.542 -3969.88)" fill="#d98b75"/><path d="M1420.185,4013.016a9.29,9.29,0,0,1,1.953.207,9.465,9.465,0,0,1,1.878.614,9.77,9.77,0,0,1,1.732,1,10.231,10.231,0,0,1,1.518,1.341,10.65,10.65,0,0,1,1.245,1.635,11.085,11.085,0,0,1,.926,1.864,11.364,11.364,0,0,1,.57,2.023,11.592,11.592,0,0,1,0,4.208,11.411,11.411,0,0,1-.57,2.023,11.159,11.159,0,0,1-.926,1.864,10.689,10.689,0,0,1-1.245,1.634,10.217,10.217,0,0,1-1.518,1.341,9.77,9.77,0,0,1-1.732,1,9.465,9.465,0,0,1-1.878.614,9.309,9.309,0,0,1-3.907,0,9.481,9.481,0,0,1-1.878-.614,9.8,9.8,0,0,1-1.732-1,10.144,10.144,0,0,1-1.517-1.341,10.624,10.624,0,0,1-1.246-1.634,11.141,11.141,0,0,1-.926-1.864,11.54,11.54,0,0,1,0-8.254,11.067,11.067,0,0,1,.926-1.864,10.585,10.585,0,0,1,1.246-1.635,10.158,10.158,0,0,1,1.517-1.341,9.8,9.8,0,0,1,1.732-1,9.481,9.481,0,0,1,1.878-.614A9.3,9.3,0,0,1,1420.185,4013.016Z" transform="translate(-1410.171 -3969.88)" fill="#d98b75"/><path d="M1421.971,4035.087v-22.536q0-1.324.13-2.641t.388-2.615q.259-1.3.643-2.565t.891-2.489q.505-1.223,1.13-2.39t1.359-2.268q.736-1.1,1.575-2.123t1.776-1.959q.936-.936,1.959-1.776t2.123-1.575q1.1-.736,2.268-1.359t2.39-1.13q1.223-.507,2.489-.891t2.565-.643q1.3-.258,2.615-.388t2.64-.13h5.926q1.324,0,2.64.13t2.615.388q1.3.259,2.565.643t2.489.891q1.223.506,2.39,1.13t2.268,1.359q1.1.736,2.123,1.575t1.96,1.776q.936.936,1.775,1.959t1.575,2.123q.736,1.1,1.359,2.268t1.13,2.39q.507,1.223.891,2.489t.643,2.565q.258,1.3.387,2.615t.13,2.641v22.536q0,.907-.089,1.81t-.266,1.793q-.177.89-.441,1.758t-.61,1.706q-.348.838-.775,1.638t-.931,1.554q-.5.754-1.08,1.455t-1.217,1.343q-.642.642-1.343,1.217t-1.455,1.08q-.755.5-1.555.932t-1.638.774q-.838.347-1.706.611t-1.758.44q-.89.178-1.792.266t-1.81.089h-22.872q-.906,0-1.81-.089t-1.792-.266q-.89-.177-1.758-.44t-1.707-.611q-.839-.348-1.638-.774t-1.555-.932q-.754-.5-1.455-1.08t-1.343-1.217q-.642-.642-1.217-1.343t-1.08-1.455q-.5-.753-.931-1.554t-.775-1.638q-.348-.839-.611-1.706t-.44-1.758q-.177-.891-.266-1.793T1421.971,4035.087Z" transform="translate(-1410.95 -3968.071)" fill="#eba792"/><path d="M1414.95,3984.292h0q0-.858.084-1.712t.251-1.695q.168-.842.417-1.662t.577-1.613a17.085,17.085,0,0,1,.733-1.549q.4-.757.881-1.47t1.02-1.375q.545-.664,1.151-1.271t1.27-1.151q.663-.543,1.376-1.02t1.47-.882q.756-.4,1.549-.732t1.613-.577q.821-.249,1.662-.417t1.694-.251q.855-.084,1.712-.084h9.509q.857,0,1.711.084t1.7.251q.842.168,1.662.417t1.613.577q.793.328,1.549.732t1.47.882q.713.476,1.376,1.02t1.269,1.151q.607.607,1.151,1.271t1.021,1.375q.476.713.881,1.47t.733,1.549q.328.793.577,1.613t.417,1.662q.167.841.251,1.695t.084,1.712h0q0,.858-.084,1.711t-.251,1.7q-.168.84-.417,1.662t-.577,1.613q-.329.793-.733,1.549t-.881,1.469q-.476.713-1.021,1.377t-1.151,1.269q-.605.607-1.269,1.151t-1.376,1.021q-.713.476-1.47.881t-1.549.732q-.793.328-1.613.577t-1.662.417q-.841.166-1.7.251t-1.711.084h-9.509q-.859,0-1.712-.084t-1.694-.251q-.842-.167-1.662-.417t-1.613-.577q-.793-.328-1.549-.732t-1.47-.881q-.713-.476-1.376-1.021t-1.27-1.151q-.607-.606-1.151-1.269t-1.02-1.377a17.064,17.064,0,0,1-.881-1.469q-.4-.756-.733-1.549t-.577-1.613q-.249-.821-.417-1.662t-.251-1.7Q1414.95,3985.151,1414.95,3984.292Z" transform="translate(-1410.486 -3966.832)" fill="#3d3d3d"/><path d="M1447.24,4023.984v-11.911a3.181,3.181,0,0,1,.242-1.22,3.137,3.137,0,0,1,.3-.551,3.2,3.2,0,0,1,1.43-1.174,3.264,3.264,0,0,1,.6-.181,3.227,3.227,0,0,1,.622-.061h6.269a3.227,3.227,0,0,1,.622.061,3.287,3.287,0,0,1,.6.181,3.208,3.208,0,0,1,1.034.691,3.156,3.156,0,0,1,.4.483,3.07,3.07,0,0,1,.294.551,3.172,3.172,0,0,1,.182.6,3.223,3.223,0,0,1,.061.622v11.911a3.229,3.229,0,0,1-.061.622,3.175,3.175,0,0,1-.182.6,3.07,3.07,0,0,1-.294.551,3.2,3.2,0,0,1-1.43,1.174,3.267,3.267,0,0,1-.6.181,3.227,3.227,0,0,1-.622.061h-6.269a3.184,3.184,0,0,1-1.22-.242,3.219,3.219,0,0,1-1.034-.691,3.221,3.221,0,0,1-.4-.483,3.137,3.137,0,0,1-.3-.551,3.178,3.178,0,0,1-.242-1.22Z" transform="translate(-1412.617 -3969.607)" fill="#df8e70"/><g transform="translate(19.805 56.923)"><path d="M1437.257,4037.57a5.65,5.65,0,0,1-2.287-4.516v-1.208a5.641,5.641,0,0,1,1.607-3.934,6.477,6.477,0,0,0-3.291,10.944c.566.563,1.212,1.139,1.917,1.714A5.672,5.672,0,0,1,1437.257,4037.57Z" transform="translate(-1431.376 -4027.786)" fill="#ae1f23"/><path d="M1475.491,4029.8a6.426,6.426,0,0,0-4.188-1.974,5.641,5.641,0,0,1,1.683,4.017v1.208a4.653,4.653,0,0,0-.106,7.981c.792-.636,1.584-1.324,2.373-2.073A6.479,6.479,0,0,0,1475.491,4029.8Z" transform="translate(-1433.971 -4027.78)" fill="#ae1f23"/><path d="M1470.645,4033.045v-1.208a5.641,5.641,0,0,0-1.683-4.017,6.439,6.439,0,0,0-4.971,1.735c-10.267,9.746-19.568,1.787-21.345.076a6.471,6.471,0,0,0-5.815-1.728,5.641,5.641,0,0,0-1.607,3.934v1.208a4.289,4.289,0,0,1,.234,7.517,29.623,29.623,0,0,0,18.215,6.784,26.548,26.548,0,0,0,16.866-6.32,4.653,4.653,0,0,1,.106-7.981Z" transform="translate(-1431.63 -4027.777)" fill="#fff"/></g><path d="M1425.789,4022.656v-17.263a3.764,3.764,0,0,1,.636-2.1,3.765,3.765,0,0,1,.469-.572,3.788,3.788,0,0,1,1.224-.818,3.8,3.8,0,0,1,1.444-.287h15.847a3.784,3.784,0,0,1,2.668,1.1,3.825,3.825,0,0,1,.469.572,3.784,3.784,0,0,1,.636,2.1v17.263a3.775,3.775,0,0,1-3.773,3.773h-15.847a3.779,3.779,0,0,1-1.444-.288,3.76,3.76,0,0,1-1.224-.817,3.815,3.815,0,0,1-.818-1.224,3.756,3.756,0,0,1-.287-1.444Z" transform="translate(-1411.202 -3969.128)" fill="#fff"/><path d="M1457.267,4022.656v-17.263a3.782,3.782,0,0,1,.288-1.444,3.75,3.75,0,0,1,.818-1.225,3.777,3.777,0,0,1,2.667-1.1h15.848a3.8,3.8,0,0,1,1.444.287,3.8,3.8,0,0,1,.652.349,3.731,3.731,0,0,1,.572.469,3.747,3.747,0,0,1,.818,1.225,3.792,3.792,0,0,1,.215.708,3.746,3.746,0,0,1,.072.736v17.263a3.754,3.754,0,0,1-.072.736,3.774,3.774,0,0,1-1.033,1.932,3.733,3.733,0,0,1-.572.469,3.777,3.777,0,0,1-1.36.563,3.746,3.746,0,0,1-.736.073H1461.04a3.774,3.774,0,0,1-3.137-1.677,3.8,3.8,0,0,1-.348-.652,3.782,3.782,0,0,1-.288-1.444Z" transform="translate(-1413.279 -3969.128)" fill="#fff"/><path d="M1441.418,4018.9v-3.955a2.95,2.95,0,0,1,.057-.58,2.961,2.961,0,0,1,.814-1.523,2.911,2.911,0,0,1,.45-.37,3.038,3.038,0,0,1,.515-.275,2.982,2.982,0,0,1,1.139-.226h1.2a2.98,2.98,0,0,1,1.139.226,3.029,3.029,0,0,1,.514.275,2.964,2.964,0,0,1,.821.821,2.946,2.946,0,0,1,.444,1.072,2.95,2.95,0,0,1,.057.58v3.955a2.982,2.982,0,0,1-.871,2.1,3.073,3.073,0,0,1-.451.37,2.99,2.99,0,0,1-.514.274,2.906,2.906,0,0,1-.558.169,2.95,2.95,0,0,1-.58.058h-1.2a2.947,2.947,0,0,1-.58-.058,2.863,2.863,0,0,1-.559-.169,2.974,2.974,0,0,1-1.779-2.168A2.965,2.965,0,0,1,1441.418,4018.9Z" transform="translate(-1412.233 -3969.811)" fill="#303030"/><path d="M1459.464,4018.9v-3.955a3,3,0,0,1,.227-1.138,2.993,2.993,0,0,1,.275-.514,2.964,2.964,0,0,1,.821-.821,3.043,3.043,0,0,1,.515-.275,2.972,2.972,0,0,1,1.139-.226h1.195a2.971,2.971,0,0,1,1.139.226,3,3,0,0,1,.515.275,2.964,2.964,0,0,1,.821.821,3,3,0,0,1,.445,1.072,3.026,3.026,0,0,1,.057.58v3.955a3.041,3.041,0,0,1-.057.581,3.006,3.006,0,0,1-.445,1.072,2.948,2.948,0,0,1-.37.451,3.073,3.073,0,0,1-.451.37,2.963,2.963,0,0,1-.515.274,2.876,2.876,0,0,1-.557.169,2.953,2.953,0,0,1-.581.058h-1.195a2.965,2.965,0,0,1-.581-.058,2.874,2.874,0,0,1-.558-.169,3,3,0,0,1-.515-.274,3.086,3.086,0,0,1-.451-.37,2.955,2.955,0,0,1-.37-.451,2.989,2.989,0,0,1-.275-.514,2.905,2.905,0,0,1-.169-.558A2.966,2.966,0,0,1,1459.464,4018.9Z" transform="translate(-1413.424 -3969.811)" fill="#303030"/><path d="M1433.087,4056.94l13.184,8.024a3.361,3.361,0,0,1-.387,5.941l-3.527,1.559h-7.819a6.681,6.681,0,0,1-6.681-6.679v-5.909a3.44,3.44,0,0,1,5.229-2.936Z" transform="translate(-1411.338 -3972.745)" fill="#1cb0f6"/><path d="M1474.627,4056.94l-13.184,8.024a3.36,3.36,0,0,0,.389,5.941l3.524,1.559h7.821a6.68,6.68,0,0,0,6.68-6.679h0v-5.909a3.44,3.44,0,0,0-5.229-2.936Z" transform="translate(-1413.448 -3972.745)" fill="#1cb0f6"/><path d="M1438.838,4066.92a2.079,2.079,0,0,1,2.079,2.079v15.59a2.079,2.079,0,0,1-4.157,0V4069A2.078,2.078,0,0,1,1438.838,4066.92Z" transform="translate(-1411.926 -3973.437)" fill="#fff"/><path d="M1468.884,4066.92a2.079,2.079,0,0,1,2.078,2.079v15.59a2.079,2.079,0,0,1-4.157,0V4069A2.078,2.078,0,0,1,1468.884,4066.92Z" transform="translate(-1413.908 -3973.437)" fill="#fff"/></g><g transform="translate(80.678)"><g transform="translate(10.668)"><rect width="27.205" height="80.045" rx="13.602" transform="translate(9.442)" fill="#3d3d3d"/><rect width="27.205" height="80.045" rx="13.602" transform="translate(36.596)" fill="#3d3d3d"/><rect width="27.205" height="80.045" rx="13.602" transform="translate(63.801)" fill="#3d3d3d"/><path d="M1385.26,3986.515a10.759,10.759,0,0,1,10.76,10.76V4046.5a12.642,12.642,0,0,1-12.643,12.643H1327.1a12.643,12.643,0,0,1-12.644-12.643v-49.228a10.761,10.761,0,0,1,10.761-10.76Z" transform="translate(-1305.015 -3948.067)" fill="#a46648"/><circle cx="9.263" cy="9.263" r="9.263" transform="translate(0 61.518)" fill="#a46648"/><path d="M1352.455,4003.924a16.018,16.018,0,0,0-15.419-1.6" transform="translate(-1306.505 -3949.026)" fill="none" stroke="#884727" stroke-linecap="round" stroke-linejoin="round" stroke-width="2.523"/><path d="M1363.183,4003.924a16.018,16.018,0,0,1,15.42-1.6" transform="translate(-1308.231 -3949.026)" fill="none" stroke="#884727" stroke-linecap="round" stroke-linejoin="round" stroke-width="2.523"/><circle cx="9.263" cy="9.263" r="9.263" transform="translate(81.293 61.14)" fill="#a46648"/><path d="M1314.531,3986.41h80.487a2.434,2.434,0,0,1,2.434,2.434v5.055a2.434,2.434,0,0,1-2.434,2.434h-80.487a2.434,2.434,0,0,1-2.434-2.434v-5.055A2.434,2.434,0,0,1,1314.531,3986.41Z" transform="translate(-1304.86 -3948.06)" fill="#ff4b4b" fill-rule="evenodd"/></g><g transform="translate(8.824 117.636)"><path d="M1424.22,4100.016l-6.817-18.61a15.406,15.406,0,0,0-14.466-10.108h-97.3c-.127,0-.251.012-.377.015h12.223v54.9h-15.107c.1,0,.191.015.289.015h103.246a19.5,19.5,0,0,0,18.312-26.209Z" transform="translate(-1302.374 -4071.298)" fill="#ffc800"/></g><rect width="74.331" height="6.085" rx="3.043" transform="translate(24.609 261.171)" fill="#afafaf" opacity="0.3" style="isolation:isolate"/><path d="M1330.7,4213.462h20.8a5.347,5.347,0,0,1,0,10.695h-20.8a5.347,5.347,0,1,1,0-10.695Z" transform="translate(-1295.066 -3963.043)" fill="#d52323" fill-rule="evenodd"/><path d="M1364.413,4213.462h20.8a5.347,5.347,0,1,1,0,10.695h-20.8a5.347,5.347,0,1,1,0-10.695Z" transform="translate(-1297.291 -3963.043)" fill="#d52323" fill-rule="evenodd"/><path d="M1321.733,4073.947h65.412a17.628,17.628,0,0,1,17.194,21.513l-9.581,42.385a17.627,17.627,0,0,1-17.194,13.739h-46.249a17.627,17.627,0,0,1-17.193-13.739l-9.582-42.385a17.624,17.624,0,0,1,17.193-21.513Z" transform="translate(-1293.664 -3953.837)" fill="#ffc800" fill-rule="evenodd"/><path d="M1397.875,4130.075l-2.594,11.474a17.625,17.625,0,0,1-17.193,13.739h-46.249a17.628,17.628,0,0,1-17.193-13.739l-2.594-11.474Z" transform="translate(-1294.188 -3957.541)" fill="#ffb100" fill-rule="evenodd"/><path d="M1316.388,4063.768h75.461a2.178,2.178,0,0,1,2.178,2.178v7.526a2.178,2.178,0,0,1-2.178,2.179h-75.461a2.178,2.178,0,0,1-2.178-2.179v-7.526A2.178,2.178,0,0,1,1316.388,4063.768Z" transform="translate(-1294.331 -3953.165)" fill="#ffc800" fill-rule="evenodd"/><rect width="19.081" height="58.378" rx="9.54" transform="translate(42.694 188.035)" fill="#ffb100"/><rect width="19.081" height="58.378" rx="9.54" transform="translate(60.837 188.035)" fill="#ffb100"/><rect width="84.778" height="55.079" rx="13.848" transform="translate(0 117.531)" fill="#ffc800"/><path d="M1354.921,4063.344h5.348v62.4h-5.348Z" transform="translate(-1297.017 -3953.137)" fill="#fff" fill-rule="evenodd"/><path d="M1354.86,4063.344h4.832a1.585,1.585,0,0,1,1.541,1.213l3.2,13.269a1.584,1.584,0,0,1-1.169,1.912,1.542,1.542,0,0,1-.371.044h-11.228a1.584,1.584,0,0,1-1.584-1.584,1.606,1.606,0,0,1,.044-.372l3.2-13.269A1.584,1.584,0,0,1,1354.86,4063.344Z" transform="translate(-1296.698 -3953.137)" fill="#fff" fill-rule="evenodd"/><g transform="translate(40.278 144.1)"><rect width="30.184" height="28.434" rx="14.217" transform="translate(30.184 28.434) rotate(-180)" fill="#a46648"/><path d="M14.255,0H57.684a10.5,10.5,0,0,1,10.5,10.5v9.275a8.738,8.738,0,0,1-8.738,8.738H14.255A14.255,14.255,0,0,1,0,14.255v0A14.255,14.255,0,0,1,14.255,0Z" transform="translate(87.523 28.511) rotate(-180)" fill="#ffc800"/></g></g><g transform="translate(4.799 97.489)"><rect width="81.894" height="59.428" transform="translate(15.796 5.48)" fill="#fff"/><path d="M1313.173,4122.743h-87.36a4.3,4.3,0,0,1-4.3-4.295v-64.426a4.3,4.3,0,0,1,4.3-4.3h87.36a4.3,4.3,0,0,1,4.3,4.3v64.426A4.3,4.3,0,0,1,1313.173,4122.743Zm-82.627-67.535a2.418,2.418,0,0,0-2.415,2.415v54.6a2.419,2.419,0,0,0,2.415,2.416h77.063a2.418,2.418,0,0,0,2.415-2.416v-54.6a2.418,2.418,0,0,0-2.415-2.415Z" transform="translate(-1212.335 -4049.727)" fill="#5c5b5b"/><path d="M1314.021,4081.711v-24.085a2.419,2.419,0,0,0-2.415-2.416H1287.52l-5.481-5.481h35.129a4.3,4.3,0,0,1,4.3,4.3v35.128Z" transform="translate(-1216.329 -4049.728)" fill="#fff" opacity="0.26" style="isolation:isolate"/><g transform="translate(0 68.653)"><path d="M1211.689,4126.62a2.855,2.855,0,0,0,2.846,2.847H1323.56a2.855,2.855,0,0,0,2.846-2.847v-3.39h-114.72Z" transform="translate(-1211.686 -4123.23)" fill="#c1c9cb"/></g></g><rect width="13.52" height="8.742" rx="4.371" transform="translate(6.201 121.382)" fill="#a46648"/><rect width="13.52" height="8.742" rx="4.371" transform="translate(6.201 130.124)" fill="#a46648"/><rect width="13.52" height="8.742" rx="4.371" transform="translate(6.201 138.865)" fill="#a46648"/><g transform="translate(243.751 97.489)"><rect width="81.894" height="59.428" transform="translate(15.796 5.48)" fill="#fff"/><path d="M1569.008,4122.743h-87.36a4.3,4.3,0,0,1-4.3-4.295v-64.426a4.3,4.3,0,0,1,4.3-4.3h87.361a4.3,4.3,0,0,1,4.295,4.3v64.426A4.3,4.3,0,0,1,1569.008,4122.743Zm-82.626-67.535a2.418,2.418,0,0,0-2.416,2.415v54.6a2.419,2.419,0,0,0,2.416,2.416h77.062a2.418,2.418,0,0,0,2.415-2.416v-54.6a2.418,2.418,0,0,0-2.415-2.415Z" transform="translate(-1468.17 -4049.727)" fill="#5c5b5b"/><path d="M1569.855,4081.711v-24.085a2.419,2.419,0,0,0-2.415-2.416h-24.085l-5.481-5.481H1573a4.3,4.3,0,0,1,4.295,4.3v35.128Z" transform="translate(-1472.164 -4049.728)" fill="#fff" opacity="0.26" style="isolation:isolate"/><g transform="translate(0 68.653)"><path d="M1467.524,4126.62a2.855,2.855,0,0,0,2.846,2.847h109.025a2.855,2.855,0,0,0,2.846-2.847v-3.39h-114.72Z" transform="translate(-1467.521 -4123.23)" fill="#c1c9cb"/></g></g><g transform="translate(342.383 121.382)"><rect width="13.52" height="8.742" rx="4.371" fill="#eba792"/><rect width="13.52" height="8.742" rx="4.371" transform="translate(0 8.742)" fill="#eba792"/><rect width="13.52" height="8.742" rx="4.371" transform="translate(0 17.483)" fill="#eba792"/></g><g transform="translate(117.643 54.43)"><path d="M1358.974,4046.861c0-.016,0-.033,0-.048h0a6.8,6.8,0,0,0-5.995-6.6l.006,0-.1-.012h0l-.463-.044-.336-.038a7.771,7.771,0,0,1-4.6-3.182,6.8,6.8,0,0,0-8.106-3.185c-.015,0-.028.012-.043.017a6.785,6.785,0,0,0-.688.277c-.083.038-.163.083-.246.124-.151.078-.3.161-.444.249-.085.052-.169.105-.251.161-.138.094-.27.192-.4.294-.072.057-.145.11-.214.17a6.626,6.626,0,0,0-.513.486c-.039.041-.075.085-.113.128-.135.149-.263.3-.385.465-.057.077-.109.156-.163.235-.088.129-.173.259-.252.392-.051.088-.1.175-.149.264-.074.138-.141.28-.205.425-.038.084-.078.167-.112.254a6.61,6.61,0,0,0-.234.68l-.008.024v.005a6.771,6.771,0,0,0,.1,3.947,15.747,15.747,0,0,0,10.5,10.181l0,.006c.041.014.085.024.126.037.279.092.567.174.855.257.176.05.348.1.527.151.311.081.63.151.95.221.165.036.326.077.494.11.366.073.742.133,1.119.19.131.021.256.046.388.064.514.073,1.036.133,1.569.179.234.021.467.029.7.026a6.807,6.807,0,0,0,6.677-6.211c.015-.169.014-.336.016-.5C1358.968,4046.99,1358.974,4046.924,1358.974,4046.861Z" transform="translate(-1332.648 -4005.591)" fill="#fff"/><path d="M1342.846,4003.626h0a10.211,10.211,0,0,1,10.342,10.076v6.277a10.211,10.211,0,0,1-10.342,10.076h0a10.212,10.212,0,0,1-10.343-10.076V4013.7A10.212,10.212,0,0,1,1342.846,4003.626Z" transform="translate(-1332.503 -4003.626)" fill="#fff"/><path d="M1371.261,4003.626h0A10.212,10.212,0,0,1,1381.6,4013.7v6.277a10.212,10.212,0,0,1-10.343,10.076h0a10.212,10.212,0,0,1-10.343-10.076V4013.7A10.212,10.212,0,0,1,1371.261,4003.626Z" transform="translate(-1334.378 -4003.626)" fill="#fff"/><path d="M1343.077,4015.479a3.683,3.683,0,0,0,3.73-3.634,3.558,3.558,0,0,0-.787-2.233,4.718,4.718,0,0,1,.865-.079,4.521,4.521,0,0,1,4.579,4.46v5.616a4.58,4.58,0,0,1-9.156,0V4015.4A3.851,3.851,0,0,0,1343.077,4015.479Z" transform="translate(-1333.15 -4004.016)" fill="#3d3d3d" fill-rule="evenodd"/><path d="M1363.46,4015.478a3.683,3.683,0,0,0,3.73-3.633,3.554,3.554,0,0,0-.66-2.066,4.685,4.685,0,0,1,1.509-.247,4.52,4.52,0,0,1,4.577,4.46v5.616a4.58,4.58,0,0,1-9.156,0v-4.129Z" transform="translate(-1334.546 -4004.016)" fill="#3d3d3d" fill-rule="evenodd"/><path d="M1354.052,4030.664a3.383,3.383,0,0,0,6.763,0c0-1.82-3.24-6.04-3.381-6.04S1354.052,4028.844,1354.052,4030.664Z" transform="translate(-1333.925 -4005.012)" fill="#86401f"/><path d="M1355.78,4028.433h3.1a3.437,3.437,0,0,1,3.481,3.391h0a3.438,3.438,0,0,1-3.481,3.393h-3.1a3.438,3.438,0,0,1-3.481-3.393h0A3.437,3.437,0,0,1,1355.78,4028.433Z" transform="translate(-1333.809 -4005.263)" fill="#86401f"/></g></g></g><rect width="359.064" height="7.325" rx="3.625" transform="translate(1209.037 4116.679)" fill="#fff"/></g><g transform="translate(696.69 4612.74)"><g transform="translate(0 0)"><g transform="translate(0 0)"><g transform="translate(0 0)"><g transform="matrix(0.996, -0.087, 0.087, 0.996, 0, 2.101)"><g transform="translate(0 0)"><path d="M6.962,8.968a11.058,11.058,0,0,0,2.224-.215.767.767,0,0,0,.6-.7,11.337,11.337,0,0,0-.17-2.44A6.954,6.954,0,0,0,7.489,1.449,6.954,6.954,0,0,0,3.043,0L2.83,0A11.059,11.059,0,0,0,.606.215a.767.767,0,0,0-.6.7,11.34,11.34,0,0,0,.17,2.44A6.954,6.954,0,0,0,2.3,7.519,6.953,6.953,0,0,0,6.749,8.967Z" transform="translate(0 13.773)" fill="#9df10b"/><path d="M3.845,8.582A6.487,6.487,0,0,0,7.494,7.6a6.955,6.955,0,0,0,2.577-3.9,11.169,11.169,0,0,0,.442-2.406A.767.767,0,0,0,10,.53,11.153,11.153,0,0,0,7.6.045C7.285.015,6.971,0,6.669,0A6.486,6.486,0,0,0,3.021.984a6.955,6.955,0,0,0-2.577,3.9A11.178,11.178,0,0,0,0,7.292a.767.767,0,0,0,.514.76,11.166,11.166,0,0,0,2.4.485C3.229,8.567,3.543,8.582,3.845,8.582Z" transform="translate(13.595 34.426)" fill="#9df10b"/><path d="M6.311,8.03a7.731,7.731,0,0,0,3.5-.942,11.167,11.167,0,0,0,2.047-1.34.767.767,0,0,0,.2-.9,11.319,11.319,0,0,0-1.3-2.07A6.955,6.955,0,0,0,6.913.115,5.159,5.159,0,0,0,5.815,0a7.731,7.731,0,0,0-3.5.942A11.158,11.158,0,0,0,.264,2.282a.767.767,0,0,0-.2.9,11.329,11.329,0,0,0,1.3,2.07A6.954,6.954,0,0,0,5.213,7.916c.053.012.107.022.162.032h0A5.258,5.258,0,0,0,6.311,8.03Z" transform="translate(2.31 26.186)" fill="#9df10b"/><path d="M6.267,11.476a.765.765,0,0,0,.664-.387,11.346,11.346,0,0,0,.917-2.268,6.955,6.955,0,0,0-.084-4.675A6.955,6.955,0,0,0,4.4.9,11.323,11.323,0,0,0,2.117.021a.762.762,0,0,0-.842.366A11.337,11.337,0,0,0,.359,2.655,6.955,6.955,0,0,0,.442,7.33a6.956,6.956,0,0,0,3.363,3.249,11.322,11.322,0,0,0,2.284.876A.768.768,0,0,0,6.267,11.476Z" transform="translate(4.896 0)" fill="#9df10b"/></g></g><g transform="matrix(-0.996, -0.087, 0.087, -0.996, 56.422, 44.945)"><g transform="translate(0 0)"><path d="M6.962,0A11.059,11.059,0,0,1,9.186.215a.767.767,0,0,1,.6.7,11.336,11.336,0,0,1-.17,2.44A6.954,6.954,0,0,1,7.489,7.519,6.953,6.953,0,0,1,3.043,8.966l-.213,0A11.059,11.059,0,0,1,.606,8.753a.767.767,0,0,1-.6-.7,11.34,11.34,0,0,1,.17-2.44A6.954,6.954,0,0,1,2.3,1.449,6.953,6.953,0,0,1,6.749,0Z" transform="translate(0 20.265)" fill="#9df10b"/><path d="M3.845,0A6.487,6.487,0,0,1,7.493.984a6.955,6.955,0,0,1,2.577,3.9,11.168,11.168,0,0,1,.442,2.406.767.767,0,0,1-.514.76,11.152,11.152,0,0,1-2.4.485c-.317.03-.63.045-.933.045A6.486,6.486,0,0,1,3.021,7.6,6.955,6.955,0,0,1,.443,3.7,11.178,11.178,0,0,1,0,1.289.767.767,0,0,1,.515.529a11.165,11.165,0,0,1,2.4-.485C3.229.015,3.543,0,3.845,0Z" transform="translate(13.595 0)" fill="#9df10b"/><path d="M6.311,0a7.731,7.731,0,0,1,3.5.942,11.166,11.166,0,0,1,2.047,1.34.767.767,0,0,1,.2.9,11.32,11.32,0,0,1-1.3,2.07A6.954,6.954,0,0,1,6.913,7.915a5.159,5.159,0,0,1-1.1.115,7.731,7.731,0,0,1-3.5-.942A11.158,11.158,0,0,1,.264,5.748a.767.767,0,0,1-.2-.9,11.328,11.328,0,0,1,1.3-2.07A6.954,6.954,0,0,1,5.213.115C5.267.1,5.32.092,5.375.082h0A5.258,5.258,0,0,1,6.311,0Z" transform="translate(2.31 8.791)" fill="#9df10b"/><path d="M6.267,0a.765.765,0,0,1,.664.387,11.346,11.346,0,0,1,.917,2.268A6.955,6.955,0,0,1,7.764,7.33,6.955,6.955,0,0,1,4.4,10.579a11.324,11.324,0,0,1-2.283.876.762.762,0,0,1-.842-.366A11.337,11.337,0,0,1,.359,8.821,6.955,6.955,0,0,1,.442,4.146,6.956,6.956,0,0,1,3.805.9,11.322,11.322,0,0,1,6.089.021.768.768,0,0,1,6.267,0Z" transform="translate(4.896 31.531)" fill="#9df10b"/></g></g></g></g><path d="M0,16.254c0-.087,0-.174,0-.26,0-.03,0-.06,0-.09V1A1,1,0,0,1,1,0H22.406a1,1,0,0,1,1,1V15.9c0,.03,0,.061,0,.09,0,.086,0,.173,0,.26,0,5.386-5.24,9.752-11.7,9.752S0,21.64,0,16.254Z" transform="translate(18.777 6.058)" fill="#8ee000"/><path d="M0,18.449,18.448,0h3.66a1,1,0,0,1,1,1V3.149L3.118,23.14A9.435,9.435,0,0,1,0,18.449Z" transform="translate(19.075 6.057)" fill="#bff199" opacity="0.88"/></g><path d="M.825-7.89a.96.96,0,0,1-.172.563,1.308,1.308,0,0,1-.4.382A5.02,5.02,0,0,0-.592-7.4a2.909,2.909,0,0,0-1.148-.2,2.723,2.723,0,0,0-1.418.353A2.363,2.363,0,0,0-4.08-6.217a3.821,3.821,0,0,0-.33,1.672,3.137,3.137,0,0,0,.75,2.273A2.692,2.692,0,0,0-1.635-1.5,3.177,3.177,0,0,0-.48-1.687a4.87,4.87,0,0,0,.855-.428,1.152,1.152,0,0,1,.367.4,1.179,1.179,0,0,1,.142.585.946.946,0,0,1-.15.51A1.239,1.239,0,0,1,.24-.2,4.568,4.568,0,0,1-.592.1,5.157,5.157,0,0,1-1.9.24,5.434,5.434,0,0,1-4.3-.278,3.946,3.946,0,0,1-6-1.852a5.2,5.2,0,0,1-.63-2.693,5.167,5.167,0,0,1,.623-2.633A4.153,4.153,0,0,1-4.335-8.805a4.866,4.866,0,0,1,2.31-.555,5.058,5.058,0,0,1,1.523.2,2.5,2.5,0,0,1,.983.532A1,1,0,0,1,.825-7.89ZM6.03-2.7H4.05V-7.515l-1.755.69a1.352,1.352,0,0,1-.4-.337.9.9,0,0,1-.18-.593q0-.705.87-1.02l1.935-.75H4.95a1.059,1.059,0,0,1,.795.292,1.1,1.1,0,0,1,.285.8ZM4.05-4.1H6.03V0q-.12.03-.36.075A2.854,2.854,0,0,1,5.145.12a1.368,1.368,0,0,1-.832-.2A.869.869,0,0,1,4.05-.81Z" transform="translate(30.085 21.659)" fill="#fff"/></g><g transform="translate(458.752 4614.74)"><g transform="translate(0 0)"><g transform="translate(0 0)"><g transform="translate(0)"><g transform="matrix(0.996, -0.087, 0.087, 0.996, 0, 2.101)"><g transform="translate(0 0)"><path d="M6.962,8.968a11.058,11.058,0,0,0,2.224-.215.767.767,0,0,0,.6-.7,11.337,11.337,0,0,0-.17-2.44A6.954,6.954,0,0,0,7.489,1.449,6.954,6.954,0,0,0,3.043,0L2.83,0A11.059,11.059,0,0,0,.606.215a.767.767,0,0,0-.6.7,11.34,11.34,0,0,0,.17,2.44A6.954,6.954,0,0,0,2.3,7.519,6.953,6.953,0,0,0,6.749,8.967Z" transform="translate(0 13.774)" fill="#ffcf33"/><path d="M3.845,8.582A6.487,6.487,0,0,0,7.494,7.6a6.955,6.955,0,0,0,2.577-3.9,11.169,11.169,0,0,0,.442-2.406A.767.767,0,0,0,10,.53,11.153,11.153,0,0,0,7.6.045C7.285.015,6.971,0,6.669,0A6.486,6.486,0,0,0,3.021.984a6.955,6.955,0,0,0-2.577,3.9A11.178,11.178,0,0,0,0,7.292a.767.767,0,0,0,.514.76,11.166,11.166,0,0,0,2.4.485C3.229,8.567,3.543,8.582,3.845,8.582Z" transform="translate(13.595 34.426)" fill="#ffcf33"/><path d="M6.311,8.03a7.731,7.731,0,0,0,3.5-.942,11.167,11.167,0,0,0,2.047-1.34.767.767,0,0,0,.2-.9,11.319,11.319,0,0,0-1.3-2.07A6.955,6.955,0,0,0,6.913.115,5.159,5.159,0,0,0,5.815,0a7.731,7.731,0,0,0-3.5.942A11.158,11.158,0,0,0,.264,2.282a.767.767,0,0,0-.2.9,11.329,11.329,0,0,0,1.3,2.07A6.954,6.954,0,0,0,5.213,7.916c.053.012.107.022.162.032h0A5.258,5.258,0,0,0,6.311,8.03Z" transform="translate(2.31 26.186)" fill="#ffcf33"/><path d="M6.267,11.476a.765.765,0,0,0,.664-.387,11.346,11.346,0,0,0,.917-2.268,6.955,6.955,0,0,0-.084-4.675A6.955,6.955,0,0,0,4.4.9,11.323,11.323,0,0,0,2.117.021a.762.762,0,0,0-.842.366A11.337,11.337,0,0,0,.359,2.655,6.955,6.955,0,0,0,.442,7.33a6.956,6.956,0,0,0,3.363,3.249,11.322,11.322,0,0,0,2.284.876A.768.768,0,0,0,6.267,11.476Z" transform="translate(4.896 0)" fill="#ffcf33"/></g></g><g transform="matrix(-0.996, -0.087, 0.087, -0.996, 56.422, 44.945)"><g transform="translate(0 0)"><path d="M6.962,0A11.059,11.059,0,0,1,9.186.215a.767.767,0,0,1,.6.7,11.336,11.336,0,0,1-.17,2.44A6.954,6.954,0,0,1,7.489,7.519,6.953,6.953,0,0,1,3.043,8.966l-.213,0A11.059,11.059,0,0,1,.606,8.753a.767.767,0,0,1-.6-.7,11.34,11.34,0,0,1,.17-2.44A6.954,6.954,0,0,1,2.3,1.449,6.953,6.953,0,0,1,6.749,0Z" transform="translate(0 20.266)" fill="#ffcf33"/><path d="M3.845,0A6.487,6.487,0,0,1,7.493.984a6.955,6.955,0,0,1,2.577,3.9,11.168,11.168,0,0,1,.442,2.406.767.767,0,0,1-.514.76,11.152,11.152,0,0,1-2.4.485c-.317.03-.63.045-.933.045A6.486,6.486,0,0,1,3.021,7.6,6.955,6.955,0,0,1,.443,3.7,11.178,11.178,0,0,1,0,1.289.767.767,0,0,1,.515.529a11.165,11.165,0,0,1,2.4-.485C3.229.015,3.543,0,3.845,0Z" transform="translate(13.595 0)" fill="#ffcf33"/><path d="M6.311,0a7.731,7.731,0,0,1,3.5.942,11.166,11.166,0,0,1,2.047,1.34.767.767,0,0,1,.2.9,11.32,11.32,0,0,1-1.3,2.07A6.954,6.954,0,0,1,6.913,7.915a5.159,5.159,0,0,1-1.1.115,7.731,7.731,0,0,1-3.5-.942A11.158,11.158,0,0,1,.264,5.748a.767.767,0,0,1-.2-.9,11.328,11.328,0,0,1,1.3-2.07A6.954,6.954,0,0,1,5.213.115C5.267.1,5.32.092,5.375.082h0A5.258,5.258,0,0,1,6.311,0Z" transform="translate(2.31 8.791)" fill="#ffcf33"/><path d="M6.267,0a.765.765,0,0,1,.664.387,11.346,11.346,0,0,1,.917,2.268A6.955,6.955,0,0,1,7.764,7.33,6.955,6.955,0,0,1,4.4,10.579a11.323,11.323,0,0,1-2.283.876.762.762,0,0,1-.842-.366A11.337,11.337,0,0,1,.359,8.821,6.955,6.955,0,0,1,.442,4.146,6.956,6.956,0,0,1,3.805.9,11.322,11.322,0,0,1,6.089.021.768.768,0,0,1,6.267,0Z" transform="translate(4.896 31.531)" fill="#ffcf33"/></g></g></g></g><path d="M0,16.254c0-.087,0-.174,0-.26,0-.03,0-.06,0-.09V1A1,1,0,0,1,1,0H22.406a1,1,0,0,1,1,1V15.9c0,.03,0,.061,0,.09,0,.086,0,.173,0,.26,0,5.386-5.24,9.752-11.7,9.752S0,21.64,0,16.254Z" transform="translate(18.777 6.058)" fill="#feb200"/><path d="M0,18.448,18.448,0h3.661a1,1,0,0,1,1,1V3.148L3.118,23.139A9.436,9.436,0,0,1,0,18.448Z" transform="translate(19.074 6.057)" fill="#fff4be" opacity="0.36"/></g><text transform="translate(30.248 22.999)" fill="#fff" font-size="15" font-family="BalooTamma2-Bold, 'Baloo Tamma \32 '" font-weight="700"><tspan x="-8.273" y="0">C2</tspan></text></g></g></svg>