<svg xmlns="http://www.w3.org/2000/svg" width="960" height="137.436" viewBox="0 0 960 137.436"><path d="M31.687,987.536a57.312,57.312,0,0,1,40.665-20,60.179,60.179,0,0,1,15.38,1.043c12.7-17.29,33.542-29.166,57.779-30.621a78.894,78.894,0,0,1,59.216,21.148A72.372,72.372,0,0,1,285,950.566c14.292-16.174,36.481-25.938,60.682-24.486,23.141,1.388,43.038,12.728,55.169,29.238a57.427,57.427,0,0,1,14.685-1,54.539,54.539,0,0,1,38.745,19.093c9.653-6.385,21.62-8.874,34.394-9.08,6.652-.107,18.016,1.361,31.3,8.266,8.443-9.358,27.918-11.472,33.5-9.109a26.919,26.919,0,0,1,.16-3.28c2.427-34.881,34.844-61.33,72.4-59.078,27.8,1.668,50.625,18.6,59.627,41.422a52.532,52.532,0,0,1,30.275,24.275q2.722-.037,5.487.128a72.172,72.172,0,0,1,24.283,5.729c1.676.378,3.331.8,4.953,1.291,8.919-26.473,40.022-37.446,63.828-36.017,24.237,1.455,45.074,13.331,57.778,30.621a60.187,60.187,0,0,1,15.38-1.043,57.308,57.308,0,0,1,40.666,20A59.048,59.048,0,0,1,960,977.93v60.506H0V977.93A59.052,59.052,0,0,1,31.687,987.536Z" transform="translate(0 -901)" fill="#1cb0f6"/></svg>