<svg xmlns="http://www.w3.org/2000/svg" xmlns:xlink="http://www.w3.org/1999/xlink" width="344" height="314.15" viewBox="0 0 344 314.15"><defs><clipPath id="a"><path d="M359.134,281.97V196.685a46.032,46.032,0,0,0-23.017-39.865l-73.859-42.642a46.033,46.033,0,0,0-46.032,0L142.368,156.82a46.032,46.032,0,0,0-23.017,39.865V281.97a46.031,46.031,0,0,0,23.017,39.864l73.859,42.643a46.033,46.033,0,0,0,46.032,0l73.859-42.643A46.031,46.031,0,0,0,359.134,281.97Z" transform="translate(1046.497 4909.177)" fill="#ffc800"/></clipPath></defs><g transform="translate(-1113 -5330.425)"><g transform="translate(1113 5372.381)"><g transform="translate(0 0)"><path d="M169.6,344.507c-4.04-6.041-11.247-8.309-11.247-8.309s-.657,7.527,3.384,13.568a18.708,18.708,0,0,0,3.186,3.6q-3.588-1.627-7.064-3.426a22.962,22.962,0,0,0-2-12.56c-3.327-6.461-10.228-9.535-10.228-9.535s-1.511,7.4,1.815,13.865a18.714,18.714,0,0,0,2.769,3.952q-3.386-2.03-6.641-4.228a22.943,22.943,0,0,0-.56-12.7c-2.567-6.8-9.074-10.641-9.074-10.641s-2.344,7.183.223,13.982a18.765,18.765,0,0,0,2.3,4.237q-3.127-2.4-6.109-4.962a22.94,22.94,0,0,0,.889-12.676c-1.775-7.047-7.8-11.6-7.8-11.6s-3.148,6.869-1.372,13.916a18.712,18.712,0,0,0,1.786,4.446q-2.823-2.732-5.486-5.612a22.947,22.947,0,0,0,2.323-12.481c-.96-7.2-6.428-12.419-6.428-12.419s-3.91,6.465-2.95,13.669a18.678,18.678,0,0,0,1.256,4.592q-2.482-3.024-4.794-6.18a22.938,22.938,0,0,0,3.725-12.126c-.134-7.266-4.971-13.07-4.971-13.07s-4.622,5.977-4.488,13.243a18.675,18.675,0,0,0,.719,4.686q-2.115-3.277-4.05-6.671a22.927,22.927,0,0,0,5.081-11.618c.7-7.235-3.449-13.552-3.449-13.552s-5.272,5.411-5.968,12.646a18.666,18.666,0,0,0,.18,4.733q-1.727-3.494-3.262-7.085a22.916,22.916,0,0,0,6.37-10.963c1.516-7.108-1.88-13.856-1.88-13.856s-5.856,4.775-7.372,11.883a18.646,18.646,0,0,0-.36,4.727c-.878-2.444-1.683-4.919-2.432-7.416a22.924,22.924,0,0,0,7.577-10.165c2.317-6.888-.289-13.98-.289-13.98s-6.362,4.077-8.678,10.965a18.638,18.638,0,0,0-.9,4.658c-.593-2.527-1.106-5.082-1.565-7.651a22.92,22.92,0,0,0,8.682-9.231c3.087-6.58,1.306-13.923,1.306-13.923s-6.785,3.325-9.871,9.9a18.6,18.6,0,0,0-1.423,4.527c-.3-2.577-.512-5.176-.676-7.785a22.914,22.914,0,0,0,9.67-8.178c3.817-6.186,2.885-13.683,2.885-13.683s-7.119,2.53-10.936,8.715a18.7,18.7,0,0,0-1.926,4.321c0-.1-.006-.206-.006-.311,0-2.505.086-5,.211-7.484a22.914,22.914,0,0,0,10.547-7.025c4.5-5.709,4.425-13.265,4.425-13.265s-7.361,1.7-11.857,7.411a18.689,18.689,0,0,0-2.419,4.1q.43-3.893,1.072-7.742a22.947,22.947,0,0,0,11.312-5.784c5.118-5.16,5.909-12.674,5.909-12.674s-7.508.851-12.626,6.011a18.739,18.739,0,0,0-2.91,3.868q.877-3.846,1.959-7.634a22.958,22.958,0,0,0,11.925-4.459c5.673-4.543,7.315-11.918,7.315-11.918s-7.555-.01-13.228,4.533a18.752,18.752,0,0,0-3.351,3.535q1.318-3.728,2.832-7.385a22.973,22.973,0,0,0,12.36-3.072c6.154-3.866,8.626-11.006,8.626-11.006s-7.5-.871-13.658,2.995a18.69,18.69,0,0,0-3.7,3.1c.783-1.6,1.608-3.18,2.45-4.752a22.763,22.763,0,0,0,9.118-8.4c3.589-6.319,2.385-13.779,2.385-13.779s-7.023,2.787-10.612,9.108c-2.947,5.189-2.662,11.138-2.466,13.1q-2.5,4.731-4.651,9.611a21.949,21.949,0,0,0,.719-10.845c-1.523-7.107-7.382-11.876-7.382-11.876s-3.391,6.752-1.868,13.858c1.4,6.549,6.48,11.1,7.269,11.779-1.73,4.184-3.245,8.447-4.575,12.77a21.921,21.921,0,0,0-.532-10.81c-2.322-6.886-8.687-10.957-8.687-10.957s-2.6,7.095-.277,13.981c2.144,6.356,7.72,10.3,8.568,10.876q-1.872,6.6-3.108,13.389a22.018,22.018,0,0,0-1.747-10.863c-3.092-6.577-9.88-9.895-9.88-9.895s-1.773,7.344,1.319,13.921c2.878,6.118,8.945,9.413,9.778,9.842q-1.117,6.881-1.577,13.9a22.17,22.17,0,0,0-2.983-10.852c-3.822-6.181-10.944-8.7-10.944-8.7s-.925,7.5,2.9,13.68c3.6,5.817,10.112,8.393,10.868,8.676-.113,2.368-.189,4.741-.189,7.126,0,2.3.069,4.577.175,6.852a22.18,22.18,0,0,0-4.2-10.44c-4.5-5.706-11.865-7.4-11.865-7.4s-.064,7.555,4.437,13.261c4.266,5.405,11.089,7.208,11.8,7.382.3,4.622.8,9.2,1.524,13.715a22.072,22.072,0,0,0-5.317-9.722c-5.123-5.154-12.631-6-12.631-6s.8,7.514,5.92,12.668c4.832,4.862,11.779,5.889,12.553,5.99.824,4.534,1.833,9.014,3.068,13.411a22.04,22.04,0,0,0-6.374-9.012c-5.678-4.538-13.233-4.521-13.233-4.521s1.649,7.374,7.327,11.911c5.336,4.265,12.329,4.506,13.149,4.52q2,6.618,4.591,12.995a22.057,22.057,0,0,0-7.37-8.247c-6.157-3.861-13.662-2.983-13.662-2.983s2.479,7.137,8.637,11c5.783,3.626,12.753,3.071,13.578,2.991q2.746,6.345,6.05,12.4a22.064,22.064,0,0,0-8.269-7.363c-6.557-3.134-13.913-1.406-13.913-1.406s3.276,6.808,9.833,9.942c6.155,2.941,13.011,1.6,13.83,1.424q3.443,5.976,7.412,11.611a22.047,22.047,0,0,0-9.041-6.357c-6.872-2.366-13.982.189-13.982.189s4.031,6.39,10.9,8.756c6.437,2.216,13.082.114,13.9-.16q4.077,5.517,8.648,10.65a22.023,22.023,0,0,0-9.663-5.247c-7.1-1.567-13.869,1.782-13.869,1.782s4.733,5.89,11.83,7.457c6.631,1.464,12.976-1.362,13.78-1.74q4.65,4.987,9.755,9.549a21.981,21.981,0,0,0-10.139-4.069c-7.229-.748-13.576,3.351-13.576,3.351s5.374,5.312,12.6,6.059c6.734.7,12.7-2.81,13.483-3.293q5.165,4.4,10.748,8.346a21.952,21.952,0,0,0-10.5-2.864c-7.267.081-13.105,4.877-13.105,4.877s5.943,4.665,13.21,4.583c6.755-.075,12.269-4.219,13.013-4.8q5.637,3.786,11.657,7.071a21.96,21.96,0,0,0-10.775-1.657c-7.211.909-12.464,6.339-12.464,6.339s6.436,3.956,13.647,3.047c6.7-.844,11.7-5.585,12.379-6.254q6.06,3.13,12.469,5.717a22,22,0,0,0-10.974-.441c-7.061,1.725-11.661,7.719-11.661,7.719s6.846,3.2,13.906,1.471c6.557-1.6,10.987-6.88,11.584-7.624,1.472.559,2.949,1.111,4.446,1.624l.442-1.29c-1.608-.551-3.195-1.14-4.774-1.744A22.953,22.953,0,0,0,169.6,344.507Z" transform="translate(-62.016 -129.919)" fill="#f89701"/><g transform="translate(228.218)"><path d="M416.132,258.836c5.678-4.537,7.327-11.911,7.327-11.911s-7.555-.017-13.233,4.521a22.031,22.031,0,0,0-6.373,9.011c1.234-4.4,2.243-8.876,3.067-13.411.777-.1,7.722-1.128,12.553-5.989,5.123-5.154,5.921-12.668,5.921-12.668s-7.508.845-12.631,6a22.068,22.068,0,0,0-5.316,9.719c.725-4.515,1.221-9.092,1.524-13.712.709-.175,7.53-1.978,11.795-7.382,4.5-5.706,4.437-13.261,4.437-13.261s-7.363,1.7-11.865,7.4a22.168,22.168,0,0,0-4.2,10.437c.105-2.273.174-4.554.174-6.849,0-2.385-.076-4.759-.188-7.126.762-.286,7.272-2.862,10.867-8.676,3.822-6.181,2.9-13.68,2.9-13.68s-7.121,2.524-10.944,8.7a22.171,22.171,0,0,0-2.983,10.854q-.466-7.018-1.573-13.906c.843-.436,6.9-3.729,9.774-9.84,3.092-6.577,1.319-13.921,1.319-13.921s-6.788,3.318-9.88,9.895a22.012,22.012,0,0,0-1.747,10.859c-.83-4.518-1.854-8.988-3.1-13.389.866-.585,6.423-4.53,8.562-10.873,2.323-6.886-.277-13.981-.277-13.981s-6.365,4.07-8.687,10.957a21.929,21.929,0,0,0-.533,10.8c-1.33-4.322-2.836-8.588-4.566-12.771.811-.695,5.861-5.241,7.26-11.771,1.523-7.107-1.868-13.858-1.868-13.858s-5.859,4.769-7.382,11.876a21.936,21.936,0,0,0,.717,10.838c-1.37-3.116-2.86-6.187-4.447-9.213.173-1.395.761-7.887-2.423-13.494-3.588-6.32-10.611-9.108-10.611-9.108s-1.2,7.46,2.385,13.779a22.593,22.593,0,0,0,8.776,8.214c.877,1.631,1.733,3.273,2.546,4.933a18.67,18.67,0,0,0-3.7-3.1c-6.154-3.866-13.658-2.995-13.658-2.995s2.472,7.14,8.626,11.006a22.968,22.968,0,0,0,12.37,3.071c1.015,2.435,1.945,4.9,2.822,7.386a18.694,18.694,0,0,0-3.351-3.535c-5.672-4.543-13.228-4.533-13.228-4.533s1.642,7.375,7.315,11.918a22.971,22.971,0,0,0,11.932,4.46c.723,2.523,1.368,5.069,1.952,7.632a18.759,18.759,0,0,0-2.91-3.867c-5.118-5.16-12.626-6.011-12.626-6.011s.791,7.514,5.909,12.674a22.942,22.942,0,0,0,11.315,5.785q.635,3.846,1.068,7.74a18.717,18.717,0,0,0-2.418-4.1c-4.5-5.709-11.858-7.411-11.858-7.411s-.071,7.555,4.425,13.265a22.928,22.928,0,0,0,10.547,7.025c.124,2.485.211,4.978.211,7.484,0,.1-.006.207-.006.312a18.664,18.664,0,0,0-1.926-4.322c-3.817-6.185-10.936-8.715-10.936-8.715s-.932,7.5,2.885,13.683a22.911,22.911,0,0,0,9.67,8.178c-.163,2.609-.374,5.209-.675,7.786a18.658,18.658,0,0,0-1.424-4.528c-3.086-6.58-9.871-9.9-9.871-9.9s-1.78,7.343,1.306,13.923a22.92,22.92,0,0,0,8.682,9.231c-.459,2.57-.972,5.124-1.565,7.652a18.644,18.644,0,0,0-.9-4.659c-2.316-6.888-8.677-10.965-8.677-10.965s-2.606,7.092-.289,13.98a22.918,22.918,0,0,0,7.577,10.165c-.748,2.5-1.553,4.973-2.432,7.417a18.654,18.654,0,0,0-.36-4.728c-1.516-7.108-7.372-11.883-7.372-11.883s-3.4,6.749-1.88,13.856a22.916,22.916,0,0,0,6.37,10.963q-1.54,3.589-3.261,7.086a18.675,18.675,0,0,0,.179-4.734c-.7-7.235-5.968-12.646-5.968-12.646s-4.145,6.318-3.448,13.552a22.92,22.92,0,0,0,5.08,11.618q-1.94,3.39-4.05,6.671a18.678,18.678,0,0,0,.719-4.686c.134-7.266-4.488-13.243-4.488-13.243s-4.837,5.8-4.971,13.07A22.938,22.938,0,0,0,379.641,307q-2.316,3.152-4.794,6.18a18.676,18.676,0,0,0,1.256-4.592c.96-7.2-2.95-13.669-2.95-13.669s-5.468,5.215-6.428,12.419a22.941,22.941,0,0,0,2.323,12.48q-2.667,2.876-5.486,5.612a18.651,18.651,0,0,0,1.786-4.446c1.775-7.048-1.372-13.916-1.372-13.916s-6.026,4.558-7.8,11.6a22.94,22.94,0,0,0,.889,12.676q-2.984,2.558-6.109,4.962a18.692,18.692,0,0,0,2.3-4.237c2.567-6.8.223-13.982.223-13.982s-6.507,3.841-9.074,10.641a22.943,22.943,0,0,0-.56,12.7q-3.255,2.2-6.64,4.228a18.735,18.735,0,0,0,2.768-3.952c3.326-6.462,1.816-13.865,1.816-13.865s-6.9,3.074-10.229,9.535a22.961,22.961,0,0,0-2,12.56q-3.472,1.8-7.064,3.425a18.7,18.7,0,0,0,3.186-3.6c4.041-6.041,3.385-13.568,3.385-13.568s-7.208,2.267-11.248,8.309a22.952,22.952,0,0,0-3.423,12.252c-1.579.6-3.166,1.193-4.774,1.744l.442,1.29c1.5-.513,2.973-1.066,4.446-1.624.6.744,5.027,6.022,11.584,7.624,7.061,1.725,13.906-1.471,13.906-1.471s-4.6-5.994-11.66-7.719a22.011,22.011,0,0,0-10.976.441q6.407-2.583,12.47-5.717c.677.669,5.68,5.41,12.379,6.254,7.211.909,13.647-3.047,13.647-3.047s-5.253-5.43-12.464-6.339a21.962,21.962,0,0,0-10.776,1.657q6.02-3.275,11.658-7.071c.744.583,6.258,4.729,13.013,4.8,7.267.082,13.211-4.583,13.211-4.583s-5.839-4.8-13.106-4.877a21.946,21.946,0,0,0-10.5,2.865q5.586-3.931,10.749-8.347c.784.483,6.748,3.99,13.482,3.293,7.229-.747,12.6-6.059,12.6-6.059s-6.347-4.1-13.576-3.351a21.976,21.976,0,0,0-10.139,4.069q5.11-4.549,9.755-9.549c.8.378,7.149,3.2,13.78,1.74,7.1-1.567,11.831-7.457,11.831-7.457s-6.773-3.349-13.87-1.782a22.032,22.032,0,0,0-9.663,5.247q4.578-5.118,8.648-10.65c.815.275,7.461,2.376,13.9.16,6.872-2.366,10.9-8.756,10.9-8.756s-7.11-2.555-13.982-.189a22.055,22.055,0,0,0-9.041,6.356q3.981-5.62,7.412-11.61c.819.176,7.675,1.517,13.83-1.424,6.557-3.134,9.834-9.942,9.834-9.942s-7.355-1.728-13.914,1.406a22.059,22.059,0,0,0-8.268,7.362q3.315-6.038,6.05-12.4c.826.081,7.8.635,13.577-2.991,6.158-3.861,8.637-11,8.637-11s-7.5-.878-13.662,2.983a22.059,22.059,0,0,0-7.369,8.245q2.6-6.361,4.59-12.993C403.806,263.342,410.8,263.1,416.132,258.836Z" transform="translate(-309.612 -129.919)" fill="#f89701"/></g></g></g><path d="M376.381,299.673V192.626a46.032,46.032,0,0,0-23.017-39.865L260.659,99.237a46.033,46.033,0,0,0-46.032,0l-92.705,53.523A46.031,46.031,0,0,0,98.9,192.626V299.673a46.031,46.031,0,0,0,23.016,39.865l92.705,53.523a46.033,46.033,0,0,0,46.032,0l92.705-53.523A46.032,46.032,0,0,0,376.381,299.673Z" transform="translate(1048.098 5245.346)" fill="#ffc100"/><path d="M376.381,291V183.956a46.032,46.032,0,0,0-23.017-39.865L260.659,90.567a46.033,46.033,0,0,0-46.032,0l-92.705,53.523A46.031,46.031,0,0,0,98.9,183.956V291a46.033,46.033,0,0,0,23.016,39.865l92.705,53.523a46.033,46.033,0,0,0,46.032,0l92.705-53.523A46.033,46.033,0,0,0,376.381,291Z" transform="translate(1048.098 5246.024)" fill="#fee333"/><path d="M359.134,281.97V196.685a46.032,46.032,0,0,0-23.017-39.865l-73.859-42.642a46.033,46.033,0,0,0-46.032,0L142.368,156.82a46.032,46.032,0,0,0-23.017,39.865V281.97a46.031,46.031,0,0,0,23.017,39.864l73.859,42.643a46.033,46.033,0,0,0,46.032,0l73.859-42.643A46.031,46.031,0,0,0,359.134,281.97Z" transform="translate(1046.497 5244.177)" fill="#ffc800"/><g transform="translate(0 335)" clip-path="url(#a)"><path d="M-7890.654,11806.2l-177.777,177.773,32.809,32.808,193.922-193.911Z" transform="translate(9240.066 -6762.66)" fill="#fee333" stroke="rgba(0,0,0,0)" stroke-miterlimit="10" stroke-width="1"/></g><path d="M1.314-7.47H3.906V-.018q-.18.036-.513.09A4.325,4.325,0,0,1,2.7.126,1.615,1.615,0,0,1,1.629-.153a1.185,1.185,0,0,1-.315-.927ZM3.906-4.32H1.314v-6.606q.18-.036.522-.1a3.768,3.768,0,0,1,.684-.063,1.708,1.708,0,0,1,1.053.261,1.165,1.165,0,0,1,.333.963ZM8.082-7.47h2.592V-.018q-.18.036-.513.09a4.325,4.325,0,0,1-.693.054A1.62,1.62,0,0,1,8.406-.153a1.166,1.166,0,0,1-.324-.927Zm2.592,3.15H8.082v-6.606q.18-.036.522-.1a3.768,3.768,0,0,1,.684-.063,1.665,1.665,0,0,1,1.053.27,1.194,1.194,0,0,1,.333.972ZM9.558-4.464H2.5V-6.516H9.558Zm9.864-4.32h-.108q-.2.594-.45,1.341t-.531,1.557q-.279.81-.513,1.584l-.306,1.44q-.108.342-.216.738t-.225.774q-.117.378-.216.729T16.686,0a3.7,3.7,0,0,1-.432.126,2.609,2.609,0,0,1-.576.054,1.852,1.852,0,0,1-1.062-.261.853.853,0,0,1-.378-.747,1.442,1.442,0,0,1,.072-.441q.072-.225.144-.513.18-.594.477-1.494t.657-1.953q.36-1.053.729-2.088t.693-1.917q.324-.882.54-1.422a3.325,3.325,0,0,1,.765-.279,3.983,3.983,0,0,1,1.017-.135,3.814,3.814,0,0,1,1.3.207,1.059,1.059,0,0,1,.72.675q.36.954.774,2.223t.846,2.637q.432,1.368.819,2.664t.693,2.34a1.262,1.262,0,0,1-.54.351,2.349,2.349,0,0,1-.828.135,1.552,1.552,0,0,1-.99-.243,1.489,1.489,0,0,1-.432-.765l-.648-2.142-.27-1.4q-.252-.828-.5-1.638T19.8-7.551Q19.584-8.262,19.422-8.784ZM16.4-2.484,17.37-4.5h4.32l.342,2.016Zm1.89-9.7-1.638-1.3a.757.757,0,0,1-.018-.18v-.162a1.143,1.143,0,0,1,.306-.846,1.027,1.027,0,0,1,.756-.306,1.528,1.528,0,0,1,1.1.54L20.34-12.8a1.115,1.115,0,0,1-.36.765,1.028,1.028,0,0,1-.684.261,1.136,1.136,0,0,1-.531-.117A4.021,4.021,0,0,1,18.288-12.186Zm9.684,4.14,2.34-.036q.072.738.108,1.494t.045,1.467q.009.711.009,1.395V-.018q-.162.036-.5.09a4.1,4.1,0,0,1-.657.054,1.62,1.62,0,0,1-1.044-.261,1.144,1.144,0,0,1-.306-.909Zm9.468,5.13-2.322.036q-.144-1.35-.153-2.583T34.956-7.83v-3.114q.162-.036.486-.09a4.045,4.045,0,0,1,.666-.054,1.585,1.585,0,0,1,1.026.261,1.144,1.144,0,0,1,.306.909Zm0-.828v3.42A1.627,1.627,0,0,1,36.828,0a3.169,3.169,0,0,1-.954.126A2.978,2.978,0,0,1,34.8-.063,1.66,1.66,0,0,1,33.966-.9l-2.34-4.356q-.216-.414-.423-.837t-.4-.837l-.369-.81-2.466.558v-3.294a1.341,1.341,0,0,1,.648-.441,2.785,2.785,0,0,1,.936-.153,2.927,2.927,0,0,1,1.08.2,1.626,1.626,0,0,1,.828.846L33.822-5.67q.216.4.423.819t.4.846q.2.423.36.819ZM41.886-7.47h2.592V-.018q-.18.036-.513.09a4.325,4.325,0,0,1-.693.054A1.615,1.615,0,0,1,42.2-.153a1.185,1.185,0,0,1-.315-.927Zm2.592,3.15H41.886v-6.606q.18-.036.522-.1a3.768,3.768,0,0,1,.684-.063,1.708,1.708,0,0,1,1.053.261,1.165,1.165,0,0,1,.333.963Zm4.176-3.15h2.592V-.018q-.18.036-.513.09a4.325,4.325,0,0,1-.693.054,1.62,1.62,0,0,1-1.062-.279,1.166,1.166,0,0,1-.324-.927Zm2.592,3.15H48.654v-6.606q.18-.036.522-.1a3.768,3.768,0,0,1,.684-.063,1.665,1.665,0,0,1,1.053.27,1.194,1.194,0,0,1,.333.972ZM50.13-4.464H43.074V-6.516H50.13ZM64.17-8.838l-.036-2.088h5.382a1.629,1.629,0,0,1,.189.432,2,2,0,0,1,.081.576,1.178,1.178,0,0,1-.243.81.862.862,0,0,1-.675.27Zm2.2-2.088L66.4-8.838H61a2.612,2.612,0,0,1-.18-.432,1.81,1.81,0,0,1-.09-.576,1.144,1.144,0,0,1,.252-.819.883.883,0,0,1,.666-.261Zm-2.412,1.6h2.574V-.018q-.162.036-.5.09a4.379,4.379,0,0,1-.684.054,1.615,1.615,0,0,1-1.071-.279,1.185,1.185,0,0,1-.315-.927Zm11.9,3.6h1.3a2.488,2.488,0,0,0,1.53-.432,1.478,1.478,0,0,0,.576-1.26A1.492,1.492,0,0,0,78.7-8.685,2.789,2.789,0,0,0,77-9.108q-.324,0-.612.027a4.653,4.653,0,0,0-.54.081Zm1.512,1.98H73.3V-9.972a.7.7,0,0,1,.2-.531,1.57,1.57,0,0,1,.522-.315,6.5,6.5,0,0,1,1.368-.288,14.671,14.671,0,0,1,1.656-.09,5.543,5.543,0,0,1,3.609,1.008,3.368,3.368,0,0,1,1.215,2.736,3.33,3.33,0,0,1-.576,1.935,3.832,3.832,0,0,1-1.584,1.3A5.5,5.5,0,0,1,77.364-3.744Zm-.432-.612,2.25-.558q.432.558.891,1.134t.873,1.116q.414.54.756.99a8.093,8.093,0,0,1,.522.756,1.433,1.433,0,0,1-.54.792,1.438,1.438,0,0,1-.864.288,1.47,1.47,0,0,1-.954-.279,2.938,2.938,0,0,1-.63-.747ZM73.3-4.68h2.592V-.018q-.18.036-.513.09a4.325,4.325,0,0,1-.693.054,1.615,1.615,0,0,1-1.071-.279A1.185,1.185,0,0,1,73.3-1.08ZM85.95-7.47h2.574V-.018q-.162.036-.5.09a4.5,4.5,0,0,1-.7.054,1.581,1.581,0,0,1-1.053-.279,1.185,1.185,0,0,1-.315-.927Zm2.574,3.15H85.95v-6.606q.162-.036.5-.1a3.768,3.768,0,0,1,.684-.063,1.708,1.708,0,0,1,1.053.261,1.165,1.165,0,0,1,.333.963ZM86.04-12.186l-1.638-1.3a.757.757,0,0,1-.018-.18v-.162a1.143,1.143,0,0,1,.306-.846,1.027,1.027,0,0,1,.756-.306,1.528,1.528,0,0,1,1.1.54L88.092-12.8a1.115,1.115,0,0,1-.36.765,1.028,1.028,0,0,1-.684.261,1.136,1.136,0,0,1-.531-.117A4.022,4.022,0,0,1,86.04-12.186Zm6.912,4.14,2.34-.036q.072.738.108,1.494t.045,1.467q.009.711.009,1.395V-.018q-.162.036-.5.09A4.1,4.1,0,0,1,94.3.126a1.62,1.62,0,0,1-1.044-.261,1.144,1.144,0,0,1-.306-.909Zm9.468,5.13L100.1-2.88q-.144-1.35-.153-2.583T99.936-7.83v-3.114q.162-.036.486-.09a4.045,4.045,0,0,1,.666-.054,1.585,1.585,0,0,1,1.026.261,1.144,1.144,0,0,1,.306.909Zm0-.828v3.42a1.627,1.627,0,0,1-.612.324,3.169,3.169,0,0,1-.954.126,2.978,2.978,0,0,1-1.071-.189A1.66,1.66,0,0,1,98.946-.9l-2.34-4.356q-.216-.414-.423-.837t-.4-.837l-.369-.81-2.466.558v-3.294a1.341,1.341,0,0,1,.648-.441,2.785,2.785,0,0,1,.936-.153,2.927,2.927,0,0,1,1.08.2,1.626,1.626,0,0,1,.828.846L98.8-5.67q.216.4.423.819t.405.846q.2.423.36.819Zm4.446-3.726h2.592V-.018q-.18.036-.513.09a4.325,4.325,0,0,1-.693.054,1.615,1.615,0,0,1-1.071-.279,1.185,1.185,0,0,1-.315-.927Zm2.592,3.15h-2.592v-6.606q.18-.036.522-.1a3.768,3.768,0,0,1,.684-.063,1.708,1.708,0,0,1,1.053.261,1.165,1.165,0,0,1,.333.963Zm4.176-3.15h2.592V-.018q-.18.036-.513.09a4.325,4.325,0,0,1-.693.054,1.62,1.62,0,0,1-1.062-.279,1.166,1.166,0,0,1-.324-.927Zm2.592,3.15h-2.592v-6.606q.18-.036.522-.1a3.768,3.768,0,0,1,.684-.063,1.665,1.665,0,0,1,1.053.27,1.194,1.194,0,0,1,.333.972Zm-1.116-.144h-7.056V-6.516h7.056Z" transform="translate(1224.626 5415.851)" fill="#cd7900"/><path d="M1.5-9.2H5.2q.092,1.058.127,2.024t.034,1.828q0,.863,0,1.691V0q-.23.046-.747.115A7.91,7.91,0,0,1,3.565.184a2.469,2.469,0,0,1-1.61-.4A1.846,1.846,0,0,1,1.5-1.656ZM14.122-4.83h-3.7Q10.281-6.44,10.27-7.8t-.012-2.576v-3.634q.253-.046.759-.115a7.652,7.652,0,0,1,1.035-.069,2.469,2.469,0,0,1,1.61.4,1.846,1.846,0,0,1,.46,1.438Zm0-1.242V-.483A2.356,2.356,0,0,1,13.191,0a5.092,5.092,0,0,1-1.46.184,5.058,5.058,0,0,1-1.61-.253A2.229,2.229,0,0,1,8.878-1.288L6.6-5.934q-.23-.483-.425-.908T5.8-7.728q-.184-.46-.414-1.012L1.5-7.889v-5.336a1.925,1.925,0,0,1,.989-.69,4.345,4.345,0,0,1,1.426-.23,4.959,4.959,0,0,1,1.622.265,2.195,2.195,0,0,1,1.23,1.207l2.3,4.646q.23.46.425.9t.391.9q.2.46.4,1.012Zm11.155-4.485h-.138q-.207.644-.46,1.4t-.529,1.6q-.276.839-.529,1.736l-.506,2.6q-.138.46-.241.9t-.207.828q-.1.391-.2.759t-.184.713q-.3.092-.667.184a3.639,3.639,0,0,1-.874.092,3.017,3.017,0,0,1-1.725-.4,1.287,1.287,0,0,1-.575-1.116,2.334,2.334,0,0,1,.092-.644q.092-.322.207-.759.184-.736.552-1.9t.816-2.507q.448-1.345.9-2.634t.816-2.312q.368-1.023.552-1.506a4.863,4.863,0,0,1,1.2-.437,6.355,6.355,0,0,1,1.587-.207,5.849,5.849,0,0,1,2.047.333,1.7,1.7,0,0,1,1.127,1.07q.414,1.173.885,2.748t.966,3.289q.494,1.714.955,3.335t.8,2.91a2.125,2.125,0,0,1-.828.506A3.734,3.734,0,0,1,29.808.23a2.428,2.428,0,0,1-1.564-.38A2.257,2.257,0,0,1,27.6-1.311l-.575-2.208-.46-2.369q-.23-.9-.46-1.725l-.437-1.575Q25.461-9.936,25.277-10.557ZM21.39-2.9,22.977-6h5.06L28.52-2.9Zm3.818-15.18a1.852,1.852,0,0,0,1.161-.345,1.582,1.582,0,0,0,.587-.851,1.116,1.116,0,0,1,.218-.023h.2a1.724,1.724,0,0,1,1.392.529,1.716,1.716,0,0,1,.448,1.127A2.051,2.051,0,0,1,28.163-15.9a5.28,5.28,0,0,1-2.955.7,5.28,5.28,0,0,1-2.955-.7,2.051,2.051,0,0,1-1.047-1.737,1.693,1.693,0,0,1,.46-1.127,1.731,1.731,0,0,1,1.38-.529h.207a1.066,1.066,0,0,1,.207.023,1.449,1.449,0,0,0,.575.851A1.9,1.9,0,0,0,25.208-18.078ZM45.77-3.427A2.678,2.678,0,0,1,45-3.036a3.379,3.379,0,0,1-1.092.161,3.866,3.866,0,0,1-1.368-.207,1.1,1.1,0,0,1-.7-.713q-.644-2.047-1.058-3.289t-.644-2.185H40.02q-.069,1.357-.1,2.473T39.87-4.635q-.011,1.047-.046,2.139t-.1,2.4a7.567,7.567,0,0,1-.782.184,5.152,5.152,0,0,1-.966.092,3.211,3.211,0,0,1-1.564-.322,1.226,1.226,0,0,1-.575-1.173q0-.575.046-1.576t.126-2.254q.081-1.253.161-2.634t.173-2.737q.092-1.357.161-2.53a2.2,2.2,0,0,1,.805-.644,3.64,3.64,0,0,1,1.748-.345,4.065,4.065,0,0,1,1.921.38,2.136,2.136,0,0,1,1,1.231q.276.736.6,1.736t.644,2.024l.575,1.828h.115q.552-1.909,1.115-3.738t1-3.024a3.675,3.675,0,0,1,.9-.311,5.35,5.35,0,0,1,1.2-.126,4.363,4.363,0,0,1,1.84.333,1.322,1.322,0,0,1,.828.955q.092.46.2,1.4T51.2-9.177q.115,1.219.23,2.541t.218,2.565q.1,1.242.173,2.242t.092,1.576a3,3,0,0,1-.817.334A4.749,4.749,0,0,1,50,.184a3.287,3.287,0,0,1-1.46-.3,1.258,1.258,0,0,1-.656-1.173q-.092-1.679-.138-3.128t-.069-2.645q-.023-1.2-.069-2.093H47.5q-.23.9-.667,2.254T45.77-3.427Z" transform="translate(1297 5497)" fill="#cd7900"/><path d="M25,19.933l.187,7.706A2.45,2.45,0,0,1,21.667,29.9l-6.961-3.356L7.427,29.068a2.466,2.466,0,0,1-3.252-2.652L5.191,18.78.505,12.636a2.445,2.445,0,0,1,1.507-3.9L9.6,7.376l4.383-6.324a2.462,2.462,0,0,1,4.183.244l3.675,6.793,7.395,2.236a2.455,2.455,0,0,1,1.078,4.048Z" transform="matrix(0.998, -0.07, 0.07, 0.998, 1270.01, 5364.587)" fill="#ff9600" fill-rule="evenodd"/><path d="M12.674,10.107l.095,3.907a1.242,1.242,0,0,1-1.783,1.145l-3.53-1.7L3.766,14.739a1.25,1.25,0,0,1-1.649-1.345l.515-3.872L.256,6.407A1.24,1.24,0,0,1,1.02,4.431L4.868,3.74,7.091.533A1.249,1.249,0,0,1,9.212.657L11.075,4.1l3.749,1.133a1.245,1.245,0,0,1,.547,2.052Z" transform="matrix(0.998, -0.07, 0.07, 0.998, 1310.41, 5381.605)" fill="#ff9600" fill-rule="evenodd"/><path d="M12.674,10.107l.095,3.907a1.242,1.242,0,0,1-1.783,1.145l-3.53-1.7L3.766,14.739a1.25,1.25,0,0,1-1.649-1.345l.515-3.872L.256,6.407A1.24,1.24,0,0,1,1.02,4.431L4.868,3.74,7.091.533A1.249,1.249,0,0,1,9.212.657L11.075,4.1l3.749,1.133a1.245,1.245,0,0,1,.547,2.052Z" transform="matrix(0.998, -0.07, 0.07, 0.998, 1244.045, 5381.605)" fill="#ff9600" fill-rule="evenodd"/><g transform="translate(1010.471 5235.402)" fill="#cd7900"><path d="M 237.8089752197266 314.2511291503906 L 180.8172912597656 314.2511291503906 C 177.8407440185547 314.2511291503906 175.4191589355469 311.8295288085938 175.4191589355469 308.8529663085938 L 175.4191589355469 301.7142639160156 C 175.4191589355469 298.1746520996094 178.0683441162109 295.1819763183594 181.5814361572266 294.7530212402344 L 195.1450653076172 293.0997619628906 L 195.1450653076172 218.7443237304688 L 180.6040802001953 218.7443237304688 C 177.6121368408203 218.7443237304688 175.1779937744141 216.3101959228516 175.1779937744141 213.3182373046875 L 175.1779937744141 205.2956085205078 C 175.1779937744141 202.67041015625 177.0529327392578 200.4249114990234 179.6361846923828 199.9562683105469 L 215.0355987548828 193.5317687988281 C 215.4616394042969 193.4544677734375 215.8953399658203 193.415283203125 216.3247680664062 193.415283203125 C 220.2708587646484 193.415283203125 223.4812164306641 196.6302795410156 223.4812164306641 200.58203125 L 223.4812164306641 293.0997619628906 L 237.0443420410156 294.7529602050781 C 240.5585174560547 295.1820678710938 243.2081756591797 298.1747436523438 243.2081756591797 301.7142639160156 L 243.2081756591797 308.8529663085938 C 243.2081756591797 311.8295288085938 240.7861022949219 314.2511291503906 237.8089752197266 314.2511291503906 Z" stroke="none"/><path d="M 237.8089904785156 311.7511291503906 C 239.4102020263672 311.7511291503906 240.7081604003906 310.4541625976562 240.7081604003906 308.8529663085938 L 240.7081604003906 301.7142639160156 C 240.7081604003906 299.4330444335938 239.0054779052734 297.510986328125 236.7418518066406 297.2345886230469 L 220.9812316894531 295.3135375976562 L 220.9812316894531 200.5820159912109 C 220.9812164306641 197.6724853515625 218.3457641601562 195.4720916748047 215.4820098876953 195.9915924072266 L 180.0824279785156 202.4161224365234 C 178.6902770996094 202.6686706542969 177.6780090332031 203.8806915283203 177.6780090332031 205.2956237792969 L 177.6780090332031 213.3182373046875 C 177.6780090332031 214.9339294433594 178.9883575439453 216.2443237304688 180.6040802001953 216.2443237304688 L 197.6450653076172 216.2443237304688 L 197.6450653076172 295.3135375976562 L 181.8844299316406 297.2345886230469 C 179.6207580566406 297.510986328125 177.9191436767578 299.4330444335938 177.9191436767578 301.7142639160156 L 177.9191436767578 308.8529663085938 C 177.9191436767578 310.4541625976562 179.216064453125 311.7511291503906 180.8172912597656 311.7511291503906 L 237.8089904785156 311.7511291503906 M 237.8089904785156 316.7511291503906 L 180.8172912597656 316.7511291503906 C 176.4622497558594 316.7511291503906 172.9191436767578 313.2080383300781 172.9191436767578 308.8529663085938 L 172.9191436767578 301.7142639160156 C 172.9191436767578 296.9128723144531 176.5128479003906 292.8533630371094 181.2784118652344 292.2714538574219 L 192.6450653076172 290.885986328125 L 192.6450653076172 221.2443237304688 L 180.6040802001953 221.2443237304688 C 176.2336273193359 221.2443237304688 172.6780090332031 217.6886901855469 172.6780090332031 213.3182373046875 L 172.6780090332031 205.2956237792969 C 172.6780090332031 201.4609985351562 175.4166412353516 198.1809539794922 179.1899108886719 197.4964141845703 L 214.5891571044922 191.0719604492188 C 215.1622772216797 190.9679718017578 215.7461242675781 190.9152984619141 216.3247680664062 190.9152984619141 C 221.6493682861328 190.9152984619141 225.9812316894531 195.2517700195312 225.9812316894531 200.5820159912109 L 225.9812316894531 290.885986328125 L 237.3468322753906 292.2713317871094 C 242.1140289306641 292.8534240722656 245.7081604003906 296.9129333496094 245.7081604003906 301.7142639160156 L 245.7081604003906 308.8529663085938 C 245.7081604003906 313.2080383300781 242.1646118164062 316.7511291503906 237.8089904785156 316.7511291503906 Z" stroke="none" fill="#e7a601"/></g><g transform="translate(1117.831 5568.429)"><path d="M188.19,317.245l10.3,14.344a5.293,5.293,0,0,1,0,5.787l-10.3,14.344c-1.851,2.578-.54,6.987,2.077,6.987h52.027c1.623,0,2.939-1.832,2.939-4.092V314.35c0-2.26-1.316-4.092-2.939-4.092H190.267C187.65,310.258,186.339,314.667,188.19,317.245Z" transform="translate(-187.323 -296.337)" fill="#1453a3"/><path d="M244.366,317.245l-10.3,14.344a5.293,5.293,0,0,0,0,5.787l10.3,14.344c1.851,2.578.54,6.987-2.077,6.987H190.262c-1.623,0-2.939-1.832-2.939-4.092V314.35c0-2.26,1.316-4.092,2.939-4.092h52.027C244.906,310.258,246.217,314.667,244.366,317.245Z" transform="translate(89.106 -297.928)" fill="#1453a3"/><rect width="261.096" height="53.204" rx="8" transform="translate(37.856 0)" fill="#2b70c9"/></g><path d="M6.466,17.862,5.96,17.73,1.626,11.746a2.006,2.006,0,0,1,.55-.858,1.444,1.444,0,0,1,1.034-.374,1.31,1.31,0,0,1,.8.253,3.117,3.117,0,0,1,.693.781L7.9,16.234l.7.506,4.444,6.2a1.485,1.485,0,0,1-.506.88,1.562,1.562,0,0,1-1.034.33,1.309,1.309,0,0,1-.77-.231,2.764,2.764,0,0,1-.682-.781Zm2.046-.132-.748.528L3.694,24.11a2.139,2.139,0,0,1-.253.033q-.143.011-.275.011a1.744,1.744,0,0,1-1.144-.33,1.042,1.042,0,0,1-.4-.836,1.527,1.527,0,0,1,.2-.781,6.609,6.609,0,0,1,.528-.759L5.96,16.74l1.056-.858,3.7-5.236a2.271,2.271,0,0,1,.319-.077,2.346,2.346,0,0,1,.407-.033,1.467,1.467,0,0,1,1.023.33,1.057,1.057,0,0,1,.363.814,1.4,1.4,0,0,1-.2.715,6.609,6.609,0,0,1-.528.759q-.858,1.144-1.749,2.288T8.512,17.73Zm16.522,1.078a6.2,6.2,0,0,1-.649,2.926,4.6,4.6,0,0,1-1.837,1.9,5.634,5.634,0,0,1-2.816.671,5.65,5.65,0,0,1-2.805-.671,4.578,4.578,0,0,1-1.848-1.9,6.2,6.2,0,0,1-.649-2.926,6.047,6.047,0,0,1,.66-2.915A4.665,4.665,0,0,1,16.949,14a5.65,5.65,0,0,1,2.805-.671A5.542,5.542,0,0,1,22.526,14a4.667,4.667,0,0,1,1.848,1.9A6.063,6.063,0,0,1,25.034,18.808Zm-5.3-3.454a2.371,2.371,0,0,0-1.958.913,3.984,3.984,0,0,0-.726,2.541,4.064,4.064,0,0,0,.7,2.552,2.367,2.367,0,0,0,1.98.9,2.386,2.386,0,0,0,1.991-.913,4.028,4.028,0,0,0,.715-2.541,4.037,4.037,0,0,0-.715-2.53A2.375,2.375,0,0,0,19.732,15.354Zm-.726-4.642,2.178-2.4a1.838,1.838,0,0,1,1.155.363,1,1,0,0,1,.407.781,1.124,1.124,0,0,1-.165.627,3.283,3.283,0,0,1-.561.605l-2.046,1.848a1.465,1.465,0,0,1-1-.319.939.939,0,0,1-.363-.715.732.732,0,0,1,.11-.4A4.279,4.279,0,0,1,19.006,10.712Zm12.452,11.66a4.868,4.868,0,0,0,1.243-.143,2.785,2.785,0,0,0,.8-.319V19.292l-2.288.242a2.791,2.791,0,0,0-1.408.407,1.125,1.125,0,0,0-.484.979,1.263,1.263,0,0,0,.517,1.056A2.663,2.663,0,0,0,31.458,22.372ZM31.37,13.33a5.652,5.652,0,0,1,3.366.9A3.258,3.258,0,0,1,35.99,17.07v5.1a1.234,1.234,0,0,1-.242.8,2.479,2.479,0,0,1-.638.539,6.1,6.1,0,0,1-1.54.583,8.742,8.742,0,0,1-2.112.231,5.962,5.962,0,0,1-3.4-.847,2.827,2.827,0,0,1-1.243-2.5,2.746,2.746,0,0,1,.935-2.233,4.926,4.926,0,0,1,2.717-.957l3.014-.308v-.44a1.482,1.482,0,0,0-.616-1.32,3.029,3.029,0,0,0-1.716-.418,6.213,6.213,0,0,0-1.683.231A8.875,8.875,0,0,0,28,16.08a1.616,1.616,0,0,1-.385-.462,1.173,1.173,0,0,1-.165-.594,1.215,1.215,0,0,1,.836-1.144,6.483,6.483,0,0,1,1.43-.407A9.518,9.518,0,0,1,31.37,13.33Zm18.26,0a5.309,5.309,0,0,1,2.541.6,4.3,4.3,0,0,1,1.782,1.815,6.373,6.373,0,0,1,.649,3.036,6.3,6.3,0,0,1-.682,3.08,4.341,4.341,0,0,1-1.9,1.837,6.4,6.4,0,0,1-2.871.605,7.086,7.086,0,0,1-2.145-.3,6.7,6.7,0,0,1-1.529-.671,2.5,2.5,0,0,1-.671-.66,1.536,1.536,0,0,1-.209-.836V14.716h2.53v7a3.833,3.833,0,0,0,.825.374,3.72,3.72,0,0,0,1.2.176,2.683,2.683,0,0,0,2.068-.858,3.751,3.751,0,0,0,.792-2.618,3.694,3.694,0,0,0-.781-2.607,2.674,2.674,0,0,0-2.035-.825,3.038,3.038,0,0,0-1.4.308,4.773,4.773,0,0,0-1.023.682l-.2-2.068a6.6,6.6,0,0,1,1.254-.638A4.84,4.84,0,0,1,49.63,13.33Zm-2.486,1.958H44.592V9.7q.154-.044.473-.1a4.085,4.085,0,0,1,.693-.055,1.748,1.748,0,0,1,1.056.253,1.088,1.088,0,0,1,.33.913Zm19.91,3.52a6.2,6.2,0,0,1-.649,2.926,4.6,4.6,0,0,1-1.837,1.9,6.221,6.221,0,0,1-5.621,0,4.578,4.578,0,0,1-1.848-1.9,6.2,6.2,0,0,1-.649-2.926,6.047,6.047,0,0,1,.66-2.915A4.665,4.665,0,0,1,58.969,14a5.65,5.65,0,0,1,2.805-.671A5.542,5.542,0,0,1,64.546,14a4.668,4.668,0,0,1,1.848,1.9A6.063,6.063,0,0,1,67.054,18.808Zm-5.3-3.454a2.371,2.371,0,0,0-1.958.913,3.984,3.984,0,0,0-.726,2.541,4.064,4.064,0,0,0,.7,2.552,2.626,2.626,0,0,0,3.971-.011,4.028,4.028,0,0,0,.715-2.541,4.037,4.037,0,0,0-.715-2.53A2.375,2.375,0,0,0,61.752,15.354Zm-.044-7.48a3.737,3.737,0,0,1,1.287.22,2.158,2.158,0,0,1,.979.693,1.839,1.839,0,0,1,.374,1.177,1.6,1.6,0,0,1-.583,1.364,2.534,2.534,0,0,1-1.331.506v.506a1.677,1.677,0,0,1-.319.1,2.345,2.345,0,0,1-.539.055,1.525,1.525,0,0,1-.715-.121.361.361,0,0,1-.209-.319v-.7a.718.718,0,0,1,.187-.561.79.79,0,0,1,.539-.165h.242q.814,0,.814-.594a.583.583,0,0,0-.231-.473,1.169,1.169,0,0,0-.737-.187,2.122,2.122,0,0,0-.715.121q-.341.121-.6.231a1.291,1.291,0,0,1-.33-.308.764.764,0,0,1-.154-.484.858.858,0,0,1,.638-.792A3.648,3.648,0,0,1,61.708,7.874ZM77.7,16.014v3.1H75.15V15.86a1.612,1.612,0,0,1,.242-.913,2.646,2.646,0,0,1,.726-.693,6.4,6.4,0,0,1,1.672-.66,8.605,8.605,0,0,1,2.178-.264q2,0,2,1.21a1.842,1.842,0,0,1-.077.539,1.377,1.377,0,0,1-.209.429q-.22-.044-.561-.088a5.41,5.41,0,0,0-.693-.044,5.988,5.988,0,0,0-1.54.187A5.373,5.373,0,0,0,77.7,16.014ZM75.15,18.192l2.552.154v5.61a2.875,2.875,0,0,1-.484.121,3.893,3.893,0,0,1-.682.055,1.7,1.7,0,0,1-1.045-.264,1.074,1.074,0,0,1-.341-.9Zm12.474,4.18a4.867,4.867,0,0,0,1.243-.143,2.785,2.785,0,0,0,.8-.319V19.292l-2.288.242a2.791,2.791,0,0,0-1.408.407,1.125,1.125,0,0,0-.484.979,1.263,1.263,0,0,0,.517,1.056A2.663,2.663,0,0,0,87.624,22.372Zm-.088-9.042a5.652,5.652,0,0,1,3.366.9,3.258,3.258,0,0,1,1.254,2.838v5.1a1.234,1.234,0,0,1-.242.8,2.479,2.479,0,0,1-.638.539,6.1,6.1,0,0,1-1.54.583,8.742,8.742,0,0,1-2.112.231,5.962,5.962,0,0,1-3.4-.847,2.827,2.827,0,0,1-1.243-2.5,2.746,2.746,0,0,1,.935-2.233,4.926,4.926,0,0,1,2.717-.957l3.014-.308v-.44a1.482,1.482,0,0,0-.616-1.32,3.029,3.029,0,0,0-1.716-.418,6.213,6.213,0,0,0-1.683.231,8.875,8.875,0,0,0-1.463.539,1.616,1.616,0,0,1-.385-.462,1.173,1.173,0,0,1-.165-.594,1.215,1.215,0,0,1,.836-1.144,6.483,6.483,0,0,1,1.43-.407A9.518,9.518,0,0,1,87.536,13.33Zm-.726-1.276L84.72,9.942a1.39,1.39,0,0,1-.033-.2q-.011-.11-.011-.176A1.111,1.111,0,0,1,85.82,8.4a1.33,1.33,0,0,1,.583.132,1.586,1.586,0,0,1,.517.418l1.98,2.486a1.132,1.132,0,0,1-.352.781,1.027,1.027,0,0,1-.7.275,1.3,1.3,0,0,1-.561-.11A1.985,1.985,0,0,1,86.81,12.054Zm18.26,6.754a6.2,6.2,0,0,1-.649,2.926,4.6,4.6,0,0,1-1.837,1.9,6.221,6.221,0,0,1-5.621,0,4.578,4.578,0,0,1-1.848-1.9,6.2,6.2,0,0,1-.649-2.926,6.047,6.047,0,0,1,.66-2.915A4.665,4.665,0,0,1,96.985,14a5.65,5.65,0,0,1,2.805-.671,5.542,5.542,0,0,1,2.772.671,4.668,4.668,0,0,1,1.848,1.9A6.063,6.063,0,0,1,105.07,18.808Zm-5.3-3.454a2.371,2.371,0,0,0-1.958.913,3.984,3.984,0,0,0-.726,2.541,4.064,4.064,0,0,0,.7,2.552,2.626,2.626,0,0,0,3.971-.011,4.028,4.028,0,0,0,.715-2.541,4.037,4.037,0,0,0-.715-2.53A2.375,2.375,0,0,0,99.768,15.354Zm18.634.022a3.1,3.1,0,0,0-2.255.891,3.451,3.451,0,0,0-.913,2.585,3.424,3.424,0,0,0,.88,2.53,3.067,3.067,0,0,0,2.266.88,3.942,3.942,0,0,0,1.408-.22,6.509,6.509,0,0,0,1.012-.484,1.693,1.693,0,0,1,.484.451,1.071,1.071,0,0,1,.176.627,1.385,1.385,0,0,1-.9,1.2,5.068,5.068,0,0,1-2.354.473,6.608,6.608,0,0,1-2.9-.605,4.444,4.444,0,0,1-1.958-1.826,5.975,5.975,0,0,1-.7-3.025,5.843,5.843,0,0,1,.748-3.08,4.691,4.691,0,0,1,2-1.837,6.245,6.245,0,0,1,2.75-.6,4.673,4.673,0,0,1,2.321.506,1.439,1.439,0,0,1,.891,1.21,1.047,1.047,0,0,1-.176.594,1.711,1.711,0,0,1-.418.44,6.7,6.7,0,0,0-1-.484A3.709,3.709,0,0,0,118.4,15.376Zm9.416,7a4.868,4.868,0,0,0,1.243-.143,2.785,2.785,0,0,0,.8-.319V19.292l-2.288.242a2.791,2.791,0,0,0-1.408.407,1.125,1.125,0,0,0-.484.979,1.263,1.263,0,0,0,.517,1.056A2.663,2.663,0,0,0,127.818,22.372Zm-.088-9.042a5.651,5.651,0,0,1,3.366.9,3.258,3.258,0,0,1,1.254,2.838v5.1a1.234,1.234,0,0,1-.242.8,2.478,2.478,0,0,1-.638.539,6.1,6.1,0,0,1-1.54.583,8.742,8.742,0,0,1-2.112.231,5.962,5.962,0,0,1-3.4-.847,2.827,2.827,0,0,1-1.243-2.5,2.746,2.746,0,0,1,.935-2.233,4.926,4.926,0,0,1,2.717-.957l3.014-.308v-.44a1.482,1.482,0,0,0-.616-1.32,3.029,3.029,0,0,0-1.716-.418,6.213,6.213,0,0,0-1.683.231,8.875,8.875,0,0,0-1.463.539,1.616,1.616,0,0,1-.385-.462,1.173,1.173,0,0,1-.165-.594,1.215,1.215,0,0,1,.836-1.144,6.483,6.483,0,0,1,1.43-.407A9.518,9.518,0,0,1,127.73,13.33Zm.242-5.236a3.737,3.737,0,0,1,1.287.22,2.158,2.158,0,0,1,.979.693,1.839,1.839,0,0,1,.374,1.177,1.6,1.6,0,0,1-.583,1.364,2.534,2.534,0,0,1-1.331.506v.506a1.677,1.677,0,0,1-.319.1,2.345,2.345,0,0,1-.539.055,1.525,1.525,0,0,1-.715-.121.361.361,0,0,1-.209-.319v-.7a.718.718,0,0,1,.187-.561.79.79,0,0,1,.539-.165h.242q.814,0,.814-.594a.583.583,0,0,0-.231-.473,1.169,1.169,0,0,0-.737-.187,2.122,2.122,0,0,0-.715.121q-.341.121-.605.231a1.291,1.291,0,0,1-.33-.308.764.764,0,0,1-.154-.484.858.858,0,0,1,.638-.792A3.648,3.648,0,0,1,127.972,8.094Zm16.7,9.13V19.38h-2.552V17.312a1.8,1.8,0,0,0-.583-1.485,2.351,2.351,0,0,0-1.529-.473,4.329,4.329,0,0,0-1.276.176,4.785,4.785,0,0,0-.99.418V19.38h-2.552V15.816a1.582,1.582,0,0,1,.209-.858,2.049,2.049,0,0,1,.671-.616,6.2,6.2,0,0,1,1.661-.715,8.155,8.155,0,0,1,2.277-.3,5.384,5.384,0,0,1,3.432.979A3.5,3.5,0,0,1,144.67,17.224Zm-9.482,1.056h2.552v5.676a2.874,2.874,0,0,1-.484.121,3.893,3.893,0,0,1-.682.055,1.7,1.7,0,0,1-1.045-.264,1.074,1.074,0,0,1-.341-.9Zm6.93,0h2.552v5.676a2.259,2.259,0,0,1-.473.121,4.085,4.085,0,0,1-.693.055,1.7,1.7,0,0,1-1.045-.264,1.074,1.074,0,0,1-.341-.9ZM158.6,12.758h-.11q-.286.814-.649,1.87t-.748,2.189l-.737,2.167-.264,1.188q-.132.418-.286.946t-.33,1.067l-.33,1.012q-.154.473-.264.825-.2.066-.44.121a2.608,2.608,0,0,1-.572.055,1.822,1.822,0,0,1-1.045-.264.9.9,0,0,1-.385-.792,1.588,1.588,0,0,1,.077-.484q.077-.242.165-.572.242-.726.616-1.815t.814-2.365q.44-1.276.924-2.574t.913-2.464q.429-1.166.737-1.98a4.117,4.117,0,0,1,.781-.264,4.208,4.208,0,0,1,1.045-.132,3.791,3.791,0,0,1,1.287.209,1.1,1.1,0,0,1,.737.671q.484,1.21,1.023,2.783t1.1,3.278q.561,1.705,1.078,3.311t.913,2.9a1.427,1.427,0,0,1-.561.4,2.156,2.156,0,0,1-.847.154,1.462,1.462,0,0,1-.979-.264,1.8,1.8,0,0,1-.473-.814l-.946-2.992-.286-1.276q-.352-1.166-.715-2.3t-.693-2.112Q158.816,13.462,158.6,12.758Zm-3.674,7.986.946-2.068h5.61l.4,2.068Zm21.186-3.52V19.38h-2.552V17.312a1.8,1.8,0,0,0-.583-1.485,2.351,2.351,0,0,0-1.529-.473,4.329,4.329,0,0,0-1.276.176,4.785,4.785,0,0,0-.99.418V19.38h-2.552V15.816a1.582,1.582,0,0,1,.209-.858,2.049,2.049,0,0,1,.671-.616,6.2,6.2,0,0,1,1.661-.715,8.155,8.155,0,0,1,2.277-.3,5.384,5.384,0,0,1,3.432.979A3.5,3.5,0,0,1,176.108,17.224Zm-9.482,1.056h2.552v5.676a2.874,2.874,0,0,1-.484.121,3.893,3.893,0,0,1-.682.055,1.7,1.7,0,0,1-1.045-.264,1.074,1.074,0,0,1-.341-.9Zm6.93,0h2.552v5.676a2.259,2.259,0,0,1-.473.121,4.085,4.085,0,0,1-.693.055,1.7,1.7,0,0,1-1.045-.264,1.074,1.074,0,0,1-.341-.9Zm14.96,1.3h-2.552v-2a2.117,2.117,0,0,0-.616-1.694,2.348,2.348,0,0,0-1.584-.528,3.369,3.369,0,0,0-1.419.3,4.7,4.7,0,0,0-1.111.693l-.2-2.068a7.82,7.82,0,0,1,1.331-.638,5.038,5.038,0,0,1,1.815-.308,4.653,4.653,0,0,1,3.146,1.023,3.886,3.886,0,0,1,1.188,3.113Zm-9.46-1.386h2.552v5.764a2.875,2.875,0,0,1-.484.121,3.893,3.893,0,0,1-.682.055,1.7,1.7,0,0,1-1.045-.264,1.074,1.074,0,0,1-.341-.9Zm6.908.022h2.552v5.742a2.259,2.259,0,0,1-.473.121,3.946,3.946,0,0,1-.671.055,1.743,1.743,0,0,1-1.067-.264,1.074,1.074,0,0,1-.341-.9Zm-4.356,1.276h-2.552V9.7q.154-.044.473-.1a4.085,4.085,0,0,1,.693-.055,1.748,1.748,0,0,1,1.056.253,1.088,1.088,0,0,1,.33.913Zm25.036-2.266V19.38h-2.552V17.312a1.8,1.8,0,0,0-.583-1.485,2.351,2.351,0,0,0-1.529-.473,4.329,4.329,0,0,0-1.276.176,4.785,4.785,0,0,0-.99.418V19.38h-2.552V15.816a1.582,1.582,0,0,1,.209-.858,2.049,2.049,0,0,1,.671-.616,6.2,6.2,0,0,1,1.661-.715,8.155,8.155,0,0,1,2.277-.3,5.384,5.384,0,0,1,3.432.979A3.5,3.5,0,0,1,206.644,17.224Zm-9.482,1.056h2.552v5.676a2.874,2.874,0,0,1-.484.121,3.893,3.893,0,0,1-.682.055,1.7,1.7,0,0,1-1.045-.264,1.074,1.074,0,0,1-.341-.9Zm6.93,0h2.552v5.676a2.259,2.259,0,0,1-.473.121,4.085,4.085,0,0,1-.693.055,1.7,1.7,0,0,1-1.045-.264,1.074,1.074,0,0,1-.341-.9Zm9.746,5.368a5.616,5.616,0,0,1-2.376-.506A3.9,3.9,0,0,1,209.7,21.5a5.938,5.938,0,0,1-.66-3,5.591,5.591,0,0,1,.671-2.849,4.284,4.284,0,0,1,1.87-1.738,6.239,6.239,0,0,1,2.761-.583,7.27,7.27,0,0,1,2.057.275,5.724,5.724,0,0,1,1.507.649,2.368,2.368,0,0,1,.594.583,1.382,1.382,0,0,1,.22.8v6.842h-2.486V15.838a3.226,3.226,0,0,0-.748-.341,3.522,3.522,0,0,0-1.078-.143,2.753,2.753,0,0,0-2.035.781,3.215,3.215,0,0,0-.781,2.365,3.233,3.233,0,0,0,.759,2.442,2.69,2.69,0,0,0,1.9.7,2.852,2.852,0,0,0,1.364-.286,3.78,3.78,0,0,0,.88-.638l.11,2.112a4.043,4.043,0,0,1-1.089.561A4.93,4.93,0,0,1,213.838,23.648Zm2.42.462V21.932h2.464V24.2a4.024,4.024,0,0,1-.671,2.42,3.845,3.845,0,0,1-1.837,1.353,7.472,7.472,0,0,1-2.6.429,7.877,7.877,0,0,1-1.969-.22,5.119,5.119,0,0,1-1.221-.44,1.322,1.322,0,0,1-.726-1.166,1.276,1.276,0,0,1,.176-.682,1.342,1.342,0,0,1,.418-.44,5.7,5.7,0,0,0,1.353.627,5.566,5.566,0,0,0,1.771.275,3.525,3.525,0,0,0,2.09-.539A1.958,1.958,0,0,0,216.258,24.11Zm5.346-4.048V18.28h2.552v1.738a2.126,2.126,0,0,0,.627,1.716,2.636,2.636,0,0,0,1.749.528,4.585,4.585,0,0,0,1.232-.143,3.448,3.448,0,0,0,.77-.3V18.28h2.552V22a1.865,1.865,0,0,1-.165.836,1.5,1.5,0,0,1-.627.594,5.616,5.616,0,0,1-1.562.627,8.82,8.82,0,0,1-2.222.253,7.038,7.038,0,0,1-2.618-.44,3.452,3.452,0,0,1-1.694-1.386A4.482,4.482,0,0,1,221.6,20.062Zm9.482-.7h-2.552v-5.7q.154-.044.473-.1a4.085,4.085,0,0,1,.693-.055,1.748,1.748,0,0,1,1.056.253,1.118,1.118,0,0,1,.33.935Zm-6.93,0H221.6v-5.7q.154-.044.473-.1a4.085,4.085,0,0,1,.693-.055,1.748,1.748,0,0,1,1.056.253,1.118,1.118,0,0,1,.33.935Zm.44-10.252a3.6,3.6,0,0,1,1.144.176q.528.176.979.352a2.246,2.246,0,0,0,.8.176.828.828,0,0,0,.66-.253,1.486,1.486,0,0,0,.308-.539h.11a1.417,1.417,0,0,1,.913.308,1.062,1.062,0,0,1,.385.88,1.422,1.422,0,0,1-.506,1.177,2.041,2.041,0,0,1-1.32.407,3.877,3.877,0,0,1-1.188-.176q-.55-.176-.99-.352a2.162,2.162,0,0,0-.792-.176.794.794,0,0,0-.649.253,1.853,1.853,0,0,0-.319.561h-.088a1.462,1.462,0,0,1-.924-.308,1.073,1.073,0,0,1-.4-.9A1.34,1.34,0,0,1,223,9.821a1.822,1.822,0,0,1,.7-.528A2.207,2.207,0,0,1,224.6,9.106Zm6.446,7.788h-.418a1.876,1.876,0,0,1-.176-.671,7.242,7.242,0,0,1-.066-.957,1.971,1.971,0,0,0,1.287-.44,1.923,1.923,0,0,0,.539-1.562v-.748a1.878,1.878,0,0,1,.451-.2,1.971,1.971,0,0,1,.539-.066,1.346,1.346,0,0,1,.825.253.96.96,0,0,1,.341.825v.22a3.436,3.436,0,0,1-.473,1.87,2.958,2.958,0,0,1-1.221,1.111A3.679,3.679,0,0,1,231.042,16.894Z" transform="translate(1168.24 5576.821)" fill="#fff"/><g transform="translate(-15559.668 -6209)" fill="#cd7900"><path d="M 16882.998046875 11760.5 C 16874.5625 11760.5 16866.37890625 11758.84765625 16858.669921875 11755.587890625 C 16851.2265625 11752.4384765625 16844.54296875 11747.931640625 16838.806640625 11742.193359375 C 16833.068359375 11736.4560546875 16828.5625 11729.7724609375 16825.412109375 11722.328125 C 16822.15234375 11714.623046875 16820.5 11706.4384765625 16820.5 11698.001953125 C 16820.5 11689.5654296875 16822.15234375 11681.3798828125 16825.412109375 11673.673828125 C 16828.5625 11666.2294921875 16833.068359375 11659.5458984375 16838.806640625 11653.806640625 C 16844.544921875 11648.0673828125 16851.228515625 11643.560546875 16858.669921875 11640.4130859375 C 16866.376953125 11637.1533203125 16874.5625 11635.5 16882.998046875 11635.5 C 16891.43359375 11635.5 16899.619140625 11637.1533203125 16907.326171875 11640.4130859375 C 16914.765625 11643.55859375 16921.451171875 11648.064453125 16927.19140625 11653.806640625 C 16932.931640625 11659.5458984375 16937.4375 11666.2294921875 16940.5859375 11673.673828125 C 16943.845703125 11681.3818359375 16945.5 11689.5673828125 16945.5 11698.001953125 C 16945.5 11706.4365234375 16943.845703125 11714.62109375 16940.5859375 11722.328125 C 16937.4375 11729.7724609375 16932.931640625 11736.4560546875 16927.19140625 11742.1943359375 C 16921.453125 11747.9326171875 16914.76953125 11752.439453125 16907.326171875 11755.587890625 C 16899.6171875 11758.84765625 16891.43359375 11760.5 16882.998046875 11760.5 Z M 16882.998046875 11664.4990234375 C 16864.52734375 11664.4990234375 16849.5 11679.5283203125 16849.5 11698.001953125 C 16849.5 11716.4736328125 16864.52734375 11731.5009765625 16882.998046875 11731.5009765625 C 16901.47265625 11731.5009765625 16916.501953125 11716.4736328125 16916.501953125 11698.001953125 C 16916.501953125 11679.5283203125 16901.47265625 11664.4990234375 16882.998046875 11664.4990234375 Z" stroke="none"/><path d="M 16882.998046875 11758 C 16891.095703125 11758 16898.953125 11756.4140625 16906.3515625 11753.28515625 C 16913.498046875 11750.2626953125 16919.9140625 11745.9365234375 16925.423828125 11740.42578125 C 16930.935546875 11734.9169921875 16935.26171875 11728.5009765625 16938.283203125 11721.3544921875 C 16941.412109375 11713.958984375 16943 11706.1025390625 16943 11698.001953125 C 16943 11689.9013671875 16941.412109375 11682.0439453125 16938.283203125 11674.6474609375 C 16935.26171875 11667.501953125 16930.935546875 11661.0849609375 16925.423828125 11655.57421875 C 16919.9140625 11650.0634765625 16913.498046875 11645.736328125 16906.3515625 11642.7158203125 C 16898.955078125 11639.5869140625 16891.09765625 11638 16882.998046875 11638 C 16874.8984375 11638 16867.041015625 11639.5869140625 16859.64453125 11642.7158203125 C 16852.5 11645.7373046875 16846.083984375 11650.0634765625 16840.57421875 11655.57421875 C 16835.064453125 11661.0849609375 16830.73828125 11667.501953125 16827.71484375 11674.6474609375 C 16824.5859375 11682.044921875 16823 11689.9033203125 16823 11698.001953125 C 16823 11706.1005859375 16824.5859375 11713.9580078125 16827.71484375 11721.3544921875 C 16830.73828125 11728.5009765625 16835.064453125 11734.9169921875 16840.57421875 11740.42578125 C 16846.08203125 11745.935546875 16852.5 11750.2626953125 16859.64453125 11753.28515625 C 16867.04296875 11756.4140625 16874.900390625 11758 16882.998046875 11758 M 16882.998046875 11661.9990234375 C 16902.8515625 11661.9990234375 16919.001953125 11678.1494140625 16919.001953125 11698.001953125 C 16919.001953125 11717.8515625 16902.8515625 11734.0009765625 16882.998046875 11734.0009765625 C 16863.1484375 11734.0009765625 16847 11717.8515625 16847 11698.001953125 C 16847 11678.1494140625 16863.1484375 11661.9990234375 16882.998046875 11661.9990234375 M 16882.998046875 11763 C 16874.2265625 11763 16865.71484375 11761.28125 16857.697265625 11757.890625 C 16849.953125 11754.6142578125 16843.00390625 11749.927734375 16837.037109375 11743.9609375 C 16831.072265625 11737.9951171875 16826.384765625 11731.044921875 16823.109375 11723.302734375 C 16819.71875 11715.287109375 16818 11706.7744140625 16818 11698.001953125 C 16818 11689.228515625 16819.71875 11680.7158203125 16823.109375 11672.69921875 C 16826.384765625 11664.9580078125 16831.072265625 11658.0068359375 16837.0390625 11652.0390625 C 16843.005859375 11646.0703125 16849.95703125 11641.3837890625 16857.697265625 11638.1103515625 C 16865.712890625 11634.7197265625 16874.2265625 11633 16882.998046875 11633 C 16891.76953125 11633 16900.283203125 11634.7197265625 16908.298828125 11638.111328125 C 16916.0390625 11641.3818359375 16922.990234375 11646.068359375 16928.958984375 11652.0390625 C 16934.927734375 11658.0068359375 16939.615234375 11664.9580078125 16942.888671875 11672.7001953125 C 16946.279296875 11680.7177734375 16948 11689.23046875 16948 11698.001953125 C 16948 11706.7724609375 16946.279296875 11715.28515625 16942.888671875 11723.302734375 C 16939.615234375 11731.044921875 16934.927734375 11737.99609375 16928.958984375 11743.9619140625 C 16922.9921875 11749.9296875 16916.041015625 11754.6162109375 16908.298828125 11757.890625 C 16900.28125 11761.28125 16891.76953125 11763 16882.998046875 11763 Z M 16882.998046875 11666.9990234375 C 16865.90625 11666.9990234375 16852 11680.9072265625 16852 11698.001953125 C 16852 11715.0947265625 16865.90625 11729.0009765625 16882.998046875 11729.0009765625 C 16900.09375 11729.0009765625 16914.001953125 11715.0947265625 16914.001953125 11698.001953125 C 16914.001953125 11680.9072265625 16900.09375 11666.9990234375 16882.998046875 11666.9990234375 Z" stroke="none" fill="#e7a601"/></g></g></svg>