<svg xmlns="http://www.w3.org/2000/svg" xmlns:xlink="http://www.w3.org/1999/xlink" width="394.488" height="311.156" viewBox="0 0 394.488 311.156"><defs><clipPath id="a"><rect width="80.08" height="81.104" rx="31.815" fill="none"/></clipPath><clipPath id="b"><rect width="56.355" height="24.307" fill="none"/></clipPath><clipPath id="c"><rect width="20.905" height="11.415" fill="none"/></clipPath><clipPath id="d"><rect width="61.141" height="27.579" fill="none"/></clipPath><clipPath id="e"><rect width="25.779" height="14.076" transform="translate(4808.001 1162.113) rotate(-4.672)" fill="none"/></clipPath><clipPath id="f"><rect width="58.883" height="40.58" transform="translate(4855.989 1308.522) rotate(180)" fill="none"/></clipPath><clipPath id="g"><rect width="25.779" height="14.076" transform="translate(4806.206 1158.931) rotate(-4.672)" fill="none"/></clipPath></defs><g transform="translate(-453.379 -1104.949)"><g transform="translate(516.285 1171.532) rotate(-8)" fill="#d7ffb8" stroke="#58cc02" stroke-width="6"><rect width="225.516" height="225.516" rx="17" stroke="none"/><rect x="3" y="3" width="219.516" height="219.516" rx="14" fill="none"/></g><g transform="translate(-205.422 1976.253)"><path d="M910.27-680.058S892.413-673,883.056-660.1L895.8-647.518s17.648-12.046,31.6-11.376Z" fill="#005ad6"/><g transform="translate(2.221)"><ellipse cx="15.758" cy="15.68" rx="15.758" ry="15.68" transform="translate(865.076 -672.997)" fill="#01357a"/></g><path d="M945.5-602.732s-15.833,22.082,0,35.922,30.536,3.435,33.25-6.97-5.428-31.44-5.428-31.44Z" fill="#0242a1"/><path d="M919.258-606.351c9.274-.226,22.393,4.524,22.393,4.524,2.111,7.841,14.175,43.428,36.492,7.841s15.984-75.095,15.984-75.095-16.286-15.079-83.238-13.27c0,0-12.365,41.619,0,75.7l8.369.3" fill="#0064d6"/><ellipse cx="21.601" cy="29.744" rx="21.601" ry="29.744" transform="translate(884.199 -659.279)" fill="#0242a1"/><ellipse cx="77.513" cy="83.452" rx="77.513" ry="83.452" transform="translate(876.89 -668.398) rotate(-86.365)" fill="#0075d6"/><path d="M964.557-791.417c27.865,1.306,50.34,19.949,55.111,43.712l14.863.7c-4.648-31.07-33.413-55.848-69.359-57.532s-66.9,20.295-74.434,50.794l14.863.7C912.573-776.263,936.692-792.723,964.557-791.417Z" fill="#fff"/><path d="M958.566-691.528c27.813,2.145,52.417-13.58,60.086-36.573l14.836,1.144c-8.449,30.258-40.053,51.294-75.932,48.527s-63.884-28.4-67.593-59.6l14.836,1.144C908.851-712.985,930.753-693.673,958.566-691.528Z" fill="#fff"/><path d="M10.989,0h9.959A10.988,10.988,0,0,1,31.936,10.988v.945A10.989,10.989,0,0,1,20.947,22.922H10.989A10.989,10.989,0,0,1,0,11.933v-.944A10.989,10.989,0,0,1,10.989,0Z" transform="matrix(0.1, -0.995, 0.995, 0.1, 912.446, -727.845)" fill="#fff"/><path d="M5.42,0h8.235a5.42,5.42,0,0,1,5.42,5.42v.729a5.421,5.421,0,0,1-5.421,5.421H5.42A5.42,5.42,0,0,1,0,6.151V5.42A5.42,5.42,0,0,1,5.42,0Z" transform="translate(917.329 -732.77) rotate(-84.278)"/><path d="M924.817-749.472a2.893,2.893,0,0,1-3.167,2.59,2.892,2.892,0,0,1-2.589-3.167,2.892,2.892,0,0,1,3.166-2.59A2.893,2.893,0,0,1,924.817-749.472Z" fill="#fff"/><path d="M10.989,0h9.959A10.988,10.988,0,0,1,31.936,10.988v.945A10.989,10.989,0,0,1,20.947,22.922H10.989A10.989,10.989,0,0,1,0,11.933v-.944A10.989,10.989,0,0,1,10.989,0Z" transform="matrix(0.1, -0.995, 0.995, 0.1, 981.034, -725.982)" fill="#fff"/><path d="M5.539,0h8.416a5.54,5.54,0,0,1,5.54,5.54v.746a5.539,5.539,0,0,1-5.539,5.539H5.539A5.539,5.539,0,0,1,0,6.286V5.539A5.539,5.539,0,0,1,5.539,0Z" transform="translate(985.787 -730.699) rotate(-84.278)"/><path d="M993.44-747.767a2.957,2.957,0,0,1-3.237,2.647,2.956,2.956,0,0,1-2.646-3.236A2.956,2.956,0,0,1,990.793-751,2.956,2.956,0,0,1,993.44-747.767Z" fill="#fff"/><path d="M990.056-641.637s24.428-10.631,36.416-28.273c0,0-7.464-15.456-14.928-12.591s-30.988,24.126-30.988,24.126Z" fill="#0064d6"/><rect width="26.228" height="27.83" rx="9.863" transform="translate(1029.713 -704.212) rotate(45)" fill="#01357a"/><rect width="29.589" height="6.314" rx="3.157" transform="translate(1011.183 -689.907) rotate(45)" fill="#01357a"/><rect width="62.114" height="19.333" rx="9.666" transform="matrix(0.984, 0.177, -0.177, 0.984, 948.663, -832.553)" fill="#01357a"/><path d="M977.452-821.985s.059-32.092,32.173-37.673" fill="none" stroke="#01357a" stroke-miterlimit="10" stroke-width="2.984"/><circle cx="11.461" cy="11.461" r="11.461" transform="translate(996.489 -871.304)" fill="#01357a"/></g><path d="M18.387,150.537H0l11.914-44.184a8.8,8.8,0,0,1,1.117-2.58,31.475,31.475,0,0,1,23.743-18.5V70.913A24.473,24.473,0,0,1,18.762,51.1L17.73,44.625a24.361,24.361,0,0,1,48.125-7.6L66.887,43.5A24.22,24.22,0,0,1,52.722,69.623V85.461a31.093,31.093,0,0,1,6.825,2.186L85.853,25.771,80.4,20.14a4.246,4.246,0,1,1,6.1-5.91l2.965,3.059.043-.1L91.654,3.629A4.272,4.272,0,0,1,100.1,4.943l-1.014,6.395.063.027,4.609-9.049A4.345,4.345,0,0,1,109.477.44a4.344,4.344,0,0,1,1.875,5.722l-4.4,8.642.046.033,3.042-3.14a4.246,4.246,0,1,1,6.1,5.91L104.659,29.454l-30.51,71.766A31.2,31.2,0,0,1,77.957,116.2v28.707a5.645,5.645,0,0,1-5.629,5.628Z" transform="matrix(0.946, 0.326, -0.326, 0.946, 572.04, 1140.147)" fill="#58cc02"/><g transform="translate(23 6)"><g transform="translate(-3085.471 -1125.216) rotate(11)"><rect width="59.229" height="96.445" rx="23.531" transform="translate(3984.777 1583)" fill="#1cb0f6"/><g transform="translate(3974.428 1583)"><g clip-path="url(#a)"><rect width="88.225" height="38.005" transform="translate(-4.352)" fill="#1cb0f6"/></g></g><rect width="29.663" height="5.033" transform="translate(3999.637 1664.998)" fill="#cd7900"/><rect width="8.347" height="5.033" transform="translate(4010.295 1664.998)" fill="#777"/><g transform="translate(3988.288 1510.2)"><g clip-path="url(#b)"><rect width="49.987" height="69.103" rx="15.12" transform="translate(1.069 0.207)" fill="#3d3d3d"/></g></g><rect width="21.748" height="40.976" rx="10" transform="translate(4004.027 1559.561)" fill="#da8e74"/><rect width="64.508" height="14.873" rx="7" transform="translate(3982.06 1533.408)" fill="#da8e74"/><rect width="10.361" height="4.358" rx="1.648" transform="translate(3998.951 1528.862) rotate(-10.843)" fill="#4b4b4b"/><rect width="10.361" height="4.358" rx="1.648" transform="translate(4029.132 1533.142) rotate(-169.157)" fill="#4b4b4b"/><g transform="translate(4004.448 1555.43)"><g clip-path="url(#c)"><circle cx="9.619" cy="9.619" r="9.619" transform="translate(0.513 -8.925)" fill="#fff"/></g></g><circle cx="30.57" cy="30.57" r="30.57" transform="translate(3983.898 1621.149)" fill="#1cb0f6"/><rect width="59.229" height="9.399" transform="translate(3984.777 1618.813)" fill="#fff"/><path d="M5.48,0H7.333a0,0,0,0,1,0,0V25.61a0,0,0,0,1,0,0H5.48A5.48,5.48,0,0,1,0,20.131V5.48A5.48,5.48,0,0,1,5.48,0Z" transform="translate(3984.795 1514.715)" fill="#3d3d3d"/><path d="M5.48,0H7.333a0,0,0,0,1,0,0V25.61a0,0,0,0,1,0,0H5.48A5.48,5.48,0,0,1,0,20.131V5.48A5.48,5.48,0,0,1,5.48,0Z" transform="translate(4044.643 1540.325) rotate(-180)" fill="#3d3d3d"/><path d="M8.474,0H36.708a8.474,8.474,0,0,1,8.474,8.474V60.907a10.8,10.8,0,0,1-10.8,10.8H10.8A10.8,10.8,0,0,1,0,60.907V8.474A8.474,8.474,0,0,1,8.474,0Z" transform="translate(3992.128 1505.249)" fill="#da8e74"/><path d="M0,0H42.768a7.159,7.159,0,0,1,7.159,7.159V19.841a0,0,0,0,1,0,0H15.463A15.463,15.463,0,0,1,0,4.379V0A0,0,0,0,1,0,0Z" transform="translate(3987.383 1496.191)" fill="#3d3d3d"/><path d="M0,0H44.865a5.062,5.062,0,0,1,5.062,5.062V9.921a0,0,0,0,1,0,0H7.61A7.61,7.61,0,0,1,0,2.31V0A0,0,0,0,1,0,0Z" transform="translate(3977.436 1506.112)" fill="#3d3d3d"/><g transform="translate(3983.898 1655.635)"><g clip-path="url(#d)"><circle cx="30.57" cy="30.57" r="30.57" transform="translate(0 -33.562)" fill="#777"/></g></g><rect width="10.361" height="4.358" rx="1.648" transform="translate(3998.277 1524.526)" fill="#3d3d3d"/><rect width="10.361" height="4.358" rx="1.648" transform="translate(4020.174 1524.526)" fill="#3d3d3d"/><path d="M3995.2,1511.2a20.583,20.583,0,0,0,2.472,2.992,21.4,21.4,0,0,0,24.2,3.944l-6.936-6.936Z" transform="translate(7.202 3.88)" fill="#3d3d3d" fill-rule="evenodd"/><rect width="61.031" height="5.033" transform="translate(3983.93 1650.602)" fill="#cd7900"/><rect width="8.347" height="5.033" transform="translate(4010.546 1650.602)" fill="#777"/><g transform="translate(3967.342 1577.628)"><rect width="30.636" height="36.249" rx="12.171" transform="translate(0 9.569)" fill="#1cb0f6"/><rect width="22.918" height="34.261" rx="9.105" transform="translate(0 8.887)" fill="#da8e74"/><rect width="7.873" height="33.501" rx="2.927" transform="translate(15.045)" fill="#da8e74"/></g><g transform="translate(4031.46 1577.628)"><rect width="30.636" height="36.249" rx="14" transform="translate(30.636 45.818) rotate(180)" fill="#1cb0f6"/><rect width="22.918" height="34.261" rx="11" transform="translate(30.636 43.148) rotate(180)" fill="#da8e74"/><rect width="7.873" height="33.501" rx="3.937" transform="translate(15.591 33.501) rotate(180)" fill="#da8e74"/></g><path d="M4004.061,1532.78s-5.254-11.421-13.365-2.741" transform="translate(6.038 7.909)" fill="none" stroke="#cd7c4d" stroke-linecap="round" stroke-miterlimit="10" stroke-width="2.481"/><path d="M4008.014,1532.78s5.253-11.421,13.363-2.741" transform="translate(10.515 7.909)" fill="none" stroke="#cd7c4d" stroke-linecap="round" stroke-miterlimit="10" stroke-width="2.481"/><path d="M4008.372,1551.091a33.306,33.306,0,0,1-11.124-2.069,4.619,4.619,0,0,1,3.328-8.618c2.266.862,8.982,2.594,12.866.323a4.619,4.619,0,0,1,4.664,7.975A19.162,19.162,0,0,1,4008.372,1551.091Z" transform="translate(6.968 11.351)" fill="#fff"/></g><g transform="translate(145.082 -76.265) rotate(-3)"><g transform="translate(231.198 1251.397)" fill="#fff" stroke="#707070" stroke-width="1"><rect width="95.638" height="69.751" stroke="none"/><rect x="0.5" y="0.5" width="94.638" height="68.751" fill="none"/></g><g transform="translate(216.348 1247.292)"><path d="M96.768,80.622H9.177A9.188,9.188,0,0,1,0,71.445V9.177A9.188,9.188,0,0,1,9.177,0H96.768a9.188,9.188,0,0,1,9.177,9.177V71.445A9.188,9.188,0,0,1,96.768,80.622Zm-84.3-74.57A5.167,5.167,0,0,0,7.3,11.213v55.3a5.167,5.167,0,0,0,5.161,5.162h80.1a5.167,5.167,0,0,0,5.161-5.162v-55.3a5.167,5.167,0,0,0-5.161-5.162Z" transform="translate(10.136 0)" fill="#5c5b5b" stroke="rgba(0,0,0,0)" stroke-miterlimit="10" stroke-width="1"/><path d="M35.312,35.312v-24.1a5.167,5.167,0,0,0-5.161-5.162H6.052L0,0H34.354a9.187,9.187,0,0,1,9.177,9.177V43.531Z" transform="translate(72.55)" fill="#fff" stroke="rgba(0,0,0,0)" stroke-miterlimit="10" stroke-width="1" opacity="0.26"/><g transform="translate(0 75.804)"><g transform="translate(0 0)"><path d="M2069.387,595.743a3.152,3.152,0,0,0,3.143,3.143h120.382a3.152,3.152,0,0,0,3.143-3.143V592H2069.387Z" transform="translate(-2069.387 -592)" fill="#c1c9cb"/></g></g></g></g><g transform="translate(21.146 3.628)"><rect width="46.296" height="87.463" rx="23.148" transform="translate(583.83 1294.993) rotate(35.016)" fill="#1453a3"/><rect width="46.296" height="97.167" rx="23.148" transform="translate(595.189 1370.841) rotate(151.3)" fill="#1453a3"/><g transform="matrix(0.996, 0.087, -0.087, 0.996, -4204.863, -359.782)"><path d="M4960.12,1212.052a5.994,5.994,0,0,1-2.029,8.266l-19.443,11.78a6.018,6.018,0,1,1-6.237-10.293l19.444-11.781A5.993,5.993,0,0,1,4960.12,1212.052Z" fill="#efaa8b" fill-rule="evenodd"/><path d="M4916.735,1221.976a5.994,5.994,0,0,1,8.5-.52l17.027,15.064a6.018,6.018,0,0,1-7.975,9.014l-17.027-15.063A5.994,5.994,0,0,1,4916.735,1221.976Z" fill="#efaa8b" fill-rule="evenodd"/><path d="M4950.55,1253.031a18.053,18.053,0,1,0-24.795-6.085A18.053,18.053,0,0,0,4950.55,1253.031Z" fill="#efaa8b"/></g><g transform="translate(-4444.449 676.902) rotate(-7)"><path d="M4765.273,1263.435a64.776,64.776,0,0,1,58.35-70.27h0a64.775,64.775,0,0,1,70.27,58.35l1.176,12.691-128.619,11.92Z" fill="#1453a3"/></g><path d="M4790.752,1152.687s-16.809-8.392-17.284-22.546,13.922-19.986,23.9-34.087,18.435-20.355,26.572-19.43,19.721,3.725,18.675,22.886c-.165,3.534.733,6.185,5.2,8.091s20.323,15.258,10.944,32.488S4790.752,1152.687,4790.752,1152.687Z" transform="translate(-4444.449 676.902) rotate(-7)" fill="#3d3d3d"/><ellipse cx="42.744" cy="45.119" rx="42.744" ry="45.119" transform="translate(446.133 1281.641) rotate(-12.196)" fill="#1453a3"/><rect width="25.558" height="47.888" rx="12.779" transform="translate(504.582 1291.114) rotate(167.804)" fill="#fbba97"/><rect width="87.21" height="18.34" rx="9.17" transform="translate(522.361 1225.223) rotate(168.328)" fill="#fbba97"/><g transform="translate(-4444.449 676.902) rotate(-7)"><g clip-path="url(#e)"><circle cx="11.862" cy="11.862" r="11.862" transform="translate(4808.662 1150.087)" fill="#fff"/></g></g><g transform="translate(-4444.449 676.902) rotate(-7)"><g clip-path="url(#f)"><rect width="58.883" height="70.312" rx="29.441" transform="translate(4855.989 1308.522) rotate(180)" fill="#e5e5e5"/></g><rect width="58.883" height="10.632" transform="translate(4855.989 1278.574) rotate(180)" fill="#933"/><rect width="4.557" height="10.632" transform="translate(4843.691 1278.574) rotate(180)" fill="#e5e5e5"/><rect width="4.557" height="10.632" transform="translate(4814.286 1278.574) rotate(180)" fill="#afafaf"/><circle cx="5.235" cy="5.235" r="5.235" transform="translate(4821.475 1268.023)" fill="#ffc800"/></g><path d="M4847.654,1118.434a21.992,21.992,0,0,0-23.641-20.07l-17.842,1.458a21.994,21.994,0,0,0-20.07,23.642l2.744,33.567a21.83,21.83,0,0,0,7.417,14.663l-.019,0,13.174,11.486a17.454,17.454,0,0,0,24.926-2.038l10.891-13.178.013-.016.229-.277h-.017A21.835,21.835,0,0,0,4850.4,1152Z" transform="translate(-4444.449 676.902) rotate(-7)" fill="#fbba97"/><path d="M4802.115,1128.309a7.828,7.828,0,0,1,8.439,7.165l.388,4.745a7.828,7.828,0,1,1-15.6,1.276l-.388-4.746A7.829,7.829,0,0,1,4802.115,1128.309Z" transform="translate(-4444.449 676.902) rotate(-7)" fill="#fff" fill-rule="evenodd"/><path d="M4831.27,1125.927a7.828,7.828,0,0,1,8.44,7.164l.388,4.746a7.828,7.828,0,0,1-15.6,1.275l-.388-4.746A7.827,7.827,0,0,1,4831.27,1125.927Z" transform="translate(-4444.449 676.902) rotate(-7)" fill="#fff" fill-rule="evenodd"/><path d="M4804.728,1133.776a3.515,3.515,0,0,1,3.789,3.217l.359,4.4a3.514,3.514,0,1,1-7,.572l-.359-4.4-.011-.206a2.2,2.2,0,0,0,.243-.008,2.572,2.572,0,0,0,2.355-2.774,2.54,2.54,0,0,0-.139-.652A3.585,3.585,0,0,1,4804.728,1133.776Z" transform="translate(-4443.762 677.891) rotate(-7)" fill="#3d3d3d" fill-rule="evenodd"/><path d="M4829.489,1131.807a3.515,3.515,0,0,1,3.789,3.216l.359,4.4a3.514,3.514,0,1,1-7.005.572l-.359-4.4-.011-.206a2.2,2.2,0,0,0,.243-.008,2.577,2.577,0,0,0,2.216-3.426A3.58,3.58,0,0,1,4829.489,1131.807Z" transform="translate(-4439.814 677.323) rotate(-7)" fill="#3d3d3d" fill-rule="evenodd"/><rect width="12.776" height="5.374" rx="2.558" transform="translate(452.207 1204.014) rotate(-11.672)" fill="#3d3d3d"/><rect width="12.776" height="4.303" rx="2.152" transform="translate(480.197 1199.325) rotate(-11.672)" fill="#3d3d3d"/><g transform="translate(-4444.449 676.902) rotate(-7)"><g clip-path="url(#g)"><circle cx="11.862" cy="11.862" r="11.862" transform="translate(4806.866 1146.905)" fill="#fff"/></g></g><g transform="translate(-4444.449 676.902) rotate(-7)"><path d="M4809.312,1130.678a42.949,42.949,0,0,0,5.839-12.273,30.435,30.435,0,0,0,1.259-7.673c.082-2.586-.381-5.149-.244-7.733a19.553,19.553,0,0,1,1.485-6.759,13.232,13.232,0,0,1,10.543-7.815c10.425-1.532,14.472,9.343,14.479,9.362.274-17.608-10.849-20.267-18.736-21.163-8.137-.925-16.6,5.33-26.572,19.43s-24.373,19.932-23.9,34.087a20.545,20.545,0,0,0,3.919,11.066,36.091,36.091,0,0,0,4.939,1.287C4793.257,1144.5,4803.086,1139.638,4809.312,1130.678Z" fill="#3d3d3d"/></g><rect width="46.296" height="84.928" rx="22.043" transform="translate(453.61 1394.875) rotate(-153.261)" fill="#1453a3"/><g transform="translate(-686.938 -1349.648)"><g transform="translate(1148.961 2613.021) rotate(-7)"><rect width="43.248" height="73.44" rx="7" transform="matrix(0.978, -0.208, 0.208, 0.978, 0, 8.992)" fill="#4c4c4c"/><rect width="38.656" height="68.848" rx="5" transform="matrix(0.978, -0.208, 0.208, 0.978, 2.723, 10.76)" fill="#fff"/><rect width="24.115" height="5.325" rx="2.662" transform="matrix(0.978, -0.208, 0.208, 0.978, 9.368, 7.052)" fill="#4c4c4c"/></g><g transform="translate(1168.216 2658.149) rotate(-19)" fill="#e9ffd8" stroke="#70d700" stroke-width="1"><rect width="32.91" height="6.888" rx="3" stroke="none"/><rect x="0.5" y="0.5" width="31.91" height="5.888" rx="2.5" fill="none"/></g><g transform="translate(1170.708 2665.385) rotate(-19)" fill="#fff" stroke="#e5e5e5" stroke-width="1"><rect width="32.91" height="6.888" rx="3" stroke="none"/><rect x="0.5" y="0.5" width="31.91" height="5.888" rx="2.5" fill="none"/></g><g transform="translate(1173.199 2672.622) rotate(-19)" fill="#fff" stroke="#e5e5e5" stroke-width="1"><rect width="32.91" height="6.123" rx="3" stroke="none"/><rect x="0.5" y="0.5" width="31.91" height="5.123" rx="2.5" fill="none"/></g><g transform="translate(1175.443 2679.134) rotate(-19)" fill="#fff" stroke="#e5e5e5" stroke-width="1"><rect width="32.91" height="6.123" rx="3" stroke="none"/><rect x="0.5" y="0.5" width="31.91" height="5.123" rx="2.5" fill="none"/></g><path d="M0,.907,1.435,2.644,3.626,0" transform="translate(1170.659 2659.515) rotate(-19)" fill="none" stroke="#70d700" stroke-linecap="round" stroke-width="1"/><g transform="translate(1159.246 2632.097) rotate(-19)" fill="none" stroke="#e5e5e5" stroke-width="1"><rect width="32.91" height="24.491" rx="3" stroke="none"/><rect x="0.5" y="0.5" width="31.91" height="23.491" rx="2.5" fill="none"/></g><rect width="32.91" height="2.296" rx="1.148" transform="translate(1157.751 2627.755) rotate(-19)" fill="#d2e4e8"/><rect width="15.307" height="2.296" rx="1.148" transform="translate(1157.751 2627.755) rotate(-19)" fill="#70d700"/></g><g transform="translate(-4444.449 676.902) rotate(-7)"><path d="M4839.922,1221.875a5.992,5.992,0,0,1-6.485,5.511l-22.659-1.841a6.018,6.018,0,1,1,.975-12l22.659,1.841A5.992,5.992,0,0,1,4839.922,1221.875Z" fill="#efaa8b" fill-rule="evenodd"/><path d="M4798.947,1204.505a5.994,5.994,0,0,1,7.189,4.555l4.977,22.182a6.018,6.018,0,0,1-11.744,2.635l-4.976-22.182A5.993,5.993,0,0,1,4798.947,1204.505Z" fill="#efaa8b" fill-rule="evenodd"/><path d="M4808.162,1249.483a18.053,18.053,0,1,0-16.532-19.456A18.053,18.053,0,0,0,4808.162,1249.483Z" fill="#efaa8b"/></g></g></g></g></svg>