<svg xmlns="http://www.w3.org/2000/svg" width="322.448" height="299.807" viewBox="0 0 322.448 299.807"><g transform="translate(-1426.567 -2889.1)"><g transform="translate(1483.518 2889.1)"><path d="M3.211,0H36.221A15.274,15.274,0,0,1,51.5,15.274v2.1A15.274,15.274,0,0,1,36.221,32.643H3.211A3.211,3.211,0,0,1,0,29.433V3.211A3.211,3.211,0,0,1,3.211,0Z" transform="translate(146.574 132.706) rotate(0.558)" fill="#ffc800"/><g transform="translate(159.54 130.153)"><rect width="69.515" height="35.276" rx="16.405" transform="translate(34.524 0) rotate(78.143)" fill="#ffc800"/><path d="M1644.2,3091.529l10.726,6.139a10.787,10.787,0,0,0,14.676-3.992l7.475-13.062a6.96,6.96,0,0,0,.562-5.628l.009,0-3.664-17.034-34.96,7.52,1.8,8.368c-.355.509-.692,1.033-1.007,1.581h0A11.841,11.841,0,0,0,1644.2,3091.529Z" transform="translate(-1628.537 -3007.671)" fill="#a46648"/></g><rect width="29.998" height="88.263" rx="14.036" transform="translate(60.733)" fill="#3d3d3d"/><rect width="29.998" height="88.263" rx="14.036" transform="translate(90.675)" fill="#3d3d3d"/><rect width="29.998" height="88.263" rx="14.036" transform="translate(120.673)" fill="#3d3d3d"/><path d="M1614.77,2928.774a11.864,11.864,0,0,1,11.864,11.865v54.282a13.94,13.94,0,0,1-13.941,13.941h-62.055a13.941,13.941,0,0,1-13.941-13.941v-54.282a11.865,11.865,0,0,1,11.865-11.865Z" transform="translate(-1475.964 -2886.378)" fill="#a46648"/><rect width="22.902" height="30.035" rx="10.716" transform="translate(79.756 59.454)" fill="#fff"/><rect width="22.902" height="30.035" rx="10.716" transform="translate(109.139 59.454)" fill="#fff"/><path d="M1564.838,2958.169a4.129,4.129,0,0,0,3.258-6.667,5.073,5.073,0,0,1,6.027,4.978v6.383a5.068,5.068,0,1,1-10.137,0v-4.781A4.145,4.145,0,0,0,1564.838,2958.169Z" transform="translate(-1474.092 -2884.826)" fill="#3d3d3d" fill-rule="evenodd"/><path d="M1584.456,2958.169a4.129,4.129,0,0,0,3.4-6.477,5.071,5.071,0,0,1,6.739,4.787v6.382a5.068,5.068,0,1,1-10.136,0v-4.692Z" transform="translate(-1472.688 -2884.825)" fill="#3d3d3d" fill-rule="evenodd"/><path d="M1575.352,2973.265a3.744,3.744,0,0,0,7.488,0c0-2.068-3.588-6.863-3.744-6.863S1575.352,2971.2,1575.352,2973.265Z" transform="translate(-1473.312 -2883.797)" fill="#86401f"/><path d="M1577.509,2970.186h3.426a3.854,3.854,0,0,1,3.854,3.854h0a3.854,3.854,0,0,1-3.854,3.854h-3.426a3.854,3.854,0,0,1-3.854-3.854h0A3.854,3.854,0,0,1,1577.509,2970.186Z" transform="translate(-1473.429 -2883.538)" fill="#86401f"/><path d="M1575.43,2976.713c-3.949-6.576-13.573-9.012-22.7-6.576l1.975,6.576C1563.42,2978.5,1578.575,2981.95,1575.43,2976.713Z" transform="translate(-1474.865 -2883.605)" fill="#a46648"/><path d="M1565.935,2978.511c1.585,2.918,5.118,6.656,12.415,6.656" transform="translate(-1473.958 -2882.967)" fill="none" stroke="#884727" stroke-linecap="round" stroke-width="2.405"/><circle cx="10.215" cy="10.215" r="10.215" transform="translate(50.322 67.835)" fill="#a46648"/><path d="M1551.15,2955.156a11.551,11.551,0,0,1,11.551-11.551h35.268a11.552,11.552,0,0,1,11.55,11.551v8.046H1551.15Z" transform="translate(-1474.972 -2885.361)" fill="#a46648"/><path d="M1583.665,2951.408h15.008a2.085,2.085,0,0,1,2.085,2.085h0a2.085,2.085,0,0,1-2.085,2.085h-15.008a2.085,2.085,0,0,1-2.085-2.085h0A2.085,2.085,0,0,1,1583.665,2951.408Z" transform="translate(-1472.885 -2884.825)" fill="#884727"/><path d="M1576.667,2948.92a17.66,17.66,0,0,0-17-1.76" transform="translate(-1474.388 -2885.214)" fill="none" stroke="#884727" stroke-linecap="round" stroke-linejoin="round" stroke-width="2.432"/><circle cx="10.215" cy="10.215" r="10.215" transform="translate(139.961 67.417)" fill="#a46648"/><path d="M1547.506,3012.073h70.911a19.1,19.1,0,0,1,18.638,23.321l-10.386,45.948a19.108,19.108,0,0,1-18.639,14.894h-50.137a19.108,19.108,0,0,1-18.638-14.894l-10.387-45.948a19.106,19.106,0,0,1,18.638-23.321Z" transform="translate(-1476.533 -2880.664)" fill="#ffc800" fill-rule="evenodd"/><path d="M1628.963,3065.255l-2.812,12.44a19.106,19.106,0,0,1-18.639,14.894h-50.137a19.108,19.108,0,0,1-18.638-14.894l-2.811-12.44Z" transform="translate(-1476.017 -2877.017)" fill="#ffb100" fill-rule="evenodd"/><path d="M1540.33,3002.428h81.8a2.36,2.36,0,0,1,2.36,2.362v8.159a2.361,2.361,0,0,1-2.36,2.363h-81.8a2.363,2.363,0,0,1-2.362-2.363v-8.159A2.362,2.362,0,0,1,1540.33,3002.428Z" transform="translate(-1475.877 -2881.326)" fill="#ffc800" fill-rule="evenodd"/><path d="M1576.545,3002.026h5.8v67.65h-5.8Z" transform="translate(-1473.23 -2881.354)" fill="#fff" fill-rule="evenodd"/><path d="M1577.14,3002.026h5.239a1.718,1.718,0,0,1,1.669,1.316l3.466,14.385a1.719,1.719,0,0,1-1.669,2.12h-12.171a1.718,1.718,0,0,1-1.719-1.718,1.7,1.7,0,0,1,.048-.4l3.467-14.385A1.718,1.718,0,0,1,1577.14,3002.026Z" transform="translate(-1473.545 -2881.354)" fill="#fff" fill-rule="evenodd"/><path d="M1537.106,2928.673h88.75a2.683,2.683,0,0,1,2.684,2.683v5.573a2.684,2.684,0,0,1-2.684,2.685h-88.75a2.684,2.684,0,0,1-2.683-2.685v-5.573A2.683,2.683,0,0,1,1537.106,2928.673Z" transform="translate(-1476.12 -2886.385)" fill="#ff4b4b" fill-rule="evenodd"/><path d="M0,0H54.871A14.186,14.186,0,0,1,69.057,14.186v5.292A14.186,14.186,0,0,1,54.871,33.664H0a0,0,0,0,1,0,0V0A0,0,0,0,1,0,0Z" transform="translate(72.897 168.119) rotate(-179.442)" fill="#ffc800"/><g transform="translate(0 76.847)"><rect width="72.573" height="36.379" rx="17.022" transform="translate(0 84.527) rotate(-74.547)" fill="#ffc800"/><path d="M1536.155,2976.77l-6.925-10.7a11.125,11.125,0,0,0-15.337-3.286l-13.029,8.432a7.173,7.173,0,0,0-3.178,4.891l-.009,0-4.7,17.343,35.593,9.651,2.31-8.519c.565-.3,1.123-.619,1.669-.973h0A12.211,12.211,0,0,0,1536.155,2976.77Z" transform="translate(-1478.963 -2961.014)" fill="#a46648"/></g><g transform="translate(73.128 188.707)"><rect width="20.643" height="66.051" rx="9.659" transform="translate(4.604 15.334)" fill="#ffb100"/><rect width="17.088" height="10.841" rx="5.073" transform="translate(0 92.821)" fill="#d12121"/><rect width="23.901" height="11.767" rx="5.506" transform="translate(3.853 95.08) rotate(-25.799)" fill="#d12121"/><rect width="20.643" height="46.188" rx="9.659" transform="translate(37.425)" fill="#ffb100"/><rect width="32.821" height="10.693" rx="5.003" transform="translate(31.633 52.722)" fill="#d12121"/></g></g><g transform="translate(1450.92 3008.031)"><g transform="translate(0)"><path d="M1521.759,3125.389c-.012-12.662-11.021-22.916-24.591-22.9s-24.559,10.288-24.547,22.95c0,.092.006.182.007.272,0,.052-.007.1-.007.157l0,3.985.013,13.721a6.416,6.416,0,0,0,6.118,6.642l36.917-.036a6.416,6.416,0,0,0,6.1-6.653l-.014-13.721,0-3.986c0-.052-.007-.1-.008-.157C1521.754,3125.569,1521.759,3125.48,1521.759,3125.389Z" transform="translate(-1447.761 -2993.394)" fill="#006bd6"/><rect width="31.821" height="12.582" rx="5.887" transform="matrix(1, 0.01, -0.01, 1, 59.036, 114.58)" fill="#006bd6"/><rect width="33.829" height="13.376" rx="6.259" transform="translate(35.354 128.421) rotate(-179.442)" fill="#006bd6"/><g transform="translate(2.579 35.554)"><path d="M1491.072,3111.1a40.3,40.3,0,0,1-19.491-5.013,34.049,34.049,0,0,0,20.03,6.736h10.876a34.055,34.055,0,0,0,20.031-6.736,40.312,40.312,0,0,1-19.492,5.013Z" transform="translate(-1450.411 -3028.7)" fill="#005ad6" opacity="0.88"/><path d="M1544.832,3070.168a40.8,40.8,0,0,0-40.447-36.5h-11.953a40.664,40.664,0,0,0-40.661,40.661v1.077a40.762,40.762,0,0,0,21.17,35.648,40.307,40.307,0,0,0,19.491,5.013h11.953a40.315,40.315,0,0,0,19.492-5.013,40.763,40.763,0,0,0,21.169-35.648v-1.077A40.563,40.563,0,0,0,1544.832,3070.168Z" transform="translate(-1451.77 -3033.668)" fill="#0075d6"/></g><path d="M1508.994,3029.01h-24.721a4.668,4.668,0,0,0,0,9.336h24.721a4.668,4.668,0,0,0,0-9.336Z" transform="translate(-1447.282 -2998.433)" fill="#01357a"/><circle cx="5.924" cy="5.924" r="5.924" transform="translate(45.984)" fill="#01357a"/><path d="M1497.466,3046.769c14.64,0,26.88,9.222,29.965,21.562h7.809c-3.2-16.173-18.888-28.456-37.775-28.456s-34.574,12.283-37.775,28.456h7.81C1470.585,3055.991,1482.826,3046.769,1497.466,3046.769Z" transform="translate(-1448.648 -2997.688)" fill="#fff"/><path d="M1497.466,3099.476c-14.64,0-26.88-9.222-29.965-21.562h-7.81c3.2,16.174,18.888,28.456,37.775,28.456s34.574-12.282,37.775-28.456h-7.809C1524.346,3090.254,1512.105,3099.476,1497.466,3099.476Z" transform="translate(-1448.648 -2995.079)" fill="#fff"/><path d="M1498.19,3006.2s-7.145,12.125-2.34,25.458" transform="translate(-1446.282 -2999.998)" fill="none" stroke="#01357a" stroke-miterlimit="10" stroke-width="1.56"/><g transform="translate(22.713 68.07)"><rect width="13.195" height="18.384" rx="5.92" transform="translate(0 0.023) rotate(-0.098)" fill="#fff"/><rect width="6.406" height="10.561" rx="2.808" transform="translate(4.326 4.779) rotate(-0.097)"/><path d="M1477.865,3069.553a1.6,1.6,0,1,1-1.6-1.6A1.6,1.6,0,0,1,1477.865,3069.553Z" transform="translate(-1470.334 -3063.832)" fill="#fff"/></g><g transform="translate(61.863 68.002)"><path d="M5.92,0H7.275a5.919,5.919,0,0,1,5.919,5.919v6.545a5.92,5.92,0,0,1-5.92,5.92H5.92A5.92,5.92,0,0,1,0,12.464V5.92A5.92,5.92,0,0,1,5.92,0Z" transform="translate(0 0.023) rotate(-0.098)" fill="#fff"/><rect width="6.137" height="10.118" rx="2.69" transform="matrix(1, -0.002, 0.002, 1, 2.479, 4.755)"/><path d="M1512.639,3069.425a1.535,1.535,0,1,1-1.538-1.531A1.537,1.537,0,0,1,1512.639,3069.425Z" transform="translate(-1507.089 -3063.768)" fill="#fff"/></g><g transform="translate(0 92.094)"><rect width="28.836" height="14.455" rx="6.763" transform="translate(0 33.585) rotate(-74.547)" fill="#006bd6"/><path d="M1453.724,3102.034l15.282,4.224a1.811,1.811,0,0,0,2.223-1.26h0a1.813,1.813,0,0,0-1.26-2.224l-15.282-4.224a1.812,1.812,0,0,0-2.223,1.26h0A1.812,1.812,0,0,0,1453.724,3102.034Z" transform="translate(-1449.148 -3085.761)" fill="#01357a"/><path d="M1471.723,3092.839l-2.752-4.251a4.417,4.417,0,0,0-6.093-1.306l-5.177,3.35a2.853,2.853,0,0,0-1.263,1.944h0l-1.868,6.89,14.142,3.834.918-3.384c.224-.119.447-.246.664-.387h0A4.852,4.852,0,0,0,1471.723,3092.839Z" transform="translate(-1449 -3086.578)" fill="#01357a"/></g><g transform="translate(76.006 113.713)"><rect width="26.793" height="13.597" rx="6.323" transform="translate(13.307 0) rotate(78.143)" fill="#006bd6"/><path d="M1537.309,3121.9l-14.6,3.064a1.706,1.706,0,0,0-1.314,2.013h0a1.706,1.706,0,0,0,2.013,1.314l14.6-3.065a1.7,1.7,0,0,0,1.313-2.013h0A1.7,1.7,0,0,0,1537.309,3121.9Z" transform="translate(-1520.424 -3105.778)" fill="#01357a"/><path d="M1526.282,3137.888l4.135,2.366a4.158,4.158,0,0,0,5.657-1.539l2.881-5.034a2.682,2.682,0,0,0,.217-2.169h0l-1.413-6.566-13.475,2.9.694,3.225c-.136.2-.267.4-.388.609h0A4.564,4.564,0,0,0,1526.282,3137.888Z" transform="translate(-1520.244 -3105.566)" fill="#01357a"/></g><rect width="22.992" height="35.177" rx="7.343" transform="translate(24.86 138.407)" fill="#006bd6"/><rect width="26.881" height="9.649" rx="4.158" transform="translate(22.915 163.935)" fill="#0064d6"/><rect width="26.881" height="21.647" rx="10.129" transform="translate(49.796 143.889)" fill="#004ed6"/></g><g transform="translate(8.268 46.215)"><g transform="translate(0 0)"><rect width="81.876" height="10.6" rx="2.408" transform="translate(0.118 0.504) rotate(-0.353)" fill="#ff4b4b"/><rect width="82.018" height="2.888" transform="translate(0 4.317) rotate(-0.353)" fill="#fff"/></g></g></g><g transform="translate(1616.228 2966.731)"><path d="M1644.689,3040.069v-4.581a6.07,6.07,0,0,1,1.775-4.285,6.089,6.089,0,0,1,.918-.753,6.066,6.066,0,0,1,2.185-.905,6.081,6.081,0,0,1,1.182-.117h32.417a6.08,6.08,0,0,1,1.182.117,6.016,6.016,0,0,1,1.137.345,5.952,5.952,0,0,1,1.047.56,6.057,6.057,0,0,1,2.694,5.038v4.581a6.047,6.047,0,0,1-.462,2.319,6.064,6.064,0,0,1-3.28,3.28,6.065,6.065,0,0,1-2.319.462h-32.417a6.054,6.054,0,0,1-5.038-2.694,6.058,6.058,0,0,1-1.022-3.367Z" transform="translate(-1601.266 -2957.105)" fill="#58a700"/><path d="M1645.558,3094.833v-8.059a5.257,5.257,0,0,1,.884-2.916,5.328,5.328,0,0,1,.653-.8,5.262,5.262,0,0,1,.8-.651,5.249,5.249,0,0,1,1.891-.784,5.254,5.254,0,0,1,1.025-.1h31.7a5.251,5.251,0,0,1,1.025.1,5.252,5.252,0,0,1,1.892.784,5.233,5.233,0,0,1,1.933,2.355,5.224,5.224,0,0,1,.4,2.009v8.059a5.244,5.244,0,0,1-2.333,4.364,5.265,5.265,0,0,1-2.916.885h-31.7a5.244,5.244,0,0,1-2.916-.885,5.166,5.166,0,0,1-.8-.653,5.243,5.243,0,0,1-1.536-3.711Z" transform="translate(-1601.207 -2953.532)" fill="#777"/><path d="M1656.757,3039.847h20.411a19.021,19.021,0,0,1,19.021,19.022v22.149a10.788,10.788,0,0,1-10.789,10.789h-36.877a10.788,10.788,0,0,1-10.789-10.789v-22.149A19.022,19.022,0,0,1,1656.757,3039.847Z" transform="translate(-1601.743 -2956.391)" fill="#f0f0f0"/><path d="M1656.571,3039.847a3.442,3.442,0,0,1,3.441,3.441v45.078a3.44,3.44,0,0,1-3.441,3.44h-15.387a3.44,3.44,0,0,1-3.441-3.44v-29.691A18.829,18.829,0,0,1,1656.571,3039.847Z" transform="translate(-1601.743 -2956.391)" fill="#58cc02"/><path d="M1690.434,3091.806h-15.388a3.44,3.44,0,0,1-3.441-3.44v-45.078a3.441,3.441,0,0,1,3.441-3.441,18.829,18.829,0,0,1,18.829,18.829v29.691A3.44,3.44,0,0,1,1690.434,3091.806Z" transform="translate(-1599.42 -2956.391)" fill="#58cc02"/><path d="M1665.692,3029.427a5.062,5.062,0,0,1,5.062,5.062v7.246a5.063,5.063,0,0,1-10.125,0v-7.246A5.063,5.063,0,0,1,1665.692,3029.427Z" transform="translate(-1600.173 -2957.105)" fill="#eba792"/><path d="M1633.958,2993.25v-4.372q0-.657.065-1.313c.043-.437.107-.87.192-1.3s.193-.856.32-1.276.276-.833.443-1.238.355-.8.562-1.189.432-.763.676-1.128.5-.717.783-1.056a13.117,13.117,0,0,1,.882-.975q.467-.467.975-.884t1.057-.783a13.035,13.035,0,0,1,1.127-.675c.387-.208.783-.394,1.189-.563s.818-.315,1.237-.442.845-.234,1.276-.32.864-.151,1.3-.193.875-.064,1.314-.064h13.567q.659,0,1.314.064t1.3.193q.646.128,1.276.32t1.238.442c.406.169.8.355,1.189.563s.763.432,1.128.675.717.505,1.056.783.663.573.975.884a13.094,13.094,0,0,1,.883.975q.418.508.783,1.056a13.054,13.054,0,0,1,.677,1.128q.311.58.562,1.189t.443,1.238q.191.63.32,1.276c.085.431.149.864.193,1.3s.064.875.064,1.313v4.372q0,.659-.064,1.315t-.193,1.3q-.129.646-.32,1.276t-.443,1.238a13.435,13.435,0,0,1-2.9,4.347c-.311.31-.635.6-.975.883s-.692.54-1.056.785-.742.469-1.128.675a13.527,13.527,0,0,1-2.427,1.006q-.63.19-1.276.319t-1.3.194q-.656.063-1.314.063h-13.567q-.659,0-1.314-.063t-1.3-.194q-.646-.127-1.276-.319a13.512,13.512,0,0,1-2.426-1.006q-.581-.309-1.127-.675t-1.057-.785q-.508-.417-.975-.883a13.516,13.516,0,0,1-1.666-2.031c-.245-.365-.469-.742-.676-1.128s-.395-.783-.562-1.188-.316-.819-.443-1.238-.234-.845-.32-1.276-.149-.865-.192-1.3S1633.958,2993.689,1633.958,2993.25Z" transform="translate(-1602.002 -2960.806)" fill="#3d3d3d"/><path d="M1656.531,3000.972V2996.6q0-.659.064-1.314t.193-1.3q.128-.646.32-1.276t.442-1.238q.253-.609.563-1.189t.675-1.128q.367-.547.783-1.056t.884-.974a13.04,13.04,0,0,1,.974-.883q.508-.419,1.056-.783c.365-.245.742-.469,1.129-.677s.783-.394,1.188-.562.818-.317,1.239-.444.845-.234,1.276-.32.863-.149,1.3-.192a13.044,13.044,0,0,1,1.313-.065h14.036a13.037,13.037,0,0,1,1.313.065q.656.064,1.3.192t1.276.32q.63.191,1.239.444t1.188.562a13.141,13.141,0,0,1,1.129.677q.548.366,1.057.783t.974.883q.466.466.884.974t.783,1.056q.365.548.676,1.128t.562,1.189q.252.608.443,1.238a13.462,13.462,0,0,1,.513,2.576q.064.656.064,1.314v4.372q0,.658-.064,1.313a13.459,13.459,0,0,1-.513,2.576q-.191.631-.443,1.239t-.562,1.188q-.311.582-.676,1.128t-.783,1.056q-.418.51-.884.975t-.974.884q-.51.417-1.057.783a12.884,12.884,0,0,1-1.129.675q-.58.311-1.188.563t-1.239.443q-.63.19-1.276.32t-1.3.193q-.656.064-1.313.064h-14.036q-.657,0-1.313-.064t-1.3-.193q-.646-.129-1.276-.32t-1.239-.443q-.608-.253-1.188-.563t-1.129-.675q-.547-.365-1.056-.783t-.974-.884q-.465-.465-.884-.975t-.783-1.056q-.365-.548-.675-1.128t-.563-1.188q-.252-.609-.442-1.239t-.32-1.276c-.085-.431-.15-.863-.193-1.3S1656.531,3001.411,1656.531,3000.972Z" transform="translate(-1600.454 -2960.276)" fill="#4c4c4c"/><path d="M1635.938,2984.2h0q0-.766.075-1.528t.225-1.513q.149-.75.371-1.483t.516-1.441a15.26,15.26,0,0,1,.654-1.383q.361-.674.787-1.312t.911-1.229q.485-.592,1.028-1.133t1.133-1.027a15.594,15.594,0,0,1,2.541-1.7q.675-.36,1.383-.654t1.44-.515q.732-.222,1.483-.371t1.513-.225q.763-.075,1.528-.075h33.457q.766,0,1.528.075t1.513.225c.5.1.995.223,1.484.371s.968.32,1.439.515.933.413,1.383.654a15.224,15.224,0,0,1,1.312.787q.636.425,1.229.912t1.134,1.027q.54.542,1.027,1.133t.912,1.229q.425.637.786,1.312t.654,1.383q.292.708.515,1.441t.372,1.483q.149.752.224,1.513c.049.509.075,1.017.075,1.528h0c0,.51-.026,1.019-.075,1.528s-.125,1.012-.224,1.513-.224.995-.372,1.483-.321.969-.515,1.44-.414.933-.654,1.383-.5.888-.786,1.312-.588.833-.912,1.229-.667.773-1.027,1.133-.74.7-1.134,1.028a15.605,15.605,0,0,1-3.924,2.351q-.707.293-1.439.516c-.489.147-.983.272-1.484.37a15.108,15.108,0,0,1-1.513.225q-.762.075-1.528.075h-33.457q-.766,0-1.528-.075a15.113,15.113,0,0,1-1.513-.225c-.5-.1-.995-.223-1.483-.37s-.969-.321-1.44-.516a15.7,15.7,0,0,1-3.924-2.351q-.591-.486-1.133-1.028a15.264,15.264,0,0,1-1.028-1.133q-.486-.593-.911-1.229a15.253,15.253,0,0,1-.787-1.312,15.049,15.049,0,0,1-.654-1.383q-.294-.706-.516-1.44t-.371-1.483q-.151-.752-.225-1.513T1635.938,2984.2Z" transform="translate(-1601.867 -2961.277)" fill="#3d3d3d"/><path d="M1691.509,2997.785a8.279,8.279,0,0,1,1.744.185,8.386,8.386,0,0,1,1.677.548,8.673,8.673,0,0,1,1.546.889,9.163,9.163,0,0,1,1.354,1.2,9.482,9.482,0,0,1,1.113,1.459,9.887,9.887,0,0,1,.826,1.664,10.188,10.188,0,0,1,.509,1.806,10.337,10.337,0,0,1,0,3.757,10.162,10.162,0,0,1-.509,1.806,9.823,9.823,0,0,1-.826,1.664,9.475,9.475,0,0,1-1.113,1.46,9.134,9.134,0,0,1-1.354,1.2,8.723,8.723,0,0,1-1.546.89,8.414,8.414,0,0,1-1.677.547,8.311,8.311,0,0,1-3.488,0,8.448,8.448,0,0,1-1.678-.547,8.748,8.748,0,0,1-1.545-.89,9.143,9.143,0,0,1-1.355-1.2,9.529,9.529,0,0,1-1.111-1.46,9.823,9.823,0,0,1-.826-1.664,10.152,10.152,0,0,1-.509-1.806,10.345,10.345,0,0,1,0-3.757,10.177,10.177,0,0,1,.509-1.806,9.887,9.887,0,0,1,.826-1.664,9.537,9.537,0,0,1,1.111-1.459,9.172,9.172,0,0,1,1.355-1.2,8.7,8.7,0,0,1,1.545-.889,8.42,8.42,0,0,1,1.678-.548A8.279,8.279,0,0,1,1691.509,2997.785Z" transform="translate(-1598.668 -2959.276)" fill="#d98b75"/><path d="M1639.829,2997.785a8.279,8.279,0,0,1,1.744.185,8.409,8.409,0,0,1,1.677.548,8.63,8.63,0,0,1,1.545.889,9.13,9.13,0,0,1,1.355,1.2,9.551,9.551,0,0,1,1.112,1.459,9.99,9.99,0,0,1,.826,1.664,10.187,10.187,0,0,1,.509,1.806,10.4,10.4,0,0,1,0,3.757,10.161,10.161,0,0,1-.509,1.806,9.925,9.925,0,0,1-.826,1.664,9.543,9.543,0,0,1-1.112,1.46,9.1,9.1,0,0,1-1.355,1.2,8.679,8.679,0,0,1-1.545.89,8.437,8.437,0,0,1-1.677.547,8.31,8.31,0,0,1-3.488,0,8.443,8.443,0,0,1-1.678-.547,8.752,8.752,0,0,1-1.545-.89,9.138,9.138,0,0,1-1.355-1.2,9.554,9.554,0,0,1-1.112-1.46,9.841,9.841,0,0,1-.826-1.664,10.05,10.05,0,0,1-.509-1.806,10.337,10.337,0,0,1,0-3.757,10.075,10.075,0,0,1,.509-1.806,9.9,9.9,0,0,1,.826-1.664,9.562,9.562,0,0,1,1.112-1.459,9.167,9.167,0,0,1,1.355-1.2,8.7,8.7,0,0,1,1.545-.889,8.415,8.415,0,0,1,1.678-.548A8.259,8.259,0,0,1,1639.829,2997.785Z" transform="translate(-1602.213 -2959.276)" fill="#d98b75"/><path d="M1640.1,3020.57v-20.118q0-1.181.116-2.357t.346-2.335q.229-1.159.573-2.291t.8-2.221q.454-1.091,1.01-2.134t1.213-2.024q.657-.983,1.406-1.9t1.585-1.749q.837-.836,1.749-1.585t1.9-1.406q.983-.657,2.024-1.214t2.134-1.009q1.091-.452,2.223-.795t2.289-.574q1.159-.23,2.335-.346t2.357-.116h5.289q1.182,0,2.357.116t2.335.346q1.159.231,2.29.574t2.222.795q1.092.452,2.134,1.009t2.024,1.214q.983.655,1.9,1.406t1.748,1.585q.835.835,1.585,1.749t1.406,1.9q.657.981,1.214,2.024t1.009,2.134q.452,1.092.795,2.221t.574,2.291q.231,1.158.346,2.335t.115,2.357v20.118q0,.81-.079,1.616t-.237,1.6q-.159.793-.393,1.57t-.545,1.523q-.311.748-.692,1.463t-.832,1.387a16.068,16.068,0,0,1-.964,1.3,15.891,15.891,0,0,1-1.087,1.2,16.1,16.1,0,0,1-1.2,1.086q-.627.515-1.3.964t-1.387.832q-.715.383-1.463.692t-1.523.545q-.776.234-1.57.393t-1.6.237q-.806.078-1.616.079h-20.419q-.81,0-1.616-.079t-1.6-.237q-.793-.159-1.569-.393t-1.524-.545q-.749-.311-1.462-.692t-1.388-.832q-.673-.45-1.3-.964a15.95,15.95,0,0,1-1.2-1.086q-.572-.572-1.087-1.2t-.964-1.3q-.449-.673-.831-1.387t-.692-1.463a16.171,16.171,0,0,1-.545-1.523q-.236-.776-.393-1.57t-.237-1.6Q1640.1,3021.379,1640.1,3020.57Z" transform="translate(-1601.581 -2960.743)" fill="#eba792"/><path d="M1634.618,2977.335h0q0-.766.075-1.528t.224-1.513q.149-.75.372-1.483t.515-1.441q.293-.708.654-1.383t.787-1.312q.425-.636.911-1.229t1.027-1.133q.542-.542,1.134-1.028t1.228-.911q.638-.426,1.312-.787t1.383-.654q.708-.293,1.44-.516t1.484-.371a14.879,14.879,0,0,1,1.513-.224q.761-.075,1.527-.076h8.49q.766,0,1.528.076a14.968,14.968,0,0,1,1.513.224q.75.149,1.483.371t1.44.516a15.283,15.283,0,0,1,1.383.654q.675.361,1.312.787t1.229.911q.591.486,1.133,1.028t1.028,1.133q.486.593.91,1.229a15.2,15.2,0,0,1,.786,1.312q.361.675.654,1.383a15.228,15.228,0,0,1,.515,1.441q.223.732.372,1.483t.224,1.513q.075.763.076,1.528h0q0,.766-.076,1.528t-.224,1.513q-.149.751-.372,1.483a15.268,15.268,0,0,1-.515,1.44q-.293.707-.654,1.383t-.786,1.313q-.425.636-.91,1.227t-1.028,1.134q-.542.542-1.133,1.027t-1.229.911a15.185,15.185,0,0,1-1.312.787q-.675.361-1.383.654t-1.44.515q-.733.222-1.483.372t-1.513.225q-.763.075-1.528.074h-8.49q-.764,0-1.527-.074t-1.513-.225q-.752-.149-1.484-.372t-1.44-.515q-.707-.294-1.383-.654t-1.312-.787q-.636-.424-1.228-.911t-1.134-1.027q-.542-.542-1.027-1.134t-.911-1.227q-.425-.639-.787-1.312t-.654-1.383q-.293-.706-.515-1.44t-.372-1.483q-.149-.752-.224-1.513T1634.618,2977.335Z" transform="translate(-1601.957 -2961.748)" fill="#3d3d3d"/><path d="M1659.813,3008.042v-10.634a2.825,2.825,0,0,1,.055-.555,2.892,2.892,0,0,1,.162-.534,2.845,2.845,0,0,1,.263-.491,2.79,2.79,0,0,1,.354-.431,2.848,2.848,0,0,1,.923-.618,2.82,2.82,0,0,1,.533-.161,2.853,2.853,0,0,1,.556-.055h5.6a2.855,2.855,0,0,1,.556.055,2.818,2.818,0,0,1,.533.161,2.814,2.814,0,0,1,.923.618,2.79,2.79,0,0,1,.354.431,2.838,2.838,0,0,1,.48,1.581v10.634a2.833,2.833,0,0,1-.217,1.089,2.908,2.908,0,0,1-.263.491,2.851,2.851,0,0,1-.784.784,2.709,2.709,0,0,1-.493.263,2.841,2.841,0,0,1-.533.163,2.874,2.874,0,0,1-.556.054h-5.6a2.872,2.872,0,0,1-.556-.054,2.843,2.843,0,0,1-.533-.163,2.663,2.663,0,0,1-.491-.263,2.83,2.83,0,0,1-.786-.784,2.849,2.849,0,0,1-.425-1.026A2.833,2.833,0,0,1,1659.813,3008.042Z" transform="translate(-1600.229 -2959.497)" fill="#df8e70"/><path d="M1649.357,3032.115l11.77,7.163a3,3,0,0,1-.346,5.3l-3.147,1.391h-6.981a5.964,5.964,0,0,1-5.964-5.962v-5.275a3.07,3.07,0,0,1,4.669-2.622Z" transform="translate(-1601.266 -2956.952)" fill="#58cc02"/><path d="M1682.847,3032.115l-11.77,7.163a3,3,0,0,0,.348,5.3l3.146,1.391h6.981a5.964,5.964,0,0,0,5.964-5.962h0v-5.275a3.07,3.07,0,0,0-4.669-2.622Z" transform="translate(-1599.555 -2956.952)" fill="#58cc02"/><g transform="translate(43.041 136.953)"><path d="M7.181,0h.985a7.181,7.181,0,0,1,7.181,7.181v48.2a4.812,4.812,0,0,1-4.812,4.812H4.812A4.812,4.812,0,0,1,0,55.378V7.181A7.181,7.181,0,0,1,7.181,0Z" transform="translate(3.423 0.318)" fill="#777"/><rect width="12.705" height="8.06" rx="3.771" transform="translate(0 69.01)" fill="#3d3d3d"/><rect width="17.77" height="8.749" rx="4.093" transform="translate(2.864 70.69) rotate(-25.799)" fill="#3d3d3d"/><path d="M7.181,0h.985a7.181,7.181,0,0,1,7.181,7.181v23.1a4.055,4.055,0,0,1-4.055,4.055H4.055A4.055,4.055,0,0,1,0,30.284V7.181A7.181,7.181,0,0,1,7.181,0Z" transform="translate(24.719)" fill="#777"/><rect width="24.402" height="7.95" rx="3.72" transform="translate(20.412 39.198)" fill="#3d3d3d"/></g><rect width="50.047" height="17.581" rx="8.226" transform="matrix(-1, -0.01, 0.01, -1, 52.052, 104.644)" fill="#58cc02"/><g transform="translate(0 56.842)"><rect width="37.901" height="18.999" rx="8.89" transform="translate(0 44.143) rotate(-74.547)" fill="#58cc02"/><path d="M1633.451,3023.169l-3.616-5.588a5.808,5.808,0,0,0-8.009-1.716l-6.8,4.4a3.745,3.745,0,0,0-1.659,2.554h0l-2.456,9.057,18.588,5.04,1.207-4.449c.295-.156.587-.324.872-.508h0A6.378,6.378,0,0,0,1633.451,3023.169Z" transform="translate(-1603.584 -3014.941)" fill="#e18e70"/></g><rect width="50.047" height="17.581" rx="8.226" transform="matrix(1, 0.01, -0.01, 1, 75.987, 86.967)" fill="#58cc02"/><g transform="translate(105.352 85.736)"><rect width="37.901" height="18.999" rx="8.89" transform="matrix(0.204, 0.979, -0.979, 0.204, 18.6, 0)" fill="#58cc02"/><path d="M1710.762,3085.81l5.771,3.317a5.811,5.811,0,0,0,7.909-2.136l4.038-7.027a3.748,3.748,0,0,0,.308-3.031h0l-1.957-9.178L1708,3071.77l.961,4.51c-.191.272-.374.554-.544.85h0A6.377,6.377,0,0,0,1710.762,3085.81Z" transform="translate(-1702.305 -3040.213)" fill="#e18e70"/></g><path d="M1653.491,3039.847a1.857,1.857,0,0,1,1.856,1.856v13.917a1.856,1.856,0,0,1-3.711,0V3041.7A1.856,1.856,0,0,1,1653.491,3039.847Z" transform="translate(-1600.79 -2956.391)" fill="#fff"/><path d="M1676.936,3039.847a1.856,1.856,0,0,1,1.855,1.856v13.917a1.856,1.856,0,0,1-3.711,0V3041.7A1.857,1.857,0,0,1,1676.936,3039.847Z" transform="translate(-1599.182 -2956.391)" fill="#fff"/><circle cx="4.898" cy="4.898" r="4.898" transform="translate(53.493 56.842)" fill="#6f2325"/><path d="M1651.636,3025.138a8.562,8.562,0,0,0,7.545,3.479" transform="translate(-1600.79 -2957.4)" fill="none" stroke="#d98b75" stroke-linecap="round" stroke-miterlimit="10" stroke-width="1.679"/><rect width="53.275" height="9.985" rx="1.934" transform="translate(38.573 23.191)" fill="#ff4b4b"/><rect width="53.275" height="2.706" transform="translate(38.573 26.759)" fill="#fff"/><path d="M1641.3,3009.953V2993.3a3.679,3.679,0,0,1,.277-1.394,3.761,3.761,0,0,1,.337-.628,3.62,3.62,0,0,1,.453-.551,3.583,3.583,0,0,1,.551-.453,3.635,3.635,0,0,1,1.312-.544,3.659,3.659,0,0,1,.71-.069h15.286a3.661,3.661,0,0,1,.709.069,3.633,3.633,0,0,1,1.313.544,3.57,3.57,0,0,1,.551.453,3.653,3.653,0,0,1,.789,1.179,3.654,3.654,0,0,1,.207.683,3.6,3.6,0,0,1,.07.711v16.65a3.592,3.592,0,0,1-.07.71,3.649,3.649,0,0,1-.207.683,3.488,3.488,0,0,1-.337.629,3.621,3.621,0,0,1-.452.552,3.7,3.7,0,0,1-.551.452,3.65,3.65,0,0,1-2.022.614h-15.286a3.6,3.6,0,0,1-.71-.07,3.559,3.559,0,0,1-.683-.207,3.627,3.627,0,0,1-.63-.336,3.71,3.71,0,0,1-.551-.452,3.647,3.647,0,0,1-1.066-2.574Z" transform="translate(-1601.499 -2959.833)" fill="#fff"/><path d="M1667.84,3009.953V2993.3a3.627,3.627,0,0,1,.277-1.394,3.777,3.777,0,0,1,.337-.628,3.635,3.635,0,0,1,1-1,3.712,3.712,0,0,1,.628-.337,3.773,3.773,0,0,1,.683-.207,3.675,3.675,0,0,1,.711-.069h15.285a3.675,3.675,0,0,1,.71.069,3.63,3.63,0,0,1,1.312.544,3.567,3.567,0,0,1,.552.453,3.621,3.621,0,0,1,.452.551,3.769,3.769,0,0,1,.337.628,3.627,3.627,0,0,1,.277,1.394v16.65a3.634,3.634,0,0,1-.613,2.022,3.627,3.627,0,0,1-.452.552,3.64,3.64,0,0,1-1.181.789,3.654,3.654,0,0,1-1.393.277h-15.285a3.637,3.637,0,0,1-2.022-.614,3.743,3.743,0,0,1-.552-.452,3.621,3.621,0,0,1-.452-.552,3.665,3.665,0,0,1-.337-.629,3.723,3.723,0,0,1-.207-.683A3.686,3.686,0,0,1,1667.84,3009.953Z" transform="translate(-1599.678 -2959.833)" fill="#fff"/><path d="M1654.477,3003.47v-3.813a2.872,2.872,0,0,1,.841-2.029,2.868,2.868,0,0,1,.435-.357,2.876,2.876,0,0,1,1.594-.484h1.153a2.857,2.857,0,0,1,1.1.219,2.835,2.835,0,0,1,.5.265,2.874,2.874,0,0,1,.792.792,2.884,2.884,0,0,1,.428,1.035,2.867,2.867,0,0,1,.055.56v3.813a2.879,2.879,0,0,1-.055.56,2.93,2.93,0,0,1-.164.539,2.982,2.982,0,0,1-.265.5,2.9,2.9,0,0,1-.357.435,2.865,2.865,0,0,1-.435.357,2.82,2.82,0,0,1-.5.265,2.789,2.789,0,0,1-.538.164,2.9,2.9,0,0,1-.56.056h-1.153a2.888,2.888,0,0,1-.56-.056,2.881,2.881,0,0,1-1.035-.428,2.869,2.869,0,0,1-1.057-1.288,2.786,2.786,0,0,1-.164-.539A2.824,2.824,0,0,1,1654.477,3003.47Z" transform="translate(-1600.595 -2959.344)" fill="#303030"/><path d="M1669.692,3003.47v-3.813a2.8,2.8,0,0,1,.056-.56,2.822,2.822,0,0,1,.429-1.035,2.872,2.872,0,0,1,2.386-1.276h1.152a2.873,2.873,0,0,1,2.87,2.87v3.813a2.815,2.815,0,0,1-.056.56,2.777,2.777,0,0,1-.163.539,2.869,2.869,0,0,1-.622.93,2.872,2.872,0,0,1-1.469.786,2.888,2.888,0,0,1-.56.056h-1.152a2.89,2.89,0,0,1-.56-.056,2.869,2.869,0,0,1-1.469-.786,2.839,2.839,0,0,1-.357-.435,2.9,2.9,0,0,1-.266-.5,2.909,2.909,0,0,1-.218-1.1Z" transform="translate(-1599.551 -2959.344)" fill="#303030"/><path d="M1652.272,3002.893s6.77-.441,9.749,3.03-3.572,2.32-3.885,2.32-6.611-.115-6.747-.531A38.264,38.264,0,0,1,1652.272,3002.893Z" transform="translate(-1600.808 -2958.927)" fill="#fff"/></g><rect width="322.448" height="7.292" rx="3.412" transform="translate(1426.567 3181.615)" fill="#fff"/><g transform="translate(1721.011 3133.406)"><path d="M1714.9,3128.288h0a2.565,2.565,0,0,1,2.566,2.565v27.71a2.565,2.565,0,0,1-2.566,2.565h0a2.566,2.566,0,0,1-2.566-2.565v-27.71A2.566,2.566,0,0,1,1714.9,3128.288Z" transform="translate(-1701.41 -3117)" fill="#78c800" fill-rule="evenodd"/><path d="M1705.61,3151.882a6.158,6.158,0,0,1,7.542,4.354h0m11.623-4.355a6.156,6.156,0,0,0-7.541,4.354h0" transform="translate(-1701.871 -3115.396)" fill="none" stroke="#78c800" stroke-linecap="round" stroke-linejoin="round" stroke-width="4.61"/><path d="M1710.807,3157.1h9.236a6.158,6.158,0,0,1,6.158,6.157h-21.552A6.158,6.158,0,0,1,1710.807,3157.1Z" transform="translate(-1701.937 -3115.023)" fill="#58a700" fill-rule="evenodd"/><path d="M1723.215,3126.11l-2.873-1.1a7.7,7.7,0,0,0-9.944,4.428h0a7.7,7.7,0,0,0,4.427,9.943l2.874,1.1a7.7,7.7,0,0,0,9.944-4.427h0A7.7,7.7,0,0,0,1723.215,3126.11Z" transform="translate(-1701.578 -3117.259)" fill="#fff" fill-rule="evenodd"/><path d="M1707.052,3126.134l3.832-1.472a7.7,7.7,0,0,1,9.944,4.429h0a7.7,7.7,0,0,1-4.427,9.943l-3.833,1.471a7.7,7.7,0,0,1-9.944-4.427h0A7.7,7.7,0,0,1,1707.052,3126.134Z" transform="translate(-1702.111 -3117.283)" fill="#fff" fill-rule="evenodd"/><path d="M1706.876,3125.934h0a8.211,8.211,0,0,0,8.21,8.21h.373a8.211,8.211,0,0,0,8.211-8.21h0a8.211,8.211,0,0,0-8.211-8.21h-.373A8.21,8.21,0,0,0,1706.876,3125.934Z" transform="translate(-1701.784 -3117.724)" fill="#fff" fill-rule="evenodd"/><path d="M1708.011,3132.8h0a5.644,5.644,0,0,0,5.644,5.644h3.079a5.645,5.645,0,0,0,5.644-5.644h0a5.645,5.645,0,0,0-5.644-5.645h-3.079A5.644,5.644,0,0,0,1708.011,3132.8Z" transform="translate(-1701.706 -3117.077)" fill="#ffaade" fill-rule="evenodd"/><path d="M1711.372,3133.593h0a3.079,3.079,0,0,0,3.079,3.08h1.027a3.079,3.079,0,0,0,3.078-3.08h0a3.079,3.079,0,0,0-3.078-3.079h-1.027A3.079,3.079,0,0,0,1711.372,3133.593Z" transform="translate(-1701.476 -3116.846)" fill="#2b70c9" fill-rule="evenodd"/></g><g transform="translate(1426.567 3133.406)"><path d="M1439.354,3128.288h0a2.565,2.565,0,0,1,2.566,2.565v27.71a2.565,2.565,0,0,1-2.566,2.565h0a2.565,2.565,0,0,1-2.566-2.565v-27.71A2.565,2.565,0,0,1,1439.354,3128.288Z" transform="translate(-1425.866 -3117)" fill="#78c800" fill-rule="evenodd"/><path d="M1430.066,3151.882a6.158,6.158,0,0,1,7.542,4.354h0m11.623-4.355a6.157,6.157,0,0,0-7.541,4.354h0" transform="translate(-1426.327 -3115.396)" fill="none" stroke="#78c800" stroke-linecap="round" stroke-linejoin="round" stroke-width="4.61"/><path d="M1435.263,3157.1h9.237a6.158,6.158,0,0,1,6.158,6.157h-21.552A6.157,6.157,0,0,1,1435.263,3157.1Z" transform="translate(-1426.393 -3115.023)" fill="#58a700" fill-rule="evenodd"/><path d="M1447.673,3126.11l-2.875-1.1a7.7,7.7,0,0,0-9.944,4.428h0a7.7,7.7,0,0,0,4.427,9.943l2.875,1.1a7.7,7.7,0,0,0,9.944-4.427h0A7.7,7.7,0,0,0,1447.673,3126.11Z" transform="translate(-1426.034 -3117.259)" fill="#fff" fill-rule="evenodd"/><path d="M1431.508,3126.134l3.832-1.472a7.7,7.7,0,0,1,9.944,4.429h0a7.7,7.7,0,0,1-4.427,9.943l-3.833,1.471a7.7,7.7,0,0,1-9.943-4.427h0A7.7,7.7,0,0,1,1431.508,3126.134Z" transform="translate(-1426.567 -3117.283)" fill="#fff" fill-rule="evenodd"/><path d="M1431.332,3125.934h0a8.21,8.21,0,0,0,8.21,8.21h.374a8.211,8.211,0,0,0,8.21-8.21h0a8.21,8.21,0,0,0-8.21-8.21h-.374A8.21,8.21,0,0,0,1431.332,3125.934Z" transform="translate(-1426.241 -3117.724)" fill="#fff" fill-rule="evenodd"/><path d="M1432.467,3132.8h0a5.645,5.645,0,0,0,5.644,5.644h3.078a5.645,5.645,0,0,0,5.645-5.644h0a5.645,5.645,0,0,0-5.645-5.645h-3.078A5.645,5.645,0,0,0,1432.467,3132.8Z" transform="translate(-1426.163 -3117.077)" fill="#ffaade" fill-rule="evenodd"/><path d="M1435.828,3133.593h0a3.079,3.079,0,0,0,3.08,3.08h1.026a3.079,3.079,0,0,0,3.079-3.08h0a3.079,3.079,0,0,0-3.079-3.079h-1.026A3.079,3.079,0,0,0,1435.828,3133.593Z" transform="translate(-1425.932 -3116.846)" fill="#2b70c9" fill-rule="evenodd"/></g></g></svg>