<svg xmlns="http://www.w3.org/2000/svg" xmlns:xlink="http://www.w3.org/1999/xlink" width="382.033" height="261.509" viewBox="0 0 382.033 261.509"><defs><clipPath id="a"><rect width="382.033" height="261.509" fill="none"/></clipPath></defs><g clip-path="url(#a)"><rect width="174.733" height="264.79" transform="translate(121.313 24.966)" fill="#cfe2e7"/><path d="M165.026,126.561h28.039l10.94,43.357H165.027Z" fill="#3d93cf"/><path d="M111.3,15.734H68.513A10.4,10.4,0,0,0,58.14,26.127V289.756H111.3Z" fill="#cfe2e7"/><path d="M307.484,20.931V289.756H292.979V184.531H125.725V289.756H111.219V15.734H302.3A5.228,5.228,0,0,1,307.484,20.931ZM125.725,92.867H292.978v-62.6H125.725ZM292.978,170.08V107.4H125.725v62.68Z" fill="#ebf2f4"/><path d="M176.124,42.284h29.334l12.721,50.582H176.124Z" fill="#f9ba15"/><path d="M220.939,92.867h-5.186L202.221,42.285h4.941a2.092,2.092,0,0,1,2.027,1.541l12.8,47.74a1.053,1.053,0,0,1-.776,1.272A1.031,1.031,0,0,1,220.939,92.867Z" fill="#fdd204"/><path d="M150.845,37.493h42.688V92.948H150.845Z" fill="#f34849"/><path d="M194.927,92.863h-9.074V37.489h9.074a3.082,3.082,0,0,1,3.082,3.082v49.21A3.082,3.082,0,0,1,194.927,92.863Z" fill="#ff6464"/><path d="M191.93,83.366a1.074,1.074,0,0,1-1.053-1.056V47.966a1.053,1.053,0,0,1,2.106-.024V82.31A1.073,1.073,0,0,1,191.93,83.366Z" fill="#ff4b4b"/><path d="M125.805,37.493h43.182V92.948H125.805Z" fill="#3d93cf"/><path d="M169.807,92.863h-8.99V37.489l8.913.081a3.082,3.082,0,0,1,3.082,3.082l.082,49.121a2.983,2.983,0,0,1-2.873,3.09C169.95,92.866,169.879,92.866,169.807,92.863Z" fill="#43ade1"/><path d="M166.891,83.366a1.074,1.074,0,0,1-1.054-1.056V47.966a1.053,1.053,0,1,1,2.106-.024V82.31A1.073,1.073,0,0,1,166.891,83.366Z" fill="#3d93cf"/><path d="M141.851,119.5h29.334l12.722,50.42H141.851Z" fill="#4c4c4c"/><path d="M190.714,169.917H181.4L167.943,119.5h9.076a2.09,2.09,0,0,1,2.024,1.541l12.723,47.577a1.052,1.052,0,0,1-.77,1.273A1.029,1.029,0,0,1,190.714,169.917Z" fill="#656161"/><path d="M125.805,114.463h37.758v55.454H125.805Z" fill="#38b000"/><path d="M153.36,114.463v55.454h14.666a2.094,2.094,0,0,0,2.106-2.083V116.573a2.093,2.093,0,0,0-2.077-2.11H153.36Z" fill="#50c800"/><path d="M161.706,162.368a1.837,1.837,0,0,1-1.865-1.808V136.952a1.863,1.863,0,1,1,3.724-.142c0,.048,0,.1,0,.142V160.5a1.836,1.836,0,0,1-1.8,1.87Z" fill="#38b000"/><path d="M161.705,130.784a4.385,4.385,0,1,1,4.374-4.395v.01a4.38,4.38,0,0,1-4.374,4.385Z" fill="#38b000"/><rect width="135.045" height="40.337" rx="20.169" transform="matrix(0.989, -0.149, 0.149, 0.989, 13.717, 125.284)" fill="#4b4b4b"/><path d="M62.2,9.147a52.654,52.654,0,0,1,58.063,36.237l23.383,74.176a2.612,2.612,0,0,1-1.706,3.276,2.569,2.569,0,0,1-.4.092L25.287,140.442a2.612,2.612,0,0,1-2.972-2.194,2.564,2.564,0,0,1-.028-.29L19.374,60.851A50.362,50.362,0,0,1,62.2,9.147Z" fill="#4b4b4b" fill-rule="evenodd"/><rect width="18.122" height="33.192" rx="9.061" transform="translate(71.314 104.054) rotate(-4.147)" fill="#fbba97"/><path d="M70.973,193.986H94.7a1.85,1.85,0,0,1,1.848,1.849v109.08a1.849,1.849,0,0,1-1.848,1.849H70.973a1.849,1.849,0,0,1-1.849-1.849V195.835A1.849,1.849,0,0,1,70.973,193.986Z" fill="#4c4c4c" fill-rule="evenodd"/><path d="M77.594,323.1a7.241,7.241,0,0,1,7.24-7.243h21.578a7.242,7.242,0,0,1,0,14.483H84.835A7.242,7.242,0,0,1,77.594,323.1Z" fill="#593f86" fill-rule="evenodd"/><path d="M53.871,323.1a7.241,7.241,0,0,1,7.24-7.243H82.7a7.242,7.242,0,0,1,0,14.483H61.118a7.242,7.242,0,0,1-7.247-7.237Z" fill="#593f86" fill-rule="evenodd"/><path d="M70.641,122.426H95.033a1.9,1.9,0,0,1,1.9,1.9v91.861a1.9,1.9,0,0,1-1.9,1.9H70.641a1.9,1.9,0,0,1-1.9-1.9V124.327A1.9,1.9,0,0,1,70.641,122.426Z" fill="#f7f7f7" fill-rule="evenodd"/><path d="M82.354,135.451h1.3a14.377,14.377,0,0,1,11.839,6.225l27.717,40.315a10.946,10.946,0,0,1-9.022,17.15H51.821a10.947,10.947,0,0,1-9.023-17.15l27.718-40.315A14.375,14.375,0,0,1,82.354,135.451Z" fill="#f7f7f7" fill-rule="evenodd"/><path d="M41.55,330.519h79.784a6.051,6.051,0,0,1,6.052,6.051h0a6.051,6.051,0,0,1-6.049,6.052H41.55a6.051,6.051,0,0,1-6.05-6.052h0A6.051,6.051,0,0,1,41.55,330.519Z" fill="#afafaf" opacity="0.3" style="isolation:isolate"/><rect width="37.177" height="49.186" rx="3.241" transform="translate(52.314 157.423)" fill="#ce82ff"/><rect width="11.074" height="44.878" transform="translate(54.663 159.543)" fill="#fff"/><path d="M97.1,175.584s6.305,5.37,7.915,8.048,9.927.806,7.378-6.17S98.305,172.5,97.1,175.584Z" fill="#ffc6b7"/><path d="M68.087,175.585s6.885,8.769,9.154,12.988-9.154,4.546-9.154,4.546L60.2,186.3l1.2-4.284,1.076-3.24Z" fill="#f7f7f7" fill-rule="evenodd"/><path d="M68.094,175.584s-6.305,5.37-7.914,8.048-9.928.806-7.379-6.17S66.881,172.5,68.094,175.584Z" fill="#ffc6b7"/><path d="M51.248,181.014h47.4a9.066,9.066,0,0,1,9.066,9.066h0a9.066,9.066,0,0,1-9.066,9.065h-47.4a9.066,9.066,0,0,1-9.066-9.065h0A9.066,9.066,0,0,1,51.248,181.014Z" fill="#f7f7f7"/><path d="M113.386,46.654l3.825-.587a9.926,9.926,0,0,1,3.006,19.623l-3.823.585a9.925,9.925,0,1,1-3.008-19.621Z" fill="#fbba97" fill-rule="evenodd"/><path d="M26.959,59.674l3.825-.586A9.925,9.925,0,0,1,33.79,78.71l-3.824.586a9.926,9.926,0,1,1-3.007-19.622Z" fill="#fbba97" fill-rule="evenodd"/><path d="M67.7,16.235a43.061,43.061,0,0,1,48.086,31.307l9.284,34.279a21.269,21.269,0,0,1-17.3,26.575l-52.92,8.11A21.259,21.259,0,0,1,30.365,95.69l-.332-35.156A44.391,44.391,0,0,1,67.7,16.235Z" fill="#fbba97" fill-rule="evenodd"/><path d="M67.019,13.65c20.6-3.158,43.057,10.668,50.128,30.229L84.818,48.833A31.343,31.343,0,0,1,49.088,22.6l-.372-2.424A50.068,50.068,0,0,1,67.019,13.65Z" fill="#4b4b4b" fill-rule="evenodd"/><path d="M75.881,82.878a5.842,5.842,0,0,0,4.841-6.689C80.2,73.015,73.2,66.454,73.2,66.454L72.659,67.5c-1.19,2.362-3.9,8.088-3.494,10.573A5.842,5.842,0,0,0,75.881,82.878Z" fill="#ee9583" fill-rule="evenodd"/><path d="M72.558,88.25a8.309,8.309,0,0,0,5.6.947A8.539,8.539,0,0,0,83.3,86.439a1.438,1.438,0,0,1,2.489.732l2.026,12.485a7.79,7.79,0,1,1-15.379,2.5h0L70.424,89.733a1.438,1.438,0,0,1,2.13-1.479Z" fill="#881b1b" fill-rule="evenodd"/><path d="M42.551,62.389S44.928,73.2,52.652,73.2s8.08-8.081,8.2-10.814" fill="none" stroke="#9e4d31" stroke-linecap="round" stroke-miterlimit="10" stroke-width="3.763" fill-rule="evenodd"/><path d="M102.843,54.88S102.581,65.948,95,67.427s-9.478-6.383-10.118-9.043" fill="none" stroke="#9e4d31" stroke-linecap="round" stroke-miterlimit="10" stroke-width="3.763" fill-rule="evenodd"/><rect width="24.964" height="10.385" rx="4.879" transform="matrix(1, -0.002, 0.002, 1, 156.548, 234.698)" fill="#006bd6"/><rect width="21.669" height="14.639" transform="translate(156.527 225.584) rotate(-0.132)" fill="#006bd6"/><rect width="10.385" height="24.964" rx="4.879" transform="matrix(0.002, -1, 1, 0.002, 129.82, 245.027)" fill="#006bd6"/><rect width="14.639" height="21.669" transform="translate(133.126 240.174) rotate(-89.868)" fill="#006bd6"/><path d="M148.679,189.612h14A15.523,15.523,0,0,1,178.2,205.134v20.088a6.626,6.626,0,0,1-6.627,6.626H139.784a6.626,6.626,0,0,1-6.627-6.626V205.134a15.522,15.522,0,0,1,15.522-15.522Z" fill="#006bd6"/><path d="M161.382,197.557a37.422,37.422,0,0,0,18.084-4.718,31.628,31.628,0,0,1-18.58,6.32l-10.1.035A31.63,31.63,0,0,1,132.163,193a37.419,37.419,0,0,0,18.118,4.592Z" fill="#005ad6" opacity="0.88" style="isolation:isolate"/><path d="M112.569,155.1a37.892,37.892,0,0,1,37.445-34.026l11.1-.039a37.759,37.759,0,0,1,37.891,37.626v1a37.854,37.854,0,0,1-19.546,33.173,37.41,37.41,0,0,1-18.084,4.717l-11.1.039A37.419,37.419,0,0,1,132.157,193a37.855,37.855,0,0,1-19.774-33.037v-1A37.775,37.775,0,0,1,112.569,155.1Z" fill="#0075d6"/><path d="M155.61,133.618c-13.6.047-24.932,8.649-27.758,20.12l-7.252.025c2.919-15.031,17.45-26.487,34.989-26.547s32.147,11.294,35.17,26.3l-7.252.026C180.6,142.1,169.206,133.57,155.61,133.618Z" fill="#fff"/><path d="M157.33,184.982c13.6-.047,24.932-8.65,27.758-20.122l7.252-.025c-2.919,15.03-17.449,26.488-34.988,26.549s-32.147-11.3-35.171-26.305l7.252-.025C132.344,176.505,143.74,185.028,157.33,184.982Z" fill="#fff"/><path d="M143.577,116.474l22.958-.078a4.335,4.335,0,0,1,.03,8.669h0l-22.958.079a4.335,4.335,0,0,1-.03-8.669Z" fill="#01357a"/><circle cx="5.499" cy="5.499" r="5.499" transform="translate(160.522 90.139)" fill="#01357a"/><path d="M166.025,95.632S154,104.849,155.679,120.767" fill="none" stroke="#01357a" stroke-miterlimit="10" stroke-width="1.592"/><path d="M202.172,187.287H121.208a3.969,3.969,0,0,0-3.965,3.975h0a3.924,3.924,0,0,0,.084.808l12.043,57.662a3.965,3.965,0,0,0,3.881,3.158h80.964a3.971,3.971,0,0,0,3.882-4.784l-12.043-57.66A3.965,3.965,0,0,0,202.172,187.287Z" fill="#fff"/><path d="M210.566,234.763H128.911c-.761,0-1.379.437-1.379.977a.746.746,0,0,0,.039.234l4.7,13.416a1.376,1.376,0,0,0,1.342.741h81.655c.76,0,1.379-.436,1.379-.977a.741.741,0,0,0-.04-.233l-4.7-13.416A1.374,1.374,0,0,0,210.566,234.763Z" fill="#bdfd6c" stroke="#58cc02" stroke-width="0.271"/><path d="M121.207,187.287h81.166a3.968,3.968,0,0,1,3.685,3.152l12.052,57.7.024.122v.038a3.968,3.968,0,0,1-3.916,4.58H133.057a3.968,3.968,0,0,1-3.685-3.152l-12.051-57.7-.022-.122-.006-.038a3.968,3.968,0,0,1,3.307-4.534,4.16,4.16,0,0,1,.611-.048Zm2.335,5.869,11.251,53.865h77.088L200.63,193.16Z" fill="#4c4c4c"/><path d="M160.067,237.058H140.486a1.379,1.379,0,0,0-1.383,1.376v0h0a1.351,1.351,0,0,0,.037.316l.732,3.1a1.379,1.379,0,0,0,1.343,1.065H160.8a1.381,1.381,0,0,0,1.381-1.382h0a1.443,1.443,0,0,0-.037-.315l-.732-3.1A1.378,1.378,0,0,0,160.067,237.058Z" fill="#89e219"/><path d="M120.858,186.942h81.654A3.968,3.968,0,0,1,206.3,190.1l12.144,58.354.022.123a4.229,4.229,0,0,1,.061.693,3.969,3.969,0,0,1-3.966,3.971H132.91a3.966,3.966,0,0,1-3.792-3.157l-12.141-58.354-.022-.122a3.974,3.974,0,0,1,3.223-4.6,3.906,3.906,0,0,1,.683-.06Zm81.55,2.075h-81.55a1.9,1.9,0,0,0-1.894,1.9,1.95,1.95,0,0,0,.027.324l.017.081,12.134,58.335a1.9,1.9,0,0,0,1.807,1.511h81.614a1.9,1.9,0,0,0,1.894-1.9h0a1.961,1.961,0,0,0-.027-.325l-.017-.079-12.137-58.335a1.9,1.9,0,0,0-1.807-1.511Z" fill="#afafaf"/><path d="M245.133,245.294H129.777v3.971a3.969,3.969,0,0,0,3.965,3.971H245.133a3.97,3.97,0,1,0,0-7.941Z" fill="#afafaf"/><path d="M174.468,237.4a.863.863,0,0,0-.04,1.726h13.287a.864.864,0,0,0,.04-1.727H174.468Z" fill="#89e219"/><path d="M180.815,240.855a.863.863,0,0,0-.042,1.726h6.939a.863.863,0,0,0,.04-1.723h-6.937Z" fill="#89e219"/><path d="M132.191,196.156a.863.863,0,0,0-.04,1.725H192.2a.863.863,0,0,0,.041-1.725Z" fill="#d8d8d8"/><path d="M173.572,196.156a.863.863,0,0,0-.04,1.725H192.2a.863.863,0,0,0,.04-1.725H173.572Z" fill="#58cc02"/><path d="M149.809,216.055h34.144a1.437,1.437,0,0,0,1.435-1.436,1.453,1.453,0,0,0-.033-.3l-2.074-9.689a1.444,1.444,0,0,0-1.4-1.135H147.744a1.435,1.435,0,0,0-1.435,1.434,1.387,1.387,0,0,0,.032.3l2.067,9.69A1.439,1.439,0,0,0,149.809,216.055Zm32.067-11.913a.793.793,0,0,1,.77.623l2.075,9.69a.791.791,0,0,1-.609.936h0a.794.794,0,0,1-.161.017H149.807a.79.79,0,0,1-.77-.624l-2.067-9.69a.788.788,0,0,1,.606-.934h0a.714.714,0,0,1,.16-.018Z" fill="#d8d8d8"/><path d="M171.521,221.538H184.9a1.4,1.4,0,0,0,1.393-1.393,1.425,1.425,0,0,0-.032-.291l-.282-1.312a1.4,1.4,0,0,0-1.361-1.1h-13.38a1.39,1.39,0,0,0-1.392,1.389v0a1.443,1.443,0,0,0,.031.293l.279,1.312A1.4,1.4,0,0,0,171.521,221.538Zm13.1-3.451a.749.749,0,0,1,.732.59l.281,1.317a.746.746,0,0,1-.573.885.9.9,0,0,1-.156.017H171.523a.75.75,0,0,1-.732-.591l-.28-1.311a.748.748,0,0,1,.574-.887.763.763,0,0,1,.158-.016Z" fill="#d8d8d8"/><path d="M150.768,221.538h13.383a1.394,1.394,0,0,0,1.392-1.394,1.487,1.487,0,0,0-.031-.29l-.281-1.312a1.4,1.4,0,0,0-1.362-1.1H150.486a1.391,1.391,0,0,0-1.393,1.39h0a1.435,1.435,0,0,0,.03.293l.28,1.312A1.4,1.4,0,0,0,150.768,221.538Zm13.1-3.451a.748.748,0,0,1,.732.59l.281,1.317a.746.746,0,0,1-.572.885.9.9,0,0,1-.155.017H150.77a.748.748,0,0,1-.732-.591l-.282-1.311a.748.748,0,0,1,.574-.887.763.763,0,0,1,.158-.016Z" fill="#d8d8d8"/><path d="M172.246,226.254H185.63a1.4,1.4,0,0,0,1.361-1.683l-.281-1.316a1.4,1.4,0,0,0-1.362-1.1H171.967a1.392,1.392,0,0,0-1.393,1.391,1.37,1.37,0,0,0,.032.293l.28,1.312A1.4,1.4,0,0,0,172.246,226.254Zm13.1-3.451a.751.751,0,0,1,.733.59l.281,1.315a.746.746,0,0,1-.571.887h0a.817.817,0,0,1-.156.015H172.252a.75.75,0,0,1-.733-.589l-.279-1.316a.746.746,0,0,1,.576-.885.775.775,0,0,1,.152-.015Z" fill="#d8d8d8"/><path d="M151.5,226.254h13.383a1.392,1.392,0,0,0,1.391-1.393,1.424,1.424,0,0,0-.03-.291l-.281-1.315a1.4,1.4,0,0,0-1.361-1.1H151.218a1.393,1.393,0,0,0-1.393,1.391h0a1.383,1.383,0,0,0,.031.293l.28,1.312A1.4,1.4,0,0,0,151.5,226.254Zm13.1-3.451a.751.751,0,0,1,.733.59l.28,1.315a.746.746,0,0,1-.571.887h0a.817.817,0,0,1-.156.015H151.5a.75.75,0,0,1-.733-.589l-.279-1.316a.746.746,0,0,1,.576-.885.785.785,0,0,1,.153-.015Z" fill="#d8d8d8"/><circle cx="3.421" cy="3.421" r="3.421" transform="translate(192.154 236.581)" fill="#fff"/><path d="M132.5,182.89h13.511A5.3,5.3,0,0,1,151,188.446v.854a5.3,5.3,0,0,1-4.991,5.555H132.5a5.3,5.3,0,0,1-4.991-5.555v-.854A5.3,5.3,0,0,1,132.5,182.89Z" fill="#01357a"/><rect width="382.033" height="261.509" fill="none"/><ellipse cx="6.412" cy="8.801" rx="6.412" ry="8.801" transform="translate(134.439 151.341)" fill="#fff"/><ellipse cx="3.575" cy="4.906" rx="3.575" ry="4.906" transform="translate(137.709 154.255)"/><path d="M137.709,156.634a2.381,2.381,0,1,0,2.382-2.379h0a2.38,2.38,0,0,0-2.381,2.378Z" fill="#fff"/><path d="M142.132,160.85a1.677,1.677,0,1,0,1.677-1.677h0A1.677,1.677,0,0,0,142.132,160.85Z" fill="#fff"/><ellipse cx="6.412" cy="8.801" rx="6.412" ry="8.801" transform="translate(166.759 151.341)" fill="#fff"/><ellipse cx="3.575" cy="4.906" rx="3.575" ry="4.906" transform="translate(169.162 154.255)"/><path d="M176.312,156.634a2.38,2.38,0,1,1-2.38-2.379h0a2.378,2.378,0,0,1,2.378,2.378Z" fill="#fff"/><path d="M171.89,160.85a1.677,1.677,0,1,1-1.677-1.677h0A1.677,1.677,0,0,1,171.89,160.85Z" fill="#fff"/><path d="M79.921,99.6a7.554,7.554,0,0,1,7.671,3.54,7.792,7.792,0,0,1-13.826,2.243A7.551,7.551,0,0,1,79.921,99.6Z" fill="#b12e2e" fill-rule="evenodd"/><path d="M304.646,154.857,202.5,189.11a3.221,3.221,0,0,1-4.079-2.03l-22.842-68.113a54.244,54.244,0,0,1,34.182-68.679l0,0,5.388-1.807a54.246,54.246,0,0,1,68.678,34.184h0l22.842,68.113A3.223,3.223,0,0,1,304.646,154.857Z" fill="#a56644"/><rect width="66.317" height="20.87" rx="9.271" transform="translate(264.035 386.154) rotate(-82.978)" fill="#efaa8b"/><rect width="20.87" height="66.317" rx="9.271" transform="translate(356.572 272.695) rotate(-59.328)" fill="#efaa8b"/><path d="M258.064,213.392l10.05,131.371a6.968,6.968,0,0,0,10.5,5.442l114.964-68.259a6.968,6.968,0,0,0-.011-11.985l-48.2-28.419a6.86,6.86,0,0,1-2.04-1.824l-35.779-47.725a6.969,6.969,0,0,0-8.381-2.157l-36.975,16.732A6.985,6.985,0,0,0,258.064,213.392Z" fill="#ce82ff"/><rect width="126.454" height="36.867" rx="16.377" transform="matrix(0.984, -0.18, 0.18, 0.984, 187.877, 160.168)" fill="#a56644"/><path d="M215.694,183.358,234.9,157.433l21.866,16.078-23.7,32.092a19.1,19.1,0,0,1-25.975,4.606l-20.159-13.378,15.03-22.617Z" fill="#ffb7e3" fill-rule="evenodd"/><path d="M171.024,178.616a16.63,16.63,0,1,1,14.482,18.531l-.018,0A16.631,16.631,0,0,1,171.024,178.616Z" fill="#fbba97"/><path d="M167.822,201.239a6.231,6.231,0,0,1-5.446-6.927l0-.022c1.122-9.114,4.778-18.433,12.72-24.372a6.232,6.232,0,1,1,7.544,9.922c-4.368,3.318-7.013,8.923-7.888,16.027a6.23,6.23,0,0,1-6.939,5.371Z" fill="#fbba97" fill-rule="evenodd"/><path d="M245.5,176.793l45.538,1.493A13.852,13.852,0,0,1,304.349,190.7L290.9,207.2a22.176,22.176,0,0,1-38.367-7.492Z" fill="#ff86d0"/><path d="M233.995,165.968a13.834,13.834,0,0,1,13.756-17.328l32.761.768a13.868,13.868,0,0,1,12.63,8.94l11.02,29.025L277.94,204.6a24.938,24.938,0,0,1-37.862-14.677Z" fill="#ffb7e3"/><path d="M223.653,55.439a52.491,52.491,0,1,1-.032.005Z" fill="#fbba97" fill-rule="evenodd"/><path d="M229.987,139.362a1.459,1.459,0,0,1,1.1-2.3,14.585,14.585,0,0,0,11.7-7.206l1.316-2.259a1.819,1.819,0,0,1,3.17-.041c3.151,5.438,9.247,17.861,2.834,23.14-5.351,4.411-12.36-.6-16.423-6.225Z" fill="#881b1b"/><path d="M251.921,137.88c1.442,4.863,1.685,9.908-1.819,12.8a7.07,7.07,0,0,1-5.968,1.569,10.64,10.64,0,0,1-.629-5.147,10.794,10.794,0,0,1,8.415-9.218Z" fill="#b12e2e"/><path d="M248.392,56.814l-11.311-4.965-15.993.379-11,3.071-8.775,6.426-7.379,6.55-2.34,5.866s1.9,4.774,2.505,4.692,27.082-6.7,27.5-6.976S232.276,67.536,233,67.439s12.577-9.985,12.577-9.985Z" fill="#a56644" fill-rule="evenodd"/><rect width="16.013" height="41.741" rx="7.106" transform="matrix(0.994, -0.107, 0.107, 0.994, 424.995, 289.012)" fill="#4b4b4b"/><rect width="16.013" height="41.741" rx="7.106" transform="translate(245.251 405.127) rotate(-82.978)" fill="#4b4b4b"/><circle cx="3.347" cy="3.347" r="3.347" transform="translate(251.543 173.184)" fill="#fff"/><circle cx="3.347" cy="3.347" r="3.347" transform="translate(256.365 182.891)" fill="#fff"/><circle cx="3.347" cy="3.347" r="3.347" transform="translate(261.41 192.056)" fill="#fff"/><path d="M259.5,151.055l-2.119,17.205-5.3,2.443-8.553.088-4.863-7.689-2.4-2.717-1.4-2.956Z" fill="#fbba97"/><path d="M258.638,152.99l5.824,17.578-12.382.135Z" fill="#fff"/><path d="M236.266,160.385l5.8,17.6,10.011-7.276Z" fill="#fff"/><circle cx="7.672" cy="7.672" r="7.672" transform="translate(279.529 87.24)" fill="#fbba97"/><path d="M232.239,133.527a3.914,3.914,0,0,0,3.514-4.271c-.2-2.161-4.564-6.907-4.564-6.907l-.295.488c-.823,1.392-3.068,5.377-2.9,7.146A3.915,3.915,0,0,0,232.239,133.527Z" fill="#9e4d31" fill-rule="evenodd"/><path d="M234.649,89.452a12.3,12.3,0,0,1,16.234,6.167l4.056,9.029a12.28,12.28,0,1,1-22.4,10.065h0l-4.058-9.028a12.144,12.144,0,0,1,5.918-16.12C234.48,89.526,234.564,89.489,234.649,89.452Z" fill="#fff" fill-rule="evenodd"/><path d="M238.645,103.179a5.159,5.159,0,0,0-2.581,6.791l2.722,6.057a5.137,5.137,0,1,0,9.372-4.211h0l-2.722-6.056a5,5,0,0,0-6.545-2.692Q238.766,103.12,238.645,103.179Z" fill="#4b4b4b" fill-rule="evenodd"/><path d="M204.108,103.925a12.3,12.3,0,0,0-6.17,16.234l4.057,9.029a12.281,12.281,0,0,0,22.4-10.068l-4.056-9.027A12.3,12.3,0,0,0,204.108,103.925Z" fill="#fff" fill-rule="evenodd"/><path d="M209.491,117.608a5.159,5.159,0,0,0-2.581,6.79l2.723,6.058a5.137,5.137,0,1,0,9.372-4.211h0l-2.722-6.057a5.081,5.081,0,0,0-6.689-2.626C209.56,117.576,209.525,117.592,209.491,117.608Z" fill="#4b4b4b" fill-rule="evenodd"/><circle cx="3.263" cy="3.263" r="3.263" transform="translate(203.604 117.262)" fill="#fff"/><circle cx="3.263" cy="3.263" r="3.263" transform="translate(239.799 99.668)" fill="#fff"/><path d="M256.267,56.229s-8.774,8.309-1.993,17.862c4.566,6.44-35.6,25.564-61.274,26.547-7.362.519-13.048-16.458-7.389-29.658S256.267,56.229,256.267,56.229Z" fill="#a56644" fill-rule="evenodd"/><path d="M272.115,133.058h0c6.519-2.766,13.767,1.021,16.191,8.459l32.762,100.535a3.827,3.827,0,0,1-1.889,4.706l-13.008,5.52c-4.191,1.779-8.853-.657-10.412-5.44l-31.057-95.3C262.278,144.1,265.6,135.824,272.115,133.058Z" fill="#ffb7e3"/><path d="M285.82,251.849s20.09-14.5,32.728,5.178" fill="none" stroke="#fbba97" stroke-linecap="round" stroke-miterlimit="10" stroke-width="13.587"/><path d="M330.125,251.124s-14.81-9.736-26.513-5.489" fill="none" stroke="#fbba97" stroke-linecap="round" stroke-miterlimit="10" stroke-width="11.647"/><path d="M326.485,245.114s-11.474-3.09-15.877.211" fill="none" stroke="#fbba97" stroke-linecap="round" stroke-miterlimit="10" stroke-width="9.706"/><path d="M25.436,253.5h352.59a4.007,4.007,0,0,1,4.007,4.007h0a4.007,4.007,0,0,1-4.007,4.006H25.436a4.007,4.007,0,0,1-4.007-4.006h0A4.007,4.007,0,0,1,25.436,253.5Z" fill="#fff"/></g></svg>