<svg xmlns="http://www.w3.org/2000/svg" xmlns:xlink="http://www.w3.org/1999/xlink" width="387.331" height="312.844" viewBox="0 0 387.331 312.844"><defs><clipPath id="a"><rect width="387.331" height="312.844" fill="none"/></clipPath><clipPath id="b"><rect width="107.056" height="46.176" transform="translate(14.685 0) rotate(18.544)" fill="none"/></clipPath></defs><g clip-path="url(#a)"><rect width="111.955" height="127.09" rx="12.124" transform="translate(171.777 203.599) rotate(18.544)" fill="#1cb0f6"/><rect width="104.398" height="31.202" rx="15.601" transform="translate(117.016 288.131) rotate(-57.065)" fill="#1cb0f6"/><g transform="translate(336.775 133.073)"><path d="M362.576,174.8l10.388-28.688,14.921,5.246L377.5,180.043Z" transform="translate(-362.576 -143.47)" fill="#ffd300"/><path d="M371.149,173.4a2.168,2.168,0,0,1-1.345-2.752h0l4.735-13.572a2.141,2.141,0,0,1,2.728-1.314h0l.011,0a2.176,2.176,0,0,1,1.34,2.762l-4.73,13.564a2.141,2.141,0,0,1-2.729,1.312h0Z" transform="translate(-363.082 -144.148)" fill="#ffe600"/><path d="M374.809,146.964l.692-2.046c.7-1.661,2.713-1.951,4.739-1.386l4.607,1.618c2.019.567,3.856,2.5,3.154,4.161l-.791,2.01Z" transform="translate(-363.447 -143.268)" fill="#ffafaf"/><path d="M371.917,147.157a2.45,2.45,0,0,1,3.141-1.2l12.167,4.275a2.186,2.186,0,0,1,1.621,2.634h0a2.252,2.252,0,0,1-.064.218,2.62,2.62,0,0,1-3.21,1.4L373.408,150.2a2.352,2.352,0,0,1-1.521-2.958h0C371.9,147.214,371.906,147.186,371.917,147.157Z" transform="translate(-363.231 -143.446)" fill="#8e8e8e"/><path d="M362.577,176.995l3.724,11.088a.963.963,0,0,0,1.22.606,1,1,0,0,0,.216-.1l9.761-6.349Z" transform="translate(-362.576 -145.668)" fill="#fff2b4"/><g transform="translate(2.159 37.751)"><path d="M366.468,188.576a.963.963,0,0,0,1.436.5l4.14-2.7-7.144-2.47Z" transform="translate(-364.9 -183.911)" fill="#4c4c4c"/></g></g><rect width="107.731" height="101.714" rx="5.08" transform="translate(270.651 197.474)" fill="#ebe3e3"/><path d="M298.713,212.6h51.948a5.72,5.72,0,0,1,5.72,5.72v13.064a5.72,5.72,0,0,1-5.72,5.72H298.713a7.327,7.327,0,0,1-7.327-7.327h0v-9.85a7.327,7.327,0,0,1,7.327-7.327Z" transform="translate(-20.735 -15.129)" fill="#d8cfcf"/><path d="M298.028,238.984h53.065a5.288,5.288,0,0,1,5.288,5.288h0v6.82a5.288,5.288,0,0,1-5.288,5.288H298.028a6.643,6.643,0,0,1-6.642-6.642h0v-4.111A6.643,6.643,0,0,1,298.028,238.984Z" transform="translate(-20.735 -17.006)" fill="#d8cfcf"/><path d="M294.192,291.267h60.152a2.037,2.037,0,0,1,2.037,2.037h0v1.538a2.037,2.037,0,0,1-2.037,2.037H294.192a2.807,2.807,0,0,1-2.806-2.806h0a2.807,2.807,0,0,1,2.806-2.806Z" transform="translate(-20.735 -20.727)" fill="#d8cfcf"/><path d="M296.083,297.309h57.158a3.139,3.139,0,0,1,3.139,3.139v16.759a3.139,3.139,0,0,1-3.139,3.139H296.083a4.7,4.7,0,0,1-4.7-4.7h0V302.006a4.7,4.7,0,0,1,4.7-4.7Z" transform="translate(-20.735 -21.157)" fill="#d8cfcf"/><path d="M297.99,257.712h53.594a4.792,4.792,0,0,1,4.792,4.792v21.587a4.792,4.792,0,0,1-4.792,4.792H297.99a6.6,6.6,0,0,1-6.6-6.6V264.316a6.6,6.6,0,0,1,6.6-6.6Z" transform="translate(-20.735 -18.339)" fill="#d8cfcf"/><path d="M326.278,297.31l-7.54,6.419a1.022,1.022,0,0,1-1.443-.072l-.019-.021-6.074-6.329Z" transform="translate(-22.145 -21.156)" fill="#ebe3e3"/><path d="M98.395,0h30.519A71.506,71.506,0,0,1,200.42,71.507h0a71.506,71.506,0,0,1-71.507,71.507H98.395A71.506,71.506,0,0,1,26.888,71.507h0A71.506,71.506,0,0,1,98.395,0Z" transform="translate(-1.913)" fill="#bbf2ff"/><path d="M174.727,126.275h7.054a20.3,20.3,0,0,1,20.3,20.3h0a20.3,20.3,0,0,1-20.3,20.3h-7.054a20.3,20.3,0,0,1-20.3-20.3h0A20.3,20.3,0,0,1,174.727,126.275Z" transform="translate(-10.989 -8.986)" fill="#bbf2ff"/><path d="M109.033,28.027s-44.325,35.87-7.187,63.44,80.464-15.192,51.2-35.448-64.522-20.081-78.4.279,20.631,51.116,34.886,54.492S158.3,93.159,142.92,70.651s-36.762-21.382-40.138-6.377-.351,37.138,14.267,41.264,26.621-36.011,5.241-38.64-12.005,17.631-1.5,17.631,57.768-32.636,36.761-39.763-57.242,4.008-62.27,16.872" transform="translate(-5.082 -1.994)" fill="none" stroke="#29d3f9" stroke-linecap="round" stroke-miterlimit="10" stroke-width="3.68"/><path d="M199.128,305.661V307.1a13.12,13.12,0,0,1-13.308,12.924H148.487A13.12,13.12,0,0,1,135.179,307.1v-1.437a13.12,13.12,0,0,1,13.308-12.923h37.332A13.12,13.12,0,0,1,199.128,305.661Z" transform="translate(-9.619 -20.831)" fill="#da8e74"/><g transform="translate(154.536 254.794)"><g transform="translate(0 0)"><rect width="41.507" height="26.63" rx="13.315" transform="translate(0 17.766)" fill="#da8e74"/><rect width="25.241" height="13.022" rx="6.446" transform="matrix(0.651, -0.759, 0.759, 0.651, 28.795, 19.156)" fill="#da8e74"/><rect width="13.022" height="25.241" rx="6.446" transform="matrix(0.651, -0.759, 0.759, 0.651, 32.366, 15.358)" fill="#da8e74"/><rect width="34.729" height="10.653" rx="5.157" transform="translate(17.704 33.743)" fill="#da8e74"/><rect width="34.088" height="10.653" rx="5.157" transform="matrix(0.72, -0.694, 0.694, 0.72, 21.969, 38.673)" fill="#da8e74"/><rect width="25.24" height="13.021" rx="6.445" transform="matrix(0.651, -0.759, 0.759, 0.651, 11.526, 26.792)" fill="#da8e74"/></g></g><rect width="367.542" height="13.655" rx="6.827" transform="translate(19.79 299.189)" fill="#cd7900"/><g transform="translate(7.544 95.764)"><g transform="translate(19.792 174.365)"><path d="M136.943,290.827H72.2a14.55,14.55,0,0,1,14.57,14.529h0A14.549,14.549,0,0,1,72.2,319.886h64.74a14.548,14.548,0,0,0,14.569-14.528h0a14.549,14.549,0,0,0-14.567-14.53Z" transform="translate(-32.474 -290.825)" fill="#ff9600"/><path d="M39.882,294.3H99.764a11.3,11.3,0,1,1,.192,22.594H39.882Z" transform="translate(-30.174 -291.072)" fill="#fdfbfc"/><path d="M99.02,319.879H32.668a3.233,3.233,0,0,1-3.238-3.229h0a3.233,3.233,0,0,1,3.238-3.228H99.023a8.081,8.081,0,0,0,8.092-8.07h0a8.081,8.081,0,0,0-8.091-8.071H32.668a3.233,3.233,0,0,1-3.238-3.229h0a3.233,3.233,0,0,1,3.238-3.228H99.023a14.548,14.548,0,0,1,14.569,14.528v0a14.548,14.548,0,0,1-14.567,14.528h0Z" transform="translate(-29.43 -290.825)" fill="#ff9600"/></g><g transform="translate(19.792 145.304)"><path d="M136.943,259.54H72.2a14.55,14.55,0,0,1,14.57,14.529h0A14.55,14.55,0,0,1,72.2,288.6h64.74a14.549,14.549,0,0,0,14.569-14.528h0a14.549,14.549,0,0,0-14.567-14.53Z" transform="translate(-32.474 -259.537)" fill="#58cc02"/><path d="M39.882,263.015H99.764a11.3,11.3,0,1,1,.192,22.594H39.882Z" transform="translate(-30.174 -259.784)" fill="#fdfbfc"/><path d="M99.02,288.591H32.668a3.228,3.228,0,1,1,0-6.455H99.023a8.081,8.081,0,0,0,8.092-8.07v0a8.081,8.081,0,0,0-8.091-8.071H32.668a3.233,3.233,0,0,1-3.238-3.229h0a3.233,3.233,0,0,1,3.238-3.228H99.023a14.549,14.549,0,0,1,14.569,14.53h0A14.549,14.549,0,0,1,99.023,288.6h0Z" transform="translate(-29.43 -259.537)" fill="#58cc02"/></g><g transform="translate(24.64 87.182)"><path d="M49.219,196.965h64.74a14.549,14.549,0,0,0-14.57,14.529h0a14.549,14.549,0,0,0,14.569,14.529H49.219a14.529,14.529,0,1,1,0-29.059Z" transform="translate(-34.65 -196.962)" fill="#fed452"/><path d="M146.894,200.44H87.011a11.3,11.3,0,1,0-.192,22.594h60.075Z" transform="translate(-37.563 -197.209)" fill="#fdfbfc"/><path d="M86.771,226.016h66.356a3.228,3.228,0,1,0,0-6.455H86.771a8.08,8.08,0,0,1-8.092-8.07v0a8.08,8.08,0,0,1,8.092-8.07h66.356a3.229,3.229,0,1,0,0-6.457H86.771A14.549,14.549,0,0,0,72.2,211.492h0a14.548,14.548,0,0,0,14.569,14.528Z" transform="translate(-37.322 -196.962)" fill="#fdb23e"/></g><g transform="translate(24.64 58.118)"><path d="M49.219,165.676h64.74A14.549,14.549,0,0,0,99.389,180.2h0a14.548,14.548,0,0,0,14.568,14.528H49.219A14.548,14.548,0,0,1,34.65,180.206h0a14.549,14.549,0,0,1,14.568-14.53Z" transform="translate(-34.65 -165.671)" fill="#c263ff"/><path d="M146.894,169.153H87.011a11.3,11.3,0,1,0-.193,22.594h60.075Z" transform="translate(-37.563 -165.919)" fill="#fdfbfc"/><path d="M86.771,194.729h66.356a3.234,3.234,0,0,0,3.241-3.226V191.5a3.232,3.232,0,0,0-3.237-3.228H86.775a8.08,8.08,0,0,1-8.092-8.07v0a8.081,8.081,0,0,1,8.091-8.071h66.357a3.228,3.228,0,1,0,0-6.456H86.775A14.549,14.549,0,0,0,72.206,180.2h0A14.548,14.548,0,0,0,86.775,194.73Z" transform="translate(-37.323 -165.671)" fill="#c263ff"/></g><g transform="translate(24.64)"><path d="M49.219,103.1h64.74a14.549,14.549,0,0,0-14.57,14.529h0a14.549,14.549,0,0,0,14.569,14.529H49.219a14.529,14.529,0,1,1,0-29.059Z" transform="translate(-34.65 -103.101)" fill="#ff4b4b"/><path d="M146.894,106.576H87.011a11.3,11.3,0,1,0-.193,22.594h60.075Z" transform="translate(-37.563 -103.348)" fill="#fdfbfc"/><path d="M86.771,132.15h66.356a3.228,3.228,0,1,0,0-6.455H86.771a8.081,8.081,0,0,1-8.092-8.07v0a8.08,8.08,0,0,1,8.092-8.07h66.356a3.226,3.226,0,1,0,0-6.453H86.775a14.549,14.549,0,0,0-14.569,14.53h0A14.548,14.548,0,0,0,86.775,132.16Z" transform="translate(-37.323 -103.101)" fill="#ff4b4b"/></g><g transform="translate(0 116.243)"><path d="M115.638,228.253H50.9a14.549,14.549,0,0,1,14.569,14.528h0A14.548,14.548,0,0,1,50.9,257.311h64.739a14.548,14.548,0,0,0,14.569-14.528h0a14.547,14.547,0,0,0-14.566-14.529Z" transform="translate(-11.166 -228.25)" fill="#1cb0f6"/><path d="M18.577,231.728H78.459a11.3,11.3,0,1,1,.192,22.594H18.577Z" transform="translate(-8.866 -228.497)" fill="#fdfbfc"/><path d="M77.714,257.3H11.359a3.232,3.232,0,0,1-3.237-3.228h0a3.231,3.231,0,0,1,3.234-3.228H77.714a8.081,8.081,0,0,0,8.093-8.069v0a8.082,8.082,0,0,0-8.091-8.071H11.359a3.232,3.232,0,0,1-3.237-3.228h0a3.232,3.232,0,0,1,3.236-3.228H77.714a14.549,14.549,0,0,1,14.569,14.53h0a14.547,14.547,0,0,1-14.568,14.527h0Z" transform="translate(-8.122 -228.25)" fill="#129dec"/></g><g transform="translate(0 29.061)"><path d="M115.638,134.39H50.9a14.549,14.549,0,0,1,14.569,14.53h0A14.549,14.549,0,0,1,50.9,163.449h64.74a14.548,14.548,0,0,0,14.569-14.528h0a14.549,14.549,0,0,0-14.567-14.53Z" transform="translate(-11.166 -134.388)" fill="#fed452"/><path d="M18.577,137.866H78.459a11.3,11.3,0,1,1,.192,22.594H18.577Z" transform="translate(-8.866 -134.635)" fill="#fdfbfc"/><path d="M77.714,163.442H11.359a3.228,3.228,0,1,1,0-6.456H77.714a8.082,8.082,0,0,0,8.093-8.069v0a8.082,8.082,0,0,0-8.091-8.071H11.359a3.232,3.232,0,0,1-3.237-3.228h0a3.232,3.232,0,0,1,3.236-3.228H77.714a14.548,14.548,0,0,1,14.569,14.528v0a14.548,14.548,0,0,1-14.567,14.528h0Z" transform="translate(-8.122 -134.388)" fill="#fdb23e"/></g></g><g transform="translate(309.397 158.743)"><path d="M351.613,170.9h31.338a3.7,3.7,0,0,1,3.7,3.7v22.707a12.329,12.329,0,0,1-12.327,12.327H360.243a12.329,12.329,0,0,1-12.329-12.327V174.6A3.7,3.7,0,0,1,351.613,170.9Z" transform="translate(-334.155 -170.905)" fill="#ffaade"/><g transform="translate(0 7.936)"><rect width="21.97" height="23.812" rx="9.993" fill="none"/><rect width="15.651" height="17.493" rx="6.591" transform="translate(3.159 3.159)" fill="none" stroke="#ffaade" stroke-miterlimit="10" stroke-width="6.803"/></g></g><path d="M350.883,257.713l-12.261,8.139a2.008,2.008,0,0,1-2.378-.114l-9.875-8.025Z" transform="translate(-23.225 -18.339)" fill="#ebe3e3"/><path d="M391.264,238.985l-9.561,8.139a1.3,1.3,0,0,1-1.837-.091l-.02-.023-7.7-8.025Z" transform="translate(-26.482 -17.006)" fill="#d8cfcf"/><rect width="31.607" height="59.55" rx="15.803" transform="translate(213.516 183.937) rotate(18.544)" fill="#da8e74"/><path d="M14.172,0H74.837a0,0,0,0,1,0,0V27.828a0,0,0,0,1,0,0H13.656A13.656,13.656,0,0,1,0,14.172v0A14.172,14.172,0,0,1,14.172,0Z" transform="matrix(-0.164, -0.986, 0.986, -0.164, 263.082, 301.316)" fill="#da8e74"/><rect width="34.931" height="34.931" rx="9.813" transform="translate(250.269 192.293) rotate(13.3)" fill="#da8e74"/><g transform="translate(170.794 52.877)"><g transform="translate(21.927 25.777)"><g transform="translate(0 0)" clip-path="url(#b)"><rect width="94.959" height="131.273" rx="38.917" transform="translate(16.485 1.018) rotate(18.544)" fill="#3d3d3d"/></g></g><rect width="122.545" height="28.254" rx="14.127" transform="translate(8.985 70.933) rotate(18.544)" fill="#da8e74"/><rect width="19.682" height="8.278" rx="4.139" transform="matrix(0.991, 0.134, -0.134, 0.991, 44.542, 65.831)" fill="#4b4b4b"/><rect width="19.682" height="8.278" rx="4.139" transform="matrix(-0.871, -0.491, 0.491, -0.871, 96.315, 91.773)" fill="#4b4b4b"/><path d="M13.93,0h0a0,0,0,0,1,0,0V48.652a0,0,0,0,1,0,0h0A13.93,13.93,0,0,1,0,34.722V13.93A13.93,13.93,0,0,1,13.93,0Z" transform="translate(26.798 34.172) rotate(18.544)" fill="#3d3d3d"/><path d="M13.93,0h0a0,0,0,0,1,0,0V48.652a0,0,0,0,1,0,0h0A13.93,13.93,0,0,1,0,34.722V13.93A13.93,13.93,0,0,1,13.93,0Z" transform="translate(119.114 116.454) rotate(-161.456)" fill="#3d3d3d"/><path d="M21.813,0H64.019A21.813,21.813,0,0,1,85.832,21.813V93.555a42.661,42.661,0,0,1-42.661,42.661H27.792A27.792,27.792,0,0,1,0,108.424V21.813A21.813,21.813,0,0,1,21.813,0Z" transform="translate(46.519 19.18) rotate(18.544)" fill="#da8e74"/><path d="M0,0H77.394A17.451,17.451,0,0,1,94.845,17.451V37.692a0,0,0,0,1,0,0H37.692A37.692,37.692,0,0,1,0,0V0A0,0,0,0,1,0,0Z" transform="translate(43.446 0) rotate(18.544)" fill="#3d3d3d"/><path d="M0,0H82.309A12.536,12.536,0,0,1,94.845,12.536v6.31a0,0,0,0,1,0,0h-76A18.846,18.846,0,0,1,0,0V0A0,0,0,0,1,0,0Z" transform="translate(19.536 11.858) rotate(18.544)" fill="#3d3d3d"/><path d="M233.7,142.356a12.059,12.059,0,0,1,7.6,15.268l-2.333,6.954a12.059,12.059,0,1,1-22.866-7.67l2.333-6.954A12.059,12.059,0,0,1,233.7,142.356Z" transform="translate(-186.127 -62.962)" fill="#fff" fill-rule="evenodd"/><path d="M279.693,157.786a12.058,12.058,0,0,1,7.6,15.267l-2.332,6.955a12.059,12.059,0,0,1-22.866-7.67l2.332-6.954A12.058,12.058,0,0,1,279.693,157.786Z" transform="translate(-189.4 -64.06)" fill="#fff" fill-rule="evenodd"/><path d="M234.789,152.425a5.414,5.414,0,0,1,3.411,6.855l-2.162,6.447a5.414,5.414,0,1,1-10.266-3.444l2.162-6.447.11-.3a3.449,3.449,0,0,0,.349.137,3.964,3.964,0,0,0,5.019-2.5,4.028,4.028,0,0,0,.2-1.008A5.479,5.479,0,0,1,234.789,152.425Z" transform="translate(-186.84 -63.705)" fill="#3d3d3d" fill-rule="evenodd"/><path d="M273.818,165.612a5.415,5.415,0,0,1,3.411,6.855l-2.162,6.447A5.414,5.414,0,0,1,264.8,175.47l2.163-6.447.11-.3a3.369,3.369,0,0,0,.349.137,3.967,3.967,0,0,0,5.217-3.505A5.486,5.486,0,0,1,273.818,165.612Z" transform="translate(-189.617 -64.644)" fill="#3d3d3d" fill-rule="evenodd"/><path d="M226.934,98.53s22.91,26.423,59.2,19.858c0,0,10.227,12.344,22.178,7.439l-44.782-21.256Z" transform="translate(-186.943 -59.888)" fill="#3d3d3d"/><path d="M246.864,105.168a38.875,38.875,0,0,0,2.646,6.881c7.671,15.416,24.33,23.559,41.192,21.722l-8.3-16.683Z" transform="translate(-188.361 -60.361)" fill="#3d3d3d" fill-rule="evenodd"/><path d="M215.465,147.546l29.165,9.37-1.117-12.853L232.3,136.8H221.876Z" transform="translate(-186.127 -62.612)" fill="#da8e74"/><path d="M260.006,166.275l30.372,9.757-1.163-13.385-11.68-7.558H266.682Z" transform="translate(-189.296 -63.913)" fill="#da8e74"/><path d="M285.621,184.523s-11.968-3.295-20.029,5.639l7.517,8.6,8.975-4.795Z" transform="translate(-189.694 -65.965)" fill="#da8e74"/><rect width="19.682" height="8.278" rx="4.139" transform="translate(43.956 64.409) rotate(18.544)" fill="#3d3d3d"/><rect width="19.682" height="8.278" rx="4.139" transform="translate(82.582 82.085) rotate(18.544)" fill="#3d3d3d"/><g transform="translate(46.765 131.505)"><path d="M257.133,218.022h-22.9a20.319,20.319,0,0,1,9.846-17.229c10.38-6.42,13.056,2.568,13.056,4.066Z" transform="translate(-234.227 -198.507)" fill="#e85558"/><path d="M234.232,219.12a7.026,7.026,0,0,1,6.421-5.136c5.351-.428,10.488,2.408,11.236,5.136Z" transform="translate(-234.227 -199.606)" fill="#ff6467"/></g><path d="M282.576,205.386s-16.453,1.285-18.058,15.892" transform="translate(-189.617 -67.492)" fill="none" stroke="#d17c65" stroke-linecap="round" stroke-miterlimit="10" stroke-width="3.648"/></g><g transform="translate(300.609 21.115)"><path d="M353.146,85.82l-14.5-2.876a11.489,11.489,0,0,1-1.25-5.089,10.4,10.4,0,0,1,1.3-5.5,5.8,5.8,0,0,1,3.7-3.1,14.7,14.7,0,0,1,5.782.046l9.859,1.971q8.124,1.51,13.79-.335t9.177-8.2a15.7,15.7,0,0,0,1.5-11.858q-1.593-6.271-9.847-10.839a30.013,30.013,0,0,0-10.025-3.471,30.94,30.94,0,0,0-10.369.151,13.155,13.155,0,0,1-1.086-4.333,8.306,8.306,0,0,1,1.139-4.759,9.1,9.1,0,0,1,6.2-4.456,23.236,23.236,0,0,1,10.221.262,45.4,45.4,0,0,1,12.277,4.8q9.4,5.2,14.207,12.255a27.834,27.834,0,0,1,5.06,14.991,30.08,30.08,0,0,1-4.033,15.685,31.777,31.777,0,0,1-10.4,11.751,29.1,29.1,0,0,1-14.121,4.381A75.374,75.374,0,0,1,353.146,85.82Zm-28.09,14.489a10.365,10.365,0,0,1,5.959-5.082,11.058,11.058,0,0,1,13.214,7.305,10.391,10.391,0,0,1-1.137,7.75,10.13,10.13,0,0,1-5.927,5.015,11.264,11.264,0,0,1-13.208-7.306,10.117,10.117,0,0,1,1.1-7.682Z" transform="translate(-323.639 -22.733)" fill="#0064d6"/></g></g></svg>