<svg xmlns="http://www.w3.org/2000/svg" width="417.103" height="517.039" viewBox="0 0 417.103 517.039"><g transform="translate(-1079.75 -146.401)"><path d="M190.1,474.382a49.032,49.032,0,0,1-3.51-20.112,25.07,25.07,0,0,1-4.547-3.056c-7.579-6.84-32.044-13.312-40.41-1.375-.9,7.663-4.071,14.224-9.608,18.59-14.863,11.723-41.124,3.208-58.654-19.02-7.581-9.612-12.289-20.214-13.988-30.1A126.213,126.213,0,0,1,39.934,401.5a17.667,17.667,0,0,1-6.768-32,63.322,63.322,0,0,1,10.661-11.729C23.12,344.879,7.663,324.6,2.14,299.711c-7.812-35.207,6.3-70.477,33.619-93.059a11.109,11.109,0,0,1-3.621-21.568l26.915-9.634c-1.181-14.754,2.339-26.1,10.471-33.74A36.578,36.578,0,0,1,82.581,134a55.438,55.438,0,0,1,13.464-2.8c.012-.14.025-.28.042-.42.808-6.566,8.049-11.078,16.173-10.078s14.054,7.132,13.246,13.7-8.049,11.077-16.172,10.078c-6.551-.806-11.677-4.951-12.992-9.968l-.043,0c-7.195.643-17.287,2.837-24.512,9.633-7.189,6.761-10.377,16.9-9.489,30.146l25.245-9.036a11.1,11.1,0,0,1,12.641,17.1,105.711,105.711,0,0,1,22.465,1.571,85.093,85.093,0,0,1,3.508-12.529,3.728,3.728,0,0,1,2.291-2.251l9.927-3.443a1.563,1.563,0,0,1,1.96,2.074c-2.732,6.666-4.329,15.723-4.975,19.257a101.473,101.473,0,0,1,19.3,8.307l4.037-20.607a7.2,7.2,0,0,1,8.45-5.682l4.443.871a7.125,7.125,0,0,1,1.689-.094,33.97,33.97,0,0,1,8.846-14.9A3.337,3.337,0,0,1,184.29,154l10.566-.444a1.163,1.163,0,0,1,.91,1.936c-6.537,7.425-9.02,12.853-10.037,16.711l78.723,15.425a7.2,7.2,0,0,1,5.681,8.45l-8.91,45.47a6.661,6.661,0,0,1,2.858,7.054l-5.062,23.407,4.459.22a8.218,8.218,0,0,1,7.484,10.517l-1.639,5.6s15.605,14.753,24.2,18.593,17.922,16.094,7.316,32.919-15.913,29.079-36.76,42.8c-2.777,1.828-7.436,3.917-13.428,6.168a87.881,87.881,0,0,1-12.25,4.521c-3.224,1.053-6.124,1.787-7.693,2.158-1.133.348-2.286.7-3.451,1.05,1.167,9.66,2.07,20.119,2.452,31.014q.078,2.234.032,4.279a47.39,47.39,0,0,1,15.489,20.739c7.969,20.156,2.088,41.374-13.135,47.392a23.024,23.024,0,0,1-8.5,1.6C210.444,501.583,196.637,490.9,190.1,474.382ZM68.846,369.661q.556-.192,1.092-.392c-.457-.128-.915-.261-1.37-.4Zm256.026-90.05-3.093-3.164-.779.572a3.31,3.31,0,0,1-4.627-.711l-1.326-1.807a3.31,3.31,0,0,1-4.253-1.37l-14.059-24.646a3.31,3.31,0,0,1,1.235-4.514l40.116-22.882,1.843-1.352a6.1,6.1,0,1,1,8.73,3.151L365.389,240a3.31,3.31,0,0,1-.052,4.681l-35.785,34.987a3.309,3.309,0,0,1-4.68-.053ZM276.033,171.249a1.207,1.207,0,0,1,.059-1.706l2.786-2.6-.03-.032a2.164,2.164,0,0,1,2.78-3.279c.742-.7,5.554-5.222,7.354-6.891,2.1-1.948,2.444-3.268,1.365-5.23-.544-.993-1.237-1.093-3.506-.947a11.168,11.168,0,0,1-4.055-.254l-.081-.024c-3.1-1.12-5.181-2.921-6.188-5.353a10.462,10.462,0,0,1,.267-7.763l.038-.068,12.361-23.6q-.454-.184-.9-.392a16.728,16.728,0,0,1-14.519-5.839l-2.327-2.75a16.744,16.744,0,0,1,1.966-23.6l17.858-15.112a16.745,16.745,0,0,1,23.6,1.966l2.327,2.75q.445.526.841,1.078.167-.306.33-.614c11.164-21.024,5.565-45.924-12.479-55.506C289.909,7,269.458,13.322,257.226,29.462a17.822,17.822,0,0,1,10,25.214L257.248,73.47a17.81,17.81,0,0,1-22.817,7.988l-16.644,38.463-49.154,22.828a2.24,2.24,0,0,1-3.19-2.126l.34-8.568L160.7,133.87a1.77,1.77,0,0,1-2.345-1.931l1.291-8.524-3.732.794a1.721,1.721,0,0,1-1.949-2.34l4.064-9.841-5.619.088a3.445,3.445,0,0,1-2.841-1.421l-5.378-7.4-5.213-.169a2.859,2.859,0,0,1-2.408-4.242l38.653-69.9a2.857,2.857,0,0,1,3.118-1.409l46.629,10.284a18.135,18.135,0,0,1,18.4-8.644c14.546-25.651,44.7-36.472,68-24.1,23.756,12.619,31.537,44.632,17.339,71.37a61.5,61.5,0,0,1-8.509,12.216,18.113,18.113,0,0,1-6.219,16.519l-6.282,5.316a18.087,18.087,0,0,1-15.032,3.982l-12.673,24.189a6.834,6.834,0,0,0-.181,4.877,6.456,6.456,0,0,0,4.046,3.32,8.522,8.522,0,0,0,2.741.094c2.174-.14,5.151-.334,6.867,2.791,2.785,5.068-.868,8.454-2.068,9.568-1.852,1.714-6.9,6.466-7.393,6.928a2.165,2.165,0,0,1-3.492,2.42l-2.788,2.6a1.205,1.205,0,0,1-1.706-.059Z" transform="translate(1097.85 152.563)" fill="#777" stroke="#fff" stroke-miterlimit="10" stroke-width="12"/><g transform="translate(1079.75 152.561)"><g transform="translate(0 0)"><rect width="106.346" height="118.483" rx="7.2" transform="matrix(0.981, 0.192, -0.192, 0.981, 185.621, 168.568)" fill="#777"/><rect width="106.346" height="118.483" rx="7.2" transform="matrix(0.981, 0.192, -0.192, 0.981, 178.544, 167.67)" fill="#8c8c8c"/><path d="M-2278.81,3690.222s-25.807,16.7-25.3,31.88,36.94,49.084,63.084,53.638l-23.615-66.794Z" transform="translate(2351.528 -3340.48)" fill="#58cc02"/><g transform="translate(116.118 153.56)"><path d="M-2203.618,3524.061l-9.927,3.442a3.728,3.728,0,0,0-2.292,2.25c-1.261,3.469-3.989,11.739-4.363,19.294-.488,9.876-.854,24.629-.854,24.629l13.9-7.56s-.243-16.672.4-20.056c.548-2.9,2.172-12.784,5.1-19.925A1.563,1.563,0,0,0-2203.618,3524.061Z" transform="translate(2244.341 -3511.916)" fill="#65a20e"/><path d="M-2162.633,3513.53a3.337,3.337,0,0,0-2.166.926,34.434,34.434,0,0,0-10.218,23.875c-.428,16.276,0,20.849,0,20.849l12.924-1.525s-.489-16.519,0-19.751c.464-3.072-.451-9.948,10.937-22.88a1.163,1.163,0,0,0-.91-1.936Z" transform="translate(2249.27 -3513.086)" fill="#65a20e"/><path d="M-2228.911,3569.951s61.213-29,111.654-19.7a3.8,3.8,0,0,1,2.933,4.928c-2.965,8.895-9,32.076-4.857,64.269l33.165-22.166a6.76,6.76,0,0,1,10.364,7.049l-5.062,23.407,4.459.219a8.219,8.219,0,0,1,7.484,10.517l-1.639,5.6s15.606,14.753,24.2,18.593,17.922,16.094,7.315,32.92-15.912,29.079-36.76,42.8-147.772,42.247-147.772,42.247l-18.655-109,7.682-63.279Z" transform="translate(2242.08 -3509.287)" fill="#58cc02"/></g><ellipse cx="29.639" cy="39.244" rx="29.639" ry="39.244" transform="translate(194.14 437.889) rotate(-21.572)" fill="#0056d6"/><path d="M-2259,3716.3s-10.054,5.4-15.826,4.282-21.782,11.17-8.75,22.714,47.662,3.91,47.662,3.91l42.634,52.5c8.192-12.288,32.954-5.771,40.587,1.117s49.337,24.2,47.662-23.644a389.973,389.973,0,0,0-13.406-87.318s14.522-35.932,16.57-75.216l-19.735-9.309s-24.2,34.629-32.767,62.742Z" transform="translate(2353.202 -3349.607)" fill="#0064d6"/><ellipse cx="34.275" cy="51.257" rx="34.275" ry="51.257" transform="matrix(0.785, -0.619, 0.619, 0.785, 60.097, 409.166)" fill="#0052cc"/><ellipse cx="17.664" cy="17.664" rx="17.664" ry="17.664" transform="translate(43.89 366.459)" fill="#01357a"/><ellipse cx="101.487" cy="95.115" rx="101.487" ry="95.115" transform="translate(0 206.857) rotate(-12.511)" fill="#0075d6"/><ellipse cx="20.83" cy="20.141" rx="20.83" ry="20.141" transform="translate(226.761 264.931) rotate(-82.985)" fill="#01357a"/><path d="M-2109.987,3622.346c-3.041.525-7.589-.7-9.243-1a41.551,41.551,0,0,1-14.037-5.007c-5.168-3.109-12.059-10.07-11.443-16.743a3.176,3.176,0,0,1,3.837-3c3.39.657,4.105,4.527,5.8,6.949,3.908,5.582,10.736,8.739,16.954,10.989,2.9,1.049,5.987,1.426,8.854,2.51C-2105.995,3618.281-2106.834,3621.8-2109.987,3622.346Z" transform="translate(2368.663 -3350.554)" fill="#01357a"/><path d="M-2249.936,3573c32.377-8.432,64.758,4.914,78.687,30.43l17.271-4.5c-16.391-33.927-58.161-52.058-99.928-41.181s-69.39,47.075-67.153,84.688l17.271-4.5C-2304.074,3608.875-2282.314,3581.432-2249.936,3573Z" transform="translate(2349.693 -3355.062)" fill="#fff"/><path d="M-2218.776,3688.414c-32.378,8.43-64.758-4.915-78.687-30.43l-17.271,4.5c16.391,33.928,58.16,52.058,99.928,41.182s69.39-47.076,67.152-84.687l-17.271,4.5C-2164.639,3652.541-2186.4,3679.982-2218.776,3688.414Z" transform="translate(2350.387 -3348.141)" fill="#fff"/><g transform="translate(50.113 264.363)"><rect width="32.538" height="45.334" rx="16" transform="translate(0 9.377) rotate(-16.75)" fill="#fff"/><rect width="15.797" height="26.043" rx="7.898" transform="translate(13.582 17.558) rotate(-16.749)"/><path d="M-2281.515,3631.848a3.95,3.95,0,0,1-2.645,4.92,3.948,3.948,0,0,1-4.919-2.643,3.949,3.949,0,0,1,2.643-4.92A3.952,3.952,0,0,1-2281.515,3631.848Z" transform="translate(2303.334 -3614.329)" fill="#fff"/></g><g transform="translate(129.527 241.714)"><rect width="32.538" height="45.334" rx="16" transform="translate(-0.001 9.377) rotate(-16.75)" fill="#fff"/><rect width="15.133" height="24.949" rx="7.567" transform="translate(9.2 18.806) rotate(-16.754)"/><path d="M-2215.991,3611.593a3.785,3.785,0,0,1-2.532,4.714,3.784,3.784,0,0,1-4.713-2.534,3.783,3.783,0,0,1,2.532-4.713A3.784,3.784,0,0,1-2215.991,3611.593Z" transform="translate(2233.082 -3592.824)" fill="#fff"/></g><g transform="translate(43.239 118.89)"><path d="M-2300.52,3543.539l55.406-19.832a11.141,11.141,0,0,1,14.2,6.717,11.142,11.142,0,0,1-6.717,14.205l-55.406,19.831a11.143,11.143,0,0,1-14.205-6.716A11.145,11.145,0,0,1-2300.52,3543.539Z" transform="translate(2307.884 -3477.343)" fill="#01357a"/><ellipse cx="11.978" cy="14.821" rx="11.978" ry="14.821" transform="translate(69.851 23.776) rotate(-82.985)" fill="#01357a"/><path d="M-2225.328,3494.693s-54.9-8.67-50,43.249" transform="translate(2311.351 -3480.452)" fill="none" stroke="#01357a" stroke-miterlimit="10" stroke-width="4"/></g><path d="M-2148.211,3612.037" transform="translate(2368.291 -3348.887)" fill="#01357a"/><g transform="translate(172.184 266.827)"><path d="M-2150.563,3616.092s-45.561,10.661-40.5,52.73,43.672,73.189,75.367,75.494c0,0,14.048-2.954,20.747-7.924,0,0-38.373-14.912-48.253-56.188s3.9-64.847,3.9-64.847Z" transform="translate(2191.457 -3615.357)" fill="#58cc02"/><path d="M-2097.341,3728.542s-22.21-9.427-37.176-31.243l-30.609,16.338c14.052,12.756,31.142,20.745,46.6,21.869C-2118.529,3735.506-2104.962,3732.269-2097.341,3728.542Z" transform="translate(2194.288 -3606.546)" fill="#d7ffb8"/></g><g transform="translate(154.678 27.512)"><path d="M-2178.906,3457.217l-1.966,49.51a2.246,2.246,0,0,0,3.19,2.126l49.155-22.828-21.242-33.074a2.247,2.247,0,0,0-2.17-1.015l-25,3.141A2.244,2.244,0,0,0-2178.906,3457.217Z" transform="translate(2210.101 -3393.614)" fill="#e7338a"/><path d="M-2182.026,3463l-5.24,34.6a1.77,1.77,0,0,0,2.346,1.932l55.841-19.952a1.77,1.77,0,0,0,.85-2.69l-14.286-20.169a1.77,1.77,0,0,0-1.711-.727l-36.315,5.518A1.769,1.769,0,0,0-2182.026,3463Z" transform="translate(2209.411 -3393.177)" fill="#ffc7e2"/><path d="M-2182.214,3465.869l-9.005,21.8a1.721,1.721,0,0,0,1.948,2.34l61.285-13.034a1.721,1.721,0,0,0,1.115-2.572l-11.358-18.852a1.722,1.722,0,0,0-1.886-.783l-40.922,10.085A1.719,1.719,0,0,0-2182.214,3465.869Z" transform="translate(2208.974 -3393.313)" fill="#ffc7e2"/><path d="M-2203.137,3463.938l8.789,12.1a3.445,3.445,0,0,0,2.842,1.421l66.151-1.033-20.736-17.406Z" transform="translate(2207.707 -3392.851)" fill="#ffc7e2"/><path d="M-2106.157,3412.769l10.358,9.841-29.89,69.076-10.753-14.581-68.051-2.217a2.86,2.86,0,0,1-2.409-4.242l38.653-69.9a2.859,2.859,0,0,1,3.118-1.409l57.621,12.709A2.866,2.866,0,0,1-2106.157,3412.769Z" transform="translate(2207.263 -3399.274)" fill="#ff6fb5"/><line y1="58.505" x2="27.886" transform="translate(71.732 16.228)" fill="none" stroke="#e7338a" stroke-linecap="round" stroke-miterlimit="10" stroke-width="2"/><line y1="0.683" x2="43.695" transform="translate(25.168 83.783)" fill="none" stroke="#ffa7d2" stroke-linecap="round" stroke-miterlimit="10" stroke-width="1"/><line y1="8.534" x2="43.113" transform="translate(25.749 86.879)" fill="none" stroke="#ffa7d2" stroke-linecap="round" stroke-miterlimit="10" stroke-width="1"/></g><g transform="translate(313.56 211.497)"><rect width="34.994" height="56.665" rx="3.31" transform="matrix(0.591, 0.806, -0.806, 0.591, 48.228, 5.75)" fill="#afafaf"/><rect width="34.994" height="56.665" rx="3.31" transform="matrix(0.495, 0.869, -0.869, 0.495, 49.22, 6.038)" fill="#e5e5e5"/><rect width="34.994" height="56.665" rx="3.31" transform="translate(48.144 5.847) rotate(45.646)" fill="#f7f7f7"/><rect width="2.616" height="29.138" rx="0.907" transform="matrix(0.699, 0.715, -0.715, 0.699, 44.25, 15.4)" fill="#e5e5e5"/><rect width="2.616" height="29.138" rx="0.907" transform="translate(49.08 19.978) rotate(45.646)" fill="#e5e5e5"/><rect width="2.616" height="29.138" rx="0.907" transform="translate(54.827 25.199) rotate(45.646)" fill="#e5e5e5"/><ellipse cx="2.255" cy="2.255" rx="2.255" ry="2.255" transform="translate(46.153 9.874)" fill="#777"/><path d="M-2023.275,3573.67a6.076,6.076,0,0,1-.052-4.206,6.094,6.094,0,0,1,7.778-3.716,6.1,6.1,0,0,1,3.717,7.778,6.073,6.073,0,0,1-2.726,3.263,6.078,6.078,0,0,1-5.053.453" transform="translate(2068.12 -3565.398)" fill="none" stroke="#afafaf" stroke-linecap="round" stroke-miterlimit="10" stroke-width="2"/></g><g transform="translate(237.031)"><path d="M-2076.328,3525.177h0a1.207,1.207,0,0,1-.06,1.706l-2.893,2.7a1.206,1.206,0,0,1-1.706-.06h0a1.207,1.207,0,0,1,.06-1.707l2.892-2.7A1.208,1.208,0,0,1-2076.328,3525.177Z" transform="translate(2138.453 -3358.267)" fill="#777"/><path d="M-2078.311,3522.439h0a2.164,2.164,0,0,1,3.059.109l1.6,1.719a2.165,2.165,0,0,1-.108,3.059h0a2.165,2.165,0,0,1-3.059-.107l-1.6-1.72A2.164,2.164,0,0,1-2078.311,3522.439Z" transform="translate(2138.701 -3358.583)" fill="#303030"/><path d="M-2073.057,3529.868l-2.448-2.6c.055-.052,5.508-5.18,7.45-6.983,2.1-1.947,2.444-3.267,1.365-5.23-.545-.992-1.237-1.093-3.507-.947a11.164,11.164,0,0,1-4.055-.254l-.081-.024c-3.1-1.12-5.181-2.92-6.188-5.353a10.46,10.46,0,0,1,.267-7.764l.038-.069,13.039-24.895,3.163,1.658-13.018,24.846a6.836,6.836,0,0,0-.18,4.878,6.456,6.456,0,0,0,4.046,3.32,8.533,8.533,0,0,0,2.742.093c2.174-.141,5.15-.333,6.867,2.791,2.784,5.068-.868,8.454-2.068,9.568C-2067.563,3524.7-2073,3529.818-2073.057,3529.868Z" transform="translate(2138.471 -3363.54)" fill="#303030"/><path d="M-2092.124,3402.264h0a17.809,17.809,0,0,1,7.378,24.08l-9.978,18.793a17.808,17.808,0,0,1-24.08,7.38h0a17.809,17.809,0,0,1-7.378-24.08l9.978-18.795A17.808,17.808,0,0,1-2092.124,3402.264Z" transform="translate(2133.405 -3371.665)" fill="#4b4b4b"/><path d="M-2034.409,3464.042l-8.577-8.007a49.685,49.685,0,0,0,7.545-10.609c11.164-21.024,5.565-45.924-12.479-55.505s-41.807-.274-52.975,20.75l-10.359-5.5c14.2-26.736,45.079-38.229,68.835-25.611s31.537,44.632,17.339,71.37A61.46,61.46,0,0,1-2034.409,3464.042Z" transform="translate(2135.234 -3374.433)" fill="#303030"/><path d="M-2041.109,3447.006h0a18.124,18.124,0,0,1-2.128,25.543l-6.282,5.316a18.124,18.124,0,0,1-25.543-2.128h0a18.124,18.124,0,0,1,2.128-25.542l6.282-5.315A18.123,18.123,0,0,1-2041.109,3447.006Z" transform="translate(2138.664 -3367.321)" fill="#303030"/><rect width="56.883" height="37.091" rx="16.745" transform="matrix(0.763, -0.646, 0.646, 0.763, 42.058, 91.742)" fill="#4b4b4b"/><path d="M-2102.419,3402.739h0a18.123,18.123,0,0,1,7.507,24.507l-3.858,7.267a18.125,18.125,0,0,1-24.507,7.508h0a18.124,18.124,0,0,1-7.507-24.507l3.858-7.268A18.124,18.124,0,0,1-2102.419,3402.739Z" transform="translate(2132.906 -3371.618)" fill="#303030"/><rect width="38.762" height="18.671" rx="8.429" transform="matrix(0.763, -0.646, 0.646, 0.763, 53.05, 91.524)" fill="#303030"/></g></g><g transform="matrix(0.259, 0.966, -0.966, 0.259, 405.767, 122.096)"><path d="M0,38.29,23.837,0,43.8,12.173,19.967,50.463Z" transform="translate(0 2.55)" fill="#ffd300"/><path d="M1.549,24.084a3.216,3.216,0,0,1-1.088-4.4L11.471,1.519A3.166,3.166,0,0,1,15.835.469a3.217,3.217,0,0,1,1.088,4.405L5.913,23.034A3.166,3.166,0,0,1,1.549,24.084Z" transform="translate(10.755 16.232)" fill="#ffe600"/><path d="M0,4.38,1.63,1.636C3.157-.549,6.153-.351,8.908,1.088l6.165,3.757c2.755,1.44,4.809,4.8,3.282,6.984l-1.762,2.664Z" transform="translate(24.921 0)" fill="#ffafaf"/><path d="M.534,1.374C1.554-.185,3.666-.382,5.447.6l16.278,9.92a3.235,3.235,0,0,1,1.378,4.6,3.872,3.872,0,0,1-5.071,1.038L1.753,6.245A3.478,3.478,0,0,1,.534,1.374Z" transform="translate(20.514 2.195)" fill="#8e8e8e"/><path d="M0,0,1.978,17.178A1.423,1.423,0,0,0,3.9,18.344l16.066-6.171Z" transform="translate(0 40.84)" fill="#fff2b4"/><g transform="translate(1.146 50.792)"><path d="M.832,7.226A1.423,1.423,0,0,0,2.756,8.392L9.569,5.774,0,0Z" fill="#4c4c4c"/></g></g></g></g></svg>