<svg xmlns="http://www.w3.org/2000/svg" xmlns:xlink="http://www.w3.org/1999/xlink" width="1920" height="710" viewBox="0 0 1920 710"><defs><clipPath id="a"><rect width="1920" height="710" transform="translate(0 70)" fill="#fff" stroke="#707070" stroke-width="1"/></clipPath><clipPath id="b"><path d="M-22429-14653.172s437.666,124.39,840.67,137.561,758.766-96.584,1095.34-86.341c1.477,0,0-692.2,0-692.2H-22429Z" transform="translate(-2194.664 -70.853)" fill="none" stroke="#707070" stroke-width="1"/></clipPath></defs><g transform="translate(0 -70)" clip-path="url(#a)"><g transform="translate(24623.666 15365)" clip-path="url(#b)"><rect width="1936.774" height="839" transform="translate(-24623.666 -15365.853)" fill="#0064d6"/><g transform="translate(-24614 -15365)" opacity="0.1"><circle cx="266" cy="266" r="266" transform="translate(442 421)" fill="#fff"/><circle cx="66.5" cy="66.5" r="66.5" transform="translate(1572 495)" fill="#fff"/><circle cx="14.5" cy="14.5" r="14.5" transform="translate(147 448)" fill="#fff"/><circle cx="131.5" cy="131.5" r="131.5" transform="translate(-27 70)" fill="#fff"/><circle cx="42" cy="42" r="42" transform="translate(1863 365)" fill="#fff"/></g></g></g></svg>