<svg xmlns="http://www.w3.org/2000/svg" xmlns:xlink="http://www.w3.org/1999/xlink" width="258.833" height="202.612" viewBox="0 0 258.833 202.612"><defs><clipPath id="a"><rect width="195.844" height="164.622" fill="none" stroke="#707070" stroke-width="1"/></clipPath></defs><g transform="translate(-362.584 -3528.704)"><g transform="translate(-972.42 3270.271)"><g transform="translate(1507.705 287.062)"><path d="M344.5,135.854a2.525,2.525,0,0,0-2.4-.19l-13.458,5.981a2.523,2.523,0,0,0-1.5,2.306v31.639a10.09,10.09,0,1,0,5.047,8.736V155.684l11.959-5.315a2.523,2.523,0,0,0,1.5-2.306V137.969A2.523,2.523,0,0,0,344.5,135.854Z" transform="translate(-259.513 -117.034)" fill="#ce82ff"/><path d="M53.832,28.523a2.523,2.523,0,0,0-3.461-2.343L16.727,39.638a2.523,2.523,0,0,0-1.586,2.343V78.666A10.09,10.09,0,1,0,20.187,87.4V53.783l28.6-11.439V65.208a10.09,10.09,0,1,0,5.047,8.736Z" transform="translate(0 -25.999)" fill="#ce82ff"/></g><g transform="translate(1373.355 296.423)" clip-path="url(#a)"><g transform="translate(-34.825 -16.094)"><rect width="2.852" height="7.521" rx="1.426" transform="translate(207.74 170.436) rotate(-8)" fill="#777"/><rect width="5.113" height="7.891" rx="2.557" transform="matrix(-0.139, -0.99, 0.99, -0.139, 205.379, 172.379)" fill="#303030"/><g transform="translate(0 87.13) rotate(-38)"><path d="M18.281,63.149l-3.662-2.092c.044-.077,4.43-7.752,6-10.46,1.7-2.924,1.632-4.534-.264-6.378-.958-.932-1.775-.807-4.288.143A13.206,13.206,0,0,1,11.4,45.477l-.1,0c-3.887-.193-6.861-1.508-8.838-3.907A12.352,12.352,0,0,1,.081,32.71L.1,32.62,6.223,0l4.145.779L4.252,33.337a8.076,8.076,0,0,0,1.481,5.571c1.184,1.421,3.107,2.212,5.717,2.351a10.054,10.054,0,0,0,3.129-.843c2.407-.909,5.7-2.155,8.719.78,4.895,4.761,1.941,9.847.971,11.519C22.7,55.41,18.325,63.072,18.281,63.149Z" transform="translate(98.881 129.315)" fill="#303030"/><rect width="42.055" height="67.18" rx="21.028" transform="matrix(0.982, 0.19, -0.19, 0.982, 22.358, 43.523)" fill="#4b4b4b"/><path d="M107.126,93.585,94.674,87.506a58.662,58.662,0,0,0,4.855-14.589c5.343-27.6-9.584-53.787-33.273-58.372S18.946,28.683,13.6,56.284L0,53.651C6.8,18.549,37.7-5.1,68.889.941s51.038,39.507,44.243,74.609A72.525,72.525,0,0,1,107.126,93.585Z" transform="translate(23.516 0)" fill="#303030"/><rect width="42.809" height="52.528" rx="21.405" transform="translate(105.518 71.93) rotate(32.749)" fill="#303030"/><rect width="43.805" height="67.18" rx="21.902" transform="translate(101.353 59.799) rotate(32.749)" fill="#4b4b4b"/><rect width="42.809" height="52.528" rx="21.405" transform="translate(9.982 47.77) rotate(10.955)" fill="#303030"/><rect width="22.051" height="45.779" rx="11.025" transform="translate(102.115 73.754) rotate(32.749)" fill="#303030"/></g></g></g></g><path d="M112.837,15.267,106.12,8.551a3.166,3.166,0,0,0-4.477,0l-6.716,6.716a3.166,3.166,0,0,0,0,4.477l6.716,6.716a3.166,3.166,0,0,0,4.477,0l6.717-6.716A3.167,3.167,0,0,0,112.837,15.267Z" transform="translate(401.57 3529.944)" fill="#ce82ff" opacity="0.34"/><path d="M97.366,176.729l-6.717-6.716a3.167,3.167,0,0,0-4.477,0l-6.716,6.716a3.166,3.166,0,0,0,0,4.477l6.716,6.716a3.167,3.167,0,0,0,4.477,0l6.717-6.716A3.166,3.166,0,0,0,97.366,176.729Z" transform="translate(284.055 3486.192)" fill="#ce82ff" opacity="0.38"/><path d="M84.3,5.4,79.555.655a2.234,2.234,0,0,0-3.16,0L71.655,5.4a2.235,2.235,0,0,0,0,3.16L76.4,13.3a2.234,2.234,0,0,0,3.16,0L84.3,8.555A2.234,2.234,0,0,0,84.3,5.4Z" transform="translate(397.832 3528.704)" fill="#ce82ff" opacity="0.79"/></g></svg>