<svg xmlns="http://www.w3.org/2000/svg" width="238.902" height="309.033" viewBox="0 0 238.902 309.033"><g transform="translate(-2020.522 -2215.249)"><path d="M2032.477,2304.611a34.144,34.144,0,0,1,34.143-34.143h158.662a34.144,34.144,0,0,1,34.142,34.143v158.664a34.144,34.144,0,0,1-34.142,34.142H2066.62a34.144,34.144,0,0,1-34.143-34.142V2304.611Z" fill="#58cc02"/><line x2="123.234" y2="10.82" transform="translate(2075.445 2481.54)" fill="none" stroke="#ff4b4b" stroke-linecap="round" stroke-miterlimit="10" stroke-width="4.391" stroke-dasharray="10.306"/><path d="M2074.327,2472.4s3.616-71.283,68.941-58.4,89.389-77.628,10.067-96.62" fill="none" stroke="#fff" stroke-linecap="round" stroke-miterlimit="10" stroke-width="4.391" stroke-dasharray="10.306"/><g transform="matrix(0.996, 0.087, -0.087, 0.996, 205.727, -177.331)"><path d="M2095.177,2260.861a38.647,38.647,0,1,1,42.243,34.682A38.648,38.648,0,0,1,2095.177,2260.861Z" fill="#1cb0f6"/><path d="M2117.759,2258.642a15.957,15.957,0,1,1,17.442,14.319A15.958,15.958,0,0,1,2117.759,2258.642Z" fill="#fff"/><path d="M2134.875,2314l-21.843-27.567,47.483-4.666-16.058,31.29a5.728,5.728,0,0,1-9.582.943Z" fill="#1cb0f6"/></g><line x2="55.649" y2="31.178" transform="translate(2192.621 2472.206)" fill="none" stroke="#ff4b4b" stroke-linecap="round" stroke-miterlimit="10" stroke-width="12.727"/><line y1="55.649" x2="31.178" transform="translate(2204.856 2459.971)" fill="none" stroke="#ff4b4b" stroke-linecap="round" stroke-miterlimit="10" stroke-width="12.727"/><g transform="translate(-8.274)"><path d="M36.983,0H46.1A36.983,36.983,0,0,1,83.085,36.983V71.151A11.934,11.934,0,0,1,71.151,83.085H11.934A11.934,11.934,0,0,1,0,71.151V36.983A36.983,36.983,0,0,1,36.983,0Z" transform="matrix(0.981, -0.195, 0.195, 0.981, 2084.87, 2367.546)" fill="#cd7900"/><rect width="102.517" height="21.559" rx="9.596" transform="matrix(-0.981, 0.195, -0.195, -0.981, 2191.876, 2428.724)" fill="#ffc6b7"/><path d="M2168.905,2389.938a25.854,25.854,0,0,0-30.313-20.251l-20.638,4.108a25.853,25.853,0,0,0-20.251,30.312l7.727,38.829a25.671,25.671,0,0,0,10.638,16.125l-.021,0,16.931,11.637a20.519,20.519,0,0,0,28.834-5.738l10.942-16.857.013-.02.23-.355-.019,0a25.668,25.668,0,0,0,3.654-18.968Z" fill="#ffc6b7"/><path d="M6.3,0H7.851a6.3,6.3,0,0,1,6.3,6.3v5.035A12.082,12.082,0,0,1,2.066,23.415H.127A.127.127,0,0,1,0,23.288V6.3A6.3,6.3,0,0,1,6.3,0Z" transform="matrix(0.981, -0.195, 0.195, 0.981, 2095.35, 2395.142)" fill="#cd7900"/><path d="M11.734,0H58.173A12.475,12.475,0,0,1,70.648,12.475v3.076A12.475,12.475,0,0,1,58.173,28.027H0a0,0,0,0,1,0,0V11.734A11.734,11.734,0,0,1,11.734,0Z" transform="matrix(0.981, -0.195, 0.195, 0.981, 2092.45, 2377.708)" fill="#cd7900"/><path d="M2120.377,2419.726a9.2,9.2,0,0,1,10.821,7.229l1.092,5.489a9.2,9.2,0,0,1-18.05,3.592l-1.092-5.49A9.2,9.2,0,0,1,2120.377,2419.726Z" fill="#fff" fill-rule="evenodd"/><path d="M2154.1,2413.014a9.2,9.2,0,0,1,10.821,7.229l1.092,5.49a9.2,9.2,0,1,1-18.05,3.592l-1.092-5.49A9.2,9.2,0,0,1,2154.1,2413.014Z" fill="#fff" fill-rule="evenodd"/><path d="M2124.165,2425.757a4.131,4.131,0,0,1,4.858,3.246l1.013,5.089a4.131,4.131,0,1,1-8.1,1.612l-1.013-5.089-.041-.239a2.709,2.709,0,0,0,.283-.041,3.026,3.026,0,0,0,2.126-4.3A4.238,4.238,0,0,1,2124.165,2425.757Z" fill="#3d3d3d" fill-rule="evenodd"/><path d="M2155.21,2421.219a4.132,4.132,0,0,1,4.858,3.246l1.012,5.089a4.131,4.131,0,1,1-8.1,1.613l-1.013-5.089-.04-.239c.094-.009.188-.023.283-.042a3.03,3.03,0,0,0,2.126-4.3A4.228,4.228,0,0,1,2155.21,2421.219Z" fill="#3d3d3d" fill-rule="evenodd"/><path d="M2130.076,2410.263a20.381,20.381,0,0,1-17.132,9.962,1.986,1.986,0,0,1,.09-3.971,16.419,16.419,0,0,0,13.62-8.011,1.987,1.987,0,0,1,3.422,2.02Zm10.413-5.155a20.381,20.381,0,0,0,19.818-.148,1.986,1.986,0,0,0-2.1-3.372h0a16.418,16.418,0,0,1-15.8.041,1.986,1.986,0,0,0-1.916,3.479Z" fill="#3d3d3d" fill-rule="evenodd"/><path d="M10.328,0H59.576a0,0,0,0,1,0,0V26.1a0,0,0,0,1,0,0H12.91A12.91,12.91,0,0,1,0,13.193V10.328A10.328,10.328,0,0,1,10.328,0Z" transform="matrix(0.981, -0.195, 0.195, 0.981, 2108.691, 2389.746)" fill="#cd7900"/><path d="M2138.483,2464.719a3.788,3.788,0,0,1,2.425-4.776h0l10.026-3.272a3.789,3.789,0,0,1,4.776,2.426,1.479,1.479,0,0,1-.949,1.865,1.453,1.453,0,0,1-.216.053l-6.221,1.034a7.508,7.508,0,0,0-2.138.7l-5.631,2.835a1.479,1.479,0,0,1-1.987-.658,1.532,1.532,0,0,1-.085-.205Z" fill="#3d3d3d"/><path d="M2138.69,2461.863a3.779,3.779,0,0,1,2.219-1.92l10.026-3.272a3.791,3.791,0,0,1,4.776,2.426,1.479,1.479,0,0,1-.949,1.865,1.453,1.453,0,0,1-.216.053l-6.219,1.034a7.47,7.47,0,0,0-2.14.7l-5.631,2.835a1.479,1.479,0,0,1-1.987-.658,1.532,1.532,0,0,1-.085-.205,3.78,3.78,0,0,1,.2-2.85Zm.929-5.876,10.024-3.272a7.95,7.95,0,0,1,10.022,5.09,5.639,5.639,0,0,1-4.438,7.315l-6.219,1.034a3.31,3.31,0,0,0-.95.31l-5.631,2.835a5.641,5.641,0,0,1-7.9-3.288,7.95,7.95,0,0,1,5.09-10.022Z" fill="#ffc6b7" fill-rule="evenodd"/><path d="M2091.765,2464.17c1.465-3,11.97-11.532,12.8-11.126s.553,13.94-.91,16.936a6.646,6.646,0,0,1-11.893-5.81Z" fill="#a3ffff"/><path d="M2188.967,2460.037c-2.116-2.65-5.387-16.024-4.65-16.611s13.053,5.561,15.167,8.213,1.478,6.681-1.426,9-6.977,2.05-9.093-.6Zm10.341-14.258c-1.918-1.169-6.985-8.744-6.662-9.277s9.379.5,11.3,1.666a4.474,4.474,0,0,1-4.636,7.609Z" fill="#a3ffff"/></g><g transform="translate(-2 -8.407)"><rect width="47.066" height="44.673" rx="13.933" transform="translate(2196.733 2272.341) rotate(8.753)" fill="#3d3d3d"/><rect width="60.1" height="12.407" rx="5.571" transform="translate(2186.529 2295.786) rotate(8.753)" fill="#fbba97"/><rect width="42.446" height="67.967" rx="17.533" transform="translate(2199.158 2271.768) rotate(8.753)" fill="#fbba97"/><g transform="translate(2193.945 2292.456)"><path d="M2225.158,2317.476l-8.942-1.376a5.337,5.337,0,0,1-4.47-6.1l2.066-13.412a5.334,5.334,0,0,1,6.1-4.47l8.942,1.376a5.335,5.335,0,0,1,4.47,6.1l-2.065,13.412A5.336,5.336,0,0,1,2225.158,2317.476Zm-5.749-22.1a2.036,2.036,0,0,0-2.345,1.719L2215,2310.5a2.036,2.036,0,0,0,1.719,2.345l8.942,1.376A2.036,2.036,0,0,0,2228,2312.5l2.064-13.412a2.036,2.036,0,0,0-1.719-2.345Z" transform="translate(-2190.874 -2289.153)" fill="#4c4b4c"/><path d="M2206.138,2314.506l-8.536-1.314a5.335,5.335,0,0,1-4.47-6.1l2-13.005a5.335,5.335,0,0,1,6.1-4.47l8.534,1.314a5.336,5.336,0,0,1,4.471,6.1l-2,13.007A5.334,5.334,0,0,1,2206.138,2314.506Zm-5.406-21.637a2.037,2.037,0,0,0-2.345,1.719l-2,13.006a2.037,2.037,0,0,0,1.72,2.345l8.535,1.314a2.036,2.036,0,0,0,2.344-1.719l2-13.005a2.036,2.036,0,0,0-1.719-2.345Z" transform="translate(-2192.988 -2289.437)" fill="#4c4b4c"/><path d="M2228.652,2315.873a4.625,4.625,0,0,1-3.458.841l-8.942-1.377a4.772,4.772,0,0,1-3.045-1.842,4.62,4.62,0,0,1-.841-3.458l2.065-13.413a4.777,4.777,0,0,1,1.842-3.044,4.626,4.626,0,0,1,3.459-.841l8.941,1.378a4.773,4.773,0,0,1,3.046,1.842,4.621,4.621,0,0,1,.841,3.458l-2.066,13.412A4.773,4.773,0,0,1,2228.652,2315.873Z" transform="translate(-2190.802 -2289.082)" fill="#fff" fill-rule="evenodd"/><path d="M2225.154,2317.569l-8.942-1.376a5.407,5.407,0,0,1-4.539-6.192l2.066-13.412a5.48,5.48,0,0,1,2.174-3.577,5.4,5.4,0,0,1,4.064-1l8.941,1.376a5.48,5.48,0,0,1,3.577,2.174,5.411,5.411,0,0,1,1,4.064l-2.064,13.412a5.482,5.482,0,0,1-2.174,3.577A5.543,5.543,0,0,1,2225.154,2317.569Zm-5.474-23.893a3.792,3.792,0,0,0-4.315,3.163l-2.066,13.413a3.764,3.764,0,0,0,.69,2.811,3.837,3.837,0,0,0,2.473,1.5l8.942,1.376a3.762,3.762,0,0,0,2.811-.691,3.837,3.837,0,0,0,1.5-2.473l2.064-13.412a3.759,3.759,0,0,0-.69-2.811,3.838,3.838,0,0,0-2.473-1.5Z" transform="translate(-2190.882 -2289.165)" fill="#4d4b4d"/><path d="M2209.631,2312.9a4.628,4.628,0,0,1-3.458.84l-8.535-1.314a4.773,4.773,0,0,1-3.046-1.842,4.625,4.625,0,0,1-.84-3.458l2-13.006a4.773,4.773,0,0,1,1.842-3.044,4.618,4.618,0,0,1,3.458-.841l8.536,1.314a4.772,4.772,0,0,1,3.044,1.842,4.624,4.624,0,0,1,.841,3.459l-2,13.005A4.776,4.776,0,0,1,2209.631,2312.9Z" transform="translate(-2192.917 -2289.366)" fill="#fff" fill-rule="evenodd"/><path d="M2206.134,2314.6l-8.536-1.314a5.405,5.405,0,0,1-4.539-6.191l2-13.005a5.481,5.481,0,0,1,2.174-3.577,5.406,5.406,0,0,1,4.064-1l8.536,1.314a5.484,5.484,0,0,1,3.577,2.174,5.412,5.412,0,0,1,1,4.065l-2,13.005a5.476,5.476,0,0,1-2.172,3.577A5.541,5.541,0,0,1,2206.134,2314.6ZM2201,2291.175a3.791,3.791,0,0,0-4.315,3.163l-2,13.007a3.761,3.761,0,0,0,.691,2.811,3.837,3.837,0,0,0,2.473,1.5l8.536,1.314a3.765,3.765,0,0,0,2.811-.69,3.833,3.833,0,0,0,1.5-2.474l2-13.005a3.766,3.766,0,0,0-.69-2.812,3.835,3.835,0,0,0-2.473-1.5Z" transform="translate(-2192.996 -2289.449)" fill="#4d4b4d"/></g><rect width="11.088" height="3.664" rx="1.645" transform="translate(2201.775 2286.916) rotate(8.753)" fill="#3d3d3d"/><rect width="11.088" height="3.664" rx="1.645" transform="translate(2222.097 2290.044) rotate(8.753)" fill="#3d3d3d"/><g transform="translate(2191.279 2262.975)"><path d="M4.6,0h1.05a4.647,4.647,0,0,1,4.647,4.647v10.7a4.6,4.6,0,0,1-4.6,4.6H4.6a4.6,4.6,0,0,1-4.6-4.6V4.6A4.6,4.6,0,0,1,4.6,0Z" transform="matrix(0.806, -0.591, 0.591, 0.806, 34.495, 10.385)" fill="#7f4a33"/><path d="M4.6,0h1.05a4.647,4.647,0,0,1,4.647,4.647v10.7a4.6,4.6,0,0,1-4.6,4.6H4.6a4.6,4.6,0,0,1-4.6-4.6V4.6A4.6,4.6,0,0,1,4.6,0Z" transform="matrix(0.806, -0.591, 0.591, 0.806, 0, 11.443)" fill="#7f4a33"/><path d="M4.6,0h1.05a4.647,4.647,0,0,1,4.647,4.647V24.308a4.6,4.6,0,0,1-4.6,4.6H4.6a4.6,4.6,0,0,1-4.6-4.6V4.6A4.6,4.6,0,0,1,4.6,0Z" transform="translate(20.824 8.091) rotate(-36.247)" fill="#7f4a33"/><path d="M4.6,0h1.05a4.647,4.647,0,0,1,4.647,4.647V24.308a4.6,4.6,0,0,1-4.6,4.6H4.6a4.6,4.6,0,0,1-4.6-4.6V4.6A4.6,4.6,0,0,1,4.6,0Z" transform="translate(7.883 6.087) rotate(-36.247)" fill="#7f4a33"/></g><path d="M2207.83,2302.395s-4.258-7.807-9.562-1.292" transform="translate(1.548 4.036)" fill="none" stroke="#3d3d3d" stroke-linecap="round" stroke-miterlimit="10" stroke-width="1.983"/><path d="M2217.071,2303.807s6.408-6.165,9.508,1.645" transform="translate(3.683 4.375)" fill="none" stroke="#3d3d3d" stroke-linecap="round" stroke-miterlimit="10" stroke-width="1.983"/><path d="M2210.369,2325.01a23.742,23.742,0,0,1-7.6-2.658,3.286,3.286,0,0,1,3.274-5.7c1.5.851,6.032,2.8,9.009,1.619a3.286,3.286,0,1,1,2.415,6.111A13.631,13.631,0,0,1,2210.369,2325.01Z" transform="translate(1.872 6.048)" fill="#fff"/></g><g transform="translate(-5 -7.534)"><path d="M2104.14,2346.108a31.972,31.972,0,1,1-34.126-30.066,32.162,32.162,0,0,1,34.126,30.066Z" fill="#2b70c9"/><path d="M2033.652,2313.673a4.711,4.711,0,1,1,2.12,6.39A4.762,4.762,0,0,1,2033.652,2313.673Zm9.7-9.11a12.442,12.442,0,1,0,5.623,16.6,12.395,12.395,0,0,0-5.623-16.6Z" fill="#2b70c9" fill-rule="evenodd"/><path d="M2103.541,2337.5a31.97,31.97,0,1,1-34.122-30.067A32.157,32.157,0,0,1,2103.541,2337.5Z" fill="#1cb0f6"/><path d="M2092.543,2350.013a23.446,23.446,0,1,1-10.647-31.6A23.586,23.586,0,0,1,2092.543,2350.013Z" fill="#fff"/><path d="M2080.652,2334.729a4.321,4.321,0,0,0-2.268-2.8l-17.325-7.385c-1.653-.705-2.711.153-2.362,1.909l3.611,18.252a4.322,4.322,0,0,0,2.268,2.8l17.324,7.385c1.652.7,2.71-.156,2.361-1.91l-3.609-18.254Z" fill="#3ebcff"/><path d="M2063.176,2346.408a4,4,0,0,1-.872-1.7l-3.611-18.254c-.347-1.754.709-2.613,2.362-1.908l17.323,7.385a3.936,3.936,0,0,1,1.4,1.1Z" fill="#ee5855"/></g></g></svg>