<svg xmlns="http://www.w3.org/2000/svg" width="183.049" height="233.434" viewBox="0 0 183.049 233.434"><g transform="translate(-427.051 -3716.382)"><g transform="translate(6.469)"><path d="M112.837,15.267,106.12,8.551a3.166,3.166,0,0,0-4.477,0l-6.716,6.716a3.166,3.166,0,0,0,0,4.477l6.716,6.716a3.166,3.166,0,0,0,4.477,0l6.717-6.716A3.167,3.167,0,0,0,112.837,15.267Z" transform="translate(359.32 3922.428)" fill="#2b70c9" opacity="0.34"/><path d="M97.366,176.729l-6.717-6.716a3.167,3.167,0,0,0-4.477,0l-6.716,6.716a3.166,3.166,0,0,0,0,4.477l6.716,6.716a3.167,3.167,0,0,0,4.477,0l6.717-6.716A3.166,3.166,0,0,0,97.366,176.729Z" transform="translate(481.666 3547.296)" fill="#2b70c9" opacity="0.38"/><path d="M84.3,5.4,79.555.655a2.234,2.234,0,0,0-3.16,0L71.655,5.4a2.235,2.235,0,0,0,0,3.16L76.4,13.3a2.234,2.234,0,0,0,3.16,0L84.3,8.555A2.234,2.234,0,0,0,84.3,5.4Z" transform="translate(349.582 3916.102)" fill="#2b70c9" opacity="0.79"/></g><g transform="translate(2.83 -9.882)"><path d="M133.767,29.135,36.735,52.713a10.157,10.157,0,0,0-7.467,12.324L60.383,190.6a10.269,10.269,0,0,0,12.38,7.5L169.8,174.525a10.157,10.157,0,0,0,7.467-12.324L146.147,36.637A10.269,10.269,0,0,0,133.767,29.135Z" transform="translate(401.726 3723.434)" fill="#2b70c9" fill-rule="evenodd"/><g transform="matrix(0.927, -0.375, 0.375, 0.927, 426.632, 3791.509)"><rect width="93.192" height="129.483" rx="11.046" transform="matrix(0.996, 0.09, -0.09, 0.996, 22.339, 7.451)" fill="#e4e4e4"/><path d="M102.379,11.491,25.79.086a7.9,7.9,0,0,0-8.953,6.633L.086,119.2a7.9,7.9,0,0,0,6.632,8.953l62.839,9.358,1.5-12.15a8.62,8.62,0,0,1,9.582-7.477l13.613,1.68,14.76-99.123A7.9,7.9,0,0,0,102.379,11.491Z" fill="#fbfbfb"/><path d="M.02,0,0,0,0,.016Z" transform="translate(94.249 119.567)"/><path d="M0,.018.021,0,0,0Z" transform="translate(69.555 137.515)"/><path d="M1.5,7.542,0,19.692l.018,0L24.691,1.761l0-.016L11.081.065A8.62,8.62,0,0,0,1.5,7.542Z" transform="translate(69.558 117.823)" fill="#bebebe"/></g><g transform="translate(454.737 3735.264)"><path d="M91.058,28.126l-46.3,11.251a9.026,9.026,0,0,0-6.636,10.952l2.729,11.012a4.563,4.563,0,0,0,5.5,3.333L101.47,51.28a4.513,4.513,0,0,0,3.318-5.476l-2.729-11.012A9.125,9.125,0,0,0,91.058,28.126Z" transform="translate(-37.855 -13.495)" fill="#d7d6d6" fill-rule="evenodd"/><path d="M54.221,22.975a14.67,14.67,0,0,0-10.785,17.8A14.832,14.832,0,0,0,61.317,51.611,14.67,14.67,0,0,0,72.1,33.81,14.832,14.832,0,0,0,54.221,22.975ZM56.4,31.786a5.7,5.7,0,0,1,6.878,4.167A5.642,5.642,0,0,1,59.134,42.8a5.7,5.7,0,0,1-6.877-4.167A5.642,5.642,0,0,1,56.4,31.786Z" transform="translate(-29.082 -22.554)" fill="#d7d6d6" fill-rule="evenodd"/></g><path d="M46.42,63.388,101.53,50a4.562,4.562,0,0,1,5.5,3.333,4.512,4.512,0,0,1-3.318,5.475L48.6,72.2a4.562,4.562,0,0,1-5.5-3.332A4.513,4.513,0,0,1,46.42,63.388Z" transform="translate(425.6 3759.278)" fill="#e4e4e4"/><path d="M44.805,56.87l55.11-13.393a4.562,4.562,0,0,1,5.5,3.333,4.512,4.512,0,0,1-3.317,5.475L46.988,65.678a4.562,4.562,0,0,1-5.5-3.333A4.513,4.513,0,0,1,44.805,56.87Z" transform="translate(422.849 3748.163)" fill="#e4e4e4"/><path d="M48.087,66.579l33.067-8.036a4.562,4.562,0,0,1,5.5,3.333,4.513,4.513,0,0,1-3.318,5.475L50.269,75.387a4.562,4.562,0,0,1-5.5-3.333A4.513,4.513,0,0,1,48.087,66.579Z" transform="translate(428.442 3773.85)" fill="#e4e4e4"/><g transform="matrix(0.985, 0.174, -0.174, 0.985, 551.8, 3760.275)"><path d="M0,49.247,30.66,0,56.342,15.655l-30.66,49.25Z" transform="translate(0 3.281)" fill="#ffd300"/><path d="M2,30.977A4.122,4.122,0,0,1,.591,25.321l0-.008L14.756,1.957A4.071,4.071,0,0,1,20.349.593l.02.013a4.135,4.135,0,0,1,1.4,5.666L7.611,29.629a4.071,4.071,0,0,1-5.595,1.36Z" transform="translate(13.826 20.88)" fill="#ffe600"/><path d="M0,5.636,2.1,2.1C4.059-.705,7.913-.452,11.457,1.4l7.928,4.831c3.533,1.852,6.182,6.182,4.221,8.985L21.34,18.642Z" transform="translate(32.053 0)" fill="#ffafaf"/><path d="M.682,1.808A4.657,4.657,0,0,1,7,.816L27.936,13.575a4.16,4.16,0,0,1,1.972,5.542,4.225,4.225,0,0,1-.206.381,4.98,4.98,0,0,1-6.523,1.336L2.251,8.061a4.472,4.472,0,0,1-1.659-6.1C.621,1.908.651,1.858.682,1.808Z" transform="translate(26.39 2.797)" fill="#8e8e8e"/><path d="M0,0,2.544,22.093a1.831,1.831,0,0,0,2.472,1.5l20.663-7.948Z" transform="translate(0 52.531)" fill="#fff2b4"/><g transform="translate(1.475 65.331)"><path d="M1.072,9.294A1.831,1.831,0,0,0,3.1,10.9a1.851,1.851,0,0,0,.442-.108l8.764-3.368L0,0Z" fill="#4c4c4c"/></g></g></g></g></svg>