<svg xmlns="http://www.w3.org/2000/svg" width="229.98" height="216.335" viewBox="0 0 229.98 216.335"><g transform="translate(0.404)"><g transform="translate(105.384 46.503)"><rect width="106.956" height="131.369" rx="12" transform="matrix(0.991, 0.136, -0.136, 0.991, 17.848, 0)" fill="#fff"/><path d="M119.165,136.706a4.409,4.409,0,0,0,4.955-2.532A11.3,11.3,0,0,0,125,130.5a11.318,11.318,0,0,0,.138-3.771,4.852,4.852,0,0,0-9.026-1.238,11.286,11.286,0,0,0-.882,3.669,11.318,11.318,0,0,0-.138,3.771A4.4,4.4,0,0,0,119.165,136.706Zm.223-1.625a2.747,2.747,0,0,1-2.518-2.44,16.562,16.562,0,0,1,.875-6.382,2.975,2.975,0,0,1,5.619.77,16.564,16.564,0,0,1-.875,6.384A2.756,2.756,0,0,1,119.388,135.08Zm8.294,2.674a.817.817,0,0,0,.943-.768l.623-4.543c.215-1.566.944-2.663,2.353-2.47a2.909,2.909,0,0,1,1.045.384,1.166,1.166,0,0,0,.4.153.8.8,0,0,0,.935-.709.784.784,0,0,0-.373-.77,2.748,2.748,0,0,0-1.344-.523,2.572,2.572,0,0,0-2.6,1.1l-.02,0,.059-.431a.832.832,0,1,0-1.645-.226l-1.072,7.814A.817.817,0,0,0,127.682,137.754Zm14.383.7-.25-.652a1.847,1.847,0,0,1-.044-.985l.462-3.367c.317-2.311-.694-3.667-3.2-4.01a5.291,5.291,0,0,0-2.955.313.753.753,0,0,0-.482.612.664.664,0,0,0,.608.8,1.166,1.166,0,0,0,.488-.073,4.511,4.511,0,0,1,1.983-.207c1.645.226,2.15,1.053,1.971,2.365l-.063.451a.1.1,0,0,1-.134.1l-2.133-.293c-2.331-.32-3.793.458-4.06,2.4-.244,1.782.828,2.985,2.923,3.274a3.608,3.608,0,0,0,3.032-.722l.019,0,.292.639a.87.87,0,0,0,.668.51.8.8,0,0,0,.949-.668A1.009,1.009,0,0,0,142.065,138.449Zm-4.458-.651c-1.253-.172-1.891-.758-1.758-1.738.145-1.057.935-1.428,2.54-1.207l1.88.257a.106.106,0,0,1,.1.134l-.142,1.038C140.069,137.438,139.055,138,137.607,137.8Zm7.042,1.385a.832.832,0,1,0,1.645.226l.685-4.993a2.124,2.124,0,0,1,2.467-2c1.41.194,1.975,1.168,1.768,2.676l-.672,4.9a.832.832,0,1,0,1.645.226l.725-5.287c.293-2.133-.731-3.69-2.767-3.97a2.993,2.993,0,0,0-2.8.914l-.02,0,.037-.274a.832.832,0,1,0-1.645-.226Zm17.192-5.363a2.874,2.874,0,0,0-2.455-1.594,3.168,3.168,0,0,0-3.471,1.9,9.481,9.481,0,0,0-.66,4.816,3.167,3.167,0,0,0,2.833,2.762,2.76,2.76,0,0,0,2.792-.874l.02,0-.14,1.018c-.248,1.8-1.23,2.424-2.738,2.217a3.156,3.156,0,0,1-1.774-.881,1.149,1.149,0,0,0-.631-.346.744.744,0,0,0-.849.663.766.766,0,0,0,.163.56,4.347,4.347,0,0,0,2.823,1.524c2.6.357,4.285-.849,4.67-3.648l1.114-8.126a.832.832,0,1,0-1.645-.226l-.031.235Zm-3.117,6.435a1.956,1.956,0,0,1-1.8-1.743,5.359,5.359,0,0,1,.027-1.792,5.3,5.3,0,0,1,.455-1.714,2.111,2.111,0,0,1,3.993.549,7.3,7.3,0,0,1-.48,3.5A1.957,1.957,0,0,1,158.723,140.255Zm10.346,3.294a4.881,4.881,0,0,0,3.545-.83.82.82,0,0,0,.336-.552.677.677,0,0,0-.592-.78.906.906,0,0,0-.6.157,3.475,3.475,0,0,1-2.362.494,2.322,2.322,0,0,1-2.146-1.95,3.505,3.505,0,0,1,0-1.157.1.1,0,0,1,.134-.1l5.5.753a.606.606,0,0,0,.732-.537,7,7,0,0,0,0-2.315,3.973,3.973,0,0,0-7.345-.987,9.488,9.488,0,0,0-.63,4.741A3.648,3.648,0,0,0,169.069,143.548Zm-1.507-6.031a.1.1,0,0,1-.1-.134,3.368,3.368,0,0,1,.281-1.038,2.336,2.336,0,0,1,4.308.591,3.347,3.347,0,0,1-.008,1.077.105.105,0,0,1-.134.1Z" transform="translate(-86.691 -26.524)" fill="#4b4b4b"/><path d="M159.125,120.074a27.83,27.83,0,1,0-23.631-31.331A27.75,27.75,0,0,0,159.125,120.074Z" transform="translate(-83.4 -35.99)" fill="#ff9600"/><path d="M171.886,97.2a3.418,3.418,0,1,0-2.9-3.848A3.408,3.408,0,0,0,171.886,97.2Z" transform="translate(-77.919 -31.808)" fill="#f58000"/><path d="M164.667,107.258a5.127,5.127,0,1,0-4.354-5.772A5.113,5.113,0,0,0,164.667,107.258Z" transform="translate(-79.331 -30.726)" fill="#f58000"/><path d="M112.044,81.179a26.355,26.355,0,1,0,52.22,7.161l-52.22-7.161Z" transform="translate(-87.21 -33.307)" fill="#fff"/><path d="M112.044,81.179a26.355,26.355,0,1,0,52.22,7.161l-52.22-7.161Z" transform="translate(-87.21 -33.307)" fill="#ffc800"/><path d="M118.433,95.606l1.611,2.385,17.927-12.243-1.612-2.385Z" transform="translate(-86.131 -32.951)" fill="#fff" fill-rule="evenodd"/><path d="M149.7,100.2l-2.194,1.863L133.535,85.442l2.195-1.863Z" transform="translate(-83.676 -32.916)" fill="#fff" fill-rule="evenodd"/><path d="M133.391,107.682l-2.844-.391L133.5,85.726l2.844.39Z" transform="translate(-84.162 -32.567)" fill="#fff" fill-rule="evenodd"/><path d="M115.64,81.672a22.128,22.128,0,1,0,43.845,6.012" transform="translate(-86.619 -33.226)" fill="none" stroke="#fff" stroke-width="3"/><path d="M112.044,81.179a26.355,26.355,0,1,0,52.22,7.161" transform="translate(-87.21 -33.307)" fill="none" stroke="#ff9600" stroke-width="4"/><rect width="104.63" height="129.044" rx="11" transform="matrix(0.991, 0.136, -0.136, 0.991, 18.842, 1.31)" fill="none" stroke="#e5e5e5" stroke-width="3"/></g><g transform="translate(0 37.586)"><rect width="108.118" height="132.532" rx="12" transform="translate(0 24.029) rotate(-12.841)" fill="#ddf4ff"/><path d="M46.4,140.023a.8.8,0,0,0,.989.606.861.861,0,0,0,.688-.806l.311-2.726,5.376-1.227,1.462,2.323a.86.86,0,0,0,.969.428.794.794,0,0,0,.629-.974,1.28,1.28,0,0,0-.165-.369l-6.513-10.251a1.226,1.226,0,0,0-1.376-.7c-.578.131-.827.553-.9,1.218l-1.484,12.074A1.282,1.282,0,0,0,46.4,140.023Zm2.187-4.634.762-6.437.058-.014,3.438,5.48Zm12.242,5.824a.816.816,0,0,0,.612-1.052l-.848-3.719.019,0a2.87,2.87,0,0,0,2.9.636,3.277,3.277,0,0,0,2.652-3.038,10.065,10.065,0,0,0-1.147-5.029,3.276,3.276,0,0,0-3.706-1.587,2.873,2.873,0,0,0-2.34,1.83l-.019,0-.057-.25a.832.832,0,1,0-1.619.369l2.543,11.157A.815.815,0,0,0,60.828,141.213Zm1.957-5.555a2.043,2.043,0,0,1-2.372-.979,8.656,8.656,0,0,1-.856-3.757,2.208,2.208,0,0,1,4.066-.928,5.941,5.941,0,0,1,.642,1.84,5.881,5.881,0,0,1,.214,1.917A2.034,2.034,0,0,1,62.785,135.659ZM71.2,138.85a.816.816,0,0,0,.612-1.052l-.848-3.719.019,0a2.871,2.871,0,0,0,2.9.636,3.278,3.278,0,0,0,2.652-3.038,10.067,10.067,0,0,0-1.146-5.029,3.276,3.276,0,0,0-3.706-1.587,2.874,2.874,0,0,0-2.34,1.83l-.019,0-.057-.251a.832.832,0,1,0-1.619.37l2.543,11.157A.815.815,0,0,0,71.2,138.85Zm1.957-5.555a2.043,2.043,0,0,1-2.372-.979,8.658,8.658,0,0,1-.857-3.757,2.208,2.208,0,0,1,4.066-.928,5.94,5.94,0,0,1,.642,1.84,5.878,5.878,0,0,1,.214,1.917A2.035,2.035,0,0,1,73.154,133.3Zm9.2-.637a.751.751,0,0,0,.657-.941.725.725,0,0,0-.923-.58c-.636.144-.952-.087-1.128-.858l-2.249-9.867a.832.832,0,1,0-1.619.37l2.271,9.962c.378,1.657,1.16,2.33,2.817,1.953Zm6.487-1.358a4.877,4.877,0,0,0,3.024-2.028.819.819,0,0,0,.119-.635.675.675,0,0,0-.828-.521.9.9,0,0,0-.506.359,3.484,3.484,0,0,1-2.036,1.3,2.322,2.322,0,0,1-2.7-1.068,3.5,3.5,0,0,1-.409-1.082.1.1,0,0,1,.089-.142l5.415-1.235a.607.607,0,0,0,.5-.761,6.974,6.974,0,0,0-.818-2.165,3.974,3.974,0,0,0-7.221,1.666,7.27,7.27,0,0,0,.242,2.4,7.184,7.184,0,0,0,.84,2.261A3.649,3.649,0,0,0,88.842,131.3Zm-3.537-5.113a.1.1,0,0,1-.142-.088,3.335,3.335,0,0,1-.1-1.072,2.335,2.335,0,0,1,4.239-.966,3.335,3.335,0,0,1,.372,1.009.106.106,0,0,1-.089.143Z" transform="translate(7.539 -18.127)" fill="#1899d6"/><path d="M50.955,61.64a2.56,2.56,0,0,1,3.064,1.93q.022.1.037.2l2.2,15.016a1.361,1.361,0,0,1-2.647.6L49.083,64.9a2.561,2.561,0,0,1,1.677-3.21Q50.857,61.662,50.955,61.64Z" transform="translate(7.96 -27.577)" fill="#743d00" fill-rule="evenodd"/><path d="M34.383,78.749l.052-.036a20.828,20.828,0,0,1,29.478.61l8.419,8.749a20.916,20.916,0,0,1-.577,29.537l-.007.007-.059.028a20.829,20.829,0,0,1-29.478-.609l-8.42-8.749a20.915,20.915,0,0,1,.577-29.537l.007-.007Z" transform="translate(4.547 -25.736)" fill="#ff4b4b" fill-rule="evenodd"/><path d="M77.614,69.015l-.062-.01A20.828,20.828,0,0,0,51.25,82.33l-3.8,11.533a20.915,20.915,0,0,0,13.321,26.369l.01,0h.065a20.827,20.827,0,0,0,26.3-13.325l3.8-11.533A20.916,20.916,0,0,0,77.627,69.008l-.01,0Z" transform="translate(7.545 -26.539)" fill="#ff4b4b" fill-rule="evenodd"/><path d="M46.032,97.085a7.56,7.56,0,1,0-9.04-5.693A7.554,7.554,0,0,0,46.032,97.085Z" transform="translate(5.982 -24.232)" fill="#ff7878"/><path d="M71.31,49.99c-1.087-.738-9.515,2.037-12.923,7.21S55.4,71.41,56.357,72.059s9.5-2.165,13.037-7.379S72.4,50.728,71.31,49.99Z" transform="translate(9.051 -29.479)" fill="#5abb1a" fill-rule="evenodd"/><path d="M76.022,96.775A4.284,4.284,0,1,0,70.9,93.549,4.281,4.281,0,0,0,76.022,96.775Z" transform="translate(11.508 -23.23)" fill="#ea2b2b"/><path d="M71.879,103.546a3.024,3.024,0,1,0-3.616-2.276A3.021,3.021,0,0,0,71.879,103.546Z" transform="translate(11.085 -21.725)" fill="#ea2b2b"/><rect width="105.793" height="130.207" rx="11" transform="translate(1.392 24.904) rotate(-12.841)" fill="none" stroke="#84d8ff" stroke-width="3"/></g><path d="M112.837,15.267,106.12,8.551a3.166,3.166,0,0,0-4.477,0l-6.716,6.716a3.166,3.166,0,0,0,0,4.477l6.716,6.716a3.166,3.166,0,0,0,4.477,0l6.717-6.716A3.167,3.167,0,0,0,112.837,15.267Z" transform="translate(15.281 1.239)" fill="#ddf4ff"/><path d="M97.366,176.729l-6.717-6.716a3.167,3.167,0,0,0-4.477,0l-6.716,6.716a3.166,3.166,0,0,0,0,4.477l6.716,6.716a3.167,3.167,0,0,0,4.477,0l6.717-6.716A3.166,3.166,0,0,0,97.366,176.729Z" transform="translate(12.766 27.487)" fill="#ddf4ff"/><path d="M84.3,5.4,79.555.655a2.234,2.234,0,0,0-3.16,0L71.655,5.4a2.235,2.235,0,0,0,0,3.16L76.4,13.3a2.234,2.234,0,0,0,3.16,0L84.3,8.555A2.234,2.234,0,0,0,84.3,5.4Z" transform="translate(11.542 0)" fill="#84d8ff"/></g></svg>