<svg id="Layer_1" data-name="Layer 1" xmlns="http://www.w3.org/2000/svg" xmlns:xlink="http://www.w3.org/1999/xlink" viewBox="0 0 300.54 270.97"><defs><style>.cls-1{fill:none;}.cls-2{fill:#9069cd;}.cls-3{fill:#ea2b2b;}.cls-4{fill:#ff4b4b;}.cls-5{fill:#fff;}.cls-6{fill:#fec72e;}.cls-7{opacity:0.3;}.cls-8{fill:#4b4b4b;}.cls-9{fill:#fd9526;}.cls-10{clip-path:url(#clip-path);}.cls-11{fill:#a56644;}.cls-12,.cls-19{fill:#fbba97;}.cls-13{fill:#3c3c3c;}.cls-14{fill:#f7f7f7;}.cls-15{fill:#777;}.cls-16{fill:#f4f4f4;}.cls-17{fill:#e5e5e5;}.cls-18{clip-path:url(#clip-path-2);}.cls-19{fill-rule:evenodd;}</style><clipPath id="clip-path"><path class="cls-1" d="M0,95.81c0-17.13,9.51-31,21.25-31H120c11.74,0,21.25,13.89,21.25,31V240c0,17.13-9.51,31-21.25,31H21.25C9.51,271,0,257.08,0,240V95.81Z"/></clipPath><clipPath id="clip-path-2"><rect class="cls-1" x="61.37" y="159.54" width="22.91" height="12.51" transform="translate(145.66 331.59) rotate(180)"/></clipPath></defs><title>Artboard 1</title><path class="cls-2" d="M28.12,78.17A34.15,34.15,0,0,1,62.26,44H220.92a34.15,34.15,0,0,1,34.15,34.15V236.83A34.14,34.14,0,0,1,220.92,271H62.26a34.14,34.14,0,0,1-34.14-34.14V78.17Z"/><ellipse class="cls-3" cx="208.84" cy="99.65" rx="76.83" ry="76.77" transform="translate(-9.04 177.57) rotate(-45.19)"/><ellipse class="cls-4" cx="206.77" cy="94.74" rx="76.83" ry="76.77" transform="translate(-6.28 174.35) rotate(-45.1)"/><ellipse class="cls-5" cx="206.77" cy="94.74" rx="59.77" ry="59.72" transform="translate(-6.39 174.06) rotate(-45.03)"/><path class="cls-4" d="M248.72,92A42,42,0,1,1,209.5,52.79,42,42,0,0,1,248.72,92Z"/><ellipse class="cls-5" cx="206.77" cy="94.74" rx="22.21" ry="22.14" transform="translate(-6.42 173.98) rotate(-45.01)"/><path class="cls-6" d="M266.19,32.53l-2-15.34a2.23,2.23,0,0,1,.59-1.81l14-15a1.24,1.24,0,0,1,2.15.77L282,16Z"/><path class="cls-6" d="M299.47,19.29l-14.4-1.17-17,16.31,15.69,1.68a2.69,2.69,0,0,0,2.18-.77l14.21-14.07A1.16,1.16,0,0,0,299.47,19.29Z"/><path class="cls-7" d="M206.77,96l63-45.16a84.57,84.57,0,0,0-8-9.89l-54,52.22Z"/><path class="cls-8" d="M284.48,12.56l-7.91,8-19,19.25L234.68,63,214.8,83.17c-3.22,3.27-6.59,6.43-9.69,9.81-.22.25-.53.41-.23,1a2.56,2.56,0,0,0,4.37.66q3.28-3.33,6.56-6.65l19-19.26L257.7,45.58q9.94-10.06,19.88-20.15c3.22-3.26,6.59-6.43,9.68-9.81a.93.93,0,0,0,.14-.14c1.87-1.89-1-4.81-2.92-2.92Z"/><polygon class="cls-9" points="268.67 11.26 270.54 26.7 273.75 23.44 271.86 7.84 268.67 11.26"/><polygon class="cls-9" points="273.75 29.32 290.03 31.33 297.82 23.62 281.11 21.92 273.75 29.32"/><g class="cls-10"><path class="cls-11" d="M69.9,69.66h3.73a51.13,51.13,0,0,1,51.13,51.13v79.35a53,53,0,0,1-53,53h0a53,53,0,0,1-53-53V120.78A51.13,51.13,0,0,1,69.9,69.66Z"/><rect class="cls-11" y="202.44" width="141.26" height="42.19" rx="21.1"/><rect class="cls-12" x="22.98" y="79.47" width="98.43" height="112.22" rx="48.34"/><rect class="cls-12" x="60.05" y="175.35" width="24.29" height="57.53" rx="12.14"/><circle class="cls-5" cx="46.76" cy="133.75" r="16.24"/><ellipse class="cls-5" cx="46.76" cy="134.27" rx="16.24" ry="15.72"/><circle class="cls-13" cx="50.26" cy="134.25" r="7.66"/><circle class="cls-5" cx="97.84" cy="133.75" r="16.24"/><ellipse class="cls-5" cx="97.84" cy="134.27" rx="16.24" ry="15.72"/><circle class="cls-5" cx="94.34" cy="134.25" r="7.66"/><circle class="cls-13" cx="94.38" cy="134.25" r="7.66"/><circle class="cls-12" cx="18.59" cy="136.46" r="7.98"/><circle class="cls-12" cx="125.97" cy="136.46" r="7.98"/><rect class="cls-11" x="37.03" y="78.74" width="68.87" height="29.52" rx="7.11"/><circle class="cls-5" cx="45.67" cy="127.93" r="3.07"/><circle class="cls-5" cx="99.37" cy="127.93" r="3.07"/><path class="cls-14" d="M71.13,212.31h2.14a27.09,27.09,0,0,1,27.09,27.09v32a0,0,0,0,1,0,0H44a0,0,0,0,1,0,0v-32a27.09,27.09,0,0,1,27.09-27.09Z"/><rect class="cls-12" x="60.05" y="175.35" width="24.29" height="54.61" rx="11.83"/><circle class="cls-15" cx="72.2" cy="239.64" r="3.23"/><circle class="cls-15" cx="72.2" cy="250.2" r="3.23"/><circle class="cls-15" cx="72.2" cy="261.97" r="3.23"/><rect class="cls-12" x="92.65" y="209.52" width="15.82" height="192.18" rx="7.77" transform="translate(-28.11 10.73) rotate(-5.36)"/><path class="cls-16" d="M99.26,209.58h.24a7.79,7.79,0,0,1,7.79,7.79V376.64a0,0,0,0,1,0,0H91.47a0,0,0,0,1,0,0V217.37A7.79,7.79,0,0,1,99.26,209.58Z" transform="translate(-26.95 10.57) rotate(-5.36)"/><rect class="cls-12" x="35.98" y="209.52" width="15.82" height="192.18" rx="7.77" transform="translate(59.04 613.99) rotate(-174.64)"/><path class="cls-16" d="M37.15,209.58H53a0,0,0,0,1,0,0V368.85a7.79,7.79,0,0,1-7.79,7.79h-.24a7.79,7.79,0,0,1-7.79-7.79V209.58a0,0,0,0,1,0,0Z" transform="translate(62.55 589.15) rotate(-174.64)"/><polygon class="cls-17" points="60 214.68 60 233.84 72.2 229.96 60 214.68"/><polygon class="cls-17" points="84.4 214.68 84.4 233.84 72.2 229.96 84.4 214.68"/><circle class="cls-5" cx="46.7" cy="133.76" r="16.24"/><ellipse class="cls-5" cx="46.7" cy="134.29" rx="16.24" ry="15.72"/><circle class="cls-13" cx="50.2" cy="134.27" r="7.66"/><circle class="cls-5" cx="97.78" cy="133.76" r="16.24"/><ellipse class="cls-5" cx="97.78" cy="134.29" rx="16.24" ry="15.72"/><circle class="cls-5" cx="94.28" cy="134.27" r="7.66"/><circle class="cls-13" cx="94.32" cy="134.27" r="7.66"/><g class="cls-18"><circle class="cls-5" cx="73.18" cy="171.29" r="10.54"/></g><circle class="cls-5" cx="45.61" cy="127.94" r="3.07"/><circle class="cls-5" cx="99.32" cy="127.94" r="3.07"/><path class="cls-19" d="M31,126.23q16.44-1.91,23.35-6.44c4.52-3,4-5.32-1.75-7l-13.1,4.36Z"/><path class="cls-12" d="M51.21,160.42A131.3,131.3,0,0,0,29,154.54l2.23-12.7a146.29,146.29,0,0,1,24.29,6.43Z"/></g></svg>