<svg xmlns="http://www.w3.org/2000/svg" xmlns:xlink="http://www.w3.org/1999/xlink" width="269.889" height="224.287" viewBox="0 0 269.889 224.287"><defs><clipPath id="a"><path d="M2173.383,2600.71h-156.8a33.742,33.742,0,0,0-33.742,33.743v156.8A33.742,33.742,0,0,0,2016.58,2825h156.8a33.741,33.741,0,0,0,33.742-33.742v-156.8A33.742,33.742,0,0,0,2173.383,2600.71Z" fill="none"/></clipPath><clipPath id="b"><rect width="114.445" height="102.403" rx="51.201" transform="translate(2036.651 2780.516)" fill="none"/></clipPath></defs><g transform="translate(-1212.666 -1500.741)"><path d="M2173.383,2600.71h-156.8a33.742,33.742,0,0,0-33.742,33.743v156.8A33.742,33.742,0,0,0,2016.58,2825h156.8a33.741,33.741,0,0,0,33.742-33.742v-156.8A33.742,33.742,0,0,0,2173.383,2600.71Z" transform="translate(-736.375 -1099.969)" fill="#1cb0f6"/><g transform="translate(1212.666 1542.867)"><g transform="translate(14.999 132.138)"><path d="M121.265,290.827H72.2a11.026,11.026,0,0,1,11.041,11.01h0A11.026,11.026,0,0,1,72.2,312.848h49.062a11.025,11.025,0,0,0,11.041-11.01h0a11.026,11.026,0,0,0-11.039-11.011Z" transform="translate(-42.095 -290.826)" fill="#ff9600"/><path d="M39.882,294.3h45.38a8.562,8.562,0,1,1,.146,17.122H39.882Z" transform="translate(-32.525 -291.855)" fill="#fdfbfc"/><path d="M82.167,312.843H31.884A2.45,2.45,0,0,1,29.43,310.4h0a2.45,2.45,0,0,1,2.454-2.446H82.169a6.124,6.124,0,0,0,6.132-6.115h0a6.124,6.124,0,0,0-6.132-6.116H31.884a2.45,2.45,0,0,1-2.454-2.447h0a2.45,2.45,0,0,1,2.454-2.446H82.169a11.025,11.025,0,0,1,11.041,11.01h0a11.025,11.025,0,0,1-11.039,11.01h0Z" transform="translate(-29.43 -290.825)" fill="#ff9600"/></g><g transform="translate(14.999 110.115)"><path d="M121.265,259.54H72.2a11.026,11.026,0,0,1,11.041,11.01h0A11.026,11.026,0,0,1,72.2,281.561h49.062a11.026,11.026,0,0,0,11.041-11.01h0a11.026,11.026,0,0,0-11.039-11.011Z" transform="translate(-42.095 -259.538)" fill="#58cc02"/><path d="M39.882,263.015h45.38a8.562,8.562,0,1,1,.146,17.122H39.882Z" transform="translate(-32.525 -260.567)" fill="#fdfbfc"/><path d="M82.167,281.555H31.884a2.446,2.446,0,1,1,0-4.892H82.169a6.124,6.124,0,0,0,6.132-6.115h0a6.124,6.124,0,0,0-6.132-6.116H31.884a2.45,2.45,0,0,1-2.454-2.447h0a2.45,2.45,0,0,1,2.454-2.446H82.169A11.026,11.026,0,0,1,93.21,270.548h0a11.026,11.026,0,0,1-11.041,11.01h0Z" transform="translate(-29.43 -259.537)" fill="#58cc02"/></g><g transform="translate(18.673 66.068)"><path d="M45.691,196.965H94.752a11.026,11.026,0,0,0-11.041,11.01h0a11.026,11.026,0,0,0,11.041,11.01H45.691a11.011,11.011,0,1,1,0-22.021Z" transform="translate(-34.65 -196.963)" fill="#fed452"/><path d="M129.625,200.44H84.244a8.561,8.561,0,1,0-.146,17.122h45.526Z" transform="translate(-46.771 -197.992)" fill="#fdfbfc"/><path d="M83.243,218.98h50.286a2.446,2.446,0,1,0,0-4.892H83.243a6.123,6.123,0,0,1-6.132-6.115h0a6.123,6.123,0,0,1,6.132-6.115h50.286a2.447,2.447,0,1,0,0-4.893H83.243A11.025,11.025,0,0,0,72.2,207.973h0a11.025,11.025,0,0,0,11.041,11.01Z" transform="translate(-45.769 -196.962)" fill="#fdb23e"/></g><g transform="translate(18.673 44.043)"><path d="M45.691,165.676H94.752a11.026,11.026,0,0,0-11.041,11.01h0a11.025,11.025,0,0,0,11.04,11.01H45.691a11.025,11.025,0,0,1-11.041-11.01h0a11.026,11.026,0,0,1,11.04-11.011Z" transform="translate(-34.65 -165.672)" fill="#c263ff"/><path d="M129.625,169.153H84.244a8.561,8.561,0,1,0-.146,17.122h45.527Z" transform="translate(-46.771 -166.702)" fill="#fdfbfc"/><path d="M83.244,187.692H133.53a2.451,2.451,0,0,0,2.456-2.445v0a2.449,2.449,0,0,0-2.453-2.446H83.247a6.123,6.123,0,0,1-6.132-6.115h0a6.124,6.124,0,0,1,6.132-6.116h50.287a2.446,2.446,0,1,0,0-4.893H83.247a11.025,11.025,0,0,0-11.041,11.011h0a11.025,11.025,0,0,0,11.041,11.01Z" transform="translate(-45.77 -165.671)" fill="#c263ff"/></g><g transform="translate(18.673)"><path d="M45.691,103.1H94.752a11.026,11.026,0,0,0-11.041,11.01h0a11.026,11.026,0,0,0,11.041,11.01H45.691a11.011,11.011,0,1,1,0-22.021Z" transform="translate(-34.65 -103.102)" fill="#ff4b4b"/><path d="M129.625,106.576H84.244A8.561,8.561,0,1,0,84.1,123.7h45.527Z" transform="translate(-46.771 -104.13)" fill="#fdfbfc"/><path d="M83.244,125.115H133.53a2.446,2.446,0,1,0,0-4.892H83.244a6.124,6.124,0,0,1-6.132-6.115h0a6.123,6.123,0,0,1,6.132-6.115H133.53a2.445,2.445,0,1,0,0-4.89H83.247a11.025,11.025,0,0,0-11.041,11.011h0a11.025,11.025,0,0,0,11.041,11.01Z" transform="translate(-45.77 -103.101)" fill="#ff4b4b"/></g><g transform="translate(0 88.092)"><path d="M99.96,228.253H50.9a11.025,11.025,0,0,1,11.041,11.01h0a11.025,11.025,0,0,1-11.04,11.01H99.96A11.025,11.025,0,0,0,111,239.264h0a11.024,11.024,0,0,0-11.039-11.01Z" transform="translate(-20.788 -228.251)" fill="#1cb0f6"/><path d="M18.577,231.728h45.38A8.561,8.561,0,1,1,64.1,248.85H18.577Z" transform="translate(-11.218 -229.28)" fill="#fdfbfc"/><path d="M60.861,250.268H10.575a2.45,2.45,0,0,1-2.453-2.446h0a2.449,2.449,0,0,1,2.451-2.446H60.861a6.124,6.124,0,0,0,6.133-6.115v0a6.125,6.125,0,0,0-6.132-6.116H10.575A2.45,2.45,0,0,1,8.122,230.7h0a2.449,2.449,0,0,1,2.452-2.446H60.861A11.026,11.026,0,0,1,71.9,239.261h0a11.024,11.024,0,0,1-11.04,11.009h0Z" transform="translate(-8.122 -228.25)" fill="#129dec"/></g><g transform="translate(0 22.023)"><path d="M99.96,134.39H50.9A11.026,11.026,0,0,1,61.939,145.4h0A11.026,11.026,0,0,1,50.9,156.411H99.96A11.025,11.025,0,0,0,111,145.4h0A11.026,11.026,0,0,0,99.961,134.39Z" transform="translate(-20.788 -134.389)" fill="#fed452"/><path d="M18.577,137.866h45.38a8.561,8.561,0,1,1,.146,17.122H18.577Z" transform="translate(-11.218 -135.418)" fill="#fdfbfc"/><path d="M60.861,156.406H10.575a2.446,2.446,0,1,1,0-4.893H60.861a6.125,6.125,0,0,0,6.133-6.115h0a6.125,6.125,0,0,0-6.132-6.116H10.575a2.45,2.45,0,0,1-2.453-2.446h0a2.449,2.449,0,0,1,2.452-2.446H60.861A11.025,11.025,0,0,1,71.9,145.4h0a11.025,11.025,0,0,1-11.039,11.01h0Z" transform="translate(-8.122 -134.388)" fill="#fdb23e"/></g></g><g transform="translate(1373.666 1542.867)"><g transform="translate(14.999)"><path d="M121.265,312.848H72.2a11.026,11.026,0,0,0,11.041-11.01h0A11.026,11.026,0,0,0,72.2,290.827h49.062a11.025,11.025,0,0,1,11.041,11.01h0a11.026,11.026,0,0,1-11.039,11.011Z" transform="translate(-42.095 -290.827)" fill="#ff9600"/><path d="M39.882,311.425h45.38a8.562,8.562,0,1,0,.146-17.122H39.882Z" transform="translate(-32.525 -291.85)" fill="#fdfbfc"/><path d="M82.167,290.828H31.884a2.45,2.45,0,0,0-2.454,2.447h0a2.45,2.45,0,0,0,2.454,2.446H82.17a6.124,6.124,0,0,1,6.132,6.115h0a6.124,6.124,0,0,1-6.132,6.116H31.884A2.45,2.45,0,0,0,29.43,310.4h0a2.45,2.45,0,0,0,2.454,2.446H82.17a11.025,11.025,0,0,0,11.041-11.01h0a11.025,11.025,0,0,0-11.039-11.01h0Z" transform="translate(-29.43 -290.823)" fill="#ff9600"/></g><g transform="translate(14.999 22.023)"><path d="M121.265,281.561H72.2a11.026,11.026,0,0,0,11.041-11.01h0A11.026,11.026,0,0,0,72.2,259.54h49.062a11.026,11.026,0,0,1,11.041,11.01h0a11.026,11.026,0,0,1-11.039,11.011Z" transform="translate(-42.095 -259.54)" fill="#58cc02"/><path d="M39.882,280.137h45.38a8.562,8.562,0,1,0,.146-17.122H39.882Z" transform="translate(-32.525 -260.561)" fill="#fdfbfc"/><path d="M82.167,259.541H31.884a2.446,2.446,0,1,0,0,4.892H82.17a6.124,6.124,0,0,1,6.132,6.115h0a6.124,6.124,0,0,1-6.132,6.116H31.884a2.45,2.45,0,0,0-2.454,2.447h0a2.45,2.45,0,0,0,2.454,2.446H82.17A11.026,11.026,0,0,0,93.21,270.547h0a11.026,11.026,0,0,0-11.041-11.01h0Z" transform="translate(-29.43 -259.535)" fill="#58cc02"/></g><g transform="translate(18.673 66.069)"><path d="M45.691,218.986H94.752a11.026,11.026,0,0,1-11.041-11.01h0a11.026,11.026,0,0,1,11.041-11.01H45.691a11.011,11.011,0,1,0,0,22.021Z" transform="translate(-34.65 -196.965)" fill="#fed452"/><path d="M129.625,217.562H84.244a8.561,8.561,0,1,1-.146-17.122h45.526Z" transform="translate(-46.771 -197.986)" fill="#fdfbfc"/><path d="M83.243,196.966h50.286a2.446,2.446,0,1,1,0,4.892H83.243a6.123,6.123,0,0,0-6.132,6.115h0a6.123,6.123,0,0,0,6.132,6.115h50.286a2.447,2.447,0,1,1,0,4.893H83.243A11.025,11.025,0,0,1,72.2,207.972h0a11.025,11.025,0,0,1,11.041-11.01Z" transform="translate(-45.769 -196.96)" fill="#fdb23e"/></g><g transform="translate(18.673 88.094)"><path d="M45.691,187.7H94.752a11.026,11.026,0,0,1-11.041-11.01h0a11.025,11.025,0,0,1,11.04-11.01H45.691a11.025,11.025,0,0,0-11.041,11.01h0A11.026,11.026,0,0,0,45.69,187.7Z" transform="translate(-34.65 -165.676)" fill="#c263ff"/><path d="M129.625,186.275H84.244a8.561,8.561,0,1,1-.146-17.122h45.527Z" transform="translate(-46.771 -166.701)" fill="#fdfbfc"/><path d="M83.244,165.672H133.53a2.451,2.451,0,0,1,2.456,2.445v0a2.449,2.449,0,0,1-2.453,2.446H83.247a6.123,6.123,0,0,0-6.132,6.115h0a6.124,6.124,0,0,0,6.132,6.116h50.287a2.446,2.446,0,1,1,0,4.893H83.247a11.025,11.025,0,0,1-11.041-11.011h0a11.025,11.025,0,0,1,11.041-11.01Z" transform="translate(-45.77 -165.668)" fill="#c263ff"/></g><g transform="translate(18.673 132.138)"><path d="M45.691,125.124H94.752a11.026,11.026,0,0,1-11.041-11.01h0A11.026,11.026,0,0,1,94.752,103.1H45.691a11.011,11.011,0,1,0,0,22.021Z" transform="translate(-34.65 -103.103)" fill="#ff4b4b"/><path d="M129.625,123.7H84.244a8.561,8.561,0,1,1-.146-17.122h45.527Z" transform="translate(-46.771 -104.121)" fill="#fdfbfc"/><path d="M83.244,103.108H133.53a2.446,2.446,0,1,1,0,4.892H83.244a6.124,6.124,0,0,0-6.132,6.115h0a6.123,6.123,0,0,0,6.132,6.115H133.53a2.445,2.445,0,1,1,0,4.89H83.247a11.025,11.025,0,0,1-11.041-11.011h0A11.025,11.025,0,0,1,83.247,103.1Z" transform="translate(-45.77 -103.1)" fill="#ff4b4b"/></g><g transform="translate(0 44.046)"><path d="M99.96,250.274H50.9a11.025,11.025,0,0,0,11.041-11.01h0a11.025,11.025,0,0,0-11.04-11.01H99.96A11.025,11.025,0,0,1,111,239.263h0a11.024,11.024,0,0,1-11.039,11.01Z" transform="translate(-20.788 -228.253)" fill="#1cb0f6"/><path d="M18.577,248.85h45.38a8.561,8.561,0,1,0,.146-17.122H18.577Z" transform="translate(-11.218 -229.275)" fill="#fdfbfc"/><path d="M60.861,228.253H10.575A2.45,2.45,0,0,0,8.122,230.7h0a2.449,2.449,0,0,0,2.451,2.446H60.861a6.124,6.124,0,0,1,6.133,6.115v0a6.125,6.125,0,0,1-6.132,6.116H10.575a2.45,2.45,0,0,0-2.453,2.446h0a2.449,2.449,0,0,0,2.452,2.446H60.861A11.026,11.026,0,0,0,71.9,239.26h0a11.024,11.024,0,0,0-11.04-11.009h0Z" transform="translate(-8.122 -228.248)" fill="#129dec"/></g><g transform="translate(0 110.115)"><path d="M99.96,156.411H50.9A11.026,11.026,0,0,0,61.939,145.4h0A11.026,11.026,0,0,0,50.9,134.39H99.96A11.025,11.025,0,0,1,111,145.4h0a11.026,11.026,0,0,1-11.039,11.011Z" transform="translate(-20.788 -134.39)" fill="#fed452"/><path d="M18.577,154.988h45.38a8.561,8.561,0,1,0,.146-17.122H18.577Z" transform="translate(-11.218 -135.413)" fill="#fdfbfc"/><path d="M60.861,134.391H10.575a2.446,2.446,0,1,0,0,4.893H60.861a6.125,6.125,0,0,1,6.133,6.115h0a6.125,6.125,0,0,1-6.132,6.116H10.575a2.45,2.45,0,0,0-2.453,2.446h0a2.449,2.449,0,0,0,2.452,2.446H60.861A11.025,11.025,0,0,0,71.9,145.4h0a11.025,11.025,0,0,0-11.039-11.01h0Z" transform="translate(-8.122 -134.386)" fill="#fdb23e"/></g></g><g transform="translate(-736.375 -1099.969)"><g clip-path="url(#a)"><rect width="92.517" height="26.625" rx="12.447" transform="translate(2048.157 2685.232)" fill="#3d3d3d"/><rect width="79.576" height="49.477" rx="10.722" transform="translate(2054.255 2702.04)" fill="#3d3d3d"/><rect width="84.501" height="120.228" rx="42.25" transform="translate(2051.712 2780.516)" fill="#ffb100"/><g clip-path="url(#b)"><rect width="126.085" height="51.201" transform="translate(2030.432 2780.516)" fill="#ffb100"/></g><rect width="28.006" height="35.907" rx="11.078" transform="translate(2080.565 2763.927)" fill="#ffc6b7"/><rect width="99.021" height="20.824" rx="10.412" transform="translate(2044.275 2716.388)" fill="#ffc6b7"/><rect width="70.122" height="88.843" rx="25.554" transform="translate(2058.724 2683.806)" fill="#ffc6b7"/><rect width="14.506" height="6.102" rx="2.904" transform="translate(2072.235 2700.013) rotate(-10.843)" fill="#4b4b4b"/><rect width="14.506" height="6.102" rx="2.904" transform="translate(2114.494 2706.006) rotate(-169.157)" fill="#4b4b4b"/><circle cx="11.415" cy="11.415" r="11.415" transform="translate(2066.369 2708.42)" fill="#fff"/><circle cx="3.533" cy="3.533" r="3.533" transform="translate(2077.785 2716.303)" fill="#4b4b4b"/><circle cx="14.178" cy="14.178" r="14.178" transform="translate(2095.961 2705.658)" fill="#777"/><path d="M2077.785,2705.658a14.178,14.178,0,1,0,14.178,14.178A14.177,14.177,0,0,0,2077.785,2705.658Zm0,25.593a11.416,11.416,0,1,1,11.415-11.415A11.416,11.416,0,0,1,2077.785,2731.251Z" fill="#777"/><circle cx="11.415" cy="11.415" r="11.415" transform="translate(2098.724 2708.42)" fill="#fff"/><circle cx="3.533" cy="3.533" r="3.533" transform="translate(2103.074 2716.303)" fill="#4b4b4b"/><rect width="10.833" height="3.781" rx="1.695" transform="translate(2088.364 2712.856)" fill="#777"/><circle cx="17.551" cy="17.551" r="17.551" transform="translate(2057.676 2659.053)" fill="#3d3d3d"/><path d="M16.709,0H54.34a0,0,0,0,1,0,0V16.709A16.709,16.709,0,0,1,37.631,33.417H16.709A16.709,16.709,0,0,1,0,16.709v0A16.709,16.709,0,0,1,16.709,0Z" transform="translate(2086.333 2660.739)" fill="#3d3d3d"/><path d="M2080.635,2782.336v21.949l13.968-4.451Z" fill="#fff5d3"/><path d="M2108.571,2782.336v21.949l-13.968-4.451Z" fill="#fff5d3"/><path d="M11.646,0h0A11.646,11.646,0,0,1,23.293,11.646V39.835A11.589,11.589,0,0,1,11.7,51.424h-.115A11.589,11.589,0,0,1,0,39.835V11.646A11.646,11.646,0,0,1,11.646,0Z" transform="matrix(-0.003, -1, 1, -0.003, 2020.475, 2831.752)" fill="#ffc6b7"/><path d="M0,0H23.293a0,0,0,0,1,0,0V25.4A11.6,11.6,0,0,1,11.694,37H11.6A11.6,11.6,0,0,1,0,25.4V0A0,0,0,0,1,0,0Z" transform="matrix(-0.003, -1, 1, -0.003, 2041.592, 2831.688)" fill="#ffb100"/><rect width="23.293" height="84.869" rx="11.646" transform="matrix(0.85, 0.527, -0.527, 0.85, 2060.322, 2751.349)" fill="#f2beb3"/><rect width="15.873" height="36.444" rx="7.936" transform="translate(2078.45 2767.141) rotate(141.74)" fill="#f2beb3"/><path d="M11.589,0H11.7A11.589,11.589,0,0,1,23.293,11.589V39.777A11.646,11.646,0,0,1,11.646,51.424h0A11.646,11.646,0,0,1,0,39.777V11.589A11.589,11.589,0,0,1,11.589,0Z" transform="translate(2117.45 2831.596) rotate(-89.825)" fill="#ffc6b7"/><path d="M11.6,0h.094a11.6,11.6,0,0,1,11.6,11.6V37a0,0,0,0,1,0,0H0a0,0,0,0,1,0,0V11.6A11.6,11.6,0,0,1,11.6,0Z" transform="matrix(0.003, -1, 1, 0.003, 2110.757, 2831.575)" fill="#ffb100"/><rect width="23.293" height="84.869" rx="11.646" transform="matrix(-0.85, 0.527, -0.527, -0.85, 2173.773, 2823.464)" fill="#f2beb3"/><rect width="15.873" height="36.444" rx="7.936" transform="translate(2133.465 2738.525) rotate(38.26)" fill="#f2beb3"/><path d="M2067.223,2744.855s15.763,4.347,13.112,21.9" fill="none" stroke="#f7a78d" stroke-linecap="round" stroke-miterlimit="10" stroke-width="3.054" fill-rule="evenodd"/><path d="M2120.16,2744.855s-15.764,4.347-13.112,21.9" fill="none" stroke="#f7a78d" stroke-linecap="round" stroke-miterlimit="10" stroke-width="3.054" fill-rule="evenodd"/><ellipse cx="5.417" cy="6.945" rx="5.417" ry="6.945" transform="translate(2088.364 2745.415)" fill="#fff"/></g></g></g></svg>