<svg xmlns="http://www.w3.org/2000/svg" width="246.416" height="204.437" viewBox="0 0 246.416 204.437"><g transform="translate(-381.978 -3196.041)"><path d="M112.837,15.267,106.12,8.551a3.166,3.166,0,0,0-4.477,0l-6.716,6.716a3.166,3.166,0,0,0,0,4.477l6.716,6.716a3.166,3.166,0,0,0,4.477,0l6.717-6.716A3.167,3.167,0,0,0,112.837,15.267Z" transform="translate(504.852 3307.625)" fill="#58cc02" opacity="0.34"/><path d="M97.366,176.729l-6.717-6.716a3.167,3.167,0,0,0-4.477,0l-6.716,6.716a3.166,3.166,0,0,0,0,4.477l6.716,6.716a3.167,3.167,0,0,0,4.477,0l6.717-6.716A3.166,3.166,0,0,0,97.366,176.729Z" transform="translate(350.135 3026.955)" fill="#58cc02" opacity="0.38"/><path d="M84.3,5.4,79.555.655a2.234,2.234,0,0,0-3.16,0L71.655,5.4a2.235,2.235,0,0,0,0,3.16L76.4,13.3a2.234,2.234,0,0,0,3.16,0L84.3,8.555A2.234,2.234,0,0,0,84.3,5.4Z" transform="translate(543.443 3282.082)" fill="#58cc02" opacity="0.79"/><g transform="translate(578.965 3380.755) rotate(180)" fill="#d7ffb8"><path d="M 100.4804992675781 97.1715087890625 L 12.0005931854248 97.1715087890625 C 6.210546970367432 97.1715087890625 1.500008583068848 92.46095275878906 1.500008583068848 86.67090606689453 L 1.500008583068848 25.02090644836426 C 1.500008583068848 19.23135185241699 6.210546970367432 14.52119827270508 12.0005931854248 14.52119827270508 L 12.9957160949707 14.52119827270508 L 14.49945449829102 14.52119827270508 L 14.4957160949707 13.01747512817383 L 14.46810054779053 1.902475476264954 C 14.46777820587158 1.763983249664307 14.5147008895874 1.646444797515869 14.60759353637695 1.553337097167969 C 14.70434665679932 1.45636785030365 14.84047031402588 1.398460149765015 14.97171592712402 1.398460149765015 C 15.05651664733887 1.398460149765015 15.13747024536133 1.421383261680603 15.21922397613525 1.468537092208862 L 37.47817611694336 14.32022953033447 L 37.82625579833984 14.52119827270508 L 38.22819137573242 14.52119827270508 L 100.4804992675781 14.52119827270508 C 106.2700576782227 14.52119827270508 110.9802093505859 19.23135185241699 110.9802093505859 25.02090644836426 L 110.9802093505859 86.67090606689453 C 110.9802093505859 92.46095275878906 106.2700576782227 97.1715087890625 100.4804992675781 97.1715087890625 Z" stroke="none"/><path d="M 100.4804992675781 95.67150115966797 C 105.4429473876953 95.67150115966797 109.4802017211914 91.63385009765625 109.4802017211914 86.67090606689453 L 109.4802017211914 25.02090263366699 C 109.4802017211914 20.05845260620117 105.4429473876953 16.02120208740234 100.4804992675781 16.02120208740234 L 37.42431640625 16.02120208740234 L 15.97239971160889 3.635466337203979 L 16.00318336486816 16.02120208740234 L 12.00060081481934 16.02120208740234 C 7.037651062011719 16.02120208740234 3.000000953674316 20.05845260620117 3.000000953674316 25.02090263366699 L 3.000000953674316 86.67090606689453 C 3.000000953674316 91.63385009765625 7.037651062011719 95.67150115966797 12.00060081481934 95.67150115966797 L 100.4804992675781 95.67150115966797 M 100.4804992675781 98.67150115966797 L 12.00060081481934 98.67150115966797 C 5.373001098632812 98.67150115966797 8.605957191321068e-07 93.29850006103516 8.605957191321068e-07 86.67090606689453 L 8.605957191321068e-07 25.02090263366699 C 8.605957191321068e-07 18.39420318603516 5.373001098632812 13.02120208740234 12.00060081481934 13.02120208740234 L 12.99571800231934 13.02120208740234 L 12.96810054779053 1.906202435493469 C 12.96450042724609 0.3645024001598358 14.63309764862061 -0.6011975407600403 15.96870040893555 0.1692024320363998 L 38.22818374633789 13.02120208740234 L 100.4804992675781 13.02120208740234 C 107.1081008911133 13.02120208740234 112.4802017211914 18.39420318603516 112.4802017211914 25.02090263366699 L 112.4802017211914 86.67090606689453 C 112.4802017211914 93.29850006103516 107.1081008911133 98.67150115966797 100.4804992675781 98.67150115966797 Z" stroke="none" fill="#a5ed6e"/></g><path d="M7.113,52,7.125,47A10.005,10.005,0,0,1,0,37.417V10A10,10,0,0,1,10,0H51.662a10,10,0,0,1,10,10V37.417a10,10,0,0,1-10,10H20.957L10.1,53.747a1.958,1.958,0,0,1-.992.272A2,2,0,0,1,7.113,52Z" transform="translate(392.285 3335.685) rotate(11)" fill="#a5ed6e"/><path d="M7.114,52,7.126,47A10,10,0,0,1,0,37.416V10A10,10,0,0,1,10,0H51.663a10,10,0,0,1,10,10V37.416a10,10,0,0,1-10,10h-30.7L10.1,53.747a1.96,1.96,0,0,1-.992.272A2,2,0,0,1,7.114,52Z" transform="translate(591.814 3252.748) rotate(163)" fill="#58cc02"/><ellipse cx="7.26" cy="7.26" rx="7.26" ry="7.26" transform="translate(493.855 3318.307)" fill="#a5ed6e"/><ellipse cx="7.26" cy="7.26" rx="7.26" ry="7.26" transform="translate(515.635 3318.307)" fill="#a5ed6e"/><ellipse cx="7.26" cy="7.26" rx="7.26" ry="7.26" transform="translate(537.412 3318.307)" fill="#a5ed6e"/><g transform="translate(0 148.011)"><g transform="translate(392.188 3078.348)" fill="#a5ed6e"><path d="M 14.97145462036133 97.27250671386719 L 14.97143936157227 97.27250671386719 C 14.84039306640625 97.27250671386719 14.70445442199707 97.21466064453125 14.60777759552002 97.11776733398438 C 14.51477813720703 97.0245361328125 14.46777820587158 96.90681457519531 14.46810054779053 96.76789093017578 L 14.4957160949707 85.65402984619141 L 14.49945449829102 84.15030670166016 L 12.9957160949707 84.15030670166016 L 12.0005931854248 84.15030670166016 C 6.210546970367432 84.15030670166016 1.500008583068848 79.43975067138672 1.500008583068848 73.64970397949219 L 1.500008583068848 11.99970722198486 C 1.500008583068848 6.210153102874756 6.210546970367432 1.499999403953552 12.0005931854248 1.499999403953552 L 100.4804992675781 1.499999403953552 C 106.2700576782227 1.499999403953552 110.9802093505859 6.210153102874756 110.9802093505859 11.99970722198486 L 110.9802093505859 73.64970397949219 C 110.9802093505859 79.43975067138672 106.2700576782227 84.15030670166016 100.4804992675781 84.15030670166016 L 38.22796249389648 84.15030670166016 L 37.8260383605957 84.15030670166016 L 37.47797775268555 84.35125732421875 L 15.21871662139893 97.20235443115234 C 15.1369161605835 97.24959564208984 15.05610084533691 97.27250671386719 14.97145462036133 97.27250671386719 Z" stroke="none"/><path d="M 15.97241306304932 95.03518676757812 L 37.42413330078125 82.65029144287109 L 100.4804992675781 82.65029144287109 C 105.4429473876953 82.65029144287109 109.4802017211914 78.61264801025391 109.4802017211914 73.64971160888672 L 109.4802017211914 11.99971103668213 C 109.4802017211914 7.037244319915771 105.4429473876953 2.999994277954102 100.4804992675781 2.999994277954102 L 12.00060081481934 2.999994277954102 C 7.037651062011719 2.999994277954102 3.000000953674316 7.037244319915771 3.000000953674316 11.99971103668213 L 3.000000953674316 73.64971160888672 C 3.000000953674316 78.61264801025391 7.037651062011719 82.65029144287109 12.00060081481934 82.65029144287109 L 16.00318336486816 82.65029144287109 L 15.97241306304932 95.03518676757812 M 14.97145080566406 98.77251434326172 C 13.92493438720703 98.77252960205078 12.96536731719971 97.93394470214844 12.96810054779053 96.76441192626953 L 12.99571800231934 85.65029144287109 L 12.00060081481934 85.65029144287109 C 5.373001098632812 85.65029144287109 8.605957191321068e-07 80.27731323242188 8.605957191321068e-07 73.64971160888672 L 8.605957191321068e-07 11.99971103668213 C 8.605957191321068e-07 5.373011112213135 5.373001098632812 -5.680338745150948e-06 12.00060081481934 -5.680338745150948e-06 L 100.4804992675781 -5.680338745150948e-06 C 107.1081008911133 -5.680338745150948e-06 112.4802017211914 5.373011112213135 112.4802017211914 11.99971103668213 L 112.4802017211914 73.64971160888672 C 112.4802017211914 80.27731323242188 107.1081008911133 85.65029144287109 100.4804992675781 85.65029144287109 L 38.22796630859375 85.65029144287109 L 15.96870040893555 98.50141143798828 C 15.64630126953125 98.68759155273438 15.30445098876953 98.77251434326172 14.97145080566406 98.77251434326172 Z" stroke="none" fill="#58cc02"/></g><ellipse cx="7.26" cy="7.26" rx="7.26" ry="7.26" transform="translate(419.389 3113.215)" fill="#58cc02"/><ellipse cx="7.26" cy="7.26" rx="7.26" ry="7.26" transform="translate(441.168 3113.215)" fill="#58cc02"/><ellipse cx="7.26" cy="7.26" rx="7.26" ry="7.26" transform="translate(462.947 3113.215)" fill="#58cc02"/></g></g></svg>