<svg xmlns="http://www.w3.org/2000/svg" width="257.916" height="237.448" viewBox="0 0 257.916 237.448"><g transform="translate(-362.986 -2827.94)"><g transform="translate(13.873 153.45)"><g transform="translate(351.512 2738.19) rotate(-13)"><g transform="translate(0 0)" fill="#ffb2b2" stroke="#ffb2b2" stroke-width="2"><rect width="111.621" height="82.232" rx="12" stroke="none"/><rect x="-1" y="-1" width="113.621" height="84.232" rx="13" fill="none"/></g><rect width="107.688" height="73.153" rx="10" transform="translate(1.965 2.201)" fill="#ffdfe0"/><g transform="translate(16.958 22.984)"><path d="M5.514,3.342v7.8h11.9v-7.8A3.64,3.64,0,0,1,18.17.836,2.534,2.534,0,0,1,20.147,0a2.631,2.631,0,0,1,2.015.827,3.583,3.583,0,0,1,.769,2.515V24.788a3.586,3.586,0,0,1-.779,2.527,2.621,2.621,0,0,1-2.006.834,2.516,2.516,0,0,1-1.987-.844,3.712,3.712,0,0,1-.743-2.517V15.635H5.514v9.153a3.586,3.586,0,0,1-.779,2.527,2.622,2.622,0,0,1-2.006.834,2.517,2.517,0,0,1-1.987-.844A3.723,3.723,0,0,1,0,24.788V3.342A3.709,3.709,0,0,1,.733.836a2.522,2.522,0,0,1,2-.836A2.625,2.625,0,0,1,4.745.827,3.583,3.583,0,0,1,5.514,3.342Z" transform="translate(0 0)" fill="#fc4848"/><path d="M20.185,10.305a12.013,12.013,0,0,1-.706,4.178,9.222,9.222,0,0,1-2.044,3.286,8.992,8.992,0,0,1-3.193,2.107,11.309,11.309,0,0,1-4.178.733,10.953,10.953,0,0,1-4.14-.743A9.139,9.139,0,0,1,.7,14.474,11.919,11.919,0,0,1,0,10.305,12.077,12.077,0,0,1,.706,6.09,9.18,9.18,0,0,1,2.729,2.823,8.94,8.94,0,0,1,5.924.733,11.291,11.291,0,0,1,10.063,0a11.291,11.291,0,0,1,4.178.743A9.077,9.077,0,0,1,17.454,2.86a9.18,9.18,0,0,1,2.035,3.267A12.067,12.067,0,0,1,20.185,10.305Zm-5.089,0a7.6,7.6,0,0,0-1.365-4.827,4.427,4.427,0,0,0-3.667-1.726,4.551,4.551,0,0,0-2.618.769A4.892,4.892,0,0,0,5.7,6.795a9.242,9.242,0,0,0-.615,3.51,9.185,9.185,0,0,0,.6,3.472,4.969,4.969,0,0,0,1.728,2.276,4.481,4.481,0,0,0,2.645.789,4.42,4.42,0,0,0,3.667-1.736A7.576,7.576,0,0,0,15.1,10.305Z" transform="translate(27.296 7.539)" fill="#fc4848"/><path d="M4.9,3.156,8.208,14.483,11.216,3.954Q11.7,2.3,11.93,1.7A2.944,2.944,0,0,1,12.8.547,2.614,2.614,0,0,1,14.558,0,2.638,2.638,0,0,1,16.33.547a3.132,3.132,0,0,1,.9,1.189c.172.427.415,1.168.724,2.218l3.009,10.529L24.306,3.156q.333-1.226.538-1.772a2.358,2.358,0,0,1,.689-.967A2.069,2.069,0,0,1,26.924,0,2.224,2.224,0,0,1,28.5.632a1.983,1.983,0,0,1,.668,1.485A7.717,7.717,0,0,1,28.6,4.475l-4.14,12.144q-.54,1.539-.836,2.228a3.328,3.328,0,0,1-.938,1.225,2.633,2.633,0,0,1-1.753.538,2.662,2.662,0,0,1-1.811-.574,3.478,3.478,0,0,1-.976-1.413q-.316-.835-.687-2.172l-2.9-9.878-2.8,9.878a12.135,12.135,0,0,1-1.206,3.11A2.469,2.469,0,0,1,8.263,20.61a2.868,2.868,0,0,1-1.42-.325,2.73,2.73,0,0,1-.974-.926,7,7,0,0,1-.687-1.43c-.2-.551-.352-.988-.463-1.309L.614,4.475A8.59,8.59,0,0,1,0,2.117,2.025,2.025,0,0,1,.651.651,2.164,2.164,0,0,1,2.247,0,1.859,1.859,0,0,1,3.956.716,10.553,10.553,0,0,1,4.9,3.156Z" transform="translate(49.726 7.539)" fill="#fc4848"/></g></g><g transform="translate(511.134 2717.628)"><g transform="translate(12.974 0) rotate(9)" fill="#dca7ff" stroke="#dca7ff" stroke-width="2"><rect width="81.638" height="82.937" rx="12" stroke="none"/><rect x="-1" y="-1" width="83.638" height="84.937" rx="13" fill="none"/></g><rect width="77.333" height="73.153" rx="10" transform="translate(14.731 2.194) rotate(9)" fill="#f4dcff"/><g transform="translate(21.264 31.867) rotate(9)"><path d="M13.907,17.787a15.633,15.633,0,0,1-3.555,2.146,9.954,9.954,0,0,1-3.855.714,7.3,7.3,0,0,1-3.424-.769A5.616,5.616,0,0,1,.8,17.787a5.418,5.418,0,0,1-.8-2.86,5.127,5.127,0,0,1,1.319-3.547A6.605,6.605,0,0,1,4.94,9.413q.482-.112,2.395-.5T10.611,8.2q1.367-.324,2.961-.789a5.285,5.285,0,0,0-.806-2.944q-.715-.939-2.963-.938A6.186,6.186,0,0,0,6.9,4.065,4.728,4.728,0,0,0,5.227,5.681q-.7,1.077-.984,1.42a1.613,1.613,0,0,1-1.234.345A2.162,2.162,0,0,1,1.533,6.9,1.784,1.784,0,0,1,.911,5.5a4.282,4.282,0,0,1,.946-2.6A6.774,6.774,0,0,1,4.81.815,13.317,13.317,0,0,1,9.8,0a14.134,14.134,0,0,1,5.256.789,4.9,4.9,0,0,1,2.7,2.5,10.955,10.955,0,0,1,.786,4.53q0,1.783-.007,3.026t-.029,2.768a10.2,10.2,0,0,0,.474,2.98,9.352,9.352,0,0,1,.473,2,1.872,1.872,0,0,1-.733,1.42,2.46,2.46,0,0,1-1.661.639,2.246,2.246,0,0,1-1.543-.733A10.916,10.916,0,0,1,13.907,17.787Zm-.335-7.334a25.334,25.334,0,0,1-3.239.865q-2.127.454-2.944.668a4.021,4.021,0,0,0-1.56.835,2.139,2.139,0,0,0-.743,1.736,2.574,2.574,0,0,0,.873,1.96,3.232,3.232,0,0,0,2.284.808,5.933,5.933,0,0,0,2.777-.66,4.392,4.392,0,0,0,1.866-1.7,7.773,7.773,0,0,0,.685-3.788Z" fill="#9069cd"/><path d="M5.068,13.295v4.234a3.268,3.268,0,0,1-.723,2.312,2.42,2.42,0,0,1-1.839.769,2.326,2.326,0,0,1-1.8-.779,3.328,3.328,0,0,1-.7-2.3V3.417Q0,0,2.469,0a2.064,2.064,0,0,1,1.82.8A4.42,4.42,0,0,1,4.9,3.156,8.881,8.881,0,0,1,6.768.8,3.852,3.852,0,0,1,9.319,0a6.539,6.539,0,0,1,3.1.8,2.383,2.383,0,0,1,1.5,2.117,2.018,2.018,0,0,1-.639,1.533,1.989,1.989,0,0,1-1.384.6,6.335,6.335,0,0,1-1.345-.344,6.3,6.3,0,0,0-1.885-.343,2.766,2.766,0,0,0-1.82.584,3.779,3.779,0,0,0-1.1,1.736,12.133,12.133,0,0,0-.539,2.739Q5.069,11.01,5.068,13.295Z" transform="translate(23.657 0.036)" fill="#9069cd"/><path d="M15.1,11.585H5.181a6.745,6.745,0,0,0,.7,3.045,4.659,4.659,0,0,0,4.28,2.655,6.1,6.1,0,0,0,1.662-.212,5.387,5.387,0,0,0,1.456-.668,11.275,11.275,0,0,0,1.3-.976q.591-.52,1.54-1.411a1.669,1.669,0,0,1,1.114-.335,1.842,1.842,0,0,1,1.263.427,1.529,1.529,0,0,1,.482,1.208,3.305,3.305,0,0,1-.538,1.606,6.4,6.4,0,0,1-1.625,1.765,9.282,9.282,0,0,1-2.729,1.4,11.772,11.772,0,0,1-3.78.557q-4.883,0-7.593-2.785A10.365,10.365,0,0,1,0,10.3,12.6,12.6,0,0,1,.67,6.136a9.189,9.189,0,0,1,1.949-3.3A8.445,8.445,0,0,1,5.775.733,11.31,11.31,0,0,1,9.934,0a9.881,9.881,0,0,1,5.1,1.252,8.242,8.242,0,0,1,3.183,3.24A8.51,8.51,0,0,1,19.274,8.54q0,1.912-1.095,2.479A6.805,6.805,0,0,1,15.1,11.585ZM5.181,8.707h9.191a6.172,6.172,0,0,0-1.4-3.889,4.2,4.2,0,0,0-3.2-1.29,4.06,4.06,0,0,0-3.11,1.309A6.509,6.509,0,0,0,5.181,8.707Z" transform="translate(38.454 0)" fill="#9069cd"/></g></g><g transform="translate(433.135 2811.518) rotate(8)"><g transform="translate(0 0)" fill="#fbe56d" stroke="#fbe56d" stroke-width="2"><rect width="115.184" height="82.937" rx="12" stroke="none"/><rect x="-1" y="-1" width="117.184" height="84.937" rx="13" fill="none"/></g><rect width="111.125" height="73.153" rx="9.995" transform="translate(2.03 1.891)" fill="#fff5d3"/><g transform="translate(15.363 22.676)"><path d="M6.925,21.242l.465-1.131L1.15,4.4a5.9,5.9,0,0,1-.576-1.97A2.311,2.311,0,0,1,.909,1.227,2.49,2.49,0,0,1,1.828.335,2.412,2.412,0,0,1,3.045,0,1.992,1.992,0,0,1,4.7.7a6.414,6.414,0,0,1,.984,2L9.97,15.17l4.068-11.6a20.121,20.121,0,0,1,.872-2.211A2.6,2.6,0,0,1,15.735.279,2.3,2.3,0,0,1,16.971,0a2.186,2.186,0,0,1,1.1.306,2.157,2.157,0,0,1,.817.827,2.235,2.235,0,0,1,.287,1.095q-.075.353-.241,1c-.111.434-.247.873-.41,1.319L11.92,21.856a20.405,20.405,0,0,1-1.671,3.583,5.521,5.521,0,0,1-2.163,2,7.982,7.982,0,0,1-3.631.695,8.831,8.831,0,0,1-3.342-.482A1.76,1.76,0,0,1,0,25.885a1.717,1.717,0,0,1,.528-1.348,2.287,2.287,0,0,1,1.57-.473,2.955,2.955,0,0,1,.8.111,3.789,3.789,0,0,0,.836.113,3.025,3.025,0,0,0,1.373-.26,2.411,2.411,0,0,0,.9-.9A13.724,13.724,0,0,0,6.925,21.242Z" transform="translate(0 7.537)" fill="#ffb100"/><path d="M20.183,10.305a11.97,11.97,0,0,1-.706,4.178,9.2,9.2,0,0,1-2.042,3.286,9,9,0,0,1-3.194,2.107,11.27,11.27,0,0,1-4.178.735,10.989,10.989,0,0,1-4.14-.743,9.15,9.15,0,0,1-5.227-5.4A11.965,11.965,0,0,1,0,10.305,12.09,12.09,0,0,1,.7,6.09,9.18,9.18,0,0,1,2.727,2.823,8.963,8.963,0,0,1,5.922.733,11.291,11.291,0,0,1,10.062,0,11.287,11.287,0,0,1,14.24.743a8.977,8.977,0,0,1,5.246,5.386A12.04,12.04,0,0,1,20.183,10.305Zm-5.089,0a7.6,7.6,0,0,0-1.364-4.827,4.435,4.435,0,0,0-3.667-1.726,4.529,4.529,0,0,0-2.617.771A4.863,4.863,0,0,0,5.7,6.8a9.238,9.238,0,0,0-.612,3.508,9.2,9.2,0,0,0,.6,3.474,4.969,4.969,0,0,0,1.726,2.274,4.482,4.482,0,0,0,2.645.789,4.422,4.422,0,0,0,3.667-1.736A7.575,7.575,0,0,0,15.094,10.305Z" transform="translate(21.15 7.537)" fill="#ffb100"/><path d="M13.314,17.752V17.1A11.318,11.318,0,0,1,11.4,19.033a6.993,6.993,0,0,1-2.19,1.16,8.859,8.859,0,0,1-2.712.381,7,7,0,0,1-3.3-.762,5.542,5.542,0,0,1-2.254-2.1A9.274,9.274,0,0,1,0,13.073V3.028A3.273,3.273,0,0,1,.687.752,2.346,2.346,0,0,1,2.507,0,2.407,2.407,0,0,1,4.362.762a3.226,3.226,0,0,1,.706,2.266v8.113a12.464,12.464,0,0,0,.3,2.961,3.537,3.537,0,0,0,1.068,1.876,3.045,3.045,0,0,0,2.088.678,4.242,4.242,0,0,0,2.414-.762,4.437,4.437,0,0,0,1.652-1.985,15.977,15.977,0,0,0,.427-4.718V3.028A3.226,3.226,0,0,1,13.722.762,2.393,2.393,0,0,1,15.559,0a2.346,2.346,0,0,1,1.82.752,3.273,3.273,0,0,1,.687,2.276V17.714a3.137,3.137,0,0,1-.658,2.172,2.344,2.344,0,0,1-3.416-.027A3.038,3.038,0,0,1,13.314,17.752Z" transform="translate(45.176 7.537)" fill="#ffb100"/><path d="M0,7.761A6.71,6.71,0,0,1,1.133,4.186a8.735,8.735,0,0,1,3.3-3A10.424,10.424,0,0,1,9.507,0,10.812,10.812,0,0,1,14.26.993a7.7,7.7,0,0,1,3.185,2.7,6.631,6.631,0,0,1,1.124,3.713,5.754,5.754,0,0,1-.641,2.768,8.487,8.487,0,0,1-1.522,2.052q-.885.864-3.166,2.905a12.844,12.844,0,0,0-1.012,1.013,4.109,4.109,0,0,0-.567.8,3.8,3.8,0,0,0-.287.723c-.069.243-.17.666-.306,1.273A2.067,2.067,0,0,1,8.856,20.87a2.253,2.253,0,0,1-1.623-.632,2.479,2.479,0,0,1-.661-1.876,6.577,6.577,0,0,1,1.765-4.707A29.288,29.288,0,0,1,10.491,11.6q1.188-1.039,1.719-1.569a5.331,5.331,0,0,0,.89-1.179,2.85,2.85,0,0,0,.362-1.411,3.283,3.283,0,0,0-1.1-2.507,4.031,4.031,0,0,0-2.85-1.022A3.942,3.942,0,0,0,6.5,4.948,8.21,8.21,0,0,0,4.866,7.983q-.632,2.1-2.4,2.1A2.352,2.352,0,0,1,.714,9.348,2.239,2.239,0,0,1,0,7.761Zm9.061,20.35a2.925,2.925,0,0,1-1.977-.733,2.567,2.567,0,0,1-.844-2.052,2.647,2.647,0,0,1,.815-1.968,2.762,2.762,0,0,1,2.006-.8,2.726,2.726,0,0,1,2.766,2.766,2.589,2.589,0,0,1-.835,2.042A2.818,2.818,0,0,1,9.061,28.111Z" transform="translate(67.346 0)" fill="#ffb100"/></g></g></g><rect width="19" height="19" rx="4" transform="translate(467.762 2841.375) rotate(-45)" fill="#fc4848" opacity="0.19"/><rect width="11" height="11" rx="2" transform="translate(566.42 3024.65) rotate(-45)" fill="#fc4848" opacity="0.49"/><rect width="14.682" height="14.682" rx="2" transform="translate(591.814 3009.65) rotate(-45)" fill="#fc4848" opacity="0.26"/></g></svg>