<svg xmlns="http://www.w3.org/2000/svg" width="220.189" height="202.49" viewBox="0 0 220.189 202.49"><g transform="translate(-360.549 -2033.63)"><g transform="translate(-315.417 203.134) rotate(8)"><g transform="translate(940.7 1748.531)"><path d="M260.8,69.135v63.209a4.547,4.547,0,0,1-4.547,4.547H206.612a11.952,11.952,0,0,1-3.441-.5c-5.174-1.518-8.539-6.453-8.539-12.3V69.135Z" transform="translate(-194.632 -49.012)" fill="#58cc02"/><path d="M260.8,60.718v63.217H194.632V68.976a12.8,12.8,0,0,1,8.539-12.07,12.6,12.6,0,0,1,4.266-.734h48.82a4.546,4.546,0,0,1,4.547,4.547Z" transform="translate(-194.632 -56.171)" fill="#58cc02"/><rect width="53.836" height="20.627" transform="translate(8.415 63.811)" fill="#fff"/><path d="M203.171,56.644v61.32a13.809,13.809,0,0,0-8.539,12.764V68.714A12.8,12.8,0,0,1,203.171,56.644Z" transform="translate(-194.632 -55.91)" fill="#98e90b"/><path d="M202.424,98.162v19.257a10.421,10.421,0,0,1,0-19.257Z" transform="translate(-193.885 -32.981)" fill="#666161"/><path d="M205.3,56.245h49.067a4.546,4.546,0,0,1,4.547,4.539v56.2a4.546,4.546,0,0,1-4.547,4.545h-56.3V63.482A7.236,7.236,0,0,1,205.3,56.245Z" transform="translate(-192.739 -56.13)" fill="#58cc02"/></g><rect width="44.07" height="13.56" rx="2" transform="translate(954.768 1755.181)" fill="#fff" opacity="0.58"/></g><g transform="translate(-714.663 1891.904)"><g transform="translate(1125.635 174.978)"><path d="M1253.387,179.319l-50.949,9a8.61,8.61,0,0,0-6.981,9.975,8.607,8.607,0,0,0-9.967-6.982l-50.95,9a3.071,3.071,0,0,0-2.49,3.559l14.679,83.1,53.973-9.534a8.582,8.582,0,0,1,9.825,6.459l.1-.018a8.585,8.585,0,0,1,7.023-9.437l53.971-9.535-14.679-83.093a3.071,3.071,0,0,0-3.557-2.493Z" transform="translate(-1122.485 -172.854)" fill="#fff"/><path d="M1184.636,249.253l-.1.016c.041.181.114.344.145.523C1184.647,249.613,1184.657,249.434,1184.636,249.253Z" transform="translate(-1096.492 -138.226)" fill="#cfcfcf"/><path d="M1212.778,246.095a8.584,8.584,0,0,0-7.023,9.434c.021.182.01.36.04.541-.031-.182-.1-.344-.147-.522a8.577,8.577,0,0,0-9.825-6.458l-53.971,9.534,1.354,7.671a3.071,3.071,0,0,0,3.559,2.49l47.158-8.329a2.948,2.948,0,0,0-.012.444l.155.882a3.235,3.235,0,0,0,3.745,2.622l18.339-3.241a3.232,3.232,0,0,0,2.62-3.743l-.156-.883a3.031,3.031,0,0,0-.163-.413l47.164-8.332a3.073,3.073,0,0,0,2.492-3.559l-1.356-7.673Z" transform="translate(-1117.611 -144.506)" fill="#d2e4e8"/><path d="M1268.279,179.368a9.962,9.962,0,0,0-9.984-4.239l-124.429,21.98a10.019,10.019,0,0,0-8.084,11.555l16.631,94.153a9.967,9.967,0,0,0,11.547,8.085h.007l47.451-8.383a3.217,3.217,0,0,0,3.7,2.516l23.207-4.1a3.215,3.215,0,0,0,2.62-3.631l47.448-8.381a9.969,9.969,0,0,0,8.087-11.547v-.007l-16.633-94.152A9.944,9.944,0,0,0,1268.279,179.368Zm-5.156,21.673,13.014,73.664a3.071,3.071,0,0,1-2.492,3.559l-47.161,8.332a2.509,2.509,0,0,1,.163.413l.157.882a3.234,3.234,0,0,1-2.62,3.744l-18.347,3.241a3.234,3.234,0,0,1-3.745-2.62l-.156-.883a2.924,2.924,0,0,1,.012-.442l-47.157,8.331a3.07,3.07,0,0,1-3.558-2.49L1135.2,206a3.072,3.072,0,0,1,2.49-3.559l50.947-9a8.605,8.605,0,0,1,9.966,6.982,8.607,8.607,0,0,1,6.979-9.975h0l50.949-9a3.071,3.071,0,0,1,3.558,2.49Z" transform="translate(-1125.635 -174.978)" fill="#00cb7e"/><g transform="translate(25.876 12.415)"><path d="M1142.981,189.5l10.292,58.256a2.323,2.323,0,0,0,3.8,1.36l6.75-5.768a2.318,2.318,0,0,1,2.322-.41l8.317,3.106a2.326,2.326,0,0,0,2.991-1.359,2.363,2.363,0,0,0,.112-1.221l-10.29-58.254a2.328,2.328,0,0,0-2.695-1.886l-19.709,3.481A2.329,2.329,0,0,0,1142.981,189.5Z" transform="translate(-1142.946 -183.283)" fill="#ff4b4b"/></g><path d="M1182.958,193l40.591-7.171a4.223,4.223,0,0,1,4.893,3.425v0a4.22,4.22,0,0,1-3.423,4.893l-40.593,7.171a4.219,4.219,0,0,1-4.891-3.425h0A4.221,4.221,0,0,1,1182.958,193Z" transform="translate(-1098.998 -169.639)" fill="#d2e4e8"/><path d="M1189.33,227.873l20-3.532a4.223,4.223,0,0,1,4.893,3.425h0a4.22,4.22,0,0,1-3.423,4.893l-20,3.532a4.225,4.225,0,0,1-4.9-3.425h0A4.224,4.224,0,0,1,1189.33,227.873Z" transform="translate(-1095.845 -150.585)" fill="#d2e4e8"/><path d="M1185.081,204.542l32.276-5.7a4.22,4.22,0,0,1,4.892,3.423v0a4.221,4.221,0,0,1-3.423,4.893l-32.276,5.7a4.224,4.224,0,0,1-4.894-3.425h0A4.225,4.225,0,0,1,1185.081,204.542Z" transform="translate(-1097.947 -163.203)" fill="#d2e4e8"/><path d="M1187.206,217.052l40.593-7.169a4.22,4.22,0,0,1,4.891,3.425h0a4.221,4.221,0,0,1-3.423,4.894l-40.592,7.171a4.223,4.223,0,0,1-4.892-3.426h0A4.226,4.226,0,0,1,1187.206,217.052Z" transform="translate(-1096.896 -157.739)" fill="#d2e4e8"/></g><g transform="translate(1231.255 197.022)"><path d="M1225.364,250.6a24.466,24.466,0,0,1-17.46,7.269,24.727,24.727,0,1,1,24.727-24.727A24.465,24.465,0,0,1,1225.364,250.6Z" transform="translate(-1180.808 -206.043)" fill="#84d8ff" opacity="0.53"/><path d="M1190.484,232.087a2.37,2.37,0,0,1-2.356-2.135,16.192,16.192,0,0,1,4.632-13.129,2.37,2.37,0,0,1,3.352,3.351,11.466,11.466,0,0,0-3.268,9.305,2.372,2.372,0,0,1-2.123,2.595C1190.642,232.082,1190.561,232.087,1190.484,232.087Z" transform="translate(-1178.4 -202.225)" fill="#4b4b4b"/><path d="M1208.688,261.02a27.185,27.185,0,1,1,19.12-7.948A27.128,27.128,0,0,1,1208.688,261.02Zm0-49.453a22.32,22.32,0,1,0,22.356,22.356A22.381,22.381,0,0,0,1208.688,211.567Z" transform="translate(-1181.592 -206.827)" fill="#4b4b4b"/><path d="M1229.406,257.01a2.359,2.359,0,0,1-1.676-.7l-17.222-17.222a2.369,2.369,0,0,1,3.35-3.351l17.222,17.222a2.371,2.371,0,0,1-1.674,4.046Z" transform="translate(-1167.628 -192.863)" fill="#4b4b4b"/></g></g><rect width="19" height="19" rx="4" transform="translate(422.064 2047.065) rotate(-45)" fill="#00cb7e" opacity="0.19"/><rect width="11" height="11" rx="2" transform="translate(510.723 2228.342) rotate(-45)" fill="#00cb7e" opacity="0.49"/><rect width="14.682" height="14.682" rx="2" transform="translate(536.117 2213.342) rotate(-45)" fill="#00cb7e" opacity="0.26"/></g></svg>