<svg xmlns="http://www.w3.org/2000/svg" width="251.917" height="204.044" viewBox="0 0 251.917 204.044"><g transform="translate(-368.348 -2331.674)"><g transform="translate(345.677 2064.938) rotate(-13)"><path d="M124.116,325.43A35.361,35.361,0,0,0,88.8,360.75v48.164a35.32,35.32,0,1,0,70.639,0V360.75A35.362,35.362,0,0,0,124.116,325.43Z" transform="translate(-3.897)" fill="#e7e7e7"/><g transform="translate(84.899 384.832)"><path d="M88.8,405.687v11.238a35.32,35.32,0,1,0,70.639,0V392.843H88.8Z" transform="translate(-88.796 -392.843)" fill="#303030"/></g><rect width="10.204" height="10.204" rx="2" transform="translate(115.969 334.421)" fill="#afafaf"/><rect width="10.204" height="10.204" rx="2" transform="translate(107.02 353.291)" fill="#afafaf"/><rect width="10.204" height="10.204" rx="2" transform="translate(115.969 372.162)" fill="#afafaf"/><rect width="9.633" height="26.33" transform="translate(115.402 458.683)" fill="#303030"/><path d="M124.116,501.068h-30.5a4.816,4.816,0,0,0-4.816,4.816h0a4.816,4.816,0,0,0,4.816,4.816h61.007a4.816,4.816,0,0,0,4.816-4.816h0a4.816,4.816,0,0,0-4.816-4.816Z" transform="translate(-3.897 -20.872)" fill="#303030"/><path d="M166.47,391.021v25.688a44.953,44.953,0,0,1-89.905,0V391.021H66.932v25.688a54.585,54.585,0,0,0,109.171,0V391.021Z" transform="translate(-1.299 -7.795)" fill="#303030"/><rect width="128.437" height="9.633" rx="4.816" transform="translate(56 378.41)" fill="#4b4b4b"/></g><g transform="matrix(0.974, 0.225, -0.225, 0.974, 393.572, 2364.746)"><path d="M80.376,43.926V40.187A40.187,40.187,0,1,0,0,40.187C0,57.928,5.933,66.5,10.264,72.751c2.56,3.7,4.409,6.368,4.409,9.814v26.28a3.285,3.285,0,0,0,3.285,3.285H58.694a3.285,3.285,0,0,0,3.285-3.285v-6.569H77.091a3.285,3.285,0,0,0,3.285-3.285V89.136a3.285,3.285,0,0,0-1.454-2.727C77.933,85.745,76,83.876,76,82.565c0-1.2,1.707-3.007,2.926-3.843A3.285,3.285,0,0,0,80.376,76V69.425h5.476A3.285,3.285,0,0,0,88.9,64.9Z" transform="translate(-0.001)" fill="#ffb100"/></g><path d="M112.837,15.267,106.12,8.551a3.166,3.166,0,0,0-4.477,0l-6.716,6.716a3.166,3.166,0,0,0,0,4.477l6.716,6.716a3.166,3.166,0,0,0,4.477,0l6.717-6.716A3.167,3.167,0,0,0,112.837,15.267Z" transform="translate(399.211 2332.914)" fill="#ff9600" opacity="0.34"/><path d="M97.366,176.729l-6.717-6.716a3.167,3.167,0,0,0-4.477,0l-6.716,6.716a3.166,3.166,0,0,0,0,4.477l6.716,6.716a3.167,3.167,0,0,0,4.477,0l6.717-6.716A3.166,3.166,0,0,0,97.366,176.729Z" transform="translate(374.008 2346.869)" fill="#ff9600" opacity="0.38"/><path d="M84.3,5.4,79.555.655a2.234,2.234,0,0,0-3.16,0L71.655,5.4a2.235,2.235,0,0,0,0,3.16L76.4,13.3a2.234,2.234,0,0,0,3.16,0L84.3,8.555A2.234,2.234,0,0,0,84.3,5.4Z" transform="translate(395.473 2331.674)" fill="#ff9600" opacity="0.79"/></g></svg>