<svg xmlns="http://www.w3.org/2000/svg" width="79.267" height="101.5" viewBox="0 0 79.267 101.5"><g transform="translate(-1816.24 -891)"><g transform="translate(7.658 128.54)"><g transform="translate(1817.401 762.46)"><path d="M676.334-354.955s-4.72,8.011-1.546,16.821" transform="translate(-643.477 361.13)" fill="none" stroke="#1453a3" stroke-miterlimit="10" stroke-width="1.5"/><g transform="translate(0 25.572)"><path d="M667.109-267.053a26.628,26.628,0,0,1-12.879-3.313,22.5,22.5,0,0,0,13.235,4.451h7.186a22.5,22.5,0,0,0,13.235-4.451,26.631,26.631,0,0,1-12.879,3.313Z" transform="translate(-640.242 321.498)" fill="#005ad6" opacity="0.88"/><path d="M698.943-307.574a26.96,26.96,0,0,0-26.725-24.117h-7.9a26.96,26.96,0,0,0-26.725,24.117,26.726,26.726,0,0,0-.141,2.749v.712a26.933,26.933,0,0,0,13.988,23.554,26.629,26.629,0,0,0,12.879,3.313h7.9a26.632,26.632,0,0,0,12.88-3.313,26.932,26.932,0,0,0,13.987-23.554v-.712A26.726,26.726,0,0,0,698.943-307.574Z" transform="translate(-637.454 331.691)" fill="#0075d6"/></g><path d="M680.76-335.635H664.426a3.093,3.093,0,0,0-3.084,3.084,3.093,3.093,0,0,0,3.084,3.084H680.76a3.093,3.093,0,0,0,3.083-3.084A3.093,3.093,0,0,0,680.76-335.635Z" transform="translate(-641.424 357.919)" fill="#01357a"/><ellipse cx="4.955" cy="4.955" rx="4.955" ry="4.955" transform="translate(27.903 0)" fill="#01357a"/><path d="M669.437-321.879c9.674,0,17.76,6.093,19.8,14.247h5.16c-2.114-10.687-12.481-18.8-24.959-18.8s-22.845,8.116-24.959,18.8h5.159C651.676-315.786,659.763-321.879,669.437-321.879Z" transform="translate(-638.621 356.39)" fill="#fff"/><path d="M669.437-279.976c-9.674,0-17.76-6.093-19.8-14.247h-5.159c2.114,10.687,12.48,18.8,24.959,18.8s22.845-8.116,24.959-18.8h-5.16C687.2-286.069,679.11-279.976,669.437-279.976Z" transform="translate(-638.621 351.036)" fill="#fff"/><g transform="translate(12.699 45.658)"><rect width="9.84" height="13.709" rx="4.92" transform="translate(0 0.017) rotate(-0.098)" fill="#fff"/><rect width="4.777" height="7.875" rx="2.389" transform="translate(3.226 3.564) rotate(-0.097)"/><path d="M659.543-301.464a1.2,1.2,0,0,1-1.192,1.2,1.194,1.194,0,0,1-1.2-1.192,1.193,1.193,0,0,1,1.192-1.2A1.193,1.193,0,0,1,659.543-301.464Z" transform="translate(-653.927 305.73)" fill="#fff"/></g><g transform="translate(39.289 45.607)"><rect width="9.84" height="13.709" rx="4.92" transform="translate(0 0.017) rotate(-0.098)" fill="#fff"/><rect width="4.576" height="7.545" rx="2.288" transform="matrix(1, -0.002, 0.002, 1, 1.848, 3.546)"/><path d="M689-301.566a1.144,1.144,0,0,1-1.142,1.146,1.145,1.145,0,0,1-1.146-1.142,1.145,1.145,0,0,1,1.142-1.146A1.144,1.144,0,0,1,689-301.566Z" transform="translate(-684.866 305.784)" fill="#fff"/></g></g><rect width="79.267" height="28.369" rx="14.185" transform="translate(1808.582 835.591)" fill="#1453a3"/><path d="M4.2,9.19H6.216v5.8q-.14.028-.4.07a3.364,3.364,0,0,1-.539.042,1.256,1.256,0,0,1-.833-.217A.921.921,0,0,1,4.2,14.16Zm2.016,2.45H4.2V6.5l.406-.077a2.931,2.931,0,0,1,.532-.049,1.329,1.329,0,0,1,.819.2.906.906,0,0,1,.259.749ZM9.464,9.19H11.48v5.8q-.14.028-.4.07a3.364,3.364,0,0,1-.539.042,1.26,1.26,0,0,1-.826-.217.907.907,0,0,1-.252-.721Zm2.016,2.45H9.464V6.5l.406-.077a2.931,2.931,0,0,1,.532-.049,1.3,1.3,0,0,1,.819.21.929.929,0,0,1,.259.756Zm-.868-.112H5.124v-1.6h5.488Zm4.872-8.9a2.318,2.318,0,0,1,.665.1q.329.1.616.2a1.526,1.526,0,0,0,.469.1.5.5,0,0,0,.378-.133.922.922,0,0,0,.2-.329h.07a.882.882,0,0,1,.581.2.7.7,0,0,1,.245.567.835.835,0,0,1-.322.707,1.3,1.3,0,0,1-.812.245,2.438,2.438,0,0,1-.686-.1q-.336-.1-.6-.2a1.345,1.345,0,0,0-.448-.1.483.483,0,0,0-.378.14,1.028,1.028,0,0,0-.2.322h-.07a.91.91,0,0,1-.588-.2.7.7,0,0,1-.252-.581.849.849,0,0,1,.161-.532.933.933,0,0,1,.42-.308A1.549,1.549,0,0,1,15.484,2.624Zm4.55,9.03a3.9,3.9,0,0,1-.434,1.89,3.036,3.036,0,0,1-1.218,1.232,3.757,3.757,0,0,1-1.848.434,3.848,3.848,0,0,1-1.855-.427,2.979,2.979,0,0,1-1.225-1.225,3.93,3.93,0,0,1-.434-1.9,3.808,3.808,0,0,1,.441-1.883,3.081,3.081,0,0,1,1.232-1.225,3.767,3.767,0,0,1,1.841-.434,3.727,3.727,0,0,1,1.834.434,3.082,3.082,0,0,1,1.225,1.232A3.818,3.818,0,0,1,20.034,11.654Zm-3.5-2a1.323,1.323,0,0,0-1.106.525,2.366,2.366,0,0,0-.406,1.477,2.449,2.449,0,0,0,.392,1.5,1.321,1.321,0,0,0,1.12.518,1.3,1.3,0,0,0,1.1-.525,2.423,2.423,0,0,0,.4-1.491,2.4,2.4,0,0,0-.4-1.47A1.3,1.3,0,0,0,16.534,9.652Zm.658-2.534-.672-.826q-.35.406-.609.686t-.567.63a1.213,1.213,0,0,1-.714-.217.631.631,0,0,1-.266-.525.663.663,0,0,1,.133-.413,5.5,5.5,0,0,1,.371-.427l.616-.63a2.571,2.571,0,0,1,.483-.364,1.152,1.152,0,0,1,.581-.14,1.279,1.279,0,0,1,.567.126,1.834,1.834,0,0,1,.567.5L18.732,6.8a.846.846,0,0,1-.189.553.69.69,0,0,1-.567.231.72.72,0,0,1-.42-.126A1.989,1.989,0,0,1,17.192,7.118Zm7.49,4.186h1.946v1.554a.684.684,0,0,0,.259.6,1.239,1.239,0,0,0,.721.182,2.392,2.392,0,0,0,.469-.049,2.64,2.64,0,0,0,.427-.119,1.034,1.034,0,0,1,.2.287.945.945,0,0,1,.084.413.886.886,0,0,1-.385.728,2.119,2.119,0,0,1-1.267.294,2.817,2.817,0,0,1-1.8-.518A2.02,2.02,0,0,1,24.682,13ZM25.9,9.974V8.462h2.716a1.473,1.473,0,0,1,.2.742.811.811,0,0,1-.182.581.649.649,0,0,1-.49.189Zm.728,1.694H24.682V6.628a2.692,2.692,0,0,1,.371-.084,3.021,3.021,0,0,1,.511-.042,1.336,1.336,0,0,1,.805.2.846.846,0,0,1,.259.714Zm5.418-1.624V11.85H30.1V9.834a1.113,1.113,0,0,1,.182-.644,1.77,1.77,0,0,1,.5-.476,4.06,4.06,0,0,1,1.1-.427,5.727,5.727,0,0,1,1.379-.161q1.386,0,1.386.9a1.19,1.19,0,0,1-.063.392,1.716,1.716,0,0,1-.147.322q-.14-.028-.35-.049t-.434-.021a3.9,3.9,0,0,0-.875.1A2.568,2.568,0,0,0,32.046,10.044ZM30.1,11.3l1.946.056v3.626q-.126.028-.364.07a2.986,2.986,0,0,1-.518.042,1.336,1.336,0,0,1-.805-.2.846.846,0,0,1-.259-.714Zm12.082.35a3.9,3.9,0,0,1-.434,1.89,3.036,3.036,0,0,1-1.218,1.232,3.757,3.757,0,0,1-1.848.434,3.848,3.848,0,0,1-1.855-.427A2.979,2.979,0,0,1,35.6,13.558a3.93,3.93,0,0,1-.434-1.9,3.808,3.808,0,0,1,.441-1.883,3.081,3.081,0,0,1,1.232-1.225,3.767,3.767,0,0,1,1.841-.434,3.727,3.727,0,0,1,1.834.434,3.082,3.082,0,0,1,1.225,1.232A3.818,3.818,0,0,1,42.182,11.654Zm-3.514-2a1.309,1.309,0,0,0-1.092.525,2.366,2.366,0,0,0-.406,1.477,2.417,2.417,0,0,0,.4,1.5,1.325,1.325,0,0,0,1.113.518,1.3,1.3,0,0,0,1.1-.525,2.423,2.423,0,0,0,.4-1.491,2.4,2.4,0,0,0-.4-1.47A1.312,1.312,0,0,0,38.668,9.652Zm2.394.994H40.8a1.608,1.608,0,0,1-.147-.5,4.182,4.182,0,0,1-.063-.714,1.2,1.2,0,0,0,.84-.308,1.354,1.354,0,0,0,.336-1.036V7.608a2.01,2.01,0,0,1,.336-.133,1.406,1.406,0,0,1,.392-.049,1.112,1.112,0,0,1,.637.175.681.681,0,0,1,.259.609v.112A2.369,2.369,0,0,1,43.064,9.6a2.1,2.1,0,0,1-.847.784A2.518,2.518,0,0,1,41.062,10.646Zm-1.33,6.286a1.012,1.012,0,0,1-.294.735,1.046,1.046,0,0,1-.784.3,1.028,1.028,0,0,1-.77-.3,1.012,1.012,0,0,1-.294-.735,1.018,1.018,0,0,1,1.064-1.05,1.046,1.046,0,0,1,.784.3A1.029,1.029,0,0,1,39.732,16.932Z" transform="translate(1832.454 839.763)" fill="#fff"/><rect width="18" height="11" rx="5.5" transform="translate(1819 830.96)" fill="#01357a"/><rect width="18" height="11" rx="5.5" transform="translate(1860 830.96)" fill="#01357a"/></g><g transform="translate(1794.021 882.839)"><path d="M112.712,70.255l2.6,7.906a1.573,1.573,0,0,1,.077.286.664.664,0,0,1,0,.192,1.6,1.6,0,0,1-.077.286l-2.6,7.907a.773.773,0,0,1-1.469,0l-2.6-7.907a1.534,1.534,0,0,1-.077-.286.658.658,0,0,1,0-.191,1.493,1.493,0,0,1,.077-.286l2.6-7.907a.773.773,0,0,1,1.469,0Z" transform="translate(-17.662 -12.893)" fill="#fbe56d" fill-rule="evenodd"/><path d="M101.431,73.284l-6.4,2.1a.768.768,0,0,1-.482,0l-6.4-2.1a.773.773,0,0,1,0-1.469l6.4-2.1a.768.768,0,0,1,.482,0l6.4,2.1a.773.773,0,0,1,0,1.469Zm-65.8-29.438,1.238,3.771a1.591,1.591,0,0,1,.077.287.659.659,0,0,1,0,.191,1.6,1.6,0,0,1-.077.286l-1.238,3.773a.773.773,0,0,1-1.469,0L32.924,48.38a1.6,1.6,0,0,1-.077-.286.658.658,0,0,1,0-.191,1.571,1.571,0,0,1,.077-.286l1.238-3.773a.773.773,0,0,1,1.469,0Z" transform="translate(-0.477 -6.899)" fill="#fbe56d" fill-rule="evenodd"/><path d="M37.571,41.834l-2.911.956a.768.768,0,0,1-.482,0l-2.911-.956a.773.773,0,0,1,0-1.469l2.911-.956a.768.768,0,0,1,.482,0l2.911.956a.773.773,0,0,1,0,1.469ZM79.036,13.442l.918,2.793a1.572,1.572,0,0,1,.077.286.664.664,0,0,1,0,.192,1.6,1.6,0,0,1-.077.286l-.918,2.793a.773.773,0,0,1-1.469,0L76.65,17a1.6,1.6,0,0,1-.077-.286.658.658,0,0,1,0-.191,1.478,1.478,0,0,1,.077-.286l.917-2.794a.773.773,0,0,1,1.469,0Z" transform="translate(0 0)" fill="#fbe56d" fill-rule="evenodd"/><path d="M93.753,18.011l-2.086.685a.768.768,0,0,1-.482,0L89.1,18.011a.773.773,0,0,1,0-1.469l2.086-.685a.768.768,0,0,1,.482,0l2.086.685a.773.773,0,0,1,0,1.469Z" transform="translate(-13.124 -0.66)" fill="#fbe56d" fill-rule="evenodd"/></g><g transform="translate(1826 971)"><path d="M6.042-1a7.042,7.042,0,0,1,7.042,7.042,7.042,7.042,0,0,1-7.042,7.042A7.042,7.042,0,0,1-1,6.042,7.042,7.042,0,0,1,6.042-1Zm0,12.8A5.761,5.761,0,1,0,.28,6.042,5.768,5.768,0,0,0,6.042,11.8Z" transform="translate(2 2)" fill="#fff"/><path d="M10.542,11.119a.64.64,0,0,1-.2-1.248c.384-.13,1.483-.651,1.483-1.313a1.28,1.28,0,0,0-2.488-.428.64.64,0,1,1-1.208-.425A2.561,2.561,0,0,1,13.1,8.56a2.366,2.366,0,0,1-1.245,1.972,5.194,5.194,0,0,1-1.113.555A.64.64,0,0,1,10.542,11.119Z" transform="translate(-2.551 -1.797)" fill="#fff"/><path d="M0,0H0" transform="translate(8.042 11.242)" fill="none" stroke="#fff" stroke-linecap="round" stroke-width="1.5"/></g></g></svg>